<svg width="202" height="35" viewBox="0 0 202 35" fill="none" xmlns="http://www.w3.org/2000/svg">
<path d="M23.7466 16.5726C25.7596 12.5552 22.0932 8.47411 18.1067 8.93177C15.9836 9.17436 14.7385 10.755 13.6402 11.8532C11.8795 13.614 11.5552 17.1828 14.2925 19.6768C18.9156 23.3266 21.2657 19.7503 21.2657 19.7503C21.2657 19.7503 18.7391 17.2237 15.7383 14.2229M16.6357 24.4045L13.6419 27.3741L11.1678 24.9929C8.19132 22.1265 3.33771 18.5185 3.1777 14.0486C3.06586 10.9173 5.53654 8.91112 8.37885 8.94725C9.62332 8.96412 10.7488 9.28926 11.2944 9.77899" stroke="#5158BB" stroke-width="2.78185" stroke-linejoin="round"/>
<path d="M40.2798 10.4444H43.2228V21.2522C43.2228 22.6898 42.8676 23.9245 42.1572 24.9562C41.4468 26.0049 40.4151 26.8083 39.062 27.3664C37.7258 27.9246 36.119 28.2037 34.2416 28.2037L33.7342 25.4637C35.7808 25.4298 37.3284 25.0662 38.377 24.3727C39.4426 23.6793 39.9754 22.6814 39.9754 21.379V21.3283L40.4067 21.1761C40.0007 21.768 39.4426 22.2754 38.7322 22.6983C38.0218 23.1042 37.1762 23.3072 36.1952 23.3072C35.0789 23.3072 34.0979 23.0366 33.2522 22.4953C32.4065 21.9541 31.7384 21.2014 31.2479 20.2373C30.7743 19.2564 30.5376 18.1062 30.5376 16.787C30.5376 15.4677 30.7743 14.3176 31.2479 13.3366C31.7384 12.3556 32.4065 11.6029 33.2522 11.0786C34.0979 10.5374 35.0789 10.2668 36.1952 10.2668C36.7702 10.2668 37.303 10.3513 37.7935 10.5205C38.3009 10.6727 38.7407 10.8841 39.1128 11.1547C39.5018 11.4084 39.8231 11.696 40.0768 12.0173L40.2798 10.4444ZM34.0387 16.787C34.0387 17.8525 34.3093 18.7151 34.8505 19.3748C35.3918 20.0175 36.119 20.3388 37.0324 20.3388C37.5567 20.3388 38.0387 20.2035 38.4785 19.9329C38.9183 19.6454 39.2734 19.231 39.5441 18.6898C39.8316 18.1485 39.9754 17.5143 39.9754 16.787C39.9754 16.0259 39.8316 15.3831 39.5441 14.8588C39.2734 14.3345 38.9098 13.937 38.4531 13.6664C38.0134 13.3789 37.5398 13.2351 37.0324 13.2351C36.119 13.2351 35.3918 13.5649 34.8505 14.2246C34.3093 14.8673 34.0387 15.7214 34.0387 16.787ZM45.5735 4.86286H48.8209V23.1296H45.5735V4.86286ZM51.6111 10.4444H54.8585V23.1296H51.6111V10.4444ZM53.2601 8.82065C52.6513 8.82065 52.1523 8.6346 51.7633 8.2625C51.3743 7.87349 51.1798 7.39991 51.1798 6.84176C51.1798 6.28361 51.3743 5.81848 51.7633 5.44638C52.1523 5.05737 52.6513 4.86286 53.2601 4.86286C53.8352 4.86286 54.3173 5.05737 54.7063 5.44638C55.1122 5.81848 55.3152 6.28361 55.3152 6.84176C55.3152 7.39991 55.1122 7.87349 54.7063 8.2625C54.3173 8.6346 53.8352 8.82065 53.2601 8.82065ZM57.6532 10.4444H60.5962L60.8245 11.7383C61.2304 11.2816 61.7209 10.9264 62.296 10.6727C62.888 10.4021 63.5222 10.2668 64.1988 10.2668C65.1967 10.2668 66.0424 10.4782 66.7358 10.901C67.4462 11.3239 67.9874 11.9412 68.3595 12.7531C68.7485 13.548 68.943 14.5375 68.943 15.7214V23.1296H65.6703V16.1527C65.6703 15.1717 65.4757 14.436 65.0867 13.9455C64.6977 13.455 64.1142 13.2097 63.3362 13.2097C62.5412 13.2097 61.9323 13.4634 61.5095 13.9708C61.1036 14.4613 60.9006 15.1971 60.9006 16.1781V23.1296H57.6532V10.4444ZM72.0267 10.4444V6.8925H75.3249V10.4444H78.1156V13.3112H75.3249V18.4614C75.3249 19.121 75.4602 19.5862 75.7308 19.8568C76.0184 20.1274 76.3735 20.2712 76.7964 20.2881C77.2361 20.305 77.6759 20.2796 78.1156 20.212V23.0027C77.3376 23.1719 76.5765 23.2226 75.8323 23.1549C75.105 23.0873 74.4538 22.8928 73.8788 22.5714C73.3037 22.2332 72.847 21.7257 72.5088 21.0492C72.1874 20.3727 72.0267 19.5101 72.0267 18.4614V13.3112H70.2254V10.4444H72.0267Z" fill="black"/>
<path d="M94.5988 1.31482L94.5988 34.3148" stroke="black" stroke-linecap="round"/>
<path d="M120.799 13.0748H113.659V16.6348H118.999V18.8148H113.659V22.5548H120.799V24.8148H110.959V10.8148H120.799V13.0748ZM122.407 14.8148H124.727L124.907 15.8348C125.227 15.4748 125.613 15.1948 126.067 14.9948C126.533 14.7815 127.033 14.6748 127.567 14.6748C128.353 14.6748 129.02 14.8415 129.567 15.1748C130.127 15.5082 130.553 15.9948 130.847 16.6348C131.153 17.2615 131.307 18.0415 131.307 18.9748V24.8148H128.727V19.3148C128.727 18.5415 128.573 17.9615 128.267 17.5748C127.96 17.1882 127.5 16.9948 126.887 16.9948C126.26 16.9948 125.78 17.1948 125.447 17.5948C125.127 17.9815 124.967 18.5615 124.967 19.3348V24.8148H122.407V14.8148ZM133.738 14.8148V12.0148H136.338V14.8148H138.538V17.0748H136.338V21.1348C136.338 21.6548 136.444 22.0215 136.658 22.2348C136.884 22.4482 137.164 22.5615 137.498 22.5748C137.844 22.5882 138.191 22.5682 138.538 22.5148V24.7148C137.924 24.8482 137.324 24.8882 136.738 24.8348C136.164 24.7815 135.651 24.6282 135.198 24.3748C134.744 24.1082 134.384 23.7082 134.118 23.1748C133.864 22.6415 133.738 21.9615 133.738 21.1348V17.0748H132.318V14.8148H133.738ZM144.302 24.9548C143.302 24.9548 142.422 24.7348 141.662 24.2948C140.902 23.8548 140.308 23.2415 139.882 22.4548C139.468 21.6682 139.262 20.7615 139.262 19.7348C139.262 18.7482 139.468 17.8748 139.882 17.1148C140.295 16.3548 140.868 15.7615 141.602 15.3348C142.348 14.8948 143.195 14.6748 144.142 14.6748C145.102 14.6748 145.948 14.8815 146.682 15.2948C147.415 15.7082 147.982 16.2882 148.382 17.0348C148.795 17.7682 149.002 18.6282 149.002 19.6148C149.002 19.7615 148.988 19.9282 148.962 20.1148C148.948 20.2882 148.928 20.4748 148.902 20.6748H142.022C142.075 21.1015 142.208 21.4682 142.422 21.7748C142.648 22.0682 142.922 22.3015 143.242 22.4748C143.575 22.6348 143.948 22.7148 144.362 22.7148C144.855 22.7148 145.295 22.6148 145.682 22.4148C146.082 22.2015 146.368 21.9282 146.542 21.5948L148.822 22.2748C148.422 23.1282 147.822 23.7882 147.022 24.2548C146.235 24.7215 145.328 24.9548 144.302 24.9548ZM146.202 18.8148C146.188 18.4415 146.088 18.1082 145.902 17.8148C145.715 17.5082 145.468 17.2748 145.162 17.1148C144.855 16.9415 144.515 16.8548 144.142 16.8548C143.808 16.8548 143.495 16.9415 143.202 17.1148C142.908 17.2882 142.655 17.5215 142.442 17.8148C142.242 18.0948 142.108 18.4282 142.042 18.8148H146.202ZM150.353 14.8148H152.673L152.853 16.0948C153.133 15.7482 153.446 15.4682 153.793 15.2548C154.153 15.0282 154.546 14.8748 154.973 14.7948C155.4 14.7015 155.846 14.7082 156.313 14.8148V17.2148C155.953 17.0948 155.573 17.0615 155.173 17.1148C154.786 17.1682 154.42 17.3082 154.073 17.5348C153.74 17.7615 153.46 18.0882 153.233 18.5148C153.02 18.9282 152.913 19.4548 152.913 20.0948V24.8148H150.353V14.8148ZM168.936 24.9548C167.949 24.9548 167.023 24.7815 166.156 24.4348C165.289 24.0882 164.529 23.6015 163.876 22.9748C163.236 22.3348 162.729 21.5815 162.356 20.7148C161.983 19.8348 161.796 18.8682 161.796 17.8148C161.796 16.7615 161.983 15.8015 162.356 14.9348C162.729 14.0682 163.236 13.3148 163.876 12.6748C164.529 12.0348 165.289 11.5415 166.156 11.1948C167.023 10.8482 167.949 10.6748 168.936 10.6748C169.936 10.6748 170.863 10.8482 171.716 11.1948C172.583 11.5415 173.343 12.0348 173.996 12.6748C174.649 13.3148 175.156 14.0682 175.516 14.9348C175.889 15.8015 176.076 16.7615 176.076 17.8148C176.076 18.8682 175.889 19.8348 175.516 20.7148C175.156 21.5815 174.649 22.3348 173.996 22.9748C173.343 23.6015 172.583 24.0882 171.716 24.4348C170.863 24.7815 169.936 24.9548 168.936 24.9548ZM168.956 22.6548C169.796 22.6548 170.543 22.4548 171.196 22.0548C171.863 21.6415 172.383 21.0748 172.756 20.3548C173.143 19.6348 173.336 18.7882 173.336 17.8148C173.336 16.8415 173.143 15.9948 172.756 15.2748C172.383 14.5548 171.863 13.9948 171.196 13.5948C170.543 13.1815 169.796 12.9748 168.956 12.9748C168.089 12.9748 167.323 13.1815 166.656 13.5948C166.003 13.9948 165.489 14.5548 165.116 15.2748C164.743 15.9948 164.556 16.8415 164.556 17.8148C164.556 18.7748 164.743 19.6215 165.116 20.3548C165.489 21.0882 166.003 21.6548 166.656 22.0548C167.323 22.4548 168.089 22.6548 168.956 22.6548ZM176.821 10.8148H188.181V13.0748H183.861V24.8148H181.161V13.0748H176.821V10.8148ZM195.276 17.2148C195.81 17.2148 196.25 17.1348 196.596 16.9748C196.943 16.8015 197.196 16.5615 197.356 16.2548C197.53 15.9348 197.616 15.5615 197.616 15.1348C197.616 14.4815 197.423 13.9748 197.036 13.6148C196.663 13.2548 196.076 13.0748 195.276 13.0748H192.296V17.2148H195.276ZM200.376 15.1348C200.376 15.6548 200.283 16.1748 200.096 16.6948C199.91 17.2015 199.616 17.6682 199.216 18.0948C198.816 18.5082 198.296 18.8415 197.656 19.0948C197.03 19.3482 196.263 19.4748 195.356 19.4748H192.296V24.8148H189.596V10.8148H195.356C196.49 10.8148 197.423 11.0148 198.156 11.4148C198.903 11.8015 199.456 12.3282 199.816 12.9948C200.19 13.6482 200.376 14.3615 200.376 15.1348Z" fill="#5158BB"/>
</svg>
