<svg width="260" height="35" viewBox="0 0 260 35" fill="none" xmlns="http://www.w3.org/2000/svg">
<path d="M23.7466 16.5726C25.7596 12.5552 22.0932 8.47411 18.1067 8.93177C15.9836 9.17436 14.7385 10.755 13.6403 11.8532C11.8795 13.614 11.5552 17.1828 14.2926 19.6768C18.9156 23.3266 21.2658 19.7503 21.2658 19.7503C21.2658 19.7503 18.7392 17.2237 15.7384 14.2229M16.6357 24.4045L13.642 27.3741L11.1679 24.9929C8.19135 22.1265 3.33774 18.5185 3.17773 14.0486C3.06589 10.9173 5.53657 8.91112 8.37888 8.94725C9.62335 8.96412 10.7488 9.28926 11.2944 9.77899" stroke="#5158BB" stroke-width="2.78185" stroke-linejoin="round"/>
<path d="M40.2798 10.4444H43.2227V21.2522C43.2227 22.6898 42.8676 23.9245 42.1572 24.9562C41.4468 26.0049 40.4151 26.8083 39.062 27.3664C37.7258 27.9246 36.119 28.2037 34.2416 28.2037L33.7342 25.4637C35.7807 25.4298 37.3283 25.0662 38.377 24.3727C39.4425 23.6793 39.9753 22.6814 39.9753 21.379V21.3283L40.4066 21.1761C40.0007 21.768 39.4425 22.2754 38.7322 22.6983C38.0218 23.1042 37.1761 23.3072 36.1951 23.3072C35.0788 23.3072 34.0978 23.0366 33.2522 22.4953C32.4065 21.9541 31.7384 21.2014 31.2479 20.2373C30.7743 19.2564 30.5375 18.1062 30.5375 16.787C30.5375 15.4677 30.7743 14.3176 31.2479 13.3366C31.7384 12.3556 32.4065 11.6029 33.2522 11.0786C34.0978 10.5374 35.0788 10.2668 36.1951 10.2668C36.7702 10.2668 37.303 10.3513 37.7935 10.5205C38.3009 10.6727 38.7406 10.8841 39.1127 11.1547C39.5017 11.4084 39.8231 11.696 40.0768 12.0173L40.2798 10.4444ZM34.0386 16.787C34.0386 17.8525 34.3093 18.7151 34.8505 19.3748C35.3917 20.0175 36.119 20.3388 37.0324 20.3388C37.5567 20.3388 38.0387 20.2035 38.4785 19.9329C38.9182 19.6454 39.2734 19.231 39.544 18.6898C39.8316 18.1485 39.9753 17.5143 39.9753 16.787C39.9753 16.0259 39.8316 15.3831 39.544 14.8588C39.2734 14.3345 38.9098 13.937 38.4531 13.6664C38.0133 13.3789 37.5398 13.2351 37.0324 13.2351C36.119 13.2351 35.3917 13.5649 34.8505 14.2246C34.3093 14.8673 34.0386 15.7214 34.0386 16.787ZM45.5735 4.86286H48.8209V23.1296H45.5735V4.86286ZM51.611 10.4444H54.8585V23.1296H51.611V10.4444ZM53.2601 8.82065C52.6512 8.82065 52.1523 8.6346 51.7633 8.2625C51.3742 7.87349 51.1797 7.39991 51.1797 6.84176C51.1797 6.28361 51.3742 5.81848 51.7633 5.44638C52.1523 5.05737 52.6512 4.86286 53.2601 4.86286C53.8352 4.86286 54.3172 5.05737 54.7062 5.44638C55.1122 5.81848 55.3151 6.28361 55.3151 6.84176C55.3151 7.39991 55.1122 7.87349 54.7062 8.2625C54.3172 8.6346 53.8352 8.82065 53.2601 8.82065ZM57.6532 10.4444H60.5961L60.8245 11.7383C61.2304 11.2816 61.7209 10.9264 62.296 10.6727C62.8879 10.4021 63.5222 10.2668 64.1987 10.2668C65.1966 10.2668 66.0423 10.4782 66.7358 10.901C67.4462 11.3239 67.9874 11.9412 68.3595 12.7531C68.7485 13.548 68.943 14.5375 68.943 15.7214V23.1296H65.6702V16.1527C65.6702 15.1717 65.4757 14.436 65.0867 13.9455C64.6977 13.455 64.1142 13.2097 63.3361 13.2097C62.5412 13.2097 61.9323 13.4634 61.5095 13.9708C61.1035 14.4613 60.9006 15.1971 60.9006 16.1781V23.1296H57.6532V10.4444ZM72.0267 10.4444V6.8925H75.3249V10.4444H78.1156V13.3112H75.3249V18.4614C75.3249 19.121 75.4602 19.5862 75.7308 19.8568C76.0183 20.1274 76.3735 20.2712 76.7964 20.2881C77.2361 20.305 77.6759 20.2796 78.1156 20.212V23.0027C77.3376 23.1719 76.5765 23.2226 75.8323 23.1549C75.105 23.0873 74.4538 22.8928 73.8787 22.5714C73.3037 22.2332 72.847 21.7257 72.5087 21.0492C72.1874 20.3727 72.0267 19.5101 72.0267 18.4614V13.3112H70.2254V10.4444H72.0267Z" fill="black"/>
<path d="M94.5988 1.31482L94.5988 34.3148" stroke="black" stroke-linecap="round"/>
<path d="M110.279 17.8148C110.279 16.7615 110.459 15.8015 110.819 14.9348C111.179 14.0548 111.679 13.3015 112.319 12.6748C112.959 12.0348 113.705 11.5415 114.559 11.1948C115.425 10.8482 116.359 10.6748 117.359 10.6748C118.799 10.6748 120.072 11.0215 121.179 11.7148C122.299 12.3948 123.139 13.3748 123.699 14.6548L121.439 15.3148C121.145 14.7548 120.779 14.3015 120.339 13.9548C119.912 13.6082 119.445 13.3548 118.939 13.1948C118.432 13.0348 117.919 12.9548 117.399 12.9548C116.545 12.9548 115.785 13.1615 115.119 13.5748C114.452 13.9748 113.932 14.5415 113.559 15.2748C113.199 16.0082 113.019 16.8548 113.019 17.8148C113.019 18.7748 113.199 19.6215 113.559 20.3548C113.932 21.0748 114.452 21.6415 115.119 22.0548C115.785 22.4682 116.545 22.6748 117.399 22.6748C117.932 22.6748 118.459 22.5948 118.979 22.4348C119.512 22.2615 120.005 21.9748 120.459 21.5748C120.912 21.1748 121.299 20.6415 121.619 19.9748L123.839 20.5948C123.265 22.0482 122.412 23.1415 121.279 23.8748C120.145 24.5948 118.839 24.9548 117.359 24.9548C116.359 24.9548 115.425 24.7815 114.559 24.4348C113.705 24.0882 112.959 23.5948 112.319 22.9548C111.679 22.3148 111.179 21.5615 110.819 20.6948C110.459 19.8148 110.279 18.8548 110.279 17.8148ZM125.376 14.8148H127.696L127.876 16.0948C128.156 15.7482 128.469 15.4682 128.816 15.2548C129.176 15.0282 129.569 14.8748 129.996 14.7948C130.422 14.7015 130.869 14.7082 131.336 14.8148V17.2148C130.976 17.0948 130.596 17.0615 130.196 17.1148C129.809 17.1682 129.442 17.3082 129.096 17.5348C128.762 17.7615 128.482 18.0882 128.256 18.5148C128.042 18.9282 127.936 19.4548 127.936 20.0948V24.8148H125.376V14.8148ZM136.913 24.9548C135.913 24.9548 135.033 24.7348 134.273 24.2948C133.513 23.8548 132.92 23.2415 132.493 22.4548C132.08 21.6682 131.873 20.7615 131.873 19.7348C131.873 18.7482 132.08 17.8748 132.493 17.1148C132.907 16.3548 133.48 15.7615 134.213 15.3348C134.96 14.8948 135.807 14.6748 136.753 14.6748C137.713 14.6748 138.56 14.8815 139.293 15.2948C140.027 15.7082 140.593 16.2882 140.993 17.0348C141.407 17.7682 141.613 18.6282 141.613 19.6148C141.613 19.7615 141.6 19.9282 141.573 20.1148C141.56 20.2882 141.54 20.4748 141.513 20.6748H134.633C134.687 21.1015 134.82 21.4682 135.033 21.7748C135.26 22.0682 135.533 22.3015 135.853 22.4748C136.187 22.6348 136.56 22.7148 136.973 22.7148C137.467 22.7148 137.907 22.6148 138.293 22.4148C138.693 22.2015 138.98 21.9282 139.153 21.5948L141.433 22.2748C141.033 23.1282 140.433 23.7882 139.633 24.2548C138.847 24.7215 137.94 24.9548 136.913 24.9548ZM138.813 18.8148C138.8 18.4415 138.7 18.1082 138.513 17.8148C138.327 17.5082 138.08 17.2748 137.773 17.1148C137.467 16.9415 137.127 16.8548 136.753 16.8548C136.42 16.8548 136.107 16.9415 135.813 17.1148C135.52 17.2882 135.267 17.5215 135.053 17.8148C134.853 18.0948 134.72 18.4282 134.653 18.8148H138.813ZM148.845 24.8148L148.645 23.5948C148.311 24.0082 147.931 24.3348 147.505 24.5748C147.091 24.8148 146.531 24.9348 145.825 24.9348C145.158 24.9348 144.571 24.8215 144.065 24.5948C143.571 24.3548 143.185 24.0282 142.905 23.6148C142.625 23.1882 142.485 22.6882 142.485 22.1148C142.485 21.2748 142.785 20.5815 143.385 20.0348C143.998 19.4748 144.918 19.1215 146.145 18.9748L148.645 18.6948V17.9948C148.645 17.7148 148.518 17.4548 148.265 17.2148C148.011 16.9748 147.611 16.8548 147.065 16.8548C146.585 16.8548 146.165 16.9748 145.805 17.2148C145.458 17.4415 145.225 17.7882 145.105 18.2548L142.905 17.4548C143.171 16.5615 143.678 15.8748 144.425 15.3948C145.171 14.9148 146.091 14.6748 147.185 14.6748C148.518 14.6748 149.518 15.0082 150.185 15.6748C150.865 16.3282 151.205 17.1948 151.205 18.2748V24.8148H148.845ZM148.645 20.4748L146.485 20.7548C146.045 20.8082 145.711 20.9415 145.485 21.1548C145.258 21.3548 145.145 21.6015 145.145 21.8948C145.145 22.1748 145.258 22.4148 145.485 22.6148C145.711 22.8015 146.031 22.8948 146.445 22.8948C146.911 22.8948 147.305 22.8082 147.625 22.6348C147.958 22.4615 148.211 22.2082 148.385 21.8748C148.558 21.5415 148.645 21.1282 148.645 20.6348V20.4748ZM153.671 14.8148V12.0148H156.271V14.8148H158.471V17.0748H156.271V21.1348C156.271 21.6548 156.377 22.0215 156.591 22.2348C156.817 22.4482 157.097 22.5615 157.431 22.5748C157.777 22.5882 158.124 22.5682 158.471 22.5148V24.7148C157.857 24.8482 157.257 24.8882 156.671 24.8348C156.097 24.7815 155.584 24.6282 155.131 24.3748C154.677 24.1082 154.317 23.7082 154.051 23.1748C153.797 22.6415 153.671 21.9615 153.671 21.1348V17.0748H152.251V14.8148H153.671ZM164.234 24.9548C163.234 24.9548 162.354 24.7348 161.594 24.2948C160.834 23.8548 160.241 23.2415 159.814 22.4548C159.401 21.6682 159.194 20.7615 159.194 19.7348C159.194 18.7482 159.401 17.8748 159.814 17.1148C160.228 16.3548 160.801 15.7615 161.534 15.3348C162.281 14.8948 163.128 14.6748 164.074 14.6748C165.034 14.6748 165.881 14.8815 166.614 15.2948C167.348 15.7082 167.914 16.2882 168.314 17.0348C168.728 17.7682 168.934 18.6282 168.934 19.6148C168.934 19.7615 168.921 19.9282 168.894 20.1148C168.881 20.2882 168.861 20.4748 168.834 20.6748H161.954C162.008 21.1015 162.141 21.4682 162.354 21.7748C162.581 22.0682 162.854 22.3015 163.174 22.4748C163.508 22.6348 163.881 22.7148 164.294 22.7148C164.788 22.7148 165.228 22.6148 165.614 22.4148C166.014 22.2015 166.301 21.9282 166.474 21.5948L168.754 22.2748C168.354 23.1282 167.754 23.7882 166.954 24.2548C166.168 24.7215 165.261 24.9548 164.234 24.9548ZM166.134 18.8148C166.121 18.4415 166.021 18.1082 165.834 17.8148C165.648 17.5082 165.401 17.2748 165.094 17.1148C164.788 16.9415 164.448 16.8548 164.074 16.8548C163.741 16.8548 163.428 16.9415 163.134 17.1148C162.841 17.2882 162.588 17.5215 162.374 17.8148C162.174 18.0948 162.041 18.4282 161.974 18.8148H166.134ZM181.091 17.2148C181.624 17.2148 182.064 17.1348 182.411 16.9748C182.758 16.8015 183.011 16.5615 183.171 16.2548C183.344 15.9348 183.431 15.5615 183.431 15.1348C183.431 14.4815 183.238 13.9748 182.851 13.6148C182.478 13.2548 181.891 13.0748 181.091 13.0748H178.111V17.2148H181.091ZM186.191 15.1348C186.191 15.6548 186.098 16.1748 185.911 16.6948C185.724 17.2015 185.431 17.6682 185.031 18.0948C184.631 18.5082 184.111 18.8415 183.471 19.0948C182.844 19.3482 182.078 19.4748 181.171 19.4748H178.111V24.8148H175.411V10.8148H181.171C182.304 10.8148 183.238 11.0148 183.971 11.4148C184.718 11.8015 185.271 12.3282 185.631 12.9948C186.004 13.6482 186.191 14.3615 186.191 15.1348ZM193.384 24.8148L193.184 23.5948C192.85 24.0082 192.47 24.3348 192.044 24.5748C191.63 24.8148 191.07 24.9348 190.364 24.9348C189.697 24.9348 189.11 24.8215 188.604 24.5948C188.11 24.3548 187.724 24.0282 187.444 23.6148C187.164 23.1882 187.024 22.6882 187.024 22.1148C187.024 21.2748 187.324 20.5815 187.924 20.0348C188.537 19.4748 189.457 19.1215 190.684 18.9748L193.184 18.6948V17.9948C193.184 17.7148 193.057 17.4548 192.804 17.2148C192.55 16.9748 192.15 16.8548 191.604 16.8548C191.124 16.8548 190.704 16.9748 190.344 17.2148C189.997 17.4415 189.764 17.7882 189.644 18.2548L187.444 17.4548C187.71 16.5615 188.217 15.8748 188.964 15.3948C189.71 14.9148 190.63 14.6748 191.724 14.6748C193.057 14.6748 194.057 15.0082 194.724 15.6748C195.404 16.3282 195.744 17.1948 195.744 18.2748V24.8148H193.384ZM193.184 20.4748L191.024 20.7548C190.584 20.8082 190.25 20.9415 190.024 21.1548C189.797 21.3548 189.684 21.6015 189.684 21.8948C189.684 22.1748 189.797 22.4148 190.024 22.6148C190.25 22.8015 190.57 22.8948 190.984 22.8948C191.45 22.8948 191.844 22.8082 192.164 22.6348C192.497 22.4615 192.75 22.2082 192.924 21.8748C193.097 21.5415 193.184 21.1282 193.184 20.6348V20.4748ZM199.29 21.5548C199.37 21.8882 199.503 22.1415 199.69 22.3148C199.89 22.4882 200.11 22.6148 200.35 22.6948C200.603 22.7615 200.856 22.7948 201.11 22.7948C201.576 22.7948 201.943 22.7082 202.21 22.5348C202.476 22.3482 202.61 22.1148 202.61 21.8348C202.61 21.5948 202.516 21.4082 202.33 21.2748C202.143 21.1282 201.903 21.0215 201.61 20.9548C201.316 20.8748 201.016 20.7948 200.71 20.7148C200.35 20.6215 199.963 20.5215 199.55 20.4148C199.15 20.2948 198.77 20.1282 198.41 19.9148C198.05 19.7015 197.75 19.4282 197.51 19.0948C197.27 18.7482 197.15 18.3148 197.15 17.7948C197.15 17.1815 197.316 16.6415 197.65 16.1748C197.996 15.7082 198.47 15.3415 199.07 15.0748C199.683 14.8082 200.39 14.6748 201.19 14.6748C202.136 14.6748 202.936 14.8748 203.59 15.2748C204.243 15.6748 204.716 16.2482 205.01 16.9948L202.75 17.6348C202.683 17.4482 202.57 17.2948 202.41 17.1748C202.25 17.0548 202.056 16.9682 201.83 16.9148C201.616 16.8615 201.396 16.8348 201.17 16.8348C200.783 16.8348 200.463 16.9148 200.21 17.0748C199.956 17.2215 199.83 17.4282 199.83 17.6948C199.83 17.8548 199.876 17.9882 199.97 18.0948C200.063 18.1882 200.19 18.2682 200.35 18.3348C200.523 18.4015 200.716 18.4615 200.93 18.5148C201.156 18.5682 201.403 18.6282 201.67 18.6948C202.083 18.8015 202.496 18.9282 202.91 19.0748C203.336 19.2082 203.723 19.3815 204.07 19.5948C204.43 19.8082 204.716 20.0948 204.93 20.4548C205.143 20.8148 205.263 21.2682 205.29 21.8148C205.29 22.4015 205.123 22.9348 204.79 23.4148C204.456 23.8815 203.976 24.2548 203.35 24.5348C202.723 24.8148 201.963 24.9548 201.07 24.9548C200.03 24.9548 199.143 24.7348 198.41 24.2948C197.69 23.8548 197.216 23.1682 196.99 22.2348L199.29 21.5548ZM208.455 21.5548C208.535 21.8882 208.669 22.1415 208.855 22.3148C209.055 22.4882 209.275 22.6148 209.515 22.6948C209.769 22.7615 210.022 22.7948 210.275 22.7948C210.742 22.7948 211.109 22.7082 211.375 22.5348C211.642 22.3482 211.775 22.1148 211.775 21.8348C211.775 21.5948 211.682 21.4082 211.495 21.2748C211.309 21.1282 211.069 21.0215 210.775 20.9548C210.482 20.8748 210.182 20.7948 209.875 20.7148C209.515 20.6215 209.129 20.5215 208.715 20.4148C208.315 20.2948 207.935 20.1282 207.575 19.9148C207.215 19.7015 206.915 19.4282 206.675 19.0948C206.435 18.7482 206.315 18.3148 206.315 17.7948C206.315 17.1815 206.482 16.6415 206.815 16.1748C207.162 15.7082 207.635 15.3415 208.235 15.0748C208.849 14.8082 209.555 14.6748 210.355 14.6748C211.302 14.6748 212.102 14.8748 212.755 15.2748C213.409 15.6748 213.882 16.2482 214.175 16.9948L211.915 17.6348C211.849 17.4482 211.735 17.2948 211.575 17.1748C211.415 17.0548 211.222 16.9682 210.995 16.9148C210.782 16.8615 210.562 16.8348 210.335 16.8348C209.949 16.8348 209.629 16.9148 209.375 17.0748C209.122 17.2215 208.995 17.4282 208.995 17.6948C208.995 17.8548 209.042 17.9882 209.135 18.0948C209.229 18.1882 209.355 18.2682 209.515 18.3348C209.689 18.4015 209.882 18.4615 210.095 18.5148C210.322 18.5682 210.569 18.6282 210.835 18.6948C211.249 18.8015 211.662 18.9282 212.075 19.0748C212.502 19.2082 212.889 19.3815 213.235 19.5948C213.595 19.8082 213.882 20.0948 214.095 20.4548C214.309 20.8148 214.429 21.2682 214.455 21.8148C214.455 22.4015 214.289 22.9348 213.955 23.4148C213.622 23.8815 213.142 24.2548 212.515 24.5348C211.889 24.8148 211.129 24.9548 210.235 24.9548C209.195 24.9548 208.309 24.7348 207.575 24.2948C206.855 23.8548 206.382 23.1682 206.155 22.2348L208.455 21.5548ZM220.581 24.8148H217.961L215.001 14.8148H217.641L219.301 21.5748L221.061 14.8148H223.621L225.321 21.5748L226.961 14.8148H229.581L226.621 24.8148H223.941L222.281 18.5348L220.581 24.8148ZM235.151 24.9548C234.178 24.9548 233.311 24.7482 232.551 24.3348C231.791 23.9082 231.191 23.3148 230.751 22.5548C230.325 21.7815 230.111 20.8748 230.111 19.8348C230.111 18.7815 230.331 17.8682 230.771 17.0948C231.225 16.3215 231.838 15.7282 232.611 15.3148C233.385 14.8882 234.251 14.6748 235.211 14.6748C236.171 14.6748 237.038 14.8882 237.811 15.3148C238.585 15.7282 239.198 16.3215 239.651 17.0948C240.105 17.8548 240.331 18.7548 240.331 19.7948C240.331 20.8482 240.098 21.7615 239.631 22.5348C239.178 23.3082 238.558 23.9082 237.771 24.3348C236.998 24.7482 236.125 24.9548 235.151 24.9548ZM235.131 22.6548C235.545 22.6548 235.938 22.5548 236.311 22.3548C236.685 22.1415 236.991 21.8282 237.231 21.4148C237.471 20.9882 237.591 20.4482 237.591 19.7948C237.591 19.1682 237.478 18.6482 237.251 18.2348C237.025 17.8082 236.725 17.4948 236.351 17.2948C235.991 17.0815 235.598 16.9748 235.171 16.9748C234.758 16.9748 234.371 17.0815 234.011 17.2948C233.665 17.4948 233.385 17.8082 233.171 18.2348C232.971 18.6482 232.871 19.1815 232.871 19.8348C232.871 20.4615 232.971 20.9882 233.171 21.4148C233.371 21.8282 233.645 22.1415 233.991 22.3548C234.338 22.5548 234.718 22.6548 235.131 22.6548ZM241.691 14.8148H244.011L244.191 16.0948C244.471 15.7482 244.784 15.4682 245.131 15.2548C245.491 15.0282 245.884 14.8748 246.311 14.7948C246.738 14.7015 247.184 14.7082 247.651 14.8148V17.2148C247.291 17.0948 246.911 17.0615 246.511 17.1148C246.124 17.1682 245.758 17.3082 245.411 17.5348C245.078 17.7615 244.798 18.0882 244.571 18.5148C244.358 18.9282 244.251 19.4548 244.251 20.0948V24.8148H241.691V14.8148ZM255.949 16.3148L255.629 16.3548V10.4148H258.189V24.8148H255.869L255.709 23.5748C255.389 23.9482 254.962 24.2748 254.429 24.5548C253.909 24.8215 253.302 24.9548 252.609 24.9548C251.742 24.9548 250.975 24.7415 250.309 24.3148C249.642 23.8882 249.122 23.2948 248.749 22.5348C248.375 21.7615 248.189 20.8548 248.189 19.8148C248.189 18.7748 248.375 17.8682 248.749 17.0948C249.122 16.3215 249.642 15.7282 250.309 15.3148C250.975 14.8882 251.742 14.6748 252.609 14.6748C253.395 14.6748 254.069 14.8348 254.629 15.1548C255.202 15.4748 255.642 15.8615 255.949 16.3148ZM250.949 19.8148C250.949 20.6548 251.162 21.3348 251.589 21.8548C252.015 22.3615 252.575 22.6148 253.269 22.6148C253.695 22.6148 254.082 22.5082 254.429 22.2948C254.789 22.0682 255.075 21.7482 255.289 21.3348C255.515 20.9215 255.629 20.4148 255.629 19.8148C255.629 19.2148 255.515 18.7082 255.289 18.2948C255.075 17.8815 254.789 17.5682 254.429 17.3548C254.082 17.1282 253.695 17.0148 253.269 17.0148C252.575 17.0148 252.015 17.2748 251.589 17.7948C251.162 18.3015 250.949 18.9748 250.949 19.8148Z" fill="#5158BB"/>
</svg>
