<svg width="160" height="35" viewBox="0 0 160 35" fill="none" xmlns="http://www.w3.org/2000/svg">
<path d="M24.2466 16.5727C26.2596 12.5553 22.5932 8.47417 18.6067 8.93183C16.4836 9.17443 15.2385 10.755 14.1403 11.8533C12.3795 13.614 12.0552 17.1828 14.7926 19.6769C19.4156 23.3266 21.7658 19.7504 21.7658 19.7504C21.7658 19.7504 19.2392 17.2238 16.2384 14.223M17.1357 24.4045L14.142 27.3742L11.6679 24.993C8.69135 22.1266 3.83774 18.5186 3.67773 14.0487C3.56589 10.9173 6.03657 8.91118 8.87888 8.94732C10.1233 8.96418 11.2488 9.28932 11.7944 9.77905" stroke="#5158BB" stroke-width="2.78185" stroke-linejoin="round"/>
<path d="M40.7798 10.4444H43.7228V21.2522C43.7228 22.6899 43.3676 23.9245 42.6572 24.9563C41.9469 26.0049 40.9151 26.8083 39.5621 27.3665C38.2259 27.9246 36.6191 28.2037 34.7417 28.2037L34.2343 25.4637C36.2808 25.4299 37.8284 25.0662 38.877 24.3728C39.9426 23.6793 40.4754 22.6814 40.4754 21.379V21.3283L40.9067 21.1761C40.5008 21.7681 39.9426 22.2755 39.2322 22.6983C38.5219 23.1042 37.6762 23.3072 36.6952 23.3072C35.5789 23.3072 34.5979 23.0366 33.7522 22.4953C32.9065 21.9541 32.2385 21.2015 31.748 20.2374C31.2744 19.2564 31.0376 18.1063 31.0376 16.787C31.0376 15.4677 31.2744 14.3176 31.748 13.3366C32.2385 12.3556 32.9065 11.603 33.7522 11.0787C34.5979 10.5374 35.5789 10.2668 36.6952 10.2668C37.2703 10.2668 37.803 10.3514 38.2935 10.5205C38.8009 10.6727 39.2407 10.8841 39.6128 11.1548C40.0018 11.4085 40.3232 11.696 40.5769 12.0174L40.7798 10.4444ZM34.5387 16.787C34.5387 17.8526 34.8093 18.7152 35.3506 19.3748C35.8918 20.0175 36.6191 20.3389 37.5324 20.3389C38.0567 20.3389 38.5388 20.2036 38.9785 19.9329C39.4183 19.6454 39.7735 19.231 40.0441 18.6898C40.3316 18.1485 40.4754 17.5143 40.4754 16.787C40.4754 16.0259 40.3316 15.3832 40.0441 14.8588C39.7735 14.3345 39.4098 13.9371 38.9532 13.6664C38.5134 13.3789 38.0398 13.2351 37.5324 13.2351C36.6191 13.2351 35.8918 13.565 35.3506 14.2246C34.8093 14.8673 34.5387 15.7214 34.5387 16.787ZM46.0735 4.86289H49.3209V23.1296H46.0735V4.86289ZM52.1111 10.4444H55.3585V23.1296H52.1111V10.4444ZM53.7602 8.82068C53.1513 8.82068 52.6523 8.63463 52.2633 8.26253C51.8743 7.87352 51.6798 7.39994 51.6798 6.84179C51.6798 6.28364 51.8743 5.81851 52.2633 5.44641C52.6523 5.0574 53.1513 4.86289 53.7602 4.86289C54.3352 4.86289 54.8173 5.0574 55.2063 5.44641C55.6122 5.81851 55.8152 6.28364 55.8152 6.84179C55.8152 7.39994 55.6122 7.87352 55.2063 8.26253C54.8173 8.63463 54.3352 8.82068 53.7602 8.82068ZM58.1532 10.4444H61.0962L61.3245 11.7383C61.7305 11.2816 62.221 10.9264 62.796 10.6727C63.388 10.4021 64.0223 10.2668 64.6988 10.2668C65.6967 10.2668 66.5424 10.4782 67.2358 10.9011C67.9462 11.3239 68.4875 11.9412 68.8596 12.7531C69.2486 13.548 69.4431 14.5375 69.4431 15.7214V23.1296H66.1703V16.1527C66.1703 15.1717 65.9758 14.436 65.5868 13.9455C65.1978 13.455 64.6142 13.2098 63.8362 13.2098C63.0413 13.2098 62.4324 13.4635 62.0095 13.9709C61.6036 14.4614 61.4006 15.1971 61.4006 16.1781V23.1296H58.1532V10.4444ZM72.5268 10.4444V6.89253H75.8249V10.4444H78.6157V13.3112H75.8249V18.4614C75.8249 19.1211 75.9602 19.5862 76.2309 19.8568C76.5184 20.1274 76.8736 20.2712 77.2964 20.2881C77.7362 20.305 78.1759 20.2797 78.6157 20.212V23.0028C77.8376 23.1719 77.0765 23.2226 76.3323 23.155C75.605 23.0873 74.9539 22.8928 74.3788 22.5715C73.8037 22.2332 73.3471 21.7258 73.0088 21.0492C72.6874 20.3727 72.5268 19.5101 72.5268 18.4614V13.3112H70.7255V10.4444H72.5268Z" fill="black"/>
<path d="M95.0989 1.31482L95.0989 34.3148" stroke="black" stroke-linecap="round"/>
<path d="M114.159 10.8148V22.5548H120.399V24.8148H111.459V10.8148H114.159ZM126.021 24.9548C125.048 24.9548 124.181 24.7482 123.421 24.3348C122.661 23.9082 122.061 23.3148 121.621 22.5548C121.194 21.7815 120.981 20.8748 120.981 19.8348C120.981 18.7815 121.201 17.8682 121.641 17.0948C122.094 16.3215 122.708 15.7282 123.481 15.3148C124.254 14.8882 125.121 14.6748 126.081 14.6748C127.041 14.6748 127.908 14.8882 128.681 15.3148C129.454 15.7282 130.068 16.3215 130.521 17.0948C130.974 17.8548 131.201 18.7548 131.201 19.7948C131.201 20.8482 130.968 21.7615 130.501 22.5348C130.048 23.3082 129.428 23.9082 128.641 24.3348C127.868 24.7482 126.994 24.9548 126.021 24.9548ZM126.001 22.6548C126.414 22.6548 126.808 22.5548 127.181 22.3548C127.554 22.1415 127.861 21.8282 128.101 21.4148C128.341 20.9882 128.461 20.4482 128.461 19.7948C128.461 19.1682 128.348 18.6482 128.121 18.2348C127.894 17.8082 127.594 17.4948 127.221 17.2948C126.861 17.0815 126.468 16.9748 126.041 16.9748C125.628 16.9748 125.241 17.0815 124.881 17.2948C124.534 17.4948 124.254 17.8082 124.041 18.2348C123.841 18.6482 123.741 19.1815 123.741 19.8348C123.741 20.4615 123.841 20.9882 124.041 21.4148C124.241 21.8282 124.514 22.1415 124.861 22.3548C125.208 22.5548 125.588 22.6548 126.001 22.6548ZM139.741 14.8148H142.061V23.3348C142.061 24.4682 141.781 25.4415 141.221 26.2548C140.661 27.0815 139.847 27.7148 138.781 28.1548C137.727 28.5948 136.461 28.8148 134.981 28.8148L134.581 26.6548C136.194 26.6282 137.414 26.3415 138.241 25.7948C139.081 25.2482 139.501 24.4615 139.501 23.4348V23.3948L139.841 23.2748C139.521 23.7415 139.081 24.1415 138.521 24.4748C137.961 24.7948 137.294 24.9548 136.521 24.9548C135.641 24.9548 134.867 24.7415 134.201 24.3148C133.534 23.8882 133.007 23.2948 132.621 22.5348C132.247 21.7615 132.061 20.8548 132.061 19.8148C132.061 18.7748 132.247 17.8682 132.621 17.0948C133.007 16.3215 133.534 15.7282 134.201 15.3148C134.867 14.8882 135.641 14.6748 136.521 14.6748C136.974 14.6748 137.394 14.7415 137.781 14.8748C138.181 14.9948 138.527 15.1615 138.821 15.3748C139.127 15.5748 139.381 15.8015 139.581 16.0548L139.741 14.8148ZM134.821 19.8148C134.821 20.6548 135.034 21.3348 135.461 21.8548C135.887 22.3615 136.461 22.6148 137.181 22.6148C137.594 22.6148 137.974 22.5082 138.321 22.2948C138.667 22.0682 138.947 21.7415 139.161 21.3148C139.387 20.8882 139.501 20.3882 139.501 19.8148C139.501 19.2148 139.387 18.7082 139.161 18.2948C138.947 17.8815 138.661 17.5682 138.301 17.3548C137.954 17.1282 137.581 17.0148 137.181 17.0148C136.461 17.0148 135.887 17.2748 135.461 17.7948C135.034 18.3015 134.821 18.9748 134.821 19.8148ZM144.254 14.8148H146.814V24.8148H144.254V14.8148ZM145.554 13.5348C145.074 13.5348 144.681 13.3882 144.374 13.0948C144.067 12.7882 143.914 12.4148 143.914 11.9748C143.914 11.5348 144.067 11.1682 144.374 10.8748C144.681 10.5682 145.074 10.4148 145.554 10.4148C146.007 10.4148 146.387 10.5682 146.694 10.8748C147.014 11.1682 147.174 11.5348 147.174 11.9748C147.174 12.4148 147.014 12.7882 146.694 13.0948C146.387 13.3882 146.007 13.5348 145.554 13.5348ZM149.017 14.8148H151.337L151.517 15.8348C151.837 15.4748 152.224 15.1948 152.677 14.9948C153.144 14.7815 153.644 14.6748 154.177 14.6748C154.964 14.6748 155.63 14.8415 156.177 15.1748C156.737 15.5082 157.164 15.9948 157.457 16.6348C157.764 17.2615 157.917 18.0415 157.917 18.9748V24.8148H155.337V19.3148C155.337 18.5415 155.184 17.9615 154.877 17.5748C154.57 17.1882 154.11 16.9948 153.497 16.9948C152.87 16.9948 152.39 17.1948 152.057 17.5948C151.737 17.9815 151.577 18.5615 151.577 19.3348V24.8148H149.017V14.8148Z" fill="#5158BB"/>
</svg>
