<svg width="250" height="35" viewBox="0 0 250 35" fill="none" xmlns="http://www.w3.org/2000/svg">
<path d="M23.7466 16.5726C25.7596 12.5552 22.0932 8.47411 18.1067 8.93177C15.9836 9.17436 14.7385 10.755 13.6402 11.8532C11.8795 13.614 11.5552 17.1828 14.2925 19.6768C18.9156 23.3266 21.2657 19.7503 21.2657 19.7503C21.2657 19.7503 18.7391 17.2237 15.7383 14.2229M16.6357 24.4045L13.6419 27.3741L11.1678 24.9929C8.19132 22.1265 3.33771 18.5185 3.1777 14.0486C3.06586 10.9173 5.53654 8.91112 8.37885 8.94725C9.62332 8.96412 10.7488 9.28926 11.2944 9.77899" stroke="#5158BB" stroke-width="2.78185" stroke-linejoin="round"/>
<path d="M40.2798 10.4444H43.2228V21.2522C43.2228 22.6898 42.8676 23.9245 42.1572 24.9562C41.4468 26.0049 40.4151 26.8083 39.062 27.3664C37.7258 27.9246 36.119 28.2037 34.2416 28.2037L33.7342 25.4637C35.7808 25.4298 37.3284 25.0662 38.377 24.3727C39.4426 23.6793 39.9753 22.6814 39.9753 21.379V21.3283L40.4066 21.1761C40.0007 21.768 39.4426 22.2754 38.7322 22.6983C38.0218 23.1042 37.1761 23.3072 36.1951 23.3072C35.0788 23.3072 34.0979 23.0366 33.2522 22.4953C32.4065 21.9541 31.7384 21.2014 31.2479 20.2373C30.7743 19.2564 30.5375 18.1062 30.5375 16.787C30.5375 15.4677 30.7743 14.3176 31.2479 13.3366C31.7384 12.3556 32.4065 11.6029 33.2522 11.0786C34.0979 10.5374 35.0788 10.2668 36.1951 10.2668C36.7702 10.2668 37.303 10.3513 37.7935 10.5205C38.3009 10.6727 38.7406 10.8841 39.1127 11.1547C39.5018 11.4084 39.8231 11.696 40.0768 12.0173L40.2798 10.4444ZM34.0387 16.787C34.0387 17.8525 34.3093 18.7151 34.8505 19.3748C35.3917 20.0175 36.119 20.3388 37.0324 20.3388C37.5567 20.3388 38.0387 20.2035 38.4785 19.9329C38.9182 19.6454 39.2734 19.231 39.544 18.6898C39.8316 18.1485 39.9753 17.5143 39.9753 16.787C39.9753 16.0259 39.8316 15.3831 39.544 14.8588C39.2734 14.3345 38.9098 13.937 38.4531 13.6664C38.0134 13.3789 37.5398 13.2351 37.0324 13.2351C36.119 13.2351 35.3917 13.5649 34.8505 14.2246C34.3093 14.8673 34.0387 15.7214 34.0387 16.787ZM45.5735 4.86286H48.8209V23.1296H45.5735V4.86286ZM51.6111 10.4444H54.8585V23.1296H51.6111V10.4444ZM53.2601 8.82065C52.6512 8.82065 52.1523 8.6346 51.7633 8.2625C51.3743 7.87349 51.1798 7.39991 51.1798 6.84176C51.1798 6.28361 51.3743 5.81848 51.7633 5.44638C52.1523 5.05737 52.6512 4.86286 53.2601 4.86286C53.8352 4.86286 54.3172 5.05737 54.7062 5.44638C55.1122 5.81848 55.3151 6.28361 55.3151 6.84176C55.3151 7.39991 55.1122 7.87349 54.7062 8.2625C54.3172 8.6346 53.8352 8.82065 53.2601 8.82065ZM57.6532 10.4444H60.5962L60.8245 11.7383C61.2304 11.2816 61.7209 10.9264 62.296 10.6727C62.8879 10.4021 63.5222 10.2668 64.1988 10.2668C65.1967 10.2668 66.0423 10.4782 66.7358 10.901C67.4462 11.3239 67.9874 11.9412 68.3595 12.7531C68.7485 13.548 68.943 14.5375 68.943 15.7214V23.1296H65.6702V16.1527C65.6702 15.1717 65.4757 14.436 65.0867 13.9455C64.6977 13.455 64.1142 13.2097 63.3362 13.2097C62.5412 13.2097 61.9323 13.4634 61.5095 13.9708C61.1036 14.4613 60.9006 15.1971 60.9006 16.1781V23.1296H57.6532V10.4444ZM72.0267 10.4444V6.8925H75.3249V10.4444H78.1156V13.3112H75.3249V18.4614C75.3249 19.121 75.4602 19.5862 75.7308 19.8568C76.0183 20.1274 76.3735 20.2712 76.7964 20.2881C77.2361 20.305 77.6759 20.2796 78.1156 20.212V23.0027C77.3376 23.1719 76.5765 23.2226 75.8323 23.1549C75.105 23.0873 74.4538 22.8928 73.8788 22.5714C73.3037 22.2332 72.847 21.7257 72.5088 21.0492C72.1874 20.3727 72.0267 19.5101 72.0267 18.4614V13.3112H70.2254V10.4444H72.0267Z" fill="black"/>
<path d="M94.5988 1.31482L94.5988 34.3148" stroke="black" stroke-linecap="round"/>
<path d="M118.979 15.1348C118.979 14.5082 118.786 14.0082 118.399 13.6348C118.026 13.2615 117.439 13.0748 116.639 13.0748H113.659V17.2148H116.639C117.172 17.2148 117.612 17.1348 117.959 16.9748C118.306 16.8015 118.559 16.5615 118.719 16.2548C118.892 15.9348 118.979 15.5615 118.979 15.1348ZM116.719 10.8148C117.852 10.8148 118.786 11.0148 119.519 11.4148C120.266 11.8015 120.819 12.3282 121.179 12.9948C121.552 13.6482 121.739 14.3615 121.739 15.1348C121.739 15.6548 121.646 16.1748 121.459 16.6948C121.272 17.2015 120.979 17.6682 120.579 18.0948C120.179 18.5082 119.659 18.8415 119.019 19.0948C118.392 19.3482 117.626 19.4748 116.719 19.4748H113.659V24.8148H110.959V10.8148H116.719ZM118.239 18.5748L122.019 24.8148H118.999L115.379 18.5748H118.239ZM127.904 24.9548C126.904 24.9548 126.024 24.7348 125.264 24.2948C124.504 23.8548 123.911 23.2415 123.484 22.4548C123.071 21.6682 122.864 20.7615 122.864 19.7348C122.864 18.7482 123.071 17.8748 123.484 17.1148C123.897 16.3548 124.471 15.7615 125.204 15.3348C125.951 14.8948 126.797 14.6748 127.744 14.6748C128.704 14.6748 129.551 14.8815 130.284 15.2948C131.017 15.7082 131.584 16.2882 131.984 17.0348C132.397 17.7682 132.604 18.6282 132.604 19.6148C132.604 19.7615 132.591 19.9282 132.564 20.1148C132.551 20.2882 132.531 20.4748 132.504 20.6748H125.624C125.677 21.1015 125.811 21.4682 126.024 21.7748C126.251 22.0682 126.524 22.3015 126.844 22.4748C127.177 22.6348 127.551 22.7148 127.964 22.7148C128.457 22.7148 128.897 22.6148 129.284 22.4148C129.684 22.2015 129.971 21.9282 130.144 21.5948L132.424 22.2748C132.024 23.1282 131.424 23.7882 130.624 24.2548C129.837 24.7215 128.931 24.9548 127.904 24.9548ZM129.804 18.8148C129.791 18.4415 129.691 18.1082 129.504 17.8148C129.317 17.5082 129.071 17.2748 128.764 17.1148C128.457 16.9415 128.117 16.8548 127.744 16.8548C127.411 16.8548 127.097 16.9415 126.804 17.1148C126.511 17.2882 126.257 17.5215 126.044 17.8148C125.844 18.0948 125.711 18.4282 125.644 18.8148H129.804ZM135.755 21.5548C135.835 21.8882 135.969 22.1415 136.155 22.3148C136.355 22.4882 136.575 22.6148 136.815 22.6948C137.069 22.7615 137.322 22.7948 137.575 22.7948C138.042 22.7948 138.409 22.7082 138.675 22.5348C138.942 22.3482 139.075 22.1148 139.075 21.8348C139.075 21.5948 138.982 21.4082 138.795 21.2748C138.609 21.1282 138.369 21.0215 138.075 20.9548C137.782 20.8748 137.482 20.7948 137.175 20.7148C136.815 20.6215 136.429 20.5215 136.015 20.4148C135.615 20.2948 135.235 20.1282 134.875 19.9148C134.515 19.7015 134.215 19.4282 133.975 19.0948C133.735 18.7482 133.615 18.3148 133.615 17.7948C133.615 17.1815 133.782 16.6415 134.115 16.1748C134.462 15.7082 134.935 15.3415 135.535 15.0748C136.149 14.8082 136.855 14.6748 137.655 14.6748C138.602 14.6748 139.402 14.8748 140.055 15.2748C140.709 15.6748 141.182 16.2482 141.475 16.9948L139.215 17.6348C139.149 17.4482 139.035 17.2948 138.875 17.1748C138.715 17.0548 138.522 16.9682 138.295 16.9148C138.082 16.8615 137.862 16.8348 137.635 16.8348C137.249 16.8348 136.929 16.9148 136.675 17.0748C136.422 17.2215 136.295 17.4282 136.295 17.6948C136.295 17.8548 136.342 17.9882 136.435 18.0948C136.529 18.1882 136.655 18.2682 136.815 18.3348C136.989 18.4015 137.182 18.4615 137.395 18.5148C137.622 18.5682 137.869 18.6282 138.135 18.6948C138.549 18.8015 138.962 18.9282 139.375 19.0748C139.802 19.2082 140.189 19.3815 140.535 19.5948C140.895 19.8082 141.182 20.0948 141.395 20.4548C141.609 20.8148 141.729 21.2682 141.755 21.8148C141.755 22.4015 141.589 22.9348 141.255 23.4148C140.922 23.8815 140.442 24.2548 139.815 24.5348C139.189 24.8148 138.429 24.9548 137.535 24.9548C136.495 24.9548 135.609 24.7348 134.875 24.2948C134.155 23.8548 133.682 23.1682 133.455 22.2348L135.755 21.5548ZM147.661 24.9548C146.661 24.9548 145.781 24.7348 145.021 24.2948C144.261 23.8548 143.668 23.2415 143.241 22.4548C142.828 21.6682 142.621 20.7615 142.621 19.7348C142.621 18.7482 142.828 17.8748 143.241 17.1148C143.654 16.3548 144.228 15.7615 144.961 15.3348C145.708 14.8948 146.554 14.6748 147.501 14.6748C148.461 14.6748 149.308 14.8815 150.041 15.2948C150.774 15.7082 151.341 16.2882 151.741 17.0348C152.154 17.7682 152.361 18.6282 152.361 19.6148C152.361 19.7615 152.348 19.9282 152.321 20.1148C152.308 20.2882 152.288 20.4748 152.261 20.6748H145.381C145.434 21.1015 145.568 21.4682 145.781 21.7748C146.008 22.0682 146.281 22.3015 146.601 22.4748C146.934 22.6348 147.308 22.7148 147.721 22.7148C148.214 22.7148 148.654 22.6148 149.041 22.4148C149.441 22.2015 149.728 21.9282 149.901 21.5948L152.181 22.2748C151.781 23.1282 151.181 23.7882 150.381 24.2548C149.594 24.7215 148.688 24.9548 147.661 24.9548ZM149.561 18.8148C149.548 18.4415 149.448 18.1082 149.261 17.8148C149.074 17.5082 148.828 17.2748 148.521 17.1148C148.214 16.9415 147.874 16.8548 147.501 16.8548C147.168 16.8548 146.854 16.9415 146.561 17.1148C146.268 17.2882 146.014 17.5215 145.801 17.8148C145.601 18.0948 145.468 18.4282 145.401 18.8148H149.561ZM154.432 14.8148V12.0148H157.032V14.8148H159.232V17.0748H157.032V21.1348C157.032 21.6548 157.139 22.0215 157.352 22.2348C157.579 22.4482 157.859 22.5615 158.192 22.5748C158.539 22.5882 158.886 22.5682 159.232 22.5148V24.7148C158.619 24.8482 158.019 24.8882 157.432 24.8348C156.859 24.7815 156.346 24.6282 155.892 24.3748C155.439 24.1082 155.079 23.7082 154.812 23.1748C154.559 22.6415 154.432 21.9615 154.432 21.1348V17.0748H153.012V14.8148H154.432ZM171.261 17.2148C171.795 17.2148 172.235 17.1348 172.581 16.9748C172.928 16.8015 173.181 16.5615 173.341 16.2548C173.515 15.9348 173.601 15.5615 173.601 15.1348C173.601 14.4815 173.408 13.9748 173.021 13.6148C172.648 13.2548 172.061 13.0748 171.261 13.0748H168.281V17.2148H171.261ZM176.361 15.1348C176.361 15.6548 176.268 16.1748 176.081 16.6948C175.895 17.2015 175.601 17.6682 175.201 18.0948C174.801 18.5082 174.281 18.8415 173.641 19.0948C173.015 19.3482 172.248 19.4748 171.341 19.4748H168.281V24.8148H165.581V10.8148H171.341C172.475 10.8148 173.408 11.0148 174.141 11.4148C174.888 11.8015 175.441 12.3282 175.801 12.9948C176.175 13.6482 176.361 14.3615 176.361 15.1348ZM183.554 24.8148L183.354 23.5948C183.021 24.0082 182.641 24.3348 182.214 24.5748C181.801 24.8148 181.241 24.9348 180.534 24.9348C179.867 24.9348 179.281 24.8215 178.774 24.5948C178.281 24.3548 177.894 24.0282 177.614 23.6148C177.334 23.1882 177.194 22.6882 177.194 22.1148C177.194 21.2748 177.494 20.5815 178.094 20.0348C178.707 19.4748 179.627 19.1215 180.854 18.9748L183.354 18.6948V17.9948C183.354 17.7148 183.227 17.4548 182.974 17.2148C182.721 16.9748 182.321 16.8548 181.774 16.8548C181.294 16.8548 180.874 16.9748 180.514 17.2148C180.167 17.4415 179.934 17.7882 179.814 18.2548L177.614 17.4548C177.881 16.5615 178.387 15.8748 179.134 15.3948C179.881 14.9148 180.801 14.6748 181.894 14.6748C183.227 14.6748 184.227 15.0082 184.894 15.6748C185.574 16.3282 185.914 17.1948 185.914 18.2748V24.8148H183.554ZM183.354 20.4748L181.194 20.7548C180.754 20.8082 180.421 20.9415 180.194 21.1548C179.967 21.3548 179.854 21.6015 179.854 21.8948C179.854 22.1748 179.967 22.4148 180.194 22.6148C180.421 22.8015 180.741 22.8948 181.154 22.8948C181.621 22.8948 182.014 22.8082 182.334 22.6348C182.667 22.4615 182.921 22.2082 183.094 21.8748C183.267 21.5415 183.354 21.1282 183.354 20.6348V20.4748ZM189.46 21.5548C189.54 21.8882 189.673 22.1415 189.86 22.3148C190.06 22.4882 190.28 22.6148 190.52 22.6948C190.773 22.7615 191.027 22.7948 191.28 22.7948C191.747 22.7948 192.113 22.7082 192.38 22.5348C192.647 22.3482 192.78 22.1148 192.78 21.8348C192.78 21.5948 192.687 21.4082 192.5 21.2748C192.313 21.1282 192.073 21.0215 191.78 20.9548C191.487 20.8748 191.187 20.7948 190.88 20.7148C190.52 20.6215 190.133 20.5215 189.72 20.4148C189.32 20.2948 188.94 20.1282 188.58 19.9148C188.22 19.7015 187.92 19.4282 187.68 19.0948C187.44 18.7482 187.32 18.3148 187.32 17.7948C187.32 17.1815 187.487 16.6415 187.82 16.1748C188.167 15.7082 188.64 15.3415 189.24 15.0748C189.853 14.8082 190.56 14.6748 191.36 14.6748C192.307 14.6748 193.107 14.8748 193.76 15.2748C194.413 15.6748 194.887 16.2482 195.18 16.9948L192.92 17.6348C192.853 17.4482 192.74 17.2948 192.58 17.1748C192.42 17.0548 192.227 16.9682 192 16.9148C191.787 16.8615 191.567 16.8348 191.34 16.8348C190.953 16.8348 190.633 16.9148 190.38 17.0748C190.127 17.2215 190 17.4282 190 17.6948C190 17.8548 190.047 17.9882 190.14 18.0948C190.233 18.1882 190.36 18.2682 190.52 18.3348C190.693 18.4015 190.887 18.4615 191.1 18.5148C191.327 18.5682 191.573 18.6282 191.84 18.6948C192.253 18.8015 192.667 18.9282 193.08 19.0748C193.507 19.2082 193.893 19.3815 194.24 19.5948C194.6 19.8082 194.887 20.0948 195.1 20.4548C195.313 20.8148 195.433 21.2682 195.46 21.8148C195.46 22.4015 195.293 22.9348 194.96 23.4148C194.627 23.8815 194.147 24.2548 193.52 24.5348C192.893 24.8148 192.133 24.9548 191.24 24.9548C190.2 24.9548 189.313 24.7348 188.58 24.2948C187.86 23.8548 187.387 23.1682 187.16 22.2348L189.46 21.5548ZM198.626 21.5548C198.706 21.8882 198.839 22.1415 199.026 22.3148C199.226 22.4882 199.446 22.6148 199.686 22.6948C199.939 22.7615 200.192 22.7948 200.446 22.7948C200.912 22.7948 201.279 22.7082 201.546 22.5348C201.812 22.3482 201.946 22.1148 201.946 21.8348C201.946 21.5948 201.852 21.4082 201.666 21.2748C201.479 21.1282 201.239 21.0215 200.946 20.9548C200.652 20.8748 200.352 20.7948 200.046 20.7148C199.686 20.6215 199.299 20.5215 198.886 20.4148C198.486 20.2948 198.106 20.1282 197.746 19.9148C197.386 19.7015 197.086 19.4282 196.846 19.0948C196.606 18.7482 196.486 18.3148 196.486 17.7948C196.486 17.1815 196.652 16.6415 196.986 16.1748C197.332 15.7082 197.806 15.3415 198.406 15.0748C199.019 14.8082 199.726 14.6748 200.526 14.6748C201.472 14.6748 202.272 14.8748 202.926 15.2748C203.579 15.6748 204.052 16.2482 204.346 16.9948L202.086 17.6348C202.019 17.4482 201.906 17.2948 201.746 17.1748C201.586 17.0548 201.392 16.9682 201.166 16.9148C200.952 16.8615 200.732 16.8348 200.506 16.8348C200.119 16.8348 199.799 16.9148 199.546 17.0748C199.292 17.2215 199.166 17.4282 199.166 17.6948C199.166 17.8548 199.212 17.9882 199.306 18.0948C199.399 18.1882 199.526 18.2682 199.686 18.3348C199.859 18.4015 200.052 18.4615 200.266 18.5148C200.492 18.5682 200.739 18.6282 201.006 18.6948C201.419 18.8015 201.832 18.9282 202.246 19.0748C202.672 19.2082 203.059 19.3815 203.406 19.5948C203.766 19.8082 204.052 20.0948 204.266 20.4548C204.479 20.8148 204.599 21.2682 204.626 21.8148C204.626 22.4015 204.459 22.9348 204.126 23.4148C203.792 23.8815 203.312 24.2548 202.686 24.5348C202.059 24.8148 201.299 24.9548 200.406 24.9548C199.366 24.9548 198.479 24.7348 197.746 24.2948C197.026 23.8548 196.552 23.1682 196.326 22.2348L198.626 21.5548ZM210.751 24.8148H208.131L205.171 14.8148H207.811L209.471 21.5748L211.231 14.8148H213.791L215.491 21.5748L217.131 14.8148H219.751L216.791 24.8148H214.111L212.451 18.5348L210.751 24.8148ZM225.322 24.9548C224.348 24.9548 223.482 24.7482 222.722 24.3348C221.962 23.9082 221.362 23.3148 220.922 22.5548C220.495 21.7815 220.282 20.8748 220.282 19.8348C220.282 18.7815 220.502 17.8682 220.942 17.0948C221.395 16.3215 222.008 15.7282 222.782 15.3148C223.555 14.8882 224.422 14.6748 225.382 14.6748C226.342 14.6748 227.208 14.8882 227.982 15.3148C228.755 15.7282 229.368 16.3215 229.822 17.0948C230.275 17.8548 230.502 18.7548 230.502 19.7948C230.502 20.8482 230.268 21.7615 229.802 22.5348C229.348 23.3082 228.728 23.9082 227.942 24.3348C227.168 24.7482 226.295 24.9548 225.322 24.9548ZM225.302 22.6548C225.715 22.6548 226.108 22.5548 226.482 22.3548C226.855 22.1415 227.162 21.8282 227.402 21.4148C227.642 20.9882 227.762 20.4482 227.762 19.7948C227.762 19.1682 227.648 18.6482 227.422 18.2348C227.195 17.8082 226.895 17.4948 226.522 17.2948C226.162 17.0815 225.768 16.9748 225.342 16.9748C224.928 16.9748 224.542 17.0815 224.182 17.2948C223.835 17.4948 223.555 17.8082 223.342 18.2348C223.142 18.6482 223.042 19.1815 223.042 19.8348C223.042 20.4615 223.142 20.9882 223.342 21.4148C223.542 21.8282 223.815 22.1415 224.162 22.3548C224.508 22.5548 224.888 22.6548 225.302 22.6548ZM231.861 14.8148H234.181L234.361 16.0948C234.641 15.7482 234.955 15.4682 235.301 15.2548C235.661 15.0282 236.055 14.8748 236.481 14.7948C236.908 14.7015 237.355 14.7082 237.821 14.8148V17.2148C237.461 17.0948 237.081 17.0615 236.681 17.1148C236.295 17.1682 235.928 17.3082 235.581 17.5348C235.248 17.7615 234.968 18.0882 234.741 18.5148C234.528 18.9282 234.421 19.4548 234.421 20.0948V24.8148H231.861V14.8148ZM246.119 16.3148L245.799 16.3548V10.4148H248.359V24.8148H246.039L245.879 23.5748C245.559 23.9482 245.132 24.2748 244.599 24.5548C244.079 24.8215 243.472 24.9548 242.779 24.9548C241.912 24.9548 241.146 24.7415 240.479 24.3148C239.812 23.8882 239.292 23.2948 238.919 22.5348C238.546 21.7615 238.359 20.8548 238.359 19.8148C238.359 18.7748 238.546 17.8682 238.919 17.0948C239.292 16.3215 239.812 15.7282 240.479 15.3148C241.146 14.8882 241.912 14.6748 242.779 14.6748C243.566 14.6748 244.239 14.8348 244.799 15.1548C245.372 15.4748 245.812 15.8615 246.119 16.3148ZM241.119 19.8148C241.119 20.6548 241.332 21.3348 241.759 21.8548C242.186 22.3615 242.746 22.6148 243.439 22.6148C243.866 22.6148 244.252 22.5082 244.599 22.2948C244.959 22.0682 245.246 21.7482 245.459 21.3348C245.686 20.9215 245.799 20.4148 245.799 19.8148C245.799 19.2148 245.686 18.7082 245.459 18.2948C245.246 17.8815 244.959 17.5682 244.599 17.3548C244.252 17.1282 243.866 17.0148 243.439 17.0148C242.746 17.0148 242.186 17.2748 241.759 17.7948C241.332 18.3015 241.119 18.9748 241.119 19.8148Z" fill="#5158BB"/>
</svg>
