<svg width="250" height="35" viewBox="0 0 250 35" fill="none" xmlns="http://www.w3.org/2000/svg">
<path d="M23.7466 16.5727C25.7596 12.5553 22.0932 8.47417 18.1067 8.93183C15.9836 9.17443 14.7385 10.755 13.6403 11.8533C11.8795 13.614 11.5552 17.1828 14.2926 19.6769C18.9156 23.3266 21.2658 19.7504 21.2658 19.7504C21.2658 19.7504 18.7392 17.2238 15.7384 14.223M16.6357 24.4045L13.642 27.3742L11.1679 24.993C8.19135 22.1266 3.33774 18.5186 3.17773 14.0487C3.06589 10.9173 5.53657 8.91118 8.37888 8.94732C9.62335 8.96418 10.7488 9.28932 11.2944 9.77905" stroke="#5158BB" stroke-width="2.78185" stroke-linejoin="round"/>
<path d="M40.2798 10.4444H43.2227V21.2522C43.2227 22.6899 42.8676 23.9245 42.1572 24.9563C41.4468 26.0049 40.4151 26.8083 39.062 27.3665C37.7258 27.9246 36.119 28.2037 34.2416 28.2037L33.7342 25.4637C35.7807 25.4299 37.3283 25.0662 38.377 24.3728C39.4425 23.6793 39.9753 22.6814 39.9753 21.379V21.3283L40.4066 21.1761C40.0007 21.7681 39.4425 22.2755 38.7322 22.6983C38.0218 23.1042 37.1761 23.3072 36.1951 23.3072C35.0788 23.3072 34.0978 23.0366 33.2522 22.4953C32.4065 21.9541 31.7384 21.2015 31.2479 20.2374C30.7743 19.2564 30.5375 18.1063 30.5375 16.787C30.5375 15.4677 30.7743 14.3176 31.2479 13.3366C31.7384 12.3556 32.4065 11.603 33.2522 11.0787C34.0978 10.5374 35.0788 10.2668 36.1951 10.2668C36.7702 10.2668 37.303 10.3514 37.7935 10.5205C38.3009 10.6727 38.7406 10.8841 39.1127 11.1548C39.5017 11.4085 39.8231 11.696 40.0768 12.0174L40.2798 10.4444ZM34.0386 16.787C34.0386 17.8526 34.3093 18.7152 34.8505 19.3748C35.3917 20.0175 36.119 20.3389 37.0324 20.3389C37.5567 20.3389 38.0387 20.2036 38.4785 19.9329C38.9182 19.6454 39.2734 19.231 39.544 18.6898C39.8316 18.1485 39.9753 17.5143 39.9753 16.787C39.9753 16.0259 39.8316 15.3832 39.544 14.8588C39.2734 14.3345 38.9098 13.9371 38.4531 13.6664C38.0133 13.3789 37.5398 13.2351 37.0324 13.2351C36.119 13.2351 35.3917 13.565 34.8505 14.2246C34.3093 14.8673 34.0386 15.7214 34.0386 16.787ZM45.5735 4.86289H48.8209V23.1296H45.5735V4.86289ZM51.611 10.4444H54.8585V23.1296H51.611V10.4444ZM53.2601 8.82068C52.6512 8.82068 52.1523 8.63463 51.7633 8.26253C51.3742 7.87352 51.1797 7.39994 51.1797 6.84179C51.1797 6.28364 51.3742 5.81851 51.7633 5.44641C52.1523 5.0574 52.6512 4.86289 53.2601 4.86289C53.8352 4.86289 54.3172 5.0574 54.7062 5.44641C55.1122 5.81851 55.3151 6.28364 55.3151 6.84179C55.3151 7.39994 55.1122 7.87352 54.7062 8.26253C54.3172 8.63463 53.8352 8.82068 53.2601 8.82068ZM57.6532 10.4444H60.5961L60.8245 11.7383C61.2304 11.2816 61.7209 10.9264 62.296 10.6727C62.8879 10.4021 63.5222 10.2668 64.1987 10.2668C65.1966 10.2668 66.0423 10.4782 66.7358 10.9011C67.4462 11.3239 67.9874 11.9412 68.3595 12.7531C68.7485 13.548 68.943 14.5375 68.943 15.7214V23.1296H65.6702V16.1527C65.6702 15.1717 65.4757 14.436 65.0867 13.9455C64.6977 13.455 64.1142 13.2098 63.3361 13.2098C62.5412 13.2098 61.9323 13.4635 61.5095 13.9709C61.1035 14.4614 60.9006 15.1971 60.9006 16.1781V23.1296H57.6532V10.4444ZM72.0267 10.4444V6.89253H75.3249V10.4444H78.1156V13.3112H75.3249V18.4614C75.3249 19.1211 75.4602 19.5862 75.7308 19.8568C76.0183 20.1274 76.3735 20.2712 76.7964 20.2881C77.2361 20.305 77.6759 20.2797 78.1156 20.212V23.0028C77.3376 23.1719 76.5765 23.2226 75.8323 23.155C75.105 23.0873 74.4538 22.8928 73.8787 22.5715C73.3037 22.2332 72.847 21.7258 72.5087 21.0492C72.1874 20.3727 72.0267 19.5101 72.0267 18.4614V13.3112H70.2254V10.4444H72.0267Z" fill="black"/>
<path d="M94.5988 1.31482L94.5988 34.3148" stroke="black" stroke-linecap="round"/>
<path d="M110.279 17.8148C110.279 16.7615 110.459 15.8015 110.819 14.9348C111.179 14.0548 111.679 13.3015 112.319 12.6748C112.959 12.0348 113.705 11.5415 114.559 11.1948C115.425 10.8482 116.359 10.6748 117.359 10.6748C118.799 10.6748 120.072 11.0215 121.179 11.7148C122.299 12.3948 123.139 13.3748 123.699 14.6548L121.439 15.3148C121.145 14.7548 120.779 14.3015 120.339 13.9548C119.912 13.6082 119.445 13.3548 118.939 13.1948C118.432 13.0348 117.919 12.9548 117.399 12.9548C116.545 12.9548 115.785 13.1615 115.119 13.5748C114.452 13.9748 113.932 14.5415 113.559 15.2748C113.199 16.0082 113.019 16.8548 113.019 17.8148C113.019 18.7748 113.199 19.6215 113.559 20.3548C113.932 21.0748 114.452 21.6415 115.119 22.0548C115.785 22.4682 116.545 22.6748 117.399 22.6748C117.932 22.6748 118.459 22.5948 118.979 22.4348C119.512 22.2615 120.005 21.9748 120.459 21.5748C120.912 21.1748 121.299 20.6415 121.619 19.9748L123.839 20.5948C123.265 22.0482 122.412 23.1415 121.279 23.8748C120.145 24.5948 118.839 24.9548 117.359 24.9548C116.359 24.9548 115.425 24.7815 114.559 24.4348C113.705 24.0882 112.959 23.5948 112.319 22.9548C111.679 22.3148 111.179 21.5615 110.819 20.6948C110.459 19.8148 110.279 18.8548 110.279 17.8148ZM125.376 14.8148H127.696L127.876 16.0948C128.156 15.7482 128.469 15.4682 128.816 15.2548C129.176 15.0282 129.569 14.8748 129.996 14.7948C130.422 14.7015 130.869 14.7082 131.336 14.8148V17.2148C130.976 17.0948 130.596 17.0615 130.196 17.1148C129.809 17.1682 129.442 17.3082 129.096 17.5348C128.762 17.7615 128.482 18.0882 128.256 18.5148C128.042 18.9282 127.936 19.4548 127.936 20.0948V24.8148H125.376V14.8148ZM136.913 24.9548C135.913 24.9548 135.033 24.7348 134.273 24.2948C133.513 23.8548 132.92 23.2415 132.493 22.4548C132.08 21.6682 131.873 20.7615 131.873 19.7348C131.873 18.7482 132.08 17.8748 132.493 17.1148C132.907 16.3548 133.48 15.7615 134.213 15.3348C134.96 14.8948 135.807 14.6748 136.753 14.6748C137.713 14.6748 138.56 14.8815 139.293 15.2948C140.027 15.7082 140.593 16.2882 140.993 17.0348C141.407 17.7682 141.613 18.6282 141.613 19.6148C141.613 19.7615 141.6 19.9282 141.573 20.1148C141.56 20.2882 141.54 20.4748 141.513 20.6748H134.633C134.687 21.1015 134.82 21.4682 135.033 21.7748C135.26 22.0682 135.533 22.3015 135.853 22.4748C136.187 22.6348 136.56 22.7148 136.973 22.7148C137.467 22.7148 137.907 22.6148 138.293 22.4148C138.693 22.2015 138.98 21.9282 139.153 21.5948L141.433 22.2748C141.033 23.1282 140.433 23.7882 139.633 24.2548C138.847 24.7215 137.94 24.9548 136.913 24.9548ZM138.813 18.8148C138.8 18.4415 138.7 18.1082 138.513 17.8148C138.327 17.5082 138.08 17.2748 137.773 17.1148C137.467 16.9415 137.127 16.8548 136.753 16.8548C136.42 16.8548 136.107 16.9415 135.813 17.1148C135.52 17.2882 135.267 17.5215 135.053 17.8148C134.853 18.0948 134.72 18.4282 134.653 18.8148H138.813ZM148.845 24.8148L148.645 23.5948C148.311 24.0082 147.931 24.3348 147.505 24.5748C147.091 24.8148 146.531 24.9348 145.825 24.9348C145.158 24.9348 144.571 24.8215 144.065 24.5948C143.571 24.3548 143.185 24.0282 142.905 23.6148C142.625 23.1882 142.485 22.6882 142.485 22.1148C142.485 21.2748 142.785 20.5815 143.385 20.0348C143.998 19.4748 144.918 19.1215 146.145 18.9748L148.645 18.6948V17.9948C148.645 17.7148 148.518 17.4548 148.265 17.2148C148.011 16.9748 147.611 16.8548 147.065 16.8548C146.585 16.8548 146.165 16.9748 145.805 17.2148C145.458 17.4415 145.225 17.7882 145.105 18.2548L142.905 17.4548C143.171 16.5615 143.678 15.8748 144.425 15.3948C145.171 14.9148 146.091 14.6748 147.185 14.6748C148.518 14.6748 149.518 15.0082 150.185 15.6748C150.865 16.3282 151.205 17.1948 151.205 18.2748V24.8148H148.845ZM148.645 20.4748L146.485 20.7548C146.045 20.8082 145.711 20.9415 145.485 21.1548C145.258 21.3548 145.145 21.6015 145.145 21.8948C145.145 22.1748 145.258 22.4148 145.485 22.6148C145.711 22.8015 146.031 22.8948 146.445 22.8948C146.911 22.8948 147.305 22.8082 147.625 22.6348C147.958 22.4615 148.211 22.2082 148.385 21.8748C148.558 21.5415 148.645 21.1282 148.645 20.6348V20.4748ZM153.671 14.8148V12.0148H156.271V14.8148H158.471V17.0748H156.271V21.1348C156.271 21.6548 156.377 22.0215 156.591 22.2348C156.817 22.4482 157.097 22.5615 157.431 22.5748C157.777 22.5882 158.124 22.5682 158.471 22.5148V24.7148C157.857 24.8482 157.257 24.8882 156.671 24.8348C156.097 24.7815 155.584 24.6282 155.131 24.3748C154.677 24.1082 154.317 23.7082 154.051 23.1748C153.797 22.6415 153.671 21.9615 153.671 21.1348V17.0748H152.251V14.8148H153.671ZM164.234 24.9548C163.234 24.9548 162.354 24.7348 161.594 24.2948C160.834 23.8548 160.241 23.2415 159.814 22.4548C159.401 21.6682 159.194 20.7615 159.194 19.7348C159.194 18.7482 159.401 17.8748 159.814 17.1148C160.228 16.3548 160.801 15.7615 161.534 15.3348C162.281 14.8948 163.128 14.6748 164.074 14.6748C165.034 14.6748 165.881 14.8815 166.614 15.2948C167.348 15.7082 167.914 16.2882 168.314 17.0348C168.728 17.7682 168.934 18.6282 168.934 19.6148C168.934 19.7615 168.921 19.9282 168.894 20.1148C168.881 20.2882 168.861 20.4748 168.834 20.6748H161.954C162.008 21.1015 162.141 21.4682 162.354 21.7748C162.581 22.0682 162.854 22.3015 163.174 22.4748C163.508 22.6348 163.881 22.7148 164.294 22.7148C164.788 22.7148 165.228 22.6148 165.614 22.4148C166.014 22.2015 166.301 21.9282 166.474 21.5948L168.754 22.2748C168.354 23.1282 167.754 23.7882 166.954 24.2548C166.168 24.7215 165.261 24.9548 164.234 24.9548ZM166.134 18.8148C166.121 18.4415 166.021 18.1082 165.834 17.8148C165.648 17.5082 165.401 17.2748 165.094 17.1148C164.788 16.9415 164.448 16.8548 164.074 16.8548C163.741 16.8548 163.428 16.9415 163.134 17.1148C162.841 17.2882 162.588 17.5215 162.374 17.8148C162.174 18.0948 162.041 18.4282 161.974 18.8148H166.134ZM181.811 13.0748H181.091L176.971 24.8148H174.191L179.211 10.8148H183.671L188.691 24.8148H185.911L181.811 13.0748ZM177.231 19.3348H185.391V21.5948H177.231V19.3348ZM193.876 24.9548C192.903 24.9548 192.05 24.7415 191.316 24.3148C190.583 23.8882 190.01 23.2948 189.596 22.5348C189.183 21.7615 188.976 20.8682 188.976 19.8548C188.976 18.8282 189.183 17.9282 189.596 17.1548C190.01 16.3815 190.59 15.7748 191.336 15.3348C192.083 14.8948 192.943 14.6748 193.916 14.6748C194.97 14.6748 195.903 14.9348 196.716 15.4548C197.543 15.9748 198.123 16.6748 198.456 17.5548L196.076 18.2348C195.916 17.8482 195.65 17.5415 195.276 17.3148C194.916 17.0882 194.503 16.9748 194.036 16.9748C193.57 16.9748 193.156 17.0948 192.796 17.3348C192.45 17.5748 192.176 17.9082 191.976 18.3348C191.79 18.7615 191.696 19.2615 191.696 19.8348C191.696 20.7015 191.91 21.3882 192.336 21.8948C192.763 22.4015 193.336 22.6548 194.056 22.6548C194.51 22.6548 194.923 22.5482 195.296 22.3348C195.67 22.1082 195.95 21.8015 196.136 21.4148L198.496 22.0948C198.136 22.9615 197.536 23.6548 196.696 24.1748C195.87 24.6948 194.93 24.9548 193.876 24.9548ZM204.253 24.9548C203.28 24.9548 202.426 24.7415 201.693 24.3148C200.96 23.8882 200.386 23.2948 199.973 22.5348C199.56 21.7615 199.353 20.8682 199.353 19.8548C199.353 18.8282 199.56 17.9282 199.973 17.1548C200.386 16.3815 200.966 15.7748 201.713 15.3348C202.46 14.8948 203.32 14.6748 204.293 14.6748C205.346 14.6748 206.28 14.9348 207.093 15.4548C207.92 15.9748 208.5 16.6748 208.833 17.5548L206.453 18.2348C206.293 17.8482 206.026 17.5415 205.653 17.3148C205.293 17.0882 204.88 16.9748 204.413 16.9748C203.946 16.9748 203.533 17.0948 203.173 17.3348C202.826 17.5748 202.553 17.9082 202.353 18.3348C202.166 18.7615 202.073 19.2615 202.073 19.8348C202.073 20.7015 202.286 21.3882 202.713 21.8948C203.14 22.4015 203.713 22.6548 204.433 22.6548C204.886 22.6548 205.3 22.5482 205.673 22.3348C206.046 22.1082 206.326 21.8015 206.513 21.4148L208.873 22.0948C208.513 22.9615 207.913 23.6548 207.073 24.1748C206.246 24.6948 205.306 24.9548 204.253 24.9548ZM214.769 24.9548C213.796 24.9548 212.929 24.7482 212.169 24.3348C211.409 23.9082 210.809 23.3148 210.369 22.5548C209.943 21.7815 209.729 20.8748 209.729 19.8348C209.729 18.7815 209.949 17.8682 210.389 17.0948C210.843 16.3215 211.456 15.7282 212.229 15.3148C213.003 14.8882 213.869 14.6748 214.829 14.6748C215.789 14.6748 216.656 14.8882 217.429 15.3148C218.203 15.7282 218.816 16.3215 219.269 17.0948C219.723 17.8548 219.949 18.7548 219.949 19.7948C219.949 20.8482 219.716 21.7615 219.249 22.5348C218.796 23.3082 218.176 23.9082 217.389 24.3348C216.616 24.7482 215.743 24.9548 214.769 24.9548ZM214.749 22.6548C215.163 22.6548 215.556 22.5548 215.929 22.3548C216.303 22.1415 216.609 21.8282 216.849 21.4148C217.089 20.9882 217.209 20.4482 217.209 19.7948C217.209 19.1682 217.096 18.6482 216.869 18.2348C216.643 17.8082 216.343 17.4948 215.969 17.2948C215.609 17.0815 215.216 16.9748 214.789 16.9748C214.376 16.9748 213.989 17.0815 213.629 17.2948C213.283 17.4948 213.003 17.8082 212.789 18.2348C212.589 18.6482 212.489 19.1815 212.489 19.8348C212.489 20.4615 212.589 20.9882 212.789 21.4148C212.989 21.8282 213.263 22.1415 213.609 22.3548C213.956 22.5548 214.336 22.6548 214.749 22.6548ZM230.089 24.8148H227.749L227.569 23.7748C227.249 24.1482 226.856 24.4415 226.389 24.6548C225.936 24.8548 225.449 24.9548 224.929 24.9548C224.156 24.9548 223.489 24.7882 222.929 24.4548C222.369 24.1215 221.936 23.6415 221.629 23.0148C221.322 22.3748 221.169 21.5882 221.169 20.6548V14.8148H223.749V20.3348C223.749 21.0948 223.896 21.6748 224.189 22.0748C224.496 22.4615 224.962 22.6548 225.589 22.6548C226.202 22.6548 226.676 22.4548 227.009 22.0548C227.356 21.6548 227.529 21.0748 227.529 20.3148V14.8148H230.089V24.8148ZM231.94 14.8148H234.26L234.44 15.8348C234.76 15.4748 235.146 15.1948 235.6 14.9948C236.066 14.7815 236.566 14.6748 237.1 14.6748C237.886 14.6748 238.553 14.8415 239.1 15.1748C239.66 15.5082 240.086 15.9948 240.38 16.6348C240.686 17.2615 240.84 18.0415 240.84 18.9748V24.8148H238.26V19.3148C238.26 18.5415 238.106 17.9615 237.8 17.5748C237.493 17.1882 237.033 16.9948 236.42 16.9948C235.793 16.9948 235.313 17.1948 234.98 17.5948C234.66 17.9815 234.5 18.5615 234.5 19.3348V24.8148H231.94V14.8148ZM243.271 14.8148V12.0148H245.871V14.8148H248.071V17.0748H245.871V21.1348C245.871 21.6548 245.977 22.0215 246.191 22.2348C246.417 22.4482 246.697 22.5615 247.031 22.5748C247.377 22.5882 247.724 22.5682 248.071 22.5148V24.7148C247.457 24.8482 246.857 24.8882 246.271 24.8348C245.697 24.7815 245.184 24.6282 244.731 24.3748C244.277 24.1082 243.917 23.7082 243.651 23.1748C243.397 22.6415 243.271 21.9615 243.271 21.1348V17.0748H241.851V14.8148H243.271Z" fill="#5158BB"/>
</svg>
