<svg width="20" height="20" viewBox="0 0 20 20" fill="none" xmlns="http://www.w3.org/2000/svg">
<path d="M9.99936 18.9582C9.34936 18.9582 8.71602 18.6248 8.28268 18.0415L7.44101 16.9165C7.26602 16.6832 7.03268 16.5498 6.78268 16.5332C6.53268 16.5248 6.28268 16.6332 6.08268 16.8415L5.60768 16.4165L6.06602 16.8415C4.86602 18.1248 3.94102 18.0248 3.49935 17.8498C3.04935 17.6748 2.29102 17.0998 2.29102 15.2498V5.8665C2.29102 2.1665 3.35768 1.0415 6.84935 1.0415H13.1494C16.641 1.0415 17.7077 2.1665 17.7077 5.8665V15.2498C17.7077 17.0915 16.9494 17.6665 16.4994 17.8498C16.0577 18.0248 15.141 18.1248 13.9327 16.8415C13.7327 16.6248 13.491 16.5082 13.2244 16.5332C12.9744 16.5498 12.7327 16.6832 12.5577 16.9165L11.716 18.0415C11.2827 18.6248 10.6494 18.9582 9.99936 18.9582ZM6.73268 15.2748H6.84102C7.45768 15.3082 8.04102 15.6332 8.43269 16.1582L9.27436 17.2832C9.68269 17.8248 10.3077 17.8248 10.716 17.2832L11.5577 16.1582C11.9577 15.6332 12.5327 15.3082 13.1577 15.2748C13.7744 15.2415 14.391 15.4998 14.841 15.9832C15.4744 16.6582 15.891 16.7415 16.0327 16.6832C16.2327 16.5998 16.4494 16.1165 16.4494 15.2498V5.8665C16.4494 2.85817 15.9244 2.2915 13.141 2.2915H6.84935C4.06602 2.2915 3.54102 2.85817 3.54102 5.8665V15.2498C3.54102 16.1248 3.75768 16.6082 3.95768 16.6832C4.09935 16.7415 4.51602 16.6582 5.14935 15.9832C5.59935 15.5248 6.15768 15.2748 6.73268 15.2748Z" fill="black"/>
<path d="M12.293 6.45825H7.29297C6.9513 6.45825 6.66797 6.17492 6.66797 5.83325C6.66797 5.49159 6.9513 5.20825 7.29297 5.20825H12.293C12.6346 5.20825 12.918 5.49159 12.918 5.83325C12.918 6.17492 12.6346 6.45825 12.293 6.45825Z" fill="black"/>
<path d="M8.33464 5.83325C8.33464 5.83325 10.8346 6.0288 10.8346 8.33325C10.8346 10.6377 7.91797 10.4166 7.91797 10.4166C7.91797 10.4166 10.8346 11.2499 10.8346 13.3333" stroke="black" stroke-width="1.25" stroke-linecap="round" stroke-linejoin="round"/>
<path d="M12.2917 8.74976H8.125C7.78333 8.74976 7.5 8.46642 7.5 8.12476C7.5 7.78309 7.78333 7.49976 8.125 7.49976H12.2917C12.6333 7.49976 12.9167 7.78309 12.9167 8.12476C12.9167 8.46642 12.6333 8.74976 12.2917 8.74976Z" fill="black"/>
</svg>
