<svg width="20" height="20" viewBox="0 0 20 20" fill="none" xmlns="http://www.w3.org/2000/svg">
<path d="M13.366 3.92877C14.2856 4.34782 14.9639 5.21984 14.9639 6.2774C14.9639 7.3591 14.3476 8.30449 13.366 8.74127M15.6842 10.3024C15.9062 10.2333 16.3359 10.3571 16.5115 10.5195C17.5396 11.4703 18.1188 12.7179 18.3179 14.1009C18.4031 14.693 18.1148 15.22 17.5996 15.4206M11.5132 6.29621C11.5132 7.93261 10.1567 9.25918 8.48329 9.25918C6.80993 9.25918 5.45339 7.93261 5.45339 6.29621C5.45339 4.65982 6.80993 3.33325 8.48329 3.33325C10.1567 3.33325 11.5132 4.65982 11.5132 6.29621ZM8.4833 11.8582C9.58324 11.8582 10.6156 11.5564 11.5087 11.0278C12.0841 10.6872 12.8165 10.5959 13.3098 11.0522C14.4664 12.1219 15.0624 13.5418 15.2864 15.0976C15.4102 15.9576 14.7059 16.6666 13.8578 16.6666H3.10879C2.26072 16.6666 1.55639 15.9576 1.6802 15.0976C1.90419 13.5418 2.50022 12.1219 3.65677 11.0522C4.15007 10.5959 4.88251 10.6872 5.45791 11.0278C6.35094 11.5564 7.38335 11.8582 8.4833 11.8582Z" stroke="black" stroke-width="1.25" stroke-linecap="round" stroke-linejoin="round"/>
</svg>
