<svg width="412" height="400" viewBox="0 0 412 400" fill="none" xmlns="http://www.w3.org/2000/svg">
<path d="M85.4272 276.39C85.4272 276.39 98.2544 420.752 100.346 431.768C100.825 434.285 101.132 447.925 101.331 465.467C101.771 503.722 101.504 572.747 101.504 572.747H161.724C161.724 572.747 159.939 453.16 157.275 431.155C154.611 409.15 137.575 276.39 137.575 276.39H85.4272Z" fill="url(#paint0_linear_434_2872)"/>
<path d="M112.947 493.892C112.884 485.154 112.822 476.421 112.76 467.692C112.694 459.234 112.76 450.762 112.307 442.304C111.495 425.201 108.018 408.365 105.541 391.448C103.063 374.532 101.012 357.535 99.1471 340.526C97.0558 321.438 95.1511 302.337 93.2463 283.25C93.2463 283.117 93.0332 283.117 93.0465 283.25C95.8837 317.336 99.0538 351.422 103.769 385.308C104.941 393.744 106.224 402.18 107.619 410.616C109.017 419.114 110.416 427.625 111.095 436.217C111.774 444.808 111.854 453.066 111.934 461.525C112.023 470.263 112.112 478.992 112.201 487.712C112.387 507.106 112.574 536.996 112.76 556.336C112.76 556.414 112.791 556.489 112.846 556.544C112.901 556.599 112.975 556.63 113.053 556.63C113.131 556.63 113.205 556.599 113.26 556.544C113.315 556.489 113.346 556.414 113.346 556.336C113.213 538.941 113.08 511.195 112.947 493.892Z" fill="#263238"/>
<path d="M72.8003 276.39C72.8003 276.39 98.3214 420.752 100.413 431.768C100.892 434.285 101.199 447.925 101.398 465.467L130.076 276.39H72.8003Z" fill="#263238"/>
<path d="M33.9725 567.166L-17.416 530.136C-17.416 530.136 49.0508 441.425 49.3571 433.313C49.81 421.245 55.5909 371.455 60.4527 331.135C60.4527 331.135 51.2353 309.317 68.4447 276.337H137.576C137.576 276.337 132.993 307.692 125.055 327.672C119.727 329.537 114.582 331.887 109.683 334.692C109.683 334.692 103.969 433.086 102.251 444.169C97.6954 473.433 33.9725 567.166 33.9725 567.166Z" fill="url(#paint1_linear_434_2872)"/>
<path d="M71.7212 305.761C73.2797 305.361 74.9713 305.241 76.5697 304.988C77.9017 304.775 79.1538 304.548 80.4325 304.269C82.8843 303.826 85.2083 302.848 87.239 301.405C89.4502 299.673 90.5824 297.049 91.6613 294.532C92.2873 293.04 92.9933 291.561 93.6193 290.083C93.939 289.364 94.2587 288.644 94.5917 287.925C95.052 287.096 95.457 286.237 95.8038 285.354C95.8038 285.221 96.0569 285.354 96.0036 285.354C95.7892 285.962 95.6069 286.58 95.4575 287.206C95.231 287.938 95.0312 288.658 94.8048 289.377C94.4052 290.709 94.0189 291.948 93.606 293.226C92.9614 295.572 92.045 297.834 90.8754 299.966C88.5044 303.736 84.2154 305.294 80.0462 305.787C78.8341 305.947 77.6087 306.027 76.3832 306.094C74.8457 306.233 73.2987 306.233 71.7612 306.094C71.7336 306.077 71.7101 306.054 71.6926 306.027C71.6752 306 71.6641 305.969 71.6602 305.937C71.6564 305.905 71.6599 305.872 71.6704 305.842C71.681 305.811 71.6984 305.783 71.7212 305.761Z" fill="#263238"/>
<path d="M127.678 326.247C121.45 328.516 115.429 331.319 109.683 334.625C109.457 334.758 109.603 335.105 109.843 334.998C115.917 332.401 122.097 329.91 128.011 327.006C128.112 326.962 128.191 326.879 128.231 326.777C128.271 326.675 128.269 326.561 128.224 326.46C128.18 326.359 128.098 326.28 127.996 326.24C127.893 326.2 127.779 326.203 127.678 326.247Z" fill="#263238"/>
<path d="M129.61 284.648C129.61 284.435 129.224 284.395 129.224 284.648C129.224 291.841 128.811 298.168 128.211 304.895C127.918 308.025 125.414 325.274 119.993 324.022C119.087 323.809 118.661 322.917 118.488 321.558C118.502 319.759 118.743 317.969 119.207 316.23C119.806 312.62 120.286 308.997 120.539 305.348C121.174 298.552 121.103 291.709 120.326 284.928C120.326 284.882 120.308 284.838 120.275 284.806C120.243 284.773 120.199 284.755 120.153 284.755C120.107 284.755 120.063 284.773 120.03 284.806C119.998 284.838 119.979 284.882 119.979 284.928C120.136 294.351 119.583 303.773 118.328 313.113C117.648 317.589 115.384 324.355 120.086 325.101C124.788 325.847 127.958 314.445 128.544 311.382C130.053 302.554 130.411 293.568 129.61 284.648Z" fill="#263238"/>
<path d="M120.139 324.462C119.656 325.623 119.251 326.816 118.927 328.032C118.575 328.972 118.403 329.971 118.421 330.975C118.421 331.162 118.688 331.188 118.794 331.055C119.361 330.173 119.784 329.207 120.046 328.191C120.459 327.086 120.899 325.994 121.285 324.875C121.32 324.728 121.299 324.574 121.228 324.442C121.156 324.309 121.038 324.208 120.897 324.157C120.755 324.106 120.599 324.109 120.46 324.165C120.32 324.221 120.206 324.327 120.139 324.462Z" fill="#263238"/>
<path d="M73.546 281.052C71.6903 284.889 70.1533 288.871 68.9506 292.96C67.7388 297.036 66.848 301.2 66.2866 305.414C65.7056 309.615 65.536 313.862 65.7805 318.095C66.0341 322.322 66.7761 326.506 67.9916 330.562V330.642V330.722C66.4553 347.958 64.817 365.177 63.0765 382.377C61.3183 399.6 59.6666 416.796 57.2956 433.966C57.1624 435.045 56.9093 436.137 56.7229 437.216C56.3924 438.295 55.9458 439.336 55.3909 440.319C54.3519 442.251 53.2064 444.089 52.0742 445.94C49.7698 449.617 47.3855 453.226 44.9879 456.823C40.1661 464.016 35.1977 471.088 30.2161 478.135C20.266 492.294 10.0762 506.267 -0.180176 520.199C9.80094 506.062 19.6933 491.877 29.4968 477.642C34.3985 470.538 39.247 463.381 44.0422 456.17C46.4265 452.56 48.7841 448.951 51.0619 445.288C52.1807 443.449 53.3129 441.611 54.3119 439.72C54.8068 438.825 55.1999 437.878 55.4841 436.896C55.6706 435.844 55.897 434.845 56.0302 433.753C57.2157 425.228 58.1081 416.61 59.0539 408.018L61.8111 382.231L67.1391 330.616V330.789C65.9441 326.658 65.2334 322.403 65.0212 318.108C64.8251 313.828 65.0706 309.538 65.7538 305.308C66.4174 301.086 67.406 296.923 68.7109 292.854C70.0033 288.796 71.6203 284.85 73.546 281.052Z" fill="#263238"/>
<path d="M131.208 152.794C127.785 146.36 120.006 143.15 111.774 142.777C103.543 142.404 93.2329 143.936 89.2902 156.244C86.0801 166.234 86.9459 176.93 84.1087 188.212C81.2715 199.494 61.0917 223.949 79.3135 242.584C95.6705 259.314 137.602 257.595 144.928 232.967C150.735 213.426 130.662 189.277 129.996 180.832C129.33 172.387 134.978 159.84 131.208 152.794Z" fill="#263238"/>
<path d="M132.007 164.795C130.602 170.538 130.384 176.508 131.368 182.337C131.669 183.844 132.18 185.302 132.887 186.666C133.566 187.998 134.312 189.33 135.044 190.662C136.563 193.326 138.068 195.857 139.427 198.495C142.229 203.659 144.245 209.212 145.407 214.971C146.465 220.704 146.375 226.59 145.141 232.287C146.086 229.514 146.703 226.64 146.979 223.723C147.207 220.769 147.123 217.8 146.726 214.865C145.803 208.918 143.865 203.173 140.998 197.882C139.666 195.218 138.055 192.554 136.51 190.01C134.866 187.59 133.587 184.942 132.713 182.151C132.027 179.339 131.678 176.454 131.674 173.56C131.597 170.634 131.708 167.706 132.007 164.795Z" fill="#263238"/>
<path d="M87.7452 164.915C86.4798 170.709 85.4408 176.557 83.8691 182.231C83.0998 185.072 82.1522 187.861 81.0319 190.583C79.8997 193.247 78.3679 195.817 76.9294 198.455C75.4908 201.092 74.1588 203.783 72.9334 206.553C71.779 209.328 70.8871 212.204 70.2694 215.145C69.6856 218.113 69.5465 221.153 69.8564 224.162C70.336 227.195 71.443 230.094 73.1065 232.674C71.7672 229.998 70.9533 227.091 70.7089 224.109C70.5738 221.187 70.8701 218.26 71.588 215.424C73.2392 209.761 75.5694 204.318 78.5278 199.214C79.8598 196.55 81.4582 194.006 82.6037 191.222C83.7025 188.429 84.5712 185.551 85.2011 182.617C86.4279 176.777 87.2777 170.864 87.7452 164.915Z" fill="#263238"/>
<path d="M127.558 209.723C151.748 212.134 179.333 208.138 185.927 201.145C193.572 193.047 206.306 159.973 209.197 136.796C209.823 131.721 171.235 129.883 171.168 133.466C170.955 145.787 158.954 178.635 158.088 180.393C157.089 182.404 138.854 189.49 126.4 192.9C106.779 198.268 110.429 208.018 127.558 209.723Z" fill="url(#paint2_linear_434_2872)"/>
<path d="M178.944 208.173L156.673 181C156.673 181 139.037 186.808 121.335 194.32C103.632 201.832 108.907 209.185 132.936 211.809C148.367 213.238 163.929 212.008 178.944 208.173Z" fill="url(#paint3_linear_434_2872)"/>
<path d="M130.236 206.38C129.835 206.38 129.444 206.499 129.111 206.721C128.778 206.944 128.518 207.26 128.365 207.63C128.212 208 128.172 208.407 128.25 208.8C128.328 209.192 128.521 209.553 128.804 209.836C129.087 210.119 129.448 210.312 129.841 210.39C130.234 210.469 130.641 210.428 131.011 210.275C131.381 210.122 131.697 209.862 131.919 209.53C132.142 209.197 132.26 208.805 132.26 208.405C132.26 208.139 132.208 207.876 132.106 207.63C132.005 207.384 131.855 207.161 131.667 206.973C131.479 206.785 131.256 206.636 131.011 206.534C130.765 206.432 130.502 206.38 130.236 206.38ZM130.236 210.03C129.914 210.03 129.6 209.934 129.333 209.756C129.066 209.577 128.857 209.324 128.734 209.027C128.611 208.73 128.579 208.403 128.642 208.088C128.705 207.772 128.859 207.483 129.087 207.256C129.314 207.028 129.604 206.874 129.919 206.811C130.234 206.748 130.561 206.78 130.858 206.903C131.155 207.026 131.408 207.235 131.587 207.502C131.766 207.769 131.861 208.083 131.861 208.405C131.861 208.836 131.69 209.249 131.385 209.554C131.08 209.859 130.667 210.03 130.236 210.03ZM148.484 206.593C147.945 206.597 147.428 206.813 147.047 207.194C146.666 207.575 146.45 208.092 146.446 208.631C146.448 208.897 146.502 209.16 146.605 209.405C146.709 209.65 146.859 209.872 147.049 210.059C147.238 210.246 147.462 210.393 147.708 210.493C147.955 210.594 148.218 210.644 148.484 210.642C148.749 210.644 149.011 210.593 149.256 210.493C149.501 210.393 149.723 210.244 149.91 210.057C150.097 209.87 150.246 209.648 150.346 209.403C150.446 209.158 150.497 208.896 150.496 208.631C150.497 208.365 150.447 208.102 150.347 207.855C150.246 207.609 150.099 207.385 149.912 207.196C149.725 207.006 149.503 206.856 149.258 206.752C149.013 206.649 148.75 206.595 148.484 206.593ZM148.484 210.256C148.159 210.259 147.84 210.165 147.569 209.986C147.298 209.807 147.085 209.551 146.96 209.251C146.834 208.951 146.801 208.621 146.863 208.302C146.926 207.982 147.082 207.689 147.312 207.459C147.542 207.229 147.835 207.073 148.155 207.01C148.474 206.948 148.804 206.981 149.104 207.107C149.404 207.232 149.66 207.444 149.839 207.716C150.018 207.987 150.112 208.306 150.109 208.631C150.106 209.061 149.933 209.472 149.629 209.776C149.325 210.08 148.914 210.253 148.484 210.256ZM139.653 198.615C139.363 198.567 139.067 198.583 138.784 198.662C138.501 198.74 138.239 198.879 138.015 199.069C137.791 199.26 137.611 199.496 137.488 199.762C137.365 200.029 137.301 200.319 137.301 200.613C137.301 200.906 137.365 201.196 137.488 201.463C137.611 201.729 137.791 201.965 138.015 202.156C138.239 202.346 138.501 202.485 138.784 202.563C139.067 202.642 139.363 202.658 139.653 202.611C140.127 202.533 140.558 202.289 140.869 201.923C141.18 201.557 141.35 201.093 141.35 200.613C141.35 200.132 141.18 199.668 140.869 199.302C140.558 198.936 140.127 198.692 139.653 198.615ZM139.653 202.264C139.439 202.266 139.226 202.225 139.027 202.144C138.828 202.063 138.648 201.944 138.495 201.793C138.343 201.642 138.222 201.462 138.14 201.264C138.057 201.066 138.015 200.854 138.015 200.639C137.994 200.412 138.021 200.184 138.094 199.968C138.166 199.753 138.283 199.555 138.437 199.386C138.59 199.218 138.777 199.084 138.985 198.992C139.194 198.901 139.419 198.853 139.646 198.853C139.874 198.853 140.099 198.901 140.307 198.992C140.516 199.084 140.702 199.218 140.856 199.386C141.009 199.555 141.126 199.753 141.199 199.968C141.272 200.184 141.299 200.412 141.278 200.639C141.278 201.07 141.107 201.483 140.802 201.788C140.497 202.093 140.084 202.264 139.653 202.264ZM156.503 198.268C155.965 198.272 155.45 198.488 155.07 198.87C154.691 199.252 154.478 199.768 154.478 200.306C154.556 200.78 154.799 201.211 155.165 201.522C155.531 201.833 155.996 202.003 156.476 202.003C156.956 202.003 157.421 201.833 157.787 201.522C158.153 201.211 158.397 200.78 158.474 200.306C158.489 199.768 158.289 199.246 157.92 198.854C157.55 198.462 157.041 198.232 156.503 198.215V198.268ZM156.503 201.931C156.276 201.952 156.048 201.925 155.832 201.852C155.616 201.779 155.418 201.663 155.25 201.509C155.082 201.356 154.948 201.169 154.856 200.96C154.764 200.752 154.717 200.527 154.717 200.299C154.717 200.072 154.764 199.847 154.856 199.639C154.948 199.43 155.082 199.243 155.25 199.09C155.418 198.936 155.616 198.82 155.832 198.747C156.048 198.674 156.276 198.647 156.503 198.668C156.91 198.705 157.289 198.892 157.565 199.194C157.841 199.496 157.994 199.891 157.994 200.299C157.994 200.708 157.841 201.103 157.565 201.405C157.289 201.707 156.91 201.894 156.503 201.931ZM167.092 205.727C166.553 205.731 166.036 205.947 165.655 206.328C165.274 206.71 165.058 207.226 165.054 207.765C165.054 208.168 165.174 208.562 165.398 208.898C165.622 209.233 165.94 209.494 166.312 209.648C166.685 209.802 167.094 209.843 167.49 209.764C167.885 209.686 168.248 209.491 168.533 209.206C168.818 208.921 169.012 208.558 169.091 208.163C169.17 207.768 169.129 207.358 168.975 206.985C168.821 206.613 168.56 206.295 168.224 206.071C167.889 205.847 167.495 205.727 167.092 205.727ZM167.092 209.39C166.767 209.393 166.448 209.299 166.177 209.12C165.906 208.941 165.694 208.685 165.568 208.385C165.442 208.085 165.409 207.755 165.471 207.436C165.534 207.117 165.691 206.824 165.92 206.594C166.15 206.364 166.444 206.207 166.763 206.145C167.082 206.082 167.412 206.115 167.712 206.241C168.012 206.367 168.268 206.579 168.447 206.85C168.626 207.122 168.72 207.44 168.717 207.765C168.7 208.186 168.522 208.584 168.219 208.876C167.917 209.169 167.513 209.334 167.092 209.337V209.39ZM173.179 201.398C173.034 201.584 172.848 201.733 172.635 201.835C172.423 201.936 172.19 201.988 171.954 201.984C171.522 201.984 171.107 201.814 170.8 201.509C170.493 201.205 170.319 200.792 170.316 200.359C170.315 200.067 170.394 199.78 170.544 199.529C170.694 199.277 170.91 199.072 171.168 198.934L170.902 198.628C170.651 198.777 170.436 198.979 170.27 199.219C170.105 199.459 169.993 199.733 169.943 200.02C169.893 200.307 169.906 200.602 169.98 200.884C170.054 201.166 170.189 201.429 170.374 201.654C170.56 201.88 170.792 202.062 171.054 202.189C171.317 202.317 171.604 202.386 171.896 202.392C172.187 202.398 172.477 202.341 172.744 202.224C173.012 202.108 173.251 201.935 173.446 201.718L173.179 201.398ZM147.672 190.036C147.382 189.989 147.085 190.005 146.803 190.084C146.52 190.162 146.257 190.301 146.033 190.491C145.81 190.681 145.63 190.918 145.507 191.184C145.384 191.451 145.32 191.741 145.32 192.034C145.32 192.328 145.384 192.618 145.507 192.885C145.63 193.151 145.81 193.387 146.033 193.577C146.257 193.768 146.52 193.907 146.803 193.985C147.085 194.064 147.382 194.08 147.672 194.032C148.146 193.955 148.576 193.711 148.887 193.345C149.198 192.979 149.369 192.515 149.369 192.034C149.369 191.554 149.198 191.09 148.887 190.724C148.576 190.358 148.146 190.114 147.672 190.036ZM147.672 193.686C147.457 193.688 147.244 193.647 147.046 193.566C146.847 193.485 146.666 193.366 146.514 193.215C146.362 193.064 146.241 192.884 146.158 192.686C146.076 192.488 146.033 192.276 146.033 192.061C146.033 191.63 146.205 191.217 146.509 190.912C146.814 190.607 147.227 190.436 147.658 190.436C148.089 190.436 148.503 190.607 148.807 190.912C149.112 191.217 149.283 191.63 149.283 192.061C149.26 192.472 149.079 192.859 148.78 193.141C148.48 193.423 148.083 193.58 147.672 193.58V193.686ZM166.32 193.033C166.06 193.209 165.754 193.301 165.441 193.3C165.121 193.301 164.807 193.208 164.54 193.032C164.273 192.856 164.064 192.605 163.939 192.311C163.813 192.016 163.778 191.691 163.837 191.377C163.895 191.062 164.045 190.772 164.268 190.543L164.015 190.223C163.825 190.414 163.674 190.64 163.571 190.889C163.468 191.138 163.416 191.405 163.416 191.675C163.416 191.94 163.468 192.203 163.57 192.448C163.672 192.692 163.822 192.915 164.01 193.102C164.198 193.289 164.421 193.437 164.667 193.537C164.912 193.637 165.175 193.688 165.441 193.686C165.84 193.69 166.232 193.569 166.559 193.34L166.32 193.033ZM157.875 182.75L157.302 182.058C157.432 182.299 157.5 182.569 157.502 182.844C157.502 183.168 157.405 183.486 157.225 183.755C157.044 184.025 156.787 184.235 156.487 184.359C156.187 184.482 155.857 184.514 155.539 184.449C155.221 184.385 154.929 184.228 154.7 183.997C154.472 183.767 154.317 183.474 154.255 183.155C154.193 182.836 154.228 182.506 154.354 182.207C154.48 181.908 154.692 181.653 154.963 181.475C155.234 181.296 155.552 181.203 155.877 181.205C156.271 181.206 156.651 181.353 156.942 181.618L156.343 180.886L154.305 181.565C153.992 181.937 153.826 182.411 153.839 182.897C153.842 183.435 154.059 183.95 154.44 184.329C154.822 184.709 155.339 184.922 155.877 184.922C156.142 184.922 156.405 184.869 156.65 184.767C156.894 184.665 157.117 184.516 157.304 184.328C157.491 184.14 157.639 183.916 157.739 183.671C157.839 183.425 157.89 183.162 157.888 182.897C157.905 182.881 157.919 182.861 157.929 182.839C157.938 182.818 157.943 182.794 157.943 182.77C157.943 182.747 157.938 182.723 157.929 182.701C157.919 182.68 157.905 182.66 157.888 182.644L157.875 182.75ZM130.143 190.476C129.872 190.474 129.605 190.528 129.357 190.636C128.987 190.792 128.672 191.053 128.449 191.387C128.227 191.721 128.107 192.113 128.105 192.514C128.106 192.78 128.16 193.043 128.264 193.288C128.367 193.533 128.518 193.755 128.707 193.942C128.896 194.128 129.12 194.276 129.367 194.376C129.613 194.476 129.877 194.527 130.143 194.525C130.407 194.527 130.67 194.476 130.914 194.376C131.159 194.275 131.382 194.127 131.569 193.94C131.756 193.753 131.904 193.531 132.004 193.286C132.105 193.041 132.156 192.779 132.154 192.514C132.156 192.248 132.105 191.984 132.005 191.738C131.905 191.492 131.757 191.268 131.57 191.078C131.384 190.889 131.161 190.739 130.916 190.635C130.671 190.532 130.408 190.478 130.143 190.476ZM130.143 194.139C129.817 194.142 129.499 194.047 129.227 193.868C128.956 193.689 128.744 193.434 128.618 193.134C128.493 192.834 128.459 192.503 128.522 192.184C128.585 191.865 128.741 191.572 128.971 191.342C129.201 191.112 129.494 190.956 129.813 190.893C130.132 190.83 130.462 190.864 130.762 190.99C131.062 191.115 131.318 191.327 131.497 191.599C131.676 191.87 131.77 192.189 131.768 192.514C131.768 192.946 131.597 193.361 131.292 193.668C130.988 193.975 130.575 194.149 130.143 194.152V194.139ZM120.819 198.202C120.419 198.202 120.028 198.32 119.695 198.542C119.362 198.764 119.103 199.079 118.949 199.448C118.796 199.818 118.755 200.224 118.832 200.616C118.909 201.009 119.1 201.369 119.382 201.653C119.664 201.937 120.024 202.131 120.415 202.21C120.807 202.29 121.214 202.252 121.584 202.101C121.954 201.949 122.271 201.692 122.496 201.361C122.72 201.03 122.841 200.639 122.843 200.24C122.842 199.969 122.786 199.701 122.679 199.451C122.573 199.202 122.418 198.977 122.223 198.788C122.028 198.599 121.798 198.452 121.545 198.353C121.293 198.255 121.023 198.208 120.752 198.215L120.819 198.202ZM120.819 201.865C120.494 201.865 120.177 201.768 119.907 201.588C119.637 201.407 119.427 201.15 119.304 200.85C119.18 200.55 119.148 200.22 119.213 199.902C119.277 199.584 119.434 199.292 119.665 199.063C119.895 198.834 120.188 198.679 120.507 198.618C120.826 198.556 121.156 198.59 121.455 198.716C121.754 198.842 122.009 199.055 122.187 199.326C122.366 199.597 122.46 199.915 122.457 200.24C122.455 200.46 122.409 200.678 122.322 200.88C122.235 201.082 122.109 201.265 121.95 201.418C121.791 201.571 121.603 201.69 121.397 201.769C121.192 201.848 120.972 201.885 120.752 201.878L120.819 201.865Z" fill="white"/>
<path d="M167.372 206.793C161.244 199.742 155.512 192.355 150.203 184.668C150.203 184.589 150.296 184.495 150.362 184.589C151.694 186.453 161.511 198.162 167.545 206.7C167.639 206.793 167.479 206.873 167.372 206.793Z" fill="#263238"/>
<path d="M198.941 92.1344C196.437 100.273 196.743 104.269 198.941 112.381C198.941 112.541 198.754 112.634 198.701 112.474C195.837 104.735 194.705 99.7801 198.568 91.9879C198.741 91.6016 199.061 91.7482 198.941 92.1344Z" fill="#263238"/>
<path d="M189.723 91.4818C188.578 100.3 189.23 104.602 191.588 113.087C191.588 113.207 191.428 113.273 191.388 113.087C188.364 104.962 186.966 100.086 189.27 91.4285C189.377 91.1088 189.776 91.0822 189.723 91.4818Z" fill="#263238"/>
<path d="M179.84 92.281C179.56 100.899 180.199 105.601 183.769 113.486C183.781 113.522 183.78 113.562 183.766 113.597C183.752 113.632 183.726 113.662 183.692 113.679C183.658 113.697 183.619 113.702 183.582 113.693C183.545 113.685 183.512 113.663 183.489 113.633C179.067 105.974 178.228 100.073 179.573 92.3209C179.667 91.7615 179.853 91.7348 179.84 92.281Z" fill="#263238"/>
<path d="M181.318 140.273C179.826 136.463 172.433 114.965 171.528 109.637C169.863 99.9 170.289 89.4704 174.112 87.8854C177.162 86.6333 179.759 91.8814 179.759 91.8814C179.759 91.8814 180.838 85.3412 185.007 85.0216C189.177 84.7019 189.456 91.908 189.456 91.908C189.456 91.908 191.055 85.248 195.237 85.248C199.42 85.248 198.514 92.3875 198.514 92.3875C198.514 92.3875 199.699 86.2603 203.149 87.6856C207.305 89.4038 203.855 100.473 204.694 106.334C204.814 107.239 208.997 120.719 210.129 129.897C210.416 132.782 209.9 135.691 208.637 138.302L181.318 140.273Z" fill="url(#paint4_linear_434_2872)"/>
<path d="M177.575 142.351C177.575 142.351 169.676 135.158 166.919 131.242C164.162 127.326 159.167 108.904 163.096 107.599C168.144 105.921 173.113 115.991 174.898 121.239C174.898 121.239 186.593 117.349 191.721 123.796C196.849 130.243 177.575 142.351 177.575 142.351Z" fill="url(#paint5_linear_434_2872)"/>
<path d="M173.393 117.536C174.045 118.708 174.631 119.907 175.217 121.105L174.791 120.879C176.644 120.359 178.555 120.068 180.479 120.013C182.404 119.955 184.329 120.112 186.22 120.479C188.119 120.834 189.958 121.457 191.681 122.331C193.395 123.181 194.968 124.29 196.343 125.621C194.752 124.669 193.08 123.858 191.348 123.197C189.625 122.538 187.84 122.056 186.02 121.758C182.378 121.139 178.663 121.086 175.004 121.598H174.658L174.565 121.319C174.138 120.106 173.739 118.828 173.393 117.536Z" fill="#263238"/>
<path d="M137.931 254.433V276.624H68.8403C68.8403 276.624 78.4707 220.52 97.5716 201.22C107.135 191.563 117.898 192.695 124.531 199.888C126.21 201.713 140.515 225.569 142.3 236.131C143.845 245.442 137.931 254.433 137.931 254.433Z" fill="url(#paint6_linear_434_2872)"/>
<path d="M98.8675 230.969C98.3293 230.972 97.8143 231.189 97.435 231.57C97.0557 231.952 96.8428 232.469 96.8428 233.007C96.9356 233.468 97.1853 233.884 97.5496 234.182C97.9138 234.48 98.3701 234.643 98.8408 234.643C99.3116 234.643 99.7679 234.48 100.132 234.182C100.496 233.884 100.746 233.468 100.839 233.007C100.836 232.479 100.629 231.972 100.262 231.592C99.8948 231.213 99.3953 230.989 98.8675 230.969ZM98.8675 234.632C98.5423 234.634 98.2237 234.54 97.9523 234.361C97.6808 234.182 97.4688 233.926 97.3431 233.627C97.2175 233.327 97.1839 232.996 97.2467 232.677C97.3095 232.358 97.4658 232.065 97.6957 231.835C97.9256 231.605 98.2188 231.449 98.5378 231.386C98.8569 231.323 99.1874 231.357 99.4873 231.482C99.7872 231.608 100.043 231.82 100.222 232.092C100.401 232.363 100.495 232.682 100.493 233.007C100.493 233.438 100.321 233.851 100.017 234.156C99.7118 234.461 99.2985 234.632 98.8675 234.632ZM120.752 198.215C120.352 198.215 119.961 198.333 119.629 198.555C119.296 198.777 119.037 199.093 118.883 199.462C118.729 199.831 118.689 200.237 118.766 200.63C118.843 201.022 119.034 201.383 119.316 201.666C119.598 201.95 119.957 202.144 120.349 202.224C120.741 202.303 121.148 202.265 121.518 202.114C121.888 201.963 122.205 201.705 122.429 201.374C122.653 201.043 122.774 200.653 122.777 200.253C122.777 199.715 122.564 199.198 122.185 198.816C121.805 198.435 121.29 198.218 120.752 198.215ZM120.752 201.878C120.428 201.878 120.11 201.781 119.841 201.601C119.571 201.42 119.361 201.164 119.237 200.863C119.114 200.563 119.082 200.233 119.146 199.915C119.211 199.597 119.368 199.305 119.599 199.076C119.829 198.848 120.122 198.693 120.441 198.631C120.76 198.569 121.089 198.604 121.389 198.73C121.688 198.856 121.943 199.068 122.121 199.339C122.299 199.61 122.393 199.928 122.391 200.253C122.384 200.684 122.208 201.095 121.902 201.399C121.596 201.703 121.183 201.874 120.752 201.878ZM112.241 206.78C111.767 206.857 111.336 207.101 111.025 207.467C110.714 207.833 110.543 208.297 110.543 208.778C110.543 209.258 110.714 209.722 111.025 210.088C111.336 210.454 111.767 210.698 112.241 210.776C112.53 210.823 112.827 210.807 113.11 210.728C113.393 210.65 113.655 210.511 113.879 210.321C114.103 210.131 114.282 209.894 114.406 209.628C114.529 209.361 114.593 209.071 114.593 208.778C114.593 208.484 114.529 208.194 114.406 207.928C114.282 207.661 114.103 207.425 113.879 207.235C113.655 207.045 113.393 206.905 113.11 206.827C112.827 206.748 112.53 206.732 112.241 206.78ZM112.241 210.429C111.916 210.429 111.599 210.333 111.329 210.152C111.059 209.972 110.849 209.715 110.726 209.415C110.602 209.115 110.571 208.785 110.635 208.466C110.699 208.148 110.857 207.856 111.087 207.628C111.318 207.399 111.611 207.244 111.929 207.183C112.248 207.121 112.578 207.155 112.877 207.281C113.176 207.407 113.431 207.619 113.61 207.89C113.788 208.162 113.882 208.48 113.879 208.804C113.886 209.233 113.724 209.647 113.427 209.957C113.13 210.266 112.723 210.446 112.294 210.456L112.241 210.429ZM74.5984 261.751C74.0881 261.793 73.6121 262.025 73.2649 262.401C72.9178 262.777 72.7251 263.271 72.7251 263.783C72.7251 264.295 72.9178 264.788 73.2649 265.164C73.6121 265.541 74.0881 265.773 74.5984 265.814C74.879 265.837 75.1613 265.801 75.4274 265.709C75.6935 265.617 75.9378 265.472 76.1447 265.281C76.3516 265.09 76.5168 264.858 76.6297 264.6C76.7427 264.343 76.801 264.064 76.801 263.783C76.801 263.501 76.7427 263.223 76.6297 262.965C76.5168 262.707 76.3516 262.475 76.1447 262.284C75.9378 262.094 75.6935 261.948 75.4274 261.856C75.1613 261.764 74.879 261.729 74.5984 261.751ZM74.5984 265.414C74.2744 265.414 73.9576 265.318 73.6882 265.138C73.4188 264.958 73.2088 264.702 73.0848 264.403C72.9608 264.104 72.9283 263.774 72.9916 263.456C73.0548 263.139 73.2108 262.847 73.4399 262.617C73.6691 262.388 73.961 262.232 74.2788 262.169C74.5966 262.106 74.926 262.138 75.2254 262.262C75.5248 262.386 75.7807 262.596 75.9607 262.866C76.1407 263.135 76.2368 263.452 76.2368 263.776C76.2404 264.202 76.0763 264.613 75.7797 264.92C75.4832 265.226 75.0781 265.404 74.6517 265.414H74.5984ZM94.645 262.311C94.3798 262.309 94.1168 262.36 93.8712 262.46C93.6257 262.56 93.4024 262.708 93.2142 262.895C93.026 263.082 92.8767 263.304 92.7748 263.549C92.6729 263.794 92.6204 264.057 92.6204 264.322C92.5729 264.612 92.589 264.908 92.6676 265.191C92.7462 265.474 92.8853 265.736 93.0754 265.96C93.2654 266.184 93.5019 266.364 93.7683 266.487C94.0348 266.61 94.3248 266.674 94.6184 266.674C94.912 266.674 95.202 266.61 95.4685 266.487C95.7349 266.364 95.9714 266.184 96.1614 265.96C96.3515 265.736 96.4907 265.474 96.5692 265.191C96.6478 264.908 96.6639 264.612 96.6164 264.322C96.617 263.804 96.4179 263.306 96.0606 262.932C95.7034 262.557 95.2154 262.335 94.6983 262.311H94.645ZM94.645 265.96C94.2377 265.924 93.8589 265.736 93.5831 265.434C93.3072 265.132 93.1543 264.738 93.1543 264.329C93.1543 263.92 93.3072 263.526 93.5831 263.224C93.8589 262.922 94.2377 262.734 94.645 262.697C94.8717 262.677 95.1002 262.703 95.3158 262.776C95.5315 262.849 95.7297 262.966 95.8977 263.119C96.0657 263.273 96.1999 263.46 96.2917 263.668C96.3836 263.876 96.431 264.101 96.431 264.329C96.431 264.556 96.3836 264.781 96.2917 264.99C96.1999 265.198 96.0657 265.385 95.8977 265.538C95.7297 265.692 95.5315 265.809 95.3158 265.881C95.1002 265.954 94.8717 265.981 94.645 265.96ZM75.9438 245.088L75.8239 245.461C76.1015 245.591 76.3358 245.799 76.4987 246.058C76.6617 246.318 76.7465 246.619 76.743 246.926C76.743 247.358 76.5722 247.773 76.2678 248.08C75.9634 248.387 75.5501 248.561 75.1179 248.565C75.0654 248.577 75.0106 248.577 74.9581 248.565L74.8515 248.951C74.9443 248.964 75.0385 248.964 75.1312 248.951C75.6682 248.951 76.1832 248.737 76.5629 248.358C76.9426 247.978 77.1559 247.463 77.1559 246.926C77.1561 246.535 77.0414 246.152 76.8259 245.825C76.6104 245.498 76.3036 245.242 75.9438 245.088ZM87.3723 239.347C86.9725 239.35 86.5823 239.471 86.2512 239.695C85.92 239.919 85.6625 240.236 85.5113 240.606C85.3601 240.976 85.3219 241.383 85.4015 241.775C85.4812 242.167 85.675 242.526 85.9587 242.808C86.2424 243.09 86.6031 243.281 86.9955 243.358C87.3879 243.435 87.7943 243.395 88.1635 243.241C88.5327 243.087 88.8481 242.828 89.07 242.495C89.2918 242.162 89.4103 241.772 89.4103 241.372C89.4193 241.099 89.3731 240.828 89.2745 240.573C89.176 240.319 89.027 240.087 88.8367 239.892C88.6464 239.697 88.4186 239.542 88.1669 239.437C87.9153 239.332 87.645 239.279 87.3723 239.28V239.347ZM87.3723 243.01C86.9424 243.003 86.5325 242.827 86.231 242.521C85.9295 242.214 85.7605 241.802 85.7606 241.372C85.7606 240.941 85.9318 240.527 86.2366 240.223C86.5413 239.918 86.9546 239.747 87.3856 239.747C87.8166 239.747 88.23 239.918 88.5347 240.223C88.8395 240.527 89.0107 240.941 89.0107 241.372C88.9903 241.793 88.8091 242.191 88.5044 242.484C88.1997 242.776 87.7946 242.941 87.3723 242.943V243.01ZM132.421 254.252C132.131 254.205 131.834 254.221 131.551 254.299C131.269 254.378 131.006 254.517 130.782 254.707C130.559 254.897 130.379 255.134 130.256 255.4C130.132 255.667 130.069 255.957 130.069 256.25C130.069 256.544 130.132 256.834 130.256 257.1C130.379 257.367 130.559 257.603 130.782 257.793C131.006 257.983 131.269 258.122 131.551 258.201C131.834 258.28 132.131 258.296 132.421 258.248C132.894 258.171 133.325 257.927 133.636 257.561C133.947 257.195 134.118 256.73 134.118 256.25C134.118 255.77 133.947 255.305 133.636 254.939C133.325 254.573 132.894 254.33 132.421 254.252ZM132.421 257.902C132.099 257.902 131.784 257.806 131.516 257.627C131.249 257.448 131.041 257.193 130.918 256.896C130.795 256.598 130.764 256.27 130.828 255.955C130.892 255.639 131.048 255.35 131.276 255.123C131.505 254.896 131.796 254.743 132.112 254.681C132.428 254.62 132.755 254.654 133.052 254.779C133.348 254.904 133.601 255.115 133.778 255.384C133.955 255.653 134.048 255.968 134.046 256.29C134.022 256.706 133.841 257.097 133.539 257.384C133.237 257.671 132.837 257.833 132.421 257.835V257.902ZM132.421 270.063C132.131 270.016 131.834 270.032 131.551 270.11C131.269 270.189 131.006 270.328 130.782 270.518C130.559 270.708 130.379 270.944 130.256 271.211C130.132 271.477 130.069 271.767 130.069 272.061C130.069 272.355 130.132 272.645 130.256 272.911C130.379 273.178 130.559 273.414 130.782 273.604C131.006 273.794 131.269 273.933 131.551 274.012C131.834 274.09 132.131 274.106 132.421 274.059C132.894 273.981 133.325 273.738 133.636 273.372C133.947 273.006 134.118 272.541 134.118 272.061C134.118 271.581 133.947 271.116 133.636 270.75C133.325 270.384 132.894 270.141 132.421 270.063ZM132.421 273.726C132.095 273.729 131.777 273.634 131.505 273.455C131.234 273.276 131.022 273.021 130.896 272.721C130.771 272.421 130.737 272.09 130.8 271.771C130.863 271.452 131.019 271.159 131.249 270.929C131.479 270.699 131.772 270.543 132.091 270.48C132.41 270.417 132.74 270.451 133.04 270.577C133.34 270.702 133.596 270.914 133.775 271.186C133.954 271.457 134.048 271.776 134.046 272.101C134.025 272.519 133.845 272.914 133.543 273.204C133.241 273.493 132.839 273.656 132.421 273.659V273.726ZM121.125 247.246C120.722 247.243 120.326 247.36 119.989 247.583C119.652 247.805 119.389 248.122 119.233 248.495C119.077 248.867 119.034 249.277 119.111 249.673C119.189 250.069 119.382 250.434 119.666 250.72C119.951 251.006 120.314 251.202 120.709 251.282C121.105 251.361 121.516 251.322 121.889 251.168C122.262 251.014 122.581 250.753 122.805 250.417C123.03 250.082 123.15 249.687 123.15 249.284C123.159 249.012 123.113 248.741 123.015 248.487C122.918 248.232 122.77 248 122.582 247.804C122.393 247.608 122.167 247.452 121.917 247.344C121.667 247.237 121.397 247.181 121.125 247.179V247.246ZM121.125 250.909C120.8 250.911 120.481 250.817 120.21 250.638C119.939 250.459 119.726 250.204 119.601 249.904C119.475 249.604 119.442 249.273 119.504 248.954C119.567 248.635 119.724 248.342 119.953 248.112C120.183 247.882 120.477 247.726 120.796 247.663C121.115 247.6 121.445 247.634 121.745 247.759C122.045 247.885 122.301 248.097 122.48 248.369C122.659 248.64 122.753 248.959 122.75 249.284C122.73 249.702 122.55 250.097 122.248 250.386C121.946 250.676 121.544 250.839 121.125 250.842V250.909ZM130.569 210.07H130.249C129.944 210.063 129.646 209.97 129.391 209.801C129.136 209.633 128.934 209.396 128.807 209.118C128.681 208.84 128.635 208.532 128.676 208.229C128.717 207.926 128.842 207.641 129.037 207.406C128.971 207.273 128.891 207.153 128.824 207.033C128.634 207.223 128.483 207.45 128.38 207.699C128.277 207.948 128.224 208.215 128.225 208.485C128.223 208.751 128.274 209.015 128.375 209.262C128.476 209.508 128.625 209.732 128.814 209.92C129.002 210.109 129.226 210.258 129.473 210.359C129.719 210.46 129.983 210.511 130.249 210.509C130.426 210.511 130.601 210.484 130.769 210.429L130.569 210.07ZM121.831 215.398C121.431 215.398 121.039 215.516 120.706 215.739C120.373 215.961 120.114 216.278 119.961 216.648C119.807 217.017 119.767 217.425 119.845 217.817C119.924 218.21 120.116 218.571 120.4 218.854C120.683 219.137 121.043 219.33 121.436 219.408C121.829 219.486 122.236 219.446 122.606 219.293C122.976 219.14 123.292 218.88 123.515 218.547C123.737 218.214 123.856 217.823 123.856 217.422C123.861 217.153 123.813 216.886 123.713 216.635C123.614 216.385 123.466 216.157 123.277 215.965C123.089 215.773 122.864 215.62 122.615 215.516C122.367 215.411 122.1 215.358 121.831 215.358V215.398ZM121.831 219.047C121.4 219.047 120.987 218.876 120.682 218.571C120.377 218.267 120.206 217.853 120.206 217.422C120.206 216.991 120.377 216.578 120.682 216.273C120.987 215.969 121.4 215.797 121.831 215.797C122.262 215.797 122.675 215.969 122.98 216.273C123.285 216.578 123.456 216.991 123.456 217.422C123.449 217.847 123.274 218.253 122.97 218.55C122.666 218.846 122.256 219.011 121.831 219.007V219.047ZM132.421 223.856C132.131 223.808 131.834 223.825 131.551 223.903C131.269 223.982 131.006 224.121 130.782 224.311C130.559 224.501 130.379 224.737 130.256 225.004C130.132 225.27 130.069 225.56 130.069 225.854C130.069 226.147 130.132 226.438 130.256 226.704C130.379 226.97 130.559 227.207 130.782 227.397C131.006 227.587 131.269 227.726 131.551 227.805C131.834 227.883 132.131 227.899 132.421 227.852C132.894 227.774 133.325 227.531 133.636 227.165C133.947 226.799 134.118 226.334 134.118 225.854C134.118 225.374 133.947 224.909 133.636 224.543C133.325 224.177 132.894 223.934 132.421 223.856ZM132.421 227.506C132.206 227.507 131.993 227.467 131.795 227.386C131.596 227.305 131.415 227.185 131.263 227.034C131.111 226.883 130.99 226.704 130.907 226.506C130.825 226.307 130.782 226.095 130.782 225.881C130.762 225.654 130.789 225.425 130.861 225.21C130.934 224.994 131.051 224.796 131.204 224.628C131.358 224.46 131.545 224.326 131.753 224.234C131.961 224.142 132.186 224.095 132.414 224.095C132.641 224.095 132.867 224.142 133.075 224.234C133.283 224.326 133.47 224.46 133.623 224.628C133.777 224.796 133.894 224.994 133.966 225.21C134.039 225.425 134.066 225.654 134.046 225.881C134.035 226.305 133.859 226.708 133.556 227.004C133.252 227.3 132.845 227.466 132.421 227.466V227.506ZM110.682 223.776C110.282 223.776 109.89 223.895 109.557 224.117C109.225 224.34 108.965 224.656 108.812 225.026C108.659 225.396 108.618 225.803 108.697 226.196C108.775 226.588 108.968 226.949 109.251 227.232C109.534 227.515 109.895 227.708 110.287 227.786C110.68 227.864 111.087 227.824 111.457 227.671C111.827 227.518 112.143 227.258 112.366 226.925C112.588 226.593 112.707 226.201 112.707 225.801C112.703 225.265 112.489 224.752 112.11 224.373C111.731 223.994 111.218 223.779 110.682 223.776ZM110.682 227.426C110.468 227.427 110.255 227.387 110.056 227.306C109.858 227.225 109.677 227.106 109.525 226.954C109.372 226.803 109.251 226.624 109.169 226.426C109.086 226.228 109.044 226.015 109.044 225.801C109.023 225.574 109.05 225.346 109.123 225.13C109.196 224.914 109.313 224.716 109.466 224.548C109.62 224.38 109.806 224.246 110.015 224.154C110.223 224.062 110.448 224.015 110.676 224.015C110.903 224.015 111.128 224.062 111.337 224.154C111.545 224.246 111.732 224.38 111.885 224.548C112.039 224.716 112.156 224.914 112.228 225.13C112.301 225.346 112.328 225.574 112.307 225.801C112.315 226.018 112.278 226.234 112.199 226.437C112.121 226.64 112.002 226.824 111.85 226.98C111.698 227.135 111.516 227.258 111.316 227.342C111.115 227.425 110.9 227.468 110.682 227.466V227.426ZM102.317 198.122C101.918 198.124 101.528 198.245 101.198 198.468C100.867 198.692 100.609 199.008 100.458 199.378C100.306 199.747 100.267 200.153 100.346 200.545C100.424 200.936 100.617 201.296 100.899 201.578C101.181 201.86 101.541 202.053 101.932 202.131C102.324 202.21 102.73 202.171 103.099 202.019C103.469 201.868 103.785 201.61 104.009 201.279C104.232 200.949 104.353 200.559 104.355 200.16C104.331 199.635 104.106 199.141 103.726 198.778C103.347 198.416 102.842 198.214 102.317 198.215V198.122ZM102.317 201.785C101.992 201.787 101.674 201.693 101.402 201.514C101.131 201.335 100.919 201.079 100.793 200.779C100.667 200.48 100.634 200.149 100.697 199.83C100.759 199.511 100.916 199.218 101.146 198.988C101.376 198.758 101.669 198.602 101.988 198.539C102.307 198.476 102.637 198.51 102.937 198.635C103.237 198.761 103.493 198.973 103.672 199.244C103.851 199.516 103.945 199.834 103.942 200.16C103.953 200.38 103.919 200.601 103.843 200.808C103.766 201.015 103.648 201.205 103.496 201.365C103.345 201.526 103.162 201.654 102.959 201.742C102.757 201.83 102.538 201.876 102.317 201.878V201.785ZM100.692 214.119C100.293 214.122 99.9034 214.242 99.5725 214.466C99.2416 214.689 98.9842 215.006 98.8326 215.375C98.681 215.744 98.6421 216.15 98.7206 216.542C98.7991 216.933 98.9917 217.293 99.274 217.575C99.5564 217.858 99.9159 218.05 100.307 218.129C100.699 218.207 101.105 218.168 101.474 218.017C101.844 217.865 102.16 217.608 102.384 217.277C102.607 216.946 102.728 216.556 102.73 216.157C102.706 215.633 102.481 215.138 102.101 214.776C101.722 214.414 101.217 214.212 100.692 214.212V214.119ZM100.692 217.782C100.367 217.785 100.049 217.69 99.7771 217.511C99.5057 217.332 99.2936 217.077 99.1679 216.777C99.0423 216.477 99.0087 216.146 99.0715 215.827C99.1343 215.508 99.2906 215.215 99.5206 214.985C99.7505 214.755 100.044 214.599 100.363 214.536C100.682 214.473 101.012 214.507 101.312 214.633C101.612 214.758 101.868 214.97 102.047 215.242C102.226 215.513 102.32 215.832 102.317 216.157C102.328 216.378 102.294 216.598 102.218 216.805C102.141 217.013 102.023 217.202 101.871 217.363C101.719 217.523 101.537 217.651 101.334 217.739C101.132 217.827 100.913 217.874 100.692 217.875V217.782ZM121.765 261.738C121.291 261.816 120.86 262.059 120.549 262.425C120.238 262.791 120.067 263.256 120.067 263.736C120.067 264.216 120.238 264.681 120.549 265.047C120.86 265.413 121.291 265.656 121.765 265.734C122.054 265.781 122.351 265.765 122.634 265.687C122.917 265.608 123.179 265.469 123.403 265.279C123.626 265.089 123.806 264.853 123.929 264.586C124.053 264.32 124.117 264.03 124.117 263.736C124.117 263.442 124.053 263.152 123.929 262.886C123.806 262.619 123.626 262.383 123.403 262.193C123.179 262.003 122.917 261.864 122.634 261.785C122.351 261.707 122.054 261.691 121.765 261.738ZM121.765 265.388C121.442 265.385 121.127 265.287 120.859 265.106C120.592 264.925 120.384 264.669 120.262 264.37C120.139 264.071 120.108 263.743 120.172 263.426C120.235 263.11 120.391 262.819 120.619 262.591C120.848 262.363 121.138 262.207 121.455 262.143C121.772 262.079 122.1 262.111 122.399 262.233C122.698 262.356 122.954 262.563 123.135 262.831C123.316 263.098 123.414 263.413 123.416 263.736C123.423 263.956 123.386 264.175 123.306 264.381C123.226 264.586 123.105 264.772 122.95 264.929C122.796 265.086 122.611 265.21 122.407 265.294C122.203 265.377 121.985 265.418 121.765 265.414V265.388ZM98.8675 247.153C98.4644 247.153 98.0704 247.272 97.7352 247.496C97.4001 247.72 97.1389 248.038 96.9846 248.411C96.8304 248.783 96.79 249.193 96.8687 249.588C96.9473 249.983 97.1414 250.347 97.4264 250.632C97.7114 250.917 98.0746 251.111 98.4699 251.189C98.8652 251.268 99.275 251.228 99.6474 251.073C100.02 250.919 100.338 250.658 100.562 250.323C100.786 249.988 100.905 249.594 100.905 249.191C100.898 248.655 100.681 248.143 100.299 247.767C99.9178 247.39 99.4034 247.179 98.8675 247.179V247.153ZM98.8675 250.816C98.5423 250.818 98.2237 250.724 97.9523 250.545C97.6808 250.366 97.4688 250.11 97.3431 249.81C97.2175 249.51 97.1839 249.18 97.2467 248.861C97.3095 248.542 97.4658 248.249 97.6957 248.019C97.9256 247.789 98.2188 247.633 98.5378 247.57C98.8569 247.507 99.1874 247.541 99.4873 247.666C99.7872 247.792 100.043 248.004 100.222 248.275C100.401 248.547 100.495 248.865 100.493 249.191C100.496 249.406 100.457 249.62 100.377 249.821C100.296 250.021 100.177 250.203 100.026 250.357C99.8748 250.511 99.6945 250.633 99.4956 250.716C99.2966 250.799 99.0832 250.842 98.8675 250.842V250.816ZM110.203 239.72C109.913 239.673 109.617 239.689 109.334 239.767C109.051 239.846 108.788 239.985 108.565 240.175C108.341 240.365 108.161 240.602 108.038 240.868C107.915 241.134 107.851 241.424 107.851 241.718C107.851 242.012 107.915 242.302 108.038 242.568C108.161 242.835 108.341 243.071 108.565 243.261C108.788 243.451 109.051 243.59 109.334 243.669C109.617 243.747 109.913 243.763 110.203 243.716C110.677 243.638 111.108 243.395 111.418 243.029C111.729 242.663 111.9 242.198 111.9 241.718C111.9 241.238 111.729 240.773 111.418 240.407C111.108 240.041 110.677 239.798 110.203 239.72ZM110.203 243.37C109.881 243.372 109.565 243.279 109.296 243.102C109.027 242.925 108.817 242.673 108.692 242.376C108.567 242.079 108.533 241.752 108.594 241.436C108.655 241.12 108.809 240.829 109.036 240.6C109.262 240.372 109.552 240.216 109.868 240.152C110.183 240.088 110.511 240.119 110.808 240.242C111.106 240.365 111.361 240.573 111.54 240.84C111.719 241.108 111.814 241.423 111.815 241.745C111.818 242.177 111.651 242.593 111.349 242.902C111.047 243.212 110.635 243.389 110.203 243.396V243.37ZM132.847 239.254C132.309 239.257 131.794 239.474 131.414 239.855C131.035 240.237 130.822 240.754 130.822 241.292C130.9 241.766 131.143 242.197 131.509 242.507C131.875 242.818 132.34 242.989 132.82 242.989C133.3 242.989 133.765 242.818 134.131 242.507C134.497 242.197 134.741 241.766 134.818 241.292C134.811 240.76 134.597 240.253 134.221 239.877C133.846 239.501 133.338 239.287 132.807 239.28L132.847 239.254ZM132.847 242.917C132.62 242.937 132.392 242.91 132.176 242.838C131.96 242.765 131.762 242.648 131.594 242.495C131.426 242.341 131.292 242.154 131.2 241.946C131.108 241.738 131.061 241.513 131.061 241.285C131.061 241.058 131.108 240.832 131.2 240.624C131.292 240.416 131.426 240.229 131.594 240.076C131.762 239.922 131.96 239.805 132.176 239.733C132.392 239.66 132.62 239.633 132.847 239.653C133.254 239.69 133.633 239.878 133.909 240.18C134.185 240.482 134.338 240.876 134.338 241.285C134.338 241.694 134.185 242.088 133.909 242.39C133.633 242.692 133.254 242.88 132.847 242.917ZM120.859 230.929C120.319 230.932 119.803 231.148 119.422 231.53C119.04 231.911 118.824 232.427 118.821 232.967C118.823 233.233 118.877 233.496 118.98 233.741C119.083 233.986 119.234 234.208 119.423 234.395C119.612 234.581 119.837 234.729 120.083 234.829C120.329 234.929 120.593 234.98 120.859 234.978C121.123 234.98 121.386 234.929 121.631 234.829C121.875 234.728 122.098 234.58 122.285 234.393C122.472 234.206 122.62 233.983 122.721 233.739C122.821 233.494 122.872 233.231 122.87 232.967C122.867 232.701 122.811 232.438 122.706 232.194C122.601 231.95 122.449 231.728 122.258 231.543C122.068 231.357 121.843 231.211 121.596 231.113C121.349 231.014 121.085 230.965 120.819 230.969L120.859 230.929ZM120.859 234.592C120.534 234.594 120.215 234.5 119.944 234.321C119.672 234.142 119.46 233.887 119.334 233.587C119.209 233.287 119.175 232.956 119.238 232.637C119.301 232.318 119.457 232.025 119.687 231.795C119.917 231.565 120.21 231.409 120.529 231.346C120.848 231.283 121.179 231.317 121.479 231.442C121.779 231.568 122.034 231.78 122.213 232.052C122.392 232.323 122.486 232.642 122.484 232.967C122.487 233.186 122.447 233.405 122.364 233.608C122.282 233.812 122.16 233.997 122.004 234.152C121.849 234.307 121.664 234.43 121.46 234.512C121.257 234.595 121.038 234.635 120.819 234.632L120.859 234.592ZM89.064 221.751C88.6619 221.743 88.2666 221.855 87.9284 222.073C87.5903 222.291 87.3246 222.604 87.1652 222.973C87.0058 223.342 86.96 223.751 87.0335 224.146C87.1071 224.541 87.2967 224.906 87.5782 225.193C87.8597 225.48 88.2203 225.677 88.6141 225.758C89.0079 225.84 89.417 225.802 89.7893 225.65C90.1616 225.498 90.4802 225.239 90.7045 224.905C90.9287 224.571 91.0486 224.178 91.0486 223.776C91.0348 223.247 90.8158 222.744 90.438 222.374C90.0602 222.004 89.5531 221.795 89.024 221.791L89.064 221.751ZM89.064 225.401C88.6353 225.398 88.2254 225.225 87.9235 224.92C87.6216 224.616 87.4522 224.205 87.4522 223.776C87.4496 223.451 87.5434 223.133 87.7218 222.862C87.9003 222.591 88.1552 222.379 88.4543 222.253C88.7535 222.127 89.0833 222.092 89.402 222.154C89.7207 222.216 90.0138 222.371 90.2443 222.599C90.4748 222.828 90.6321 223.12 90.6964 223.438C90.7607 223.756 90.7291 224.086 90.6055 224.387C90.4819 224.687 90.2719 224.943 90.0022 225.124C89.7325 225.305 89.4152 225.401 89.0906 225.401H89.064ZM92.6204 206.527L92.3007 206.966C92.3073 207.019 92.3073 207.073 92.3007 207.126C92.3 207.47 92.19 207.805 91.9865 208.083C91.783 208.361 91.4966 208.567 91.1685 208.671C91.0619 208.818 90.9687 208.977 90.8755 209.124C91.3748 209.081 91.8396 208.851 92.1776 208.481C92.5156 208.111 92.7022 207.627 92.7003 207.126C92.6909 206.934 92.6505 206.745 92.5804 206.567L92.6204 206.527ZM107.272 269.956C106.872 269.956 106.481 270.075 106.148 270.298C105.815 270.52 105.555 270.836 105.402 271.206C105.249 271.576 105.209 271.983 105.287 272.376C105.365 272.769 105.558 273.13 105.841 273.413C106.124 273.696 106.485 273.889 106.877 273.967C107.27 274.045 107.677 274.005 108.047 273.852C108.417 273.698 108.733 273.439 108.956 273.106C109.178 272.773 109.297 272.382 109.297 271.981C109.287 271.453 109.071 270.951 108.695 270.58C108.319 270.209 107.814 270 107.286 269.996L107.272 269.956ZM107.272 273.619C106.839 273.616 106.424 273.442 106.118 273.136C105.811 272.829 105.638 272.415 105.634 271.981C105.638 271.549 105.812 271.136 106.119 270.831C106.425 270.527 106.84 270.356 107.272 270.356C107.486 270.354 107.698 270.395 107.896 270.476C108.094 270.557 108.274 270.677 108.425 270.828C108.577 270.979 108.696 271.159 108.777 271.357C108.858 271.555 108.899 271.767 108.897 271.981C108.903 272.197 108.865 272.413 108.787 272.614C108.709 272.816 108.591 273 108.441 273.156C108.291 273.312 108.112 273.437 107.914 273.523C107.715 273.61 107.502 273.656 107.286 273.659L107.272 273.619ZM108.764 254.625C108.498 254.623 108.235 254.674 107.988 254.774C107.742 254.874 107.518 255.022 107.329 255.209C107.139 255.395 106.989 255.618 106.885 255.863C106.782 256.108 106.728 256.371 106.726 256.636C106.704 256.917 106.739 257.199 106.831 257.465C106.923 257.732 107.069 257.976 107.259 258.183C107.45 258.39 107.682 258.555 107.94 258.668C108.198 258.781 108.476 258.839 108.758 258.839C109.039 258.839 109.318 258.781 109.575 258.668C109.833 258.555 110.065 258.39 110.256 258.183C110.447 257.976 110.592 257.732 110.684 257.465C110.776 257.199 110.812 256.917 110.789 256.636C110.789 256.371 110.736 256.109 110.635 255.864C110.533 255.619 110.383 255.396 110.195 255.209C110.007 255.023 109.784 254.875 109.538 254.774C109.292 254.674 109.029 254.623 108.764 254.625ZM108.764 258.275C108.44 258.277 108.122 258.184 107.85 258.005C107.579 257.827 107.367 257.572 107.241 257.273C107.115 256.974 107.081 256.644 107.142 256.325C107.204 256.006 107.359 255.713 107.588 255.483C107.816 255.252 108.108 255.095 108.426 255.031C108.745 254.966 109.075 254.998 109.375 255.122C109.675 255.245 109.932 255.455 110.112 255.725C110.293 255.995 110.389 256.312 110.389 256.636C110.389 257.069 110.219 257.483 109.914 257.79C109.61 258.097 109.196 258.271 108.764 258.275ZM83.5228 271.235C82.9882 271.235 82.4752 271.447 82.0959 271.823C81.7166 272.2 81.5017 272.712 81.4982 273.246C81.4929 273.651 81.6083 274.048 81.8296 274.387C82.0509 274.726 82.3681 274.992 82.7407 275.149C83.1134 275.307 83.5247 275.351 83.9221 275.274C84.3195 275.197 84.6851 275.004 84.9723 274.719C85.2594 274.434 85.4551 274.069 85.5344 273.672C85.6137 273.275 85.5731 272.864 85.4176 272.49C85.2621 272.116 84.9989 271.798 84.6614 271.574C84.324 271.351 83.9276 271.233 83.5228 271.235ZM83.5228 274.885C83.1988 274.885 82.882 274.789 82.6126 274.609C82.3432 274.429 82.1332 274.173 82.0092 273.873C81.8852 273.574 81.8527 273.245 81.916 272.927C81.9792 272.609 82.1352 272.317 82.3643 272.088C82.5935 271.859 82.8854 271.703 83.2032 271.64C83.521 271.576 83.8504 271.609 84.1498 271.733C84.4492 271.857 84.7051 272.067 84.8851 272.336C85.0651 272.606 85.1612 272.922 85.1612 273.246C85.1612 273.681 84.9886 274.098 84.6813 274.405C84.3741 274.712 83.9574 274.885 83.5228 274.885ZM85.5475 253.786C85.1476 253.789 84.7575 253.91 84.4263 254.134C84.0951 254.358 83.8377 254.675 83.6865 255.045C83.5353 255.415 83.4971 255.822 83.5767 256.214C83.6563 256.606 83.8502 256.965 84.1339 257.247C84.4175 257.529 84.7783 257.72 85.1707 257.797C85.5631 257.874 85.9695 257.833 86.3386 257.68C86.7078 257.526 87.0232 257.267 87.2451 256.934C87.467 256.601 87.5854 256.21 87.5854 255.811C87.5819 255.272 87.3656 254.757 86.9838 254.378C86.602 253.999 86.0857 253.786 85.5475 253.786ZM85.5475 257.449C85.1164 257.442 84.705 257.267 84.4014 256.961C84.0978 256.654 83.9259 256.242 83.9224 255.811C83.9225 255.486 84.0189 255.169 84.1995 254.899C84.3801 254.629 84.6368 254.419 84.9369 254.296C85.2371 254.172 85.5672 254.14 85.8854 254.205C86.2035 254.269 86.4954 254.426 86.724 254.657C86.9526 254.887 87.1076 255.181 87.1693 255.499C87.231 255.818 87.1966 256.148 87.0706 256.447C86.9445 256.746 86.7325 257.001 86.4613 257.179C86.1901 257.358 85.8721 257.452 85.5475 257.449Z" fill="white"/>
<path d="M110.922 251.428C114.978 251.058 119.057 250.986 123.123 251.215C125.135 251.362 127.119 251.601 129.144 251.881C130.143 252.014 131.142 252.121 132.141 252.227C133.189 252.361 134.25 252.361 135.298 252.227C135.391 252.227 135.418 252.361 135.298 252.374C134.33 252.607 133.346 252.767 132.354 252.854C131.387 252.92 130.417 252.92 129.45 252.854C127.399 252.72 125.361 252.507 123.31 252.361C119.181 252.054 115.051 251.761 110.896 251.761C110.736 251.748 110.722 251.442 110.922 251.428Z" fill="#263238"/>
<path d="M101.691 256.756C104.917 255.81 108.195 255.05 111.508 254.479C113.16 254.199 114.825 254.012 116.503 253.879L118.901 253.719C119.793 253.719 120.672 253.719 121.565 253.719C121.644 253.719 121.671 253.853 121.565 253.866C120.739 253.946 119.926 254.159 119.1 254.292L116.609 254.678C114.958 254.931 113.306 255.211 111.654 255.451C108.324 255.944 104.994 256.463 101.731 257.063C101.558 257.076 101.531 256.796 101.691 256.756Z" fill="#263238"/>
<path d="M91.4483 202.997C83.2032 207.978 40.2062 236.297 35.3711 250.829C28.1649 272.461 33.16 298.941 34.7184 310.622C35.411 315.724 70.6824 314.139 70.7623 308.638C70.9355 296.889 68.4713 266.653 69.6434 262.724C70.8156 258.794 92.2874 229.424 103.396 215.304C118.328 196.337 111.521 190.889 91.4483 202.997Z" fill="#F7A9A0"/>
<path d="M69.2304 306.36C69.2304 306.36 76.7162 318.348 78.6876 325.874C80.5472 333.74 80.4695 341.94 78.4612 349.77C76.33 358.228 65.301 377.209 59.2804 374.985C53.8325 372.96 66.1402 354.099 66.1402 354.099C66.1402 354.099 56.8162 375.411 50.7023 371.721C44.5884 368.032 60.0263 347.053 60.0263 347.053C60.0263 347.053 49.9564 368.671 44.2421 363.942C39.9264 360.359 52.8468 340.512 52.8468 340.512C52.8468 340.512 44.0689 359.027 39.5268 355.537C34.4519 351.688 45.2278 332.614 45.2278 332.614C35.038 321.771 33.8125 310.529 35.4242 305.294C35.8238 303.696 69.2304 306.36 69.2304 306.36Z" fill="#F7A9A0"/>
<path d="M69.7766 346.946C68.7776 349.49 67.7786 352.061 66.5531 354.498C65.3277 356.936 64.009 359.334 62.5571 361.651C60.7321 364.714 58.555 367.553 56.0703 370.109C60.1329 365.234 64.6617 356.576 65.8871 354.125C67.1126 351.675 68.4579 349.317 69.6834 346.893C69.71 346.839 69.8032 346.893 69.7766 346.946Z" fill="#263238"/>
<path d="M61.0517 342.324C59.6265 345.507 58.3877 348.718 56.776 351.834C55.1643 354.951 53.4727 357.762 51.7011 360.746C51.5679 360.972 51.488 360.825 51.6212 360.586C53.2595 357.535 54.5383 354.578 56.15 351.501C57.7617 348.425 59.4933 345.401 60.9851 342.284C60.9985 342.324 61.0784 342.324 61.0517 342.324Z" fill="#263238"/>
<path d="M54.2722 337.076C52.21 342.011 49.6434 346.721 46.6132 351.128C46.4667 351.355 46.3868 351.129 46.52 350.915C49.184 346.293 51.2619 342.684 54.0991 337.009C54.1524 336.996 54.3122 336.996 54.2722 337.076Z" fill="#263238"/>
<path d="M56 225.342L88.4076 236.385C88.4076 236.385 98.9703 224.676 110.226 209.092C121.481 193.507 108.561 192.628 96.1065 199.049C81.9584 206.563 68.5329 215.364 56 225.342Z" fill="url(#paint7_linear_434_2872)"/>
<path d="M76.8895 228.891C76.3501 228.894 75.8338 229.11 75.4523 229.492C75.0709 229.873 74.8551 230.389 74.8516 230.929C74.8526 231.18 74.9024 231.429 74.9981 231.661L75.5442 231.848C75.3526 231.58 75.2501 231.258 75.2512 230.929C75.2307 230.702 75.2576 230.474 75.3303 230.258C75.403 230.042 75.5198 229.844 75.6733 229.676C75.8268 229.508 76.0137 229.374 76.2219 229.282C76.4302 229.19 76.6553 229.143 76.8829 229.143C77.1105 229.143 77.3356 229.19 77.5438 229.282C77.7521 229.374 77.9389 229.508 78.0924 229.676C78.2459 229.844 78.3628 230.042 78.4354 230.258C78.5081 230.474 78.5351 230.702 78.5146 230.929C78.513 231.275 78.401 231.611 78.195 231.889C77.9889 232.167 77.6996 232.372 77.369 232.474L77.9152 232.66C78.22 232.486 78.4731 232.234 78.6486 231.93C78.8241 231.625 78.9158 231.28 78.9142 230.929C78.9142 230.391 78.7013 229.874 78.322 229.492C77.9427 229.111 77.4277 228.894 76.8895 228.891ZM78.5012 212.574C78.0982 212.574 77.7042 212.693 77.369 212.917C77.0339 213.141 76.7727 213.46 76.6184 213.832C76.4642 214.204 76.4238 214.614 76.5025 215.009C76.5811 215.405 76.7752 215.768 77.0602 216.053C77.3452 216.338 77.7083 216.532 78.1037 216.611C78.499 216.689 78.9088 216.649 79.2811 216.495C79.6535 216.34 79.9718 216.079 80.1958 215.744C80.4197 215.409 80.5392 215.015 80.5392 214.612C80.5357 214.072 80.3199 213.556 79.9384 213.175C79.557 212.793 79.0407 212.577 78.5012 212.574ZM78.5012 216.237C78.1766 216.237 77.8594 216.14 77.5897 215.96C77.32 215.779 77.11 215.523 76.9864 215.222C76.8628 214.922 76.8311 214.592 76.8954 214.274C76.9597 213.956 77.1171 213.664 77.3475 213.435C77.578 213.207 77.8712 213.052 78.1899 212.99C78.5086 212.928 78.8384 212.963 79.1375 213.089C79.4366 213.215 79.6916 213.427 79.87 213.698C80.0484 213.969 80.1422 214.287 80.1396 214.612C80.1396 214.826 80.0971 215.039 80.0146 215.237C79.9321 215.435 79.8113 215.615 79.6589 215.766C79.5066 215.917 79.3259 216.036 79.1272 216.117C78.9285 216.198 78.7158 216.239 78.5012 216.237ZM110.403 208.125C110.602 207.845 110.789 207.566 110.962 207.299C110.701 207.516 110.508 207.802 110.403 208.125ZM102.317 198.215C101.918 198.218 101.529 198.338 101.198 198.562C100.867 198.785 100.609 199.101 100.458 199.471C100.306 199.84 100.267 200.246 100.346 200.638C100.424 201.029 100.617 201.389 100.899 201.671C101.181 201.953 101.541 202.146 101.933 202.225C102.324 202.303 102.73 202.264 103.099 202.113C103.469 201.961 103.785 201.704 104.009 201.373C104.232 201.042 104.353 200.652 104.355 200.253C104.355 199.712 104.141 199.194 103.758 198.812C103.376 198.43 102.858 198.215 102.317 198.215ZM102.317 201.878C101.992 201.881 101.674 201.786 101.402 201.607C101.131 201.428 100.919 201.173 100.793 200.873C100.667 200.573 100.634 200.242 100.697 199.923C100.759 199.604 100.916 199.311 101.146 199.081C101.376 198.851 101.669 198.695 101.988 198.632C102.307 198.569 102.637 198.603 102.937 198.729C103.237 198.854 103.493 199.066 103.672 199.338C103.851 199.609 103.945 199.928 103.942 200.253C103.939 200.683 103.767 201.094 103.463 201.398C103.159 201.702 102.747 201.874 102.317 201.878ZM100.692 214.212C100.293 214.215 99.9035 214.335 99.5726 214.559C99.2417 214.782 98.9842 215.099 98.8327 215.468C98.6811 215.838 98.6421 216.244 98.7207 216.635C98.7992 217.027 98.9917 217.386 99.2741 217.668C99.5564 217.951 99.916 218.143 100.307 218.222C100.699 218.3 101.105 218.261 101.474 218.11C101.844 217.958 102.16 217.701 102.384 217.37C102.607 217.039 102.728 216.649 102.73 216.25C102.73 215.71 102.516 215.191 102.133 214.809C101.751 214.427 101.233 214.212 100.692 214.212ZM100.692 217.875C100.367 217.878 100.049 217.784 99.7772 217.605C99.5057 217.426 99.2937 217.17 99.168 216.87C99.0424 216.57 99.0088 216.24 99.0716 215.921C99.1344 215.602 99.2907 215.308 99.5206 215.078C99.7505 214.849 100.044 214.692 100.363 214.629C100.682 214.567 101.012 214.6 101.312 214.726C101.612 214.851 101.868 215.064 102.047 215.335C102.226 215.606 102.32 215.925 102.317 216.25C102.314 216.68 102.142 217.091 101.838 217.395C101.534 217.699 101.122 217.872 100.692 217.875ZM67.9252 220.153C67.3857 220.156 66.8694 220.372 66.488 220.754C66.1065 221.135 65.8907 221.651 65.8872 222.191C65.8898 222.59 66.0105 222.98 66.234 223.311C66.4574 223.642 66.7738 223.899 67.1432 224.051C67.5126 224.202 67.9186 224.241 68.3101 224.163C68.7016 224.084 69.0611 223.892 69.3434 223.609C69.6258 223.327 69.8183 222.967 69.8969 222.576C69.9754 222.184 69.9365 221.778 69.7849 221.409C69.6333 221.04 69.3759 220.723 69.045 220.5C68.7141 220.276 68.3245 220.156 67.9252 220.153ZM67.9252 223.816C67.6 223.819 67.2814 223.724 67.01 223.545C66.7385 223.366 66.5265 223.111 66.4008 222.811C66.2752 222.511 66.2416 222.18 66.3044 221.861C66.3672 221.542 66.5235 221.249 66.7534 221.019C66.9833 220.789 67.2765 220.633 67.5955 220.57C67.9146 220.507 68.2451 220.541 68.545 220.667C68.8449 220.792 69.1006 221.004 69.2796 221.276C69.4587 221.547 69.5528 221.866 69.5502 222.191C69.5365 222.614 69.3596 223.015 69.0567 223.31C68.7538 223.606 68.3483 223.773 67.9252 223.776V223.816ZM89.024 221.791C88.6219 221.791 88.2289 221.911 87.8952 222.135C87.5614 222.36 87.302 222.678 87.15 223.051C86.998 223.423 86.9603 223.832 87.0417 224.226C87.1231 224.62 87.32 224.98 87.6071 225.262C87.8943 225.543 88.2588 225.733 88.6541 225.806C89.0495 225.88 89.4577 225.834 89.8269 225.675C90.1961 225.515 90.5095 225.25 90.7271 224.911C90.9447 224.573 91.0566 224.178 91.0487 223.776C91.0349 223.247 90.8159 222.744 90.4381 222.374C90.0602 222.004 89.5531 221.795 89.024 221.791ZM89.024 225.441C88.5954 225.427 88.1896 225.244 87.8951 224.932C87.6007 224.62 87.4415 224.205 87.4523 223.776C87.4497 223.451 87.5435 223.133 87.7219 222.862C87.9003 222.591 88.1553 222.379 88.4544 222.253C88.7535 222.127 89.0834 222.092 89.402 222.154C89.7207 222.216 90.0139 222.371 90.2444 222.599C90.4748 222.828 90.6322 223.12 90.6965 223.438C90.7608 223.756 90.7291 224.086 90.6055 224.387C90.4819 224.687 90.272 224.943 90.0022 225.124C89.7325 225.305 89.4152 225.401 89.0906 225.401L89.024 225.441ZM90.6358 205.128C90.1619 205.206 89.731 205.449 89.4201 205.815C89.1092 206.181 88.9385 206.646 88.9385 207.126C88.9385 207.606 89.1092 208.071 89.4201 208.437C89.731 208.803 90.1619 209.046 90.6358 209.124C90.9255 209.171 91.222 209.155 91.5049 209.077C91.7878 208.998 92.0502 208.859 92.2739 208.669C92.4977 208.479 92.6774 208.243 92.8007 207.976C92.9239 207.71 92.9878 207.42 92.9878 207.126C92.9878 206.832 92.9239 206.542 92.8007 206.276C92.6774 206.009 92.4977 205.773 92.2739 205.583C92.0502 205.393 91.7878 205.254 91.5049 205.175C91.222 205.097 90.9255 205.081 90.6358 205.128ZM90.6358 208.791C90.2036 208.787 89.7903 208.613 89.4859 208.306C89.1815 208 89.0107 207.585 89.0107 207.153C89.0476 206.745 89.2354 206.367 89.5373 206.091C89.8393 205.815 90.2335 205.662 90.6424 205.662C91.0514 205.662 91.4456 205.815 91.7475 206.091C92.0494 206.367 92.2373 206.745 92.2741 207.153C92.2741 207.588 92.102 208.006 91.7951 208.316C91.4882 208.625 91.0715 208.801 90.6358 208.804V208.791Z" fill="white"/>
<path d="M90.2492 230.183C81.2522 227.681 72.3989 224.688 63.7291 221.219C63.6225 221.219 63.729 221.019 63.8223 221.059C65.9268 221.898 80.6055 226.214 90.3424 230.01C90.4623 230.05 90.3691 230.21 90.2492 230.183Z" fill="#263238"/>
<path d="M104.395 219.434C103.623 220.046 102.877 220.686 102.104 221.298L101.598 221.711C103.396 219.354 105.141 216.943 106.82 214.505C106.82 214.505 106.82 214.385 106.726 214.505C103.636 218.128 100.506 221.738 97.4023 225.401C94.2988 229.064 91.1552 232.434 88.358 236.19L86.8529 235.724C86.838 235.719 86.8223 235.717 86.8065 235.717C86.7908 235.718 86.7754 235.722 86.7611 235.729C86.7469 235.736 86.7342 235.745 86.7236 235.757C86.7131 235.769 86.705 235.782 86.6997 235.797C86.6945 235.812 86.6922 235.828 86.693 235.844C86.6939 235.859 86.6978 235.875 86.7046 235.889C86.7114 235.903 86.721 235.916 86.7327 235.927C86.7444 235.937 86.7581 235.945 86.773 235.95L88.358 236.736C88.3975 236.763 88.4438 236.777 88.4913 236.777C88.5387 236.777 88.585 236.763 88.6245 236.736C92.0203 233.438 95.1888 229.913 98.1083 226.187C98.9341 225.188 99.7467 224.162 100.546 223.137L100.732 222.99L101.505 222.351C102.531 221.498 103.49 220.593 104.422 219.687C104.529 219.474 104.462 219.38 104.395 219.434Z" fill="#263238"/>
<path d="M108.485 199.8C109.031 201.132 116.983 208.565 123.017 207.153C124.988 206.7 123.017 195.857 123.017 195.857V195.018L123.47 183.336L108.764 177.303L106.66 176.53C106.66 176.53 106.74 179.727 106.886 183.723C106.886 183.909 106.886 184.096 106.886 184.296C106.886 184.495 106.886 184.735 106.886 184.935C106.886 185.534 106.886 186.147 106.886 186.746C106.886 187.346 106.886 187.665 106.966 188.145C107.046 188.625 106.966 189.104 107.059 189.584C107.295 193.018 107.771 196.432 108.485 199.8Z" fill="#F7A9A0"/>
<path d="M106.833 183.723C108.542 186.669 110.873 189.207 113.664 191.16C116.454 193.113 119.637 194.434 122.99 195.031L123.443 183.35L108.764 177.303L106.66 176.53C106.66 176.53 106.686 179.727 106.833 183.723Z" fill="#263238"/>
<path d="M137.376 164.355C142.078 184.335 130.716 189.41 126.333 190.423C122.431 191.342 109.017 193.966 102.251 174.585C95.4842 155.205 103.29 146.693 112.134 144.122C120.979 141.552 132.66 144.389 137.376 164.355Z" fill="#F7A9A0"/>
<path d="M133.579 160.106C133.109 160.133 132.637 160.133 132.167 160.106C131.67 160.197 131.157 160.112 130.715 159.867C130.59 159.766 130.502 159.625 130.466 159.468C130.429 159.311 130.447 159.147 130.515 159.001C130.691 158.731 130.936 158.512 131.223 158.367C131.511 158.222 131.832 158.156 132.154 158.175C132.811 158.126 133.463 158.315 133.992 158.708C134.115 158.805 134.206 158.937 134.253 159.086C134.301 159.236 134.302 159.396 134.258 159.547C134.214 159.697 134.125 159.831 134.004 159.93C133.883 160.03 133.735 160.091 133.579 160.106Z" fill="#263238"/>
<path d="M120.486 163.277C120.943 163.106 121.387 162.906 121.818 162.677C122.301 162.527 122.722 162.223 123.017 161.811C123.079 161.663 123.092 161.499 123.054 161.343C123.015 161.187 122.928 161.048 122.804 160.946C122.525 160.782 122.208 160.695 121.885 160.695C121.561 160.695 121.244 160.782 120.965 160.946C120.345 161.192 119.843 161.669 119.567 162.278C119.522 162.409 119.513 162.55 119.542 162.686C119.571 162.822 119.635 162.948 119.729 163.05C119.823 163.153 119.943 163.228 120.077 163.267C120.21 163.307 120.351 163.31 120.486 163.277Z" fill="#263238"/>
<path d="M121.685 168.338C121.61 168.484 121.516 168.618 121.405 168.738C121.315 168.838 121.203 168.916 121.079 168.967C120.954 169.017 120.82 169.039 120.686 169.031C119.86 169.031 119.447 168.192 119.354 167.352C119.726 167.752 120.166 168.152 120.686 168.045C121.007 167.911 121.28 167.684 121.471 167.392C121.506 167.715 121.577 168.032 121.685 168.338Z" fill="#263238"/>
<path d="M121.325 168.152C121.296 167.763 121.379 167.375 121.565 167.033C121.669 166.849 121.811 166.689 121.981 166.563C122.15 166.437 122.344 166.348 122.55 166.3C122.764 166.258 122.985 166.267 123.195 166.324C123.406 166.382 123.6 166.488 123.762 166.633C124.039 166.893 124.253 167.211 124.388 167.566C124.465 167.779 124.527 167.997 124.575 168.218C124.673 168.657 124.673 169.112 124.575 169.55C124.528 169.216 124.438 168.889 124.309 168.578C124.204 168.288 124.075 168.007 123.922 167.739C123.616 167.193 123.163 166.78 122.71 166.913C122.257 167.046 121.938 167.486 121.871 168.112C121.805 168.763 121.805 169.419 121.871 170.07C121.544 169.481 121.358 168.824 121.325 168.152Z" fill="#263238"/>
<path d="M134.672 165.168C134.817 165.257 134.974 165.324 135.138 165.368C135.266 165.404 135.399 165.412 135.531 165.391C135.662 165.37 135.787 165.322 135.897 165.248C136.59 164.795 136.51 163.916 136.177 163.09C136.177 163.09 136.11 163.09 136.097 163.09C135.99 163.623 135.83 164.209 135.364 164.422C135.024 164.477 134.675 164.426 134.365 164.276C134.5 164.561 134.602 164.86 134.672 165.168Z" fill="#263238"/>
<path d="M134.885 164.875C134.707 164.53 134.434 164.243 134.099 164.049C133.912 163.949 133.708 163.888 133.497 163.87C133.286 163.852 133.074 163.876 132.873 163.943C132.667 164.014 132.481 164.135 132.332 164.296C132.184 164.456 132.077 164.65 132.021 164.862C131.935 165.23 131.935 165.613 132.021 165.981C132.063 166.203 132.125 166.422 132.207 166.633C132.362 167.077 132.612 167.482 132.94 167.819C132.81 167.506 132.716 167.18 132.66 166.846C132.599 166.543 132.564 166.236 132.554 165.927C132.554 165.301 132.7 164.715 133.166 164.595C133.633 164.475 134.112 164.688 134.498 165.181C134.887 165.708 135.217 166.275 135.484 166.873C135.452 166.168 135.246 165.481 134.885 164.875Z" fill="#263238"/>
<path d="M126.613 178.581C126.999 178.848 127.399 179.234 127.945 179.194C128.457 179.096 128.942 178.891 129.37 178.595C129.37 178.595 129.464 178.595 129.437 178.595C129.289 178.9 129.061 179.159 128.777 179.345C128.493 179.53 128.164 179.635 127.825 179.647C127.525 179.633 127.236 179.528 126.997 179.344C126.759 179.161 126.583 178.908 126.493 178.621C126.453 178.595 126.56 178.488 126.613 178.581Z" fill="#263238"/>
<path d="M131.155 172.347C131.155 172.347 131.914 174.306 132.141 175.265C132.141 175.358 131.928 175.451 131.608 175.544C130.82 175.885 129.954 176.003 129.104 175.886C128.254 175.769 127.452 175.42 126.786 174.878C126.768 174.861 126.756 174.837 126.753 174.812C126.751 174.787 126.757 174.761 126.772 174.74C126.786 174.719 126.808 174.704 126.832 174.698C126.857 174.691 126.883 174.694 126.906 174.705C128.321 175.258 129.877 175.337 131.342 174.932C131.342 174.652 130.01 171.602 130.089 171.562C130.849 171.454 131.621 171.454 132.381 171.562C130.929 167.419 128.824 163.57 127.452 159.387C127.452 159.241 127.612 159.147 127.679 159.267C130.061 163.354 132.029 167.669 133.553 172.148C133.726 172.681 131.581 172.414 131.155 172.347Z" fill="#263238"/>
<path d="M131.408 174.905C131.101 175.835 130.56 176.669 129.836 177.329C129.427 177.668 128.926 177.877 128.398 177.929C127.225 178.022 126.866 177.063 126.773 176.157C126.71 175.675 126.71 175.187 126.773 174.705C128.256 175.27 129.882 175.34 131.408 174.905Z" fill="#263238"/>
<path d="M129.876 177.329C129.467 177.668 128.966 177.877 128.438 177.929C127.265 178.022 126.906 177.063 126.812 176.157C127.381 175.983 127.991 176.003 128.546 176.216C129.101 176.428 129.569 176.82 129.876 177.329Z" fill="#FF9BBC"/>
<path d="M123.976 147.745C124.425 149.507 124.337 151.362 123.723 153.073C121.525 157.695 115.957 156.497 114.052 158.322C112.147 160.146 112.907 163.65 111.295 165.315C109.057 167.685 105.967 166.78 105.647 168.378C105.328 169.977 104.235 175.038 102.197 175.717C100.159 176.397 90.7423 142.564 117.369 143.55C117.369 143.55 121.019 142.058 126.693 144.882C132.953 148.012 135.697 158.295 135.697 158.295C135.697 158.295 135.564 158.162 134.658 157.362C133.326 156.23 132.86 155.178 131.928 154.445C130.436 153.3 129.623 153.739 128.092 152.621C126.433 151.261 125.038 149.609 123.976 147.745Z" fill="#263238"/>
<path d="M123.562 146.28C123.983 147.599 124.246 148.963 124.348 150.343C124.532 151.701 124.338 153.083 123.789 154.339C123.096 155.478 122.011 156.325 120.739 156.723C119.407 157.189 118.075 157.336 116.743 157.882C116.038 158.155 115.42 158.616 114.958 159.214C114.566 159.839 114.303 160.537 114.185 161.265C114.043 162.602 113.536 163.873 112.72 164.942C112.271 165.438 111.718 165.831 111.102 166.093C110.486 166.356 109.82 166.481 109.15 166.46C107.774 166.237 106.367 166.31 105.021 166.673C106.385 166.416 107.788 166.452 109.137 166.78C109.871 166.84 110.609 166.739 111.299 166.484C111.989 166.229 112.615 165.825 113.133 165.301C114.062 164.191 114.65 162.836 114.825 161.398C114.932 160.748 115.172 160.127 115.53 159.574C115.926 159.073 116.451 158.691 117.049 158.468C118.274 157.949 119.713 157.789 121.045 157.269C121.725 157.021 122.363 156.671 122.936 156.23C123.54 155.801 124.021 155.223 124.335 154.552C124.864 153.215 125.011 151.758 124.761 150.343C124.528 148.945 124.126 147.581 123.562 146.28Z" fill="#263238"/>
<path d="M124.069 147.492C124.348 148.767 124.796 149.999 125.401 151.155C125.98 152.374 126.907 153.393 128.065 154.086C128.657 154.372 129.272 154.608 129.903 154.792C130.465 154.966 130.965 155.299 131.342 155.751C131.678 156.313 132.071 156.84 132.514 157.323C132.994 157.774 133.574 158.107 134.205 158.295C133.642 157.998 133.143 157.59 132.74 157.096C132.366 156.586 132.04 156.042 131.768 155.471C131.367 154.891 130.794 154.453 130.129 154.219C129.531 154.028 128.948 153.792 128.385 153.513C127.322 152.858 126.446 151.94 125.84 150.849C125.178 149.77 124.586 148.649 124.069 147.492Z" fill="#263238"/>
<path d="M122.644 175.624C121.503 175.782 120.341 175.617 119.29 175.148C118.239 174.679 117.34 173.924 116.697 172.969C116.053 172.015 115.69 170.899 115.649 169.748C115.608 168.598 115.89 167.459 116.464 166.461C117.038 165.463 117.88 164.646 118.895 164.103C119.91 163.56 121.058 163.312 122.206 163.388C123.355 163.464 124.459 163.861 125.394 164.534C126.328 165.206 127.055 166.128 127.492 167.193C128.092 168.7 128.075 170.384 127.444 171.879C126.814 173.374 125.621 174.562 124.122 175.185C123.651 175.396 123.154 175.544 122.644 175.624ZM121.045 164.249C120.588 164.303 120.139 164.42 119.713 164.595C118.458 165.102 117.443 166.068 116.874 167.296C116.305 168.524 116.225 169.922 116.65 171.207C117.074 172.492 117.972 173.567 119.161 174.215C120.349 174.862 121.74 175.033 123.049 174.692C124.359 174.351 125.49 173.525 126.213 172.381C126.936 171.237 127.196 169.86 126.941 168.531C126.686 167.202 125.935 166.02 124.84 165.225C123.745 164.429 122.388 164.08 121.045 164.249Z" fill="#5158BB"/>
<path d="M136.003 172.014C133.659 172.228 131.301 170.03 130.675 166.886C130.339 165.386 130.474 163.818 131.062 162.397C131.301 161.785 131.683 161.24 132.177 160.806C132.67 160.373 133.261 160.064 133.899 159.907C134.544 159.789 135.209 159.832 135.834 160.031C136.458 160.231 137.025 160.582 137.482 161.052C138.616 162.116 139.378 163.517 139.653 165.048C140.346 168.378 138.907 171.495 136.443 172.028L136.003 172.014ZM134.338 160.666H134.019C133.511 160.799 133.042 161.053 132.653 161.405C132.263 161.758 131.964 162.198 131.781 162.69C131.244 163.952 131.128 165.353 131.448 166.686C132.061 169.564 134.192 171.562 136.23 171.122C138.268 170.682 139.413 168.005 138.801 165.128C138.546 163.791 137.88 162.566 136.896 161.625C136.56 161.296 136.159 161.041 135.718 160.876C135.278 160.711 134.808 160.639 134.338 160.666Z" fill="#5158BB"/>
<path d="M127.412 167.939L126.746 167.459C127.452 166.46 129.264 164.902 131.128 166.127L130.689 166.82C129.077 165.714 127.532 167.832 127.412 167.939Z" fill="#5158BB"/>
<path d="M101.345 176.423L100.546 176.25C100.626 175.877 101.412 172.574 103.117 171.815C104.822 171.055 115.637 169.311 116.104 169.231L116.237 170.043C113.093 170.563 104.675 172.014 103.45 172.561C102.224 173.107 101.545 175.518 101.345 176.423Z" fill="#5158BB"/>
<path d="M106.473 173.36C106.473 173.36 101.145 167.659 98.4813 169.657C95.8173 171.655 100.506 180.313 104.062 181.125C104.513 181.255 104.985 181.293 105.45 181.236C105.916 181.179 106.365 181.028 106.771 180.793C107.176 180.558 107.53 180.243 107.811 179.867C108.092 179.492 108.294 179.063 108.405 178.608L106.473 173.36Z" fill="#F7A9A0"/>
<path d="M99.8662 172.121C99.8662 172.121 99.8662 172.201 99.8662 172.214C102.37 172.827 103.929 174.878 105.194 176.996C105.022 176.779 104.805 176.601 104.557 176.475C104.309 176.35 104.038 176.28 103.76 176.27C103.483 176.26 103.207 176.31 102.951 176.417C102.695 176.524 102.465 176.685 102.277 176.89C102.277 176.89 102.277 177.023 102.37 177.009C102.765 176.812 103.212 176.744 103.647 176.816C104.083 176.887 104.484 177.095 104.795 177.409C105.302 177.93 105.749 178.506 106.127 179.127C106.273 179.314 106.633 179.127 106.526 178.914C106.1 175.824 103.156 171.948 99.8662 172.121Z" fill="#263238"/>
<path d="M324.388 480.985L324.375 481.611L323.136 579.966L263.05 578.767L275.384 278.907H326.147L324.388 480.985Z" fill="#37474F"/>
<path d="M312.947 535.464C313.062 526.477 313.209 517.491 313.386 508.504C313.724 490.522 314.052 472.549 314.372 454.585C315.038 418.816 315.615 383.057 316.104 347.306C316.41 327.126 316.397 306.946 316.916 286.78C316.916 286.78 316.996 286.78 317.009 286.78C317.342 304.748 317.129 322.744 317.103 340.712C317.076 358.681 316.996 376.676 316.823 394.632C316.477 430.396 315.984 466.16 315.131 501.924C314.891 512.007 314.652 522.091 314.305 532.174C313.959 542.257 313.733 552.354 312.973 562.41C312.973 562.442 312.961 562.473 312.938 562.495C312.916 562.518 312.885 562.53 312.853 562.53C312.822 562.53 312.791 562.518 312.769 562.495C312.746 562.473 312.734 562.442 312.734 562.41C312.56 553.366 312.827 544.375 312.947 535.464Z" fill="#263238"/>
<path d="M326.147 279.507L324.815 432.634L284.122 278.907H326.133L326.147 279.507Z" fill="#263238"/>
<path d="M280.592 278.854C280.819 279.906 284.362 296.37 288.051 310.503C290.715 320.839 293.473 329.923 295.044 330.855C296.843 331.921 305.554 335.784 308.471 336.996C308.471 336.996 328.078 434.831 338.428 465.174C347.965 493.146 387.485 568.005 387.485 568.005L444.761 539.047C444.761 539.047 399.993 463.123 395.291 449.47C387.991 428.345 360.659 325.194 360.659 325.194C360.659 325.194 360.859 292.907 350.003 278.801L280.592 278.854Z" fill="#37474F"/>
<path d="M345.994 316.27C344.422 315.857 342.743 315.737 341.145 315.484C339.813 315.271 338.561 315.045 337.282 314.765C334.826 314.325 332.497 313.347 330.462 311.901C328.251 310.17 327.119 307.559 326.054 305.041C325.414 303.549 324.722 302.058 324.095 300.579C323.762 299.86 323.443 299.141 323.11 298.435C322.66 297.595 322.256 296.733 321.898 295.851C321.898 295.717 321.658 295.784 321.698 295.851C321.914 296.462 322.096 297.084 322.244 297.715C322.47 298.435 322.67 299.154 322.897 299.873C323.296 301.205 323.683 302.444 324.109 303.723C324.747 306.074 325.664 308.341 326.839 310.476C329.197 314.232 333.433 315.804 337.669 316.297C338.881 316.443 340.093 316.536 341.318 316.603C342.856 316.736 344.402 316.736 345.94 316.603C346.167 316.656 346.233 316.323 345.994 316.27Z" fill="#263238"/>
<path d="M290.409 328.604C296.63 330.877 302.642 333.685 308.378 336.996C308.604 337.116 308.458 337.476 308.218 337.369C302.157 334.772 295.99 332.281 290.089 329.377C289.987 329.335 289.905 329.253 289.863 329.151C289.82 329.048 289.82 328.933 289.863 328.831C289.905 328.728 289.987 328.647 290.089 328.605C290.191 328.562 290.306 328.562 290.409 328.604Z" fill="#263238"/>
<path d="M288.584 287.153C288.584 286.939 288.971 286.899 288.971 287.153C288.971 293.905 289.309 300.653 289.983 307.372C290.263 310.489 292.78 327.712 298.188 326.46C299.094 326.247 299.52 325.354 299.693 323.996C299.674 322.197 299.432 320.407 298.974 318.668C298.375 315.058 297.895 311.448 297.642 307.799C297.007 301.016 297.078 294.186 297.855 287.419C297.855 287.373 297.873 287.329 297.906 287.297C297.938 287.264 297.982 287.246 298.028 287.246C298.074 287.246 298.118 287.264 298.151 287.297C298.183 287.329 298.201 287.373 298.201 287.419C298.045 296.824 298.597 306.228 299.853 315.551C300.532 320.026 302.784 326.78 298.095 327.459C293.406 328.138 290.236 316.803 289.65 313.779C288.147 304.987 287.789 296.037 288.584 287.153Z" fill="#263238"/>
<path d="M298.041 326.899C298.521 328.062 298.926 329.255 299.253 330.469C299.606 331.405 299.778 332.4 299.76 333.4C299.75 333.438 299.729 333.473 299.701 333.5C299.672 333.528 299.636 333.547 299.598 333.555C299.559 333.563 299.519 333.561 299.481 333.547C299.444 333.534 299.411 333.511 299.387 333.48C298.822 332.601 298.399 331.639 298.135 330.629C297.722 329.524 297.282 328.418 296.909 327.312C296.882 327.238 296.87 327.159 296.873 327.08C296.877 327.001 296.895 326.923 296.929 326.852C296.962 326.78 297.009 326.715 297.068 326.662C297.126 326.608 297.194 326.567 297.269 326.54C297.343 326.513 297.422 326.501 297.501 326.504C297.58 326.507 297.658 326.526 297.729 326.56C297.801 326.593 297.866 326.64 297.919 326.699C297.973 326.757 298.014 326.825 298.041 326.899Z" fill="#263238"/>
<path d="M429.337 529.59C421.172 514.219 412.767 498.954 404.322 483.796C400.153 476.297 395.81 468.891 391.841 461.285C388.096 453.764 385.059 445.912 382.77 437.828C377.726 421.418 372.944 404.932 368.425 388.371C363.905 371.81 359.669 355.178 355.717 338.475C354.718 334.292 353.626 330.123 352.827 325.9C352.107 321.642 352.107 317.292 352.827 313.033C353.445 309.063 353.476 305.024 352.92 301.045C352.289 297.077 351.354 293.162 350.123 289.337C349.483 287.312 348.791 285.341 348.112 283.316C348.097 283.269 348.065 283.229 348.021 283.205C347.977 283.181 347.926 283.176 347.878 283.19C347.831 283.204 347.791 283.236 347.767 283.28C347.743 283.324 347.738 283.375 347.752 283.423C350.229 291.508 352.76 299.687 352.227 308.251C351.974 312.367 350.895 316.417 350.895 320.559C351.161 324.67 351.857 328.742 352.973 332.707C356.872 349.517 361.059 366.247 365.534 382.897C370.01 399.547 374.738 416.13 379.72 432.647C382.157 440.639 384.435 448.831 387.885 456.49C391.335 464.149 395.717 471.408 399.873 478.747C408.389 493.897 417.016 508.993 425.754 524.035C426.859 525.94 427.992 527.832 429.11 529.723C429.217 529.816 429.39 529.71 429.337 529.59Z" fill="#263238"/>
<path d="M324.548 201.012C328.318 211.921 326.347 265.681 320.766 272.101C311.122 283.21 263.157 291.122 250.689 290.243C241.685 289.603 240.952 252.387 248.891 251.175C262.211 249.164 297.948 246.114 298.681 243.969C302.464 232.687 305.128 222.271 310.256 204.489C313.892 192.088 320.393 188.971 324.548 201.012Z" fill="#F7A9A0"/>
<path d="M256.696 289.337C260.692 286.58 258.681 253.666 254.192 251.442C253.339 251.029 248.304 248.951 246.386 247.925C239.985 244.493 234.197 240.023 229.257 234.698C223.756 228.478 216.323 218.608 212.873 221.378C207.812 225.481 215.724 239.094 220.732 246.62C215.83 246.993 211.634 247.765 209.357 249.111C201.804 253.573 209.357 287.352 218.148 288.604C226.659 289.87 252.62 292.094 256.696 289.337Z" fill="#F7A9A0"/>
<path d="M228.551 249.643C231.215 253.333 225.327 254.372 225.327 254.372C225.327 254.372 234.158 254.918 235.451 259.793C236.743 264.668 229.523 265.494 229.004 265.574C229.47 265.574 237.582 266.333 238.328 271.368C239.074 276.403 231.774 276.363 231.308 276.35C231.734 276.523 237.395 278.868 237.129 282.824C236.649 289.63 222.011 284.036 217.069 286.5C217.069 286.5 217.708 288.058 217.748 288.338C217.748 288.338 206.173 287.486 203.336 283.743C200.965 280.612 204.841 277.975 204.841 277.975C204.841 277.975 200.126 276.856 199.393 272.913C199.007 270.889 201.911 268.478 201.911 268.478C200.859 268.168 199.913 267.574 199.177 266.761C198.442 265.947 197.945 264.947 197.742 263.869C197.382 261.045 200.406 259.074 200.406 259.074C200.406 259.074 197.289 256.41 197.862 253.386C198.98 247.312 222.81 241.731 228.551 249.643Z" fill="#F7A9A0"/>
<path d="M201.831 268.465C201.738 268.465 201.685 268.331 201.831 268.291C209.464 264.469 219.96 262.67 229.27 265.294C229.59 265.388 229.79 265.787 229.404 265.707C223.037 264.442 209.344 266 201.831 268.465Z" fill="#263238"/>
<path d="M231.934 276.763C222.903 274.592 214.099 275.524 205.188 277.789C205.068 277.789 205.041 277.655 205.188 277.602C209.184 275.311 215.084 274.459 219.68 274.179C223.936 273.839 228.207 274.619 232.067 276.443C232.161 276.51 232.121 276.803 231.934 276.763Z" fill="#263238"/>
<path d="M225.447 254.252C225.767 254.252 225.327 254.732 225.66 254.785C226.992 255.051 234.984 257.316 235.104 260.299C235.104 262.67 232.001 264.402 230.522 264.588L226.819 265.055L230.469 265.907C232.091 266.271 233.643 266.897 235.064 267.759C235.743 268.122 236.338 268.624 236.811 269.232C237.284 269.84 237.623 270.541 237.808 271.288C237.971 271.986 237.889 272.719 237.576 273.364C237.263 274.009 236.739 274.527 236.09 274.832C234.623 275.486 233.014 275.756 231.415 275.617L226.992 275.378L231.068 277.043C232.207 277.502 233.281 278.106 234.265 278.841C235.228 279.497 235.974 280.424 236.41 281.505C236.582 281.998 236.614 282.53 236.501 283.041C236.388 283.552 236.135 284.021 235.77 284.395C234.826 285.113 233.7 285.551 232.52 285.661C229.966 285.908 227.397 285.961 224.835 285.821C223.503 285.821 222.237 285.754 220.932 285.821C219.622 285.774 218.319 286.01 217.109 286.513C218.35 286.156 219.648 286.043 220.932 286.18C222.264 286.18 223.502 286.367 224.795 286.5C227.401 286.827 230.032 286.908 232.653 286.74C234.089 286.707 235.481 286.243 236.649 285.408C237.226 284.886 237.637 284.207 237.834 283.455C238.03 282.702 238.003 281.909 237.755 281.172C237.26 279.814 236.369 278.635 235.197 277.789C234.116 276.949 232.93 276.254 231.668 275.724L231.308 277.056C233.199 277.258 235.11 276.96 236.849 276.19C237.797 275.737 238.56 274.97 239.007 274.019C239.414 273.071 239.525 272.021 239.327 271.009C239.099 270.058 238.671 269.168 238.071 268.396C237.472 267.624 236.714 266.989 235.85 266.533C234.275 265.602 232.555 264.94 230.762 264.575L230.695 265.907C232.573 265.601 236.316 264.056 236.689 260.353C236.423 255.464 227.152 254.412 225.447 254.252Z" fill="#263238"/>
<path d="M225.328 254.412C226.206 254.072 227.028 253.6 227.765 253.013C228.066 252.786 228.3 252.481 228.443 252.132C228.586 251.783 228.633 251.402 228.578 251.029C228.347 250.224 227.883 249.506 227.246 248.964C226.58 248.325 225.914 247.699 225.075 247.073C226.075 247.246 227.028 247.627 227.872 248.192C228.358 248.482 228.781 248.868 229.115 249.326C229.449 249.784 229.688 250.304 229.817 250.856C229.913 251.465 229.815 252.09 229.537 252.64C229.258 253.157 228.838 253.582 228.325 253.866C227.408 254.358 226.359 254.549 225.328 254.412Z" fill="#263238"/>
<path d="M254.325 249.084L258.867 294.905C258.867 294.905 310.749 287.206 322.31 273.007C328.145 265.841 327.705 218.954 326.147 205.181C324.588 191.408 315.344 187.998 309.91 203.21C304.475 218.421 299.44 241.225 298.308 242.557C297.176 243.889 254.325 249.084 254.325 249.084Z" fill="url(#paint8_linear_434_2872)"/>
<path d="M268.085 287.712C267.179 281.865 264.302 257.782 264.089 252.547C264.089 252.188 264.302 252.081 264.369 252.454C266.493 264.085 267.828 275.847 268.365 287.659C268.325 287.845 268.112 287.898 268.085 287.712Z" fill="#37474F"/>
<path d="M360.339 299.074C360.126 299.287 273.133 297.103 272.361 296.157C271.282 294.825 287.466 210.389 302.57 191.701C306.34 187.026 318.461 186.373 324.069 190.956C351.801 213.44 361.099 298.261 360.339 299.074Z" fill="url(#paint9_linear_434_2872)"/>
<path d="M359.686 291.015L273.306 288.538C273.639 286.566 274.052 284.262 274.532 281.705L358.767 284.116C359.18 286.7 359.447 289.044 359.686 291.015Z" fill="#263238"/>
<path d="M358.288 280.905L275.158 278.535C275.304 277.829 275.451 277.096 275.597 276.35L357.941 278.708C358.061 279.454 358.168 280.186 358.288 280.905Z" fill="#263238"/>
<path d="M306.513 203.703C310.202 204.435 318.94 198.654 322.83 193.26C323.096 192.887 323.003 188.638 323.136 183.456C323.243 180.326 323.416 176.796 323.815 173.653L303.236 176.01C303.879 180.125 304.013 184.304 303.636 188.451C303.586 188.905 303.488 189.351 303.343 189.783C303.343 189.783 303.343 189.917 303.343 189.996C302.623 192.381 300.745 202.571 306.513 203.703Z" fill="#F7A9A0"/>
<path d="M303.396 189.743C303.396 189.81 303.396 189.863 303.396 189.957C304.065 190.128 304.747 190.248 305.434 190.316C316.796 191.462 321.272 178.008 322.377 173.826L303.236 176.01C303.881 180.129 304.024 184.311 303.663 188.465C303.603 188.897 303.514 189.324 303.396 189.743Z" fill="#263238"/>
<path d="M327.519 146.773C329.663 153.899 325.854 174.452 320.779 179.021C313.426 185.681 301.398 186.254 295.777 177.422C290.329 168.844 295.777 142.151 301.438 137.995C309.776 131.868 324.335 136.237 327.519 146.773Z" fill="#F7A9A0"/>
<path d="M308.564 158.188C308.564 158.188 308.658 158.268 308.644 158.335C308.338 159.667 308.205 161.332 309.377 162.038C307.885 161.598 308.071 159.44 308.564 158.188Z" fill="#263238"/>
<path d="M310.096 156.976C312.361 157.243 311.668 161.731 309.577 161.492C307.486 161.252 308.205 156.763 310.096 156.976Z" fill="#263238"/>
<path d="M300.399 156.643C300.399 156.643 300.279 156.643 300.279 156.75C300.106 158.082 299.68 159.72 298.348 159.987V160.066C299.919 160.093 300.466 158.002 300.399 156.643Z" fill="#263238"/>
<path d="M299.374 155.005C297.162 154.485 296.31 159.001 298.348 159.427C300.386 159.853 301.238 155.431 299.374 155.005Z" fill="#263238"/>
<path d="M312.187 155.205C311.626 154.941 311.079 154.647 310.549 154.326C309.92 154.097 309.386 153.666 309.03 153.1C308.957 152.903 308.95 152.687 309.01 152.485C309.07 152.283 309.194 152.107 309.363 151.981C309.739 151.783 310.161 151.69 310.585 151.711C311.009 151.732 311.42 151.867 311.774 152.101C312.568 152.458 313.2 153.1 313.546 153.899C313.61 154.087 313.619 154.288 313.573 154.481C313.526 154.673 313.425 154.848 313.283 154.985C313.14 155.122 312.961 155.216 312.767 155.255C312.573 155.294 312.372 155.276 312.187 155.205Z" fill="#263238"/>
<path d="M298.081 153.007C298.706 152.978 299.328 152.915 299.946 152.82C300.608 152.847 301.26 152.65 301.797 152.261C301.944 152.109 302.035 151.912 302.057 151.702C302.079 151.492 302.03 151.281 301.917 151.102C301.643 150.778 301.288 150.532 300.888 150.39C300.488 150.247 300.057 150.212 299.64 150.29C298.77 150.323 297.944 150.679 297.322 151.289C297.187 151.436 297.099 151.618 297.066 151.815C297.034 152.012 297.06 152.213 297.14 152.396C297.221 152.578 297.353 152.733 297.52 152.841C297.687 152.95 297.882 153.007 298.081 153.007Z" fill="#263238"/>
<path d="M307.073 166.913C306.635 167.411 306.099 167.812 305.498 168.092C304.898 168.372 304.245 168.524 303.583 168.538C303.004 168.562 302.425 168.499 301.864 168.351C301.755 168.338 301.648 168.311 301.545 168.272L301.252 168.178C301.179 168.152 301.118 168.102 301.077 168.037C301.036 167.972 301.018 167.895 301.025 167.819C301.019 167.774 301.019 167.73 301.025 167.685V167.566C301.158 166.487 301.518 164.902 301.518 164.902C301.092 165.035 298.961 165.634 299.081 165.075C299.93 160.262 301.269 155.549 303.077 151.009C303.082 150.993 303.09 150.979 303.101 150.966C303.112 150.953 303.125 150.943 303.14 150.936C303.155 150.928 303.171 150.924 303.187 150.923C303.204 150.922 303.221 150.924 303.236 150.929C303.252 150.934 303.267 150.942 303.279 150.953C303.292 150.964 303.302 150.977 303.309 150.992C303.317 151.007 303.321 151.023 303.322 151.04C303.324 151.056 303.322 151.073 303.316 151.089C302.544 155.538 300.999 159.827 300.146 164.276C300.91 164.062 301.698 163.95 302.49 163.943C302.637 163.943 301.745 167.059 301.731 167.539C302.596 167.762 303.497 167.808 304.381 167.675C305.264 167.542 306.111 167.233 306.873 166.766C307.073 166.7 307.232 166.82 307.073 166.913Z" fill="#263238"/>
<path d="M302.583 167.912C303.057 168.766 303.74 169.485 304.568 170.003C305.029 170.264 305.56 170.376 306.087 170.323C307.246 170.203 307.419 169.191 307.419 168.285C307.371 167.805 307.273 167.332 307.126 166.873C305.764 167.702 304.17 168.066 302.583 167.912Z" fill="#263238"/>
<path d="M304.568 170.003C305.029 170.264 305.56 170.376 306.087 170.323C307.246 170.203 307.419 169.191 307.419 168.285C306.819 168.205 306.21 168.332 305.692 168.644C305.174 168.956 304.778 169.436 304.568 170.003Z" fill="#FF9BBC"/>
<path d="M320.938 157.176C319.606 153.073 322.177 146.334 320.193 144.455C315.904 140.459 306.713 147.719 300.532 147.599C294.352 147.479 292.647 143.603 293.872 138.754C295.098 133.906 299.293 130.762 306.033 129.95C311.918 129.43 317.798 130.985 322.657 134.346C322.657 134.346 321.205 131.895 321.791 131.149C322.377 130.403 325.241 132.814 326.12 133.813C326.735 134.697 327.186 135.685 327.452 136.73C328.348 136.53 329.267 136.459 330.183 136.517C331.517 136.652 332.761 137.25 333.699 138.208C333.792 138.568 331.608 138.781 330.076 138.821C330.076 138.821 332.82 142.671 332.673 145.907C332.527 149.144 327.092 164.382 325.88 164.555C324.362 164.715 321.458 158.841 320.938 157.176Z" fill="#263238"/>
<path d="M329.543 138.435C329.543 138.435 329.41 138.435 329.463 138.528C330.917 139.761 331.996 141.376 332.58 143.19C333.134 145.381 333.092 147.68 332.46 149.85C331.408 154.072 329.224 157.842 327.319 161.758C327.319 161.865 327.452 161.958 327.519 161.851C330.025 157.895 331.899 153.571 333.073 149.037C333.872 145.188 333.1 140.699 329.543 138.435Z" fill="#263238"/>
<path d="M318.994 132.561C316.604 131.284 314.042 130.36 311.388 129.817C308.855 129.213 306.237 129.051 303.649 129.337C299.2 129.95 295.044 132.667 293.885 137.196C293.256 139.515 293.517 141.986 294.618 144.122C294.624 144.138 294.633 144.153 294.645 144.165C294.657 144.177 294.671 144.186 294.686 144.192C294.702 144.199 294.719 144.202 294.736 144.201C294.753 144.2 294.769 144.196 294.784 144.188C294.799 144.181 294.813 144.17 294.823 144.157C294.834 144.144 294.842 144.129 294.846 144.113C294.851 144.096 294.852 144.079 294.849 144.063C294.846 144.046 294.84 144.03 294.831 144.016C293.945 142.048 293.717 139.847 294.183 137.74C294.648 135.632 295.782 133.732 297.415 132.321C301.132 129.257 306.246 129.151 310.735 129.99C313.56 130.588 316.315 131.481 318.954 132.654C318.954 132.654 319.007 132.561 318.994 132.561Z" fill="#263238"/>
<path d="M323.07 163.516C323.07 163.516 327.878 156.976 330.862 158.694C333.845 160.413 330.116 169.99 326.546 171.229C326.098 171.418 325.617 171.514 325.131 171.513C324.646 171.512 324.165 171.412 323.719 171.221C323.272 171.029 322.869 170.749 322.533 170.398C322.197 170.047 321.936 169.632 321.764 169.177L323.07 163.516Z" fill="#F7A9A0"/>
<path d="M329.716 161.412V161.505C327.212 162.464 325.84 164.728 324.881 167.099C325.03 166.854 325.231 166.644 325.47 166.483C325.708 166.323 325.978 166.216 326.262 166.171C326.546 166.125 326.836 166.142 327.113 166.219C327.39 166.297 327.646 166.433 327.865 166.62C327.931 166.62 327.865 166.766 327.798 166.753C327.363 166.604 326.893 166.593 326.452 166.721C326.011 166.85 325.62 167.113 325.334 167.472C324.867 168.079 324.461 168.73 324.122 169.417C324.002 169.644 323.602 169.51 323.696 169.257C323.749 166.034 326.32 161.652 329.716 161.412Z" fill="#263238"/>
<path d="M314.851 221.259C305.234 220.699 253.992 215.757 242.923 205.155C226.446 189.397 218.508 163.65 214.432 152.594C212.66 147.772 244.628 132.694 247.199 137.502C252.847 147.825 264.795 175.704 267.672 178.635C270.549 181.565 302.53 194.046 318.941 201.372C340.959 211.202 338.201 222.604 314.851 221.259Z" fill="#F7A9A0"/>
<path d="M246.893 140.313C246.893 140.313 247.905 126.207 246.147 118.641C244.112 110.818 240.208 103.605 234.771 97.6223C228.937 91.1354 210.329 79.5071 206.04 84.3023C202.164 88.618 221.784 99.5404 221.784 99.5404C221.784 99.5404 203.616 85.1015 199.9 91.1754C196.183 97.2493 219.693 108.611 219.693 108.611C219.693 108.611 200.672 94.1857 197.848 101.046C195.704 106.227 216.403 117.735 216.403 117.735C216.403 117.735 199.993 105.454 197.555 110.689C194.891 116.483 213.313 128.298 213.313 128.298C209.317 142.644 213.539 153.167 217.402 157.029C218.548 158.175 246.893 140.313 246.893 140.313Z" fill="#FFC7BE"/>
<path d="M228.391 104.122C226.313 102.351 224.222 100.539 222.011 98.9543C219.8 97.3692 217.495 95.904 215.138 94.572C212.09 92.7204 208.841 91.2233 205.454 90.1098C211.315 92.5207 219.373 98.1018 221.598 99.6469C223.822 101.192 226.113 102.697 228.325 104.269L228.391 104.122Z" fill="#263238"/>
<path d="M222.81 112.248C220.066 110.103 217.482 107.865 214.592 105.841C211.701 103.816 208.904 102.151 205.947 100.34C205.721 100.193 205.721 100.34 205.947 100.513C208.838 102.444 211.355 104.509 214.206 106.427C217.056 108.345 220.013 110.263 222.784 112.328C222.81 112.354 222.864 112.288 222.81 112.248Z" fill="#263238"/>
<path d="M219.32 120.093C215.197 116.693 210.733 113.729 206 111.249C205.76 111.115 205.787 111.342 206 111.488C210.489 114.339 213.992 116.55 219.2 120.226C219.32 120.293 219.32 120.16 219.32 120.093Z" fill="#263238"/>
<path d="M211.328 160.666L249.956 140.273C249.956 140.273 264.861 173.959 267.978 177.316C271.095 180.672 317.995 198.468 328.544 206.114C339.094 213.759 336.163 221.458 322.337 222.204C308.511 222.95 253.899 215.851 244.002 207.885C234.105 199.92 211.328 160.666 211.328 160.666Z" fill="url(#paint10_linear_434_2872)"/>
<path d="M250.942 151.142C245.8 154.086 224.302 165.368 219.547 167.499C219.214 167.646 219.041 167.499 219.36 167.273C229.458 161.117 239.965 155.661 250.809 150.942C250.942 150.889 251.062 151.062 250.942 151.142Z" fill="#37474F"/>
<path d="M215.71 73.1534C216.569 68.096 217.685 63.0856 219.054 58.1418C220.386 53.2001 221.838 48.285 223.676 43.4898C222.85 48.578 221.638 53.5464 220.332 58.5014C219.027 63.4565 217.535 68.3449 215.71 73.1534Z" fill="#263238"/>
<path d="M187.352 76.8697C184.342 72.7006 181.678 68.3183 179.107 63.896C176.537 59.4738 174.112 54.9583 172.008 50.2564C175.018 54.4255 177.682 58.8078 180.253 63.23C182.824 67.6523 185.208 72.1811 187.352 76.8697Z" fill="#263238"/>
<path d="M169.863 99.5803C164.788 98.7545 159.806 97.5424 154.851 96.237C149.896 94.9316 144.994 93.4531 140.199 91.615C145.257 92.472 150.267 93.5879 155.211 94.9583C160.139 96.3036 165.054 97.7422 169.863 99.5803Z" fill="#263238"/>
<path d="M165.654 132.547C162.818 134.747 159.831 136.745 156.716 138.528C153.608 140.361 150.372 141.968 147.033 143.337C149.895 141.139 152.908 139.145 156.05 137.369C159.138 135.545 162.347 133.934 165.654 132.547Z" fill="#263238"/>
<path d="M251.754 121.572C255.194 122.02 258.599 122.705 261.944 123.623C265.307 124.497 268.601 125.614 271.801 126.966C268.354 126.534 264.944 125.849 261.598 124.915C258.239 124.043 254.949 122.925 251.754 121.572Z" fill="#263238"/>
<path d="M238.421 90.576C242.59 87.5657 246.959 84.9017 251.395 82.3176C255.82 79.7294 260.372 77.3644 265.034 75.2314C260.865 78.2417 256.483 80.9057 252.061 83.4764C247.638 86.0472 243.11 88.4981 238.421 90.576Z" fill="#263238"/>
<path d="M156.316 89.1641C158.46 89.5874 160.548 90.2579 162.537 91.1621C164.549 92.012 166.457 93.089 168.224 94.3722C166.096 93.9462 164.023 93.2804 162.044 92.3875C160.015 91.5419 158.092 90.4599 156.316 89.1641Z" fill="#263238"/>
<path d="M234.332 45.5411C233.12 48.5381 231.788 51.4818 230.429 54.4122C229.071 57.3426 227.659 60.233 226.22 63.1102C224.782 65.9873 223.29 68.8644 221.731 71.6882L219.387 75.924C218.561 77.256 217.789 78.7212 216.923 80.0932C217.509 78.588 218.175 77.1095 218.801 75.6176L220.812 71.222C222.144 68.2916 223.596 65.4012 225.035 62.5108C226.473 59.6203 227.965 56.7698 229.524 53.946C231.082 51.1222 232.64 48.2983 234.332 45.5411Z" fill="#263238"/>
<path d="M247.732 97.1294C252.9 96.1438 258.122 95.571 263.343 95.0915C268.564 94.612 273.799 94.3056 279.061 94.3722C273.892 95.3579 268.671 95.944 263.45 96.4102C258.228 96.8764 252.993 97.236 247.732 97.1294Z" fill="#263238"/>
<path d="M161.165 128.698C157.076 130.455 152.891 131.98 148.631 133.267C144.387 134.616 140.068 135.719 135.697 136.57C143.904 133.107 152.436 130.47 161.165 128.698Z" fill="#263238"/>
<defs>
<linearGradient id="paint0_linear_434_2872" x1="123.576" y1="276.39" x2="123.576" y2="572.747" gradientUnits="userSpaceOnUse">
<stop stop-color="#4F646E"/>
<stop offset="1"/>
</linearGradient>
<linearGradient id="paint1_linear_434_2872" x1="60.0798" y1="276.337" x2="60.0798" y2="567.166" gradientUnits="userSpaceOnUse">
<stop stop-color="#4F646E"/>
<stop offset="1"/>
</linearGradient>
<linearGradient id="paint2_linear_434_2872" x1="161.172" y1="131.602" x2="161.172" y2="210.428" gradientUnits="userSpaceOnUse">
<stop stop-color="#F7A9A0"/>
<stop offset="1" stop-color="#F7A9A0"/>
</linearGradient>
<linearGradient id="paint3_linear_434_2872" x1="144.897" y1="181" x2="144.897" y2="212.386" gradientUnits="userSpaceOnUse">
<stop stop-color="#5158BB"/>
<stop offset="1" stop-color="#4BCB87"/>
</linearGradient>
<linearGradient id="paint4_linear_434_2872" x1="177.117" y1="107.413" x2="177.117" y2="142.351" gradientUnits="userSpaceOnUse">
<stop stop-color="#F7A9A0"/>
<stop offset="1" stop-color="#F7A9A0"/>
</linearGradient>
<linearGradient id="paint5_linear_434_2872" x1="177.117" y1="107.413" x2="177.117" y2="142.351" gradientUnits="userSpaceOnUse">
<stop stop-color="#F7A9A0"/>
<stop offset="1" stop-color="#F7A9A0"/>
</linearGradient>
<linearGradient id="paint6_linear_434_2872" x1="105.699" y1="194.235" x2="105.699" y2="276.624" gradientUnits="userSpaceOnUse">
<stop stop-color="#5158BB"/>
<stop offset="1" stop-color="#4BCB87"/>
</linearGradient>
<linearGradient id="paint7_linear_434_2872" x1="85.2702" y1="195.295" x2="85.2702" y2="236.385" gradientUnits="userSpaceOnUse">
<stop stop-color="#5158BB"/>
<stop offset="1" stop-color="#4BCB87"/>
</linearGradient>
<linearGradient id="paint8_linear_434_2872" x1="290.741" y1="193.234" x2="290.741" y2="294.905" gradientUnits="userSpaceOnUse">
<stop stop-color="#263238"/>
<stop offset="1" stop-color="#70C6A0"/>
</linearGradient>
<linearGradient id="paint9_linear_434_2872" x1="316.346" y1="187.837" x2="316.346" y2="299.089" gradientUnits="userSpaceOnUse">
<stop offset="0.205" stop-color="#0F264C"/>
<stop offset="0.705" stop-color="#5158BB"/>
</linearGradient>
<linearGradient id="paint10_linear_434_2872" x1="273.114" y1="140.273" x2="273.114" y2="222.258" gradientUnits="userSpaceOnUse">
<stop stop-color="#263238"/>
<stop offset="1" stop-color="#70C6A0"/>
</linearGradient>
</defs>
</svg>
