<svg width="372" height="116" viewBox="0 0 372 116" fill="none" xmlns="http://www.w3.org/2000/svg">
<g clip-path="url(#clip0_0_25)">
<rect width="372" height="116" rx="20" fill="url(#paint0_linear_0_25)"/>
<path d="M342.652 46.2113C343.707 46.6981 343.734 46.0601 343.733 45.2304C343.717 34.5645 343.701 23.8986 343.732 13.2328C343.741 10.1556 343.602 7.07318 343.886 4C344.346 4.37226 344.332 4.91709 344.336 5.43139C344.351 7.083 344.386 8.735 344.326 10.3865C344.362 19.1748 344.405 27.963 344.308 36.7503C344.291 38.3885 344.297 40.0276 344.303 41.6648C344.326 42.7215 344.297 43.7802 344.297 44.839C344.297 45.5705 344.539 46.03 345.309 46.0546C345.479 46.06 345.648 46.099 345.816 46.1297C347.374 46.4135 347.423 46.3816 347.643 44.7221C348.036 41.7483 348.55 38.7967 349.126 35.8555C349.338 34.774 349.581 33.7002 349.822 32.6258C349.914 32.2128 350.034 31.5682 350.483 31.6529C351.062 31.7622 350.911 32.4368 350.828 32.885C350.223 36.1338 349.541 39.3675 349.064 42.641C348.905 43.7311 348.747 44.821 348.637 45.9189C348.562 46.6686 348.812 47.1567 349.455 47.5416C350.566 48.206 351.64 48.942 352.229 50.1997C352.431 50.9658 352.002 51.1533 351.4 51.1076C350.624 51.0488 349.875 51.2236 349.117 51.3159C348.819 51.3523 348.505 51.4501 348.394 51.7772C348.253 52.1935 348.546 52.4402 348.827 52.6388C351.096 54.2421 352.37 56.4961 352.908 59.2413C353.007 59.7247 353.019 60.2119 352.979 60.7019C352.535 62.5331 352.336 62.5973 350.659 62.9968C346.804 63.9149 342.867 64.4361 339.063 65.5899C338.572 65.7386 338.074 65.8584 337.571 65.9599C336.743 66.1271 336.279 65.769 336.083 64.9344C335.938 64.3126 336.002 63.7164 336.135 63.1069C336.933 59.459 338.501 56.237 341.056 53.556C341.174 53.4314 341.298 53.3046 341.281 53.0316C340.708 52.6993 339.893 52.6561 339.549 51.8925C339.501 51.7714 339.435 51.6171 339.499 51.5174C340.606 49.7845 341.437 47.8756 342.652 46.2113Z" fill="#DF7891"/>
<path d="M331.973 -59.7725C332.181 -59.5889 332.424 -59.5338 332.694 -59.576C334.602 -59.3724 336.291 -58.6922 337.649 -57.295C340.468 -55.0868 342.433 -52.3109 343.246 -48.7888C343.439 -47.9537 343.531 -47.0954 343.669 -46.2478C343.688 -46.1316 343.715 -46.017 343.715 -45.8973C343.705 -38.8952 344.024 -31.8978 343.97 -24.8933C343.947 -21.8664 343.779 -18.8318 344.033 -15.805C343.949 -11.8062 343.848 -7.80885 344.088 -3.80769C344.16 -2.60839 343.922 -1.39128 343.946 -0.174026C343.964 0.729298 343.941 1.63084 344.219 2.50519C343.872 3.96909 344.303 5.43773 344.199 6.90511C344.152 7.56139 344.215 8.22515 344.073 8.87743C343.88 9.49425 343.94 10.1294 343.94 10.7578C343.937 22.0369 343.938 33.3159 343.937 44.5949C343.937 45.0679 343.958 45.5422 343.898 46.0131C343.829 46.5576 343.555 46.8827 342.966 46.8464C340.505 45.9859 338.802 44.4148 338.241 41.7764C338.16 37.8965 339.148 34.1102 339.239 30.2436C339.286 28.2156 338.864 26.3299 337.796 24.5971C337.629 24.3252 337.5 24.0387 337.531 23.7043C337.522 1.49916 337.508 -20.7041 337.532 -42.9055C337.657 -44.8108 337.5 -46.6942 336.91 -48.5142C336.025 -51.2428 333.249 -54.1997 329.19 -54.015C326.753 -53.9041 324.299 -53.8748 321.856 -54.0767C320.893 -54.2001 319.915 -54.5491 319.009 -53.8788C318.824 -53.5127 318.826 -53.1104 318.76 -52.7229C318.294 -49.9781 316.681 -48.3695 313.947 -47.9109C313.359 -47.8123 312.769 -47.8028 312.176 -47.8028C301.279 -47.802 290.381 -47.8026 279.484 -47.8011C278.692 -47.801 277.907 -47.8498 277.132 -48.0298C274.805 -48.5702 273.262 -50.2764 273.091 -52.6584C273.023 -53.617 272.632 -53.9681 271.7 -53.9717C268.703 -53.9831 265.707 -54.0393 262.709 -54.1544C257.685 -54.3472 253.947 -50.5685 253.884 -45.5036C253.849 -42.6612 253.881 -39.8181 253.875 -36.9753C253.873 -36.4247 253.918 -35.8676 253.734 -35.3335C253.494 -34.8047 252.963 -34.8666 252.524 -34.7459C251.901 -34.5745 251.442 -34.2329 251.4 -33.5479C251.357 -32.8297 251.852 -32.522 252.444 -32.299C252.94 -32.1121 253.568 -32.1247 253.78 -31.4683C253.949 -30.8456 253.905 -30.2108 253.905 -29.5807C253.908 -7.58834 253.906 14.404 253.91 36.3964C253.91 37.1467 253.836 37.8951 253.871 38.6427C253.952 39.8308 253.155 40.6872 252.655 41.631C251.661 43.508 250.269 45.1145 248.87 46.7029C248.392 47.2451 247.923 47.4583 247.566 46.5786C247.47 46.109 247.498 45.6345 247.498 45.1624C247.495 36.2142 247.507 27.2659 247.482 18.3178C247.479 17.2083 247.714 16.2481 248.35 15.3258C249.693 13.3785 250.441 11.1866 250.79 8.85533C250.84 7.41053 250.876 5.96747 250.051 4.67596C249.641 4.14338 249.322 3.5047 248.77 3.13225C247.637 2.3674 247.472 1.30966 247.476 0.0500679C247.505 -11.7062 247.401 -23.4637 247.549 -35.2183C247.594 -38.794 247.601 -42.3788 247.761 -45.9561C247.646 -47.3258 248.047 -48.6223 248.43 -49.895C250.235 -55.9043 255.58 -59.9214 261.973 -59.9455C277.137 -60.0026 292.3 -59.9876 307.464 -59.9968C314.216 -60.0009 320.969 -60.0053 327.721 -59.9809C329.139 -59.9757 330.556 -59.8452 331.973 -59.7725Z" fill="#313E5D"/>
<path d="M367.072 68.7102C367.569 68.2814 368.067 67.8526 368.669 67.3329C369.088 69.6752 369.14 71.9625 369.909 74.1093C369.949 74.2189 369.926 74.356 369.979 74.4545C370.209 74.8786 370.14 75.696 370.765 75.6092C371.324 75.5316 371.118 74.7969 371.073 74.3712C370.812 71.8949 370.86 69.4121 370.852 66.9303C370.848 65.8435 371.563 64.9402 372.572 64.7078C373.782 64.4291 374.507 64.7769 375.056 65.9532C375.596 67.1117 375.72 68.375 375.821 69.6221C375.881 70.3623 375.924 71.0918 376.18 71.9051C376.585 71.3489 376.95 70.8491 377.374 70.2664C378.389 71.4719 378.844 72.9204 379.409 74.3109C380.287 76.4724 380.642 78.7623 381.057 81.0375C381.112 84.198 381.034 87.3264 379.458 90.2133C378.667 91.6617 377.486 92.7534 376.362 93.9079C376.095 94.1822 375.697 94.4459 375.929 94.9036C376.176 95.3923 376.686 95.3004 377.093 95.23C378.176 95.0425 379.12 94.4083 380.238 94.2663C381.701 94.0803 382.688 94.8078 382.713 96.2915C382.755 98.8189 381.933 101.163 381.042 103.472C379.877 106.492 378.446 109.375 376.321 111.86C375.259 111.555 374.226 111.181 373.303 110.554C371.756 109.504 370.131 109.312 368.359 109.972C366.474 110.674 364.532 111.206 362.555 111.583C361.966 111.696 361.265 111.911 360.969 111.049C361.142 109.945 361.938 109.169 362.505 108.292C366.992 101.357 370.197 93.8284 372.906 86.0661C371.338 89.791 369.911 93.5738 368.347 97.3015C366.939 100.657 365.222 103.845 363.323 106.941C363.136 107.246 362.938 107.542 362.577 107.67C361.594 107.211 361.493 106.978 362.116 106.27C362.885 105.395 363.394 104.384 363.848 103.333C364.213 102.485 363.98 101.955 363.116 101.546C362.297 101.158 361.279 100.991 360.865 99.9888C360.697 98.8789 361.012 97.7963 361.041 96.6945C361.187 91.227 360.259 85.8682 359.497 80.492C359.428 80.098 359.403 79.7028 359.493 79.3085C361.076 76.0842 363.261 73.2604 365.449 70.4402C365.633 70.203 365.915 69.7956 366.281 70.3036C366.068 72.2889 365.568 74.2263 365.312 76.2048C365.152 77.4417 364.998 78.6804 364.85 79.9201C365.087 77.5305 365.463 75.1624 365.887 72.8017C366.081 71.7232 366.317 70.6529 366.488 69.5697C366.544 69.2208 366.487 68.728 367.072 68.7102Z" fill="#C6B1DC"/>
<path d="M361.153 110.917C361.432 111.716 362.037 111.37 362.522 111.268C364.554 110.843 366.563 110.319 368.508 109.589C370.271 108.927 371.939 109.115 373.374 110.261C374.284 110.987 375.602 110.858 376.32 111.86C374.687 114.173 372.442 115.871 370.394 117.768C369.356 118.467 368.195 118.051 367.089 118.132C364.902 118.133 362.714 118.246 360.529 118.066C359.616 117.722 358.848 117.079 357.888 116.809C357.364 116.662 357.262 116.159 357.51 115.755C358.527 114.091 359.65 112.497 360.826 110.941C360.899 110.846 361.04 110.878 361.153 110.917Z" fill="#AC98CC"/>
<path d="M230.734 7.07391C231.029 5.15849 231.814 3.5167 233.539 2.50934C235.681 1.25893 238.534 2.03561 239.977 4.19468C240.17 4.48267 240.344 4.78292 240.634 5.25087C241.482 3.60063 242.617 2.44702 244.263 1.88454C245.062 1.61124 245.897 1.47018 246.703 1.70055C247.447 1.91356 247.587 1.6791 247.586 0.996315C247.569 -11.6763 247.567 -24.349 247.562 -37.0216C247.575 -39.5813 247.579 -42.1411 247.608 -44.7007C247.612 -45.1195 247.475 -45.5691 247.762 -45.957C247.768 -35.0921 247.776 -24.2282 247.779 -13.3644C247.78 -8.5839 247.778 -3.80333 247.754 0.977089C247.751 1.61864 247.879 2.04398 248.494 2.41141C249.372 2.93512 250.011 3.74772 250.437 4.69904C250.433 5.33132 249.868 5.24958 249.513 5.38907C247.889 6.02633 246.1 5.97194 244.465 6.59289C243.471 6.97012 242.45 7.26273 241.526 7.81392C240.908 8.18224 240.209 8.32982 239.486 8.34002C238.962 8.34742 238.46 8.40901 238.104 8.85955C237.6 9.27097 237.358 8.84042 237.106 8.5264C236.875 8.23909 236.673 7.96425 236.294 8.32367C234.629 9.40383 232.916 10.3804 230.957 10.8363C230.443 9.60746 230.143 8.36688 230.734 7.07391Z" fill="#F79FAF"/>
<path d="M211.328 69.4271C210.745 69.6513 210.238 70.0452 209.594 70.1487C209.187 70.2143 208.805 70.3052 208.58 69.8571C208.383 69.4655 208.459 69.1017 208.762 68.7743C209.764 67.6948 211.037 67.1274 212.441 66.8013C212.658 66.751 212.921 66.8624 213.083 66.6198C212.773 65.2755 211.777 65.0891 210.581 64.8181C207.148 64.0403 203.841 62.8925 201.383 60.1429C200.685 57.8372 201.432 57.0054 203.829 57.2683C204.698 57.3636 205.514 57.5891 206.343 57.8078C208.843 59.3513 210.778 61.4018 211.996 64.1449C212.243 63.3677 212.011 62.6422 211.936 61.9196C211.736 59.9967 211.655 58.0819 212.026 56.1668C212.193 55.301 212.647 54.6491 213.516 54.5613C214.361 54.4759 214.709 55.2079 214.974 55.8823C215.394 56.9501 215.649 58.0559 215.619 59.2137C216.03 59.6834 215.961 60.2605 215.876 60.7861C215.517 62.998 215.105 65.2004 213.935 67.1673C213.142 68.0061 212.575 69.1092 211.328 69.4271Z" fill="#C0ADDB"/>
<path d="M373.726 43.5664C374.123 45.1006 373.825 46.5958 373.473 48.088C373.164 48.8247 372.855 49.5614 372.461 50.5006C374.158 49.955 375.567 49.2179 377.163 49.2574C377.477 49.2652 377.805 49.2206 378.103 49.2954C378.683 49.4413 379.235 49.6787 379.396 50.3476C379.551 50.9884 379.18 51.4179 378.711 51.7327C377.09 52.8215 375.285 52.9203 373.53 52.2952C372.461 51.9144 371.904 52.0087 371.615 53.1125C371.453 53.0955 371.428 52.9512 371.365 52.8424C371.955 51.7713 371.741 50.8702 371.143 49.7824C369.509 46.808 368.686 43.5884 368.962 40.1505C369.056 38.974 369.422 37.9295 370.389 37.1719C371.428 37.0972 372.064 37.637 372.496 38.5219C373.274 40.1155 373.625 41.8096 373.726 43.5664Z" fill="#9599C7"/>
<path d="M374.619 20.6058C374.751 21.509 374.304 22.3262 374.234 23.1995C374.202 23.3532 374.17 23.5069 374.138 23.6605C372.711 27.3173 370.168 29.972 366.858 32.0154C365.782 32.6795 364.939 32.7063 364.007 31.9385C363.931 31.1638 364.46 30.6922 364.955 30.2832C367.886 27.8654 370.221 24.9058 372.611 21.992C373.136 21.3523 373.564 20.5056 374.619 20.6058Z" fill="#E17590"/>
<path d="M371.365 52.8425C371.448 52.9325 371.532 53.0224 371.615 53.1125C370.072 57.6106 368.604 62.1317 367.458 66.7504C367.298 67.396 367.199 68.0567 367.072 68.7104C366.325 71.0279 366.103 73.4504 365.643 75.8255C365.33 77.4422 365.305 79.118 364.719 80.6815C364.769 77.1009 365.479 73.6153 366.098 70.1176C367.152 65.8223 368.191 61.5224 369.677 57.3491C370.215 55.838 370.801 54.3442 371.365 52.8425Z" fill="#807DB2"/>
<path d="M253.742 39.0444C253.323 38.6603 253.545 38.1609 253.545 37.7255C253.536 15.4419 253.543 -6.84171 253.545 -29.1253C253.545 -30.0337 253.523 -30.9421 253.511 -31.8505C253.227 -32.1679 253.059 -32.508 253.298 -32.9299C253.435 -33.1049 253.62 -33.2001 253.829 -33.2599C254.452 -33.4039 255.086 -33.3632 255.717 -33.3636C261.52 -33.3674 267.323 -33.3624 273.126 -33.3708C273.654 -33.3716 274.213 -33.2718 274.808 -33.6517C274.223 -34.1412 273.623 -34.0276 273.069 -34.0286C267.187 -34.0394 261.305 -34.0315 255.423 -34.0392C254.797 -34.04 254.153 -33.9576 253.57 -34.2947C253.307 -34.5471 253.295 -34.8246 253.487 -35.1223C253.501 -38.596 253.486 -42.0701 253.539 -45.5432C253.59 -48.9478 255.069 -51.5832 257.956 -53.4201C259.015 -54.0937 260.154 -54.4537 261.409 -54.4488C265.002 -54.435 268.595 -54.4061 272.188 -54.4211C273.007 -54.4245 273.371 -54.2361 273.386 -53.3047C273.437 -50.142 275.319 -48.2897 278.503 -48.2254C280.713 -48.1808 282.925 -48.2295 285.136 -48.2307C294.256 -48.2356 303.377 -48.2381 312.497 -48.2417C313.401 -48.2421 314.32 -48.2349 315.168 -48.5651C317.297 -49.3938 318.262 -51.0577 318.435 -53.2693C318.463 -53.6279 318.225 -54.0688 318.68 -54.3363C319.752 -54.5115 320.824 -54.4909 321.897 -54.3491C325.107 -54.3458 328.344 -54.8181 331.515 -54.1014C334.402 -53.4492 336.182 -51.4611 337.213 -48.7607C337.898 -46.9633 338.006 -45.0877 337.882 -43.1886C336.306 -43.2936 334.853 -43.9565 333.289 -44.1537C323.684 -45.3645 315.079 -43.1811 307.643 -36.8044C303.81 -33.5172 300.642 -29.6655 297.768 -25.5478C297.294 -24.8686 296.821 -24.1896 296.287 -23.5548C295.724 -22.8855 295.099 -22.6631 294.345 -23.2599C293.884 -23.5686 293.506 -23.9722 293.113 -24.3585C288.43 -28.9645 280.918 -27.2445 278.68 -21.0623C277.909 -18.9313 277.878 -16.7489 278.144 -14.5382C278.824 -9.86877 280.989 -5.91241 283.995 -2.36216C284.375 -1.91392 284.849 -1.52447 284.802 -0.850224C282.039 4.58437 281.011 10.4624 280.389 16.4421C280.31 17.2033 280.028 17.8035 279.325 18.1628C278.755 18.3736 278.159 18.3214 277.57 18.3221C273.67 18.3269 269.768 18.3772 265.869 18.3029C263.831 18.264 262.218 18.8427 261.257 20.7188C260.342 22.5054 260.898 24.0738 262.073 25.5199C262.193 25.9836 261.824 26.1677 261.536 26.3209C258.178 28.1086 256.659 31.1977 255.617 34.6296C255.342 35.8007 254.851 36.8982 254.452 38.0267C254.312 38.4226 254.165 38.8357 253.742 39.0444Z" fill="#FDFBFD"/>
<path d="M294.499 -23.4948C295.439 -22.6689 295.896 -23.4927 296.34 -24.0872C297.655 -25.847 298.867 -27.6859 300.224 -29.4108C303.968 -34.1676 308.152 -38.4782 313.594 -41.2997C317.243 -43.1915 321.169 -44.2148 325.287 -44.6437C328.933 -45.0235 332.481 -44.7503 336.016 -43.8985C336.671 -43.7407 337.298 -43.5233 337.883 -43.1887C337.899 -42.5982 337.928 -42.0078 337.928 -41.4173C337.933 -19.9973 337.936 1.42267 337.924 22.8426C337.924 23.1828 338.191 23.6326 337.687 23.8754C336.606 23.493 335.764 22.5455 334.523 22.5419C333.407 22.2711 332.285 22.2563 331.158 22.4434C330.768 22.5082 330.383 22.5532 330.027 22.3167C329.892 22.1642 329.734 21.8814 329.89 21.8075C331.026 21.2706 330.232 20.6789 329.91 20.2007C329.272 19.2546 328.421 18.5847 327.201 18.5199C326.691 18.4928 326.189 18.3417 325.674 18.3476C319.212 18.4216 312.746 18.1246 306.286 18.5251C305.073 18.6004 303.833 18.4244 302.677 18.968C302.133 19.0848 301.581 19.0725 301.031 19.0727C295.252 19.0753 289.472 19.075 283.693 19.0728C283.182 19.0726 282.67 19.0869 282.166 18.9999C281.247 18.6194 280.262 18.411 279.358 17.9789C280.42 17.1392 280.122 15.8557 280.233 14.7982C280.616 11.1518 281.376 7.60013 282.43 4.10079C282.972 2.3005 283.585 0.528645 284.615 -1.0662C285.699 -0.769062 286.326 0.161785 287.096 0.845581C289.466 2.95026 292.096 4.65627 294.8 6.27597C295.534 6.71579 296.175 6.69325 296.897 6.29167C300.249 4.42744 303.35 2.22847 306.056 -0.505299C310.024 -4.40914 312.943 -8.91156 313.992 -14.4694C314.391 -16.5865 314.357 -18.6927 313.719 -20.7756C311.452 -28.176 302.76 -28.5012 298.775 -24.5944C297.981 -23.8161 297.304 -22.9572 296.673 -22.0452C296.014 -21.0912 295.654 -21.0931 295.01 -22.0288C294.717 -22.4554 294.21 -22.8487 294.499 -23.4948Z" fill="#FDF3F8"/>
<path d="M253.743 39.0443C254.299 37.5535 254.855 36.0628 255.41 34.572C256.51 33.0955 257.041 33.1391 258.443 34.2239C260.426 35.7587 262.431 37.2762 264.536 38.6495C264.774 38.8047 265.031 38.9016 265.315 38.8691C266.672 38.714 267.316 39.5996 267.792 40.636C268.017 41.1235 268.259 41.5236 268.762 41.7336C269.193 43.1448 269.216 44.5341 268.545 45.8852C268.418 46.1094 268.15 45.7736 267.942 46.1356C266.932 47.8968 265.325 49.0582 263.634 50.0977C260.976 51.731 258.316 53.3432 256.159 55.6648C255.239 56.6551 254.69 57.8978 253.759 58.8643C252.873 58.9672 252.282 58.4883 251.783 57.8459C250.268 55.8952 248.647 54.0704 246.477 52.7937C245.711 52.3434 245.156 51.5896 244.468 51.015C244.337 50.5535 244.654 50.2775 244.927 50.0163C245.799 49.179 246.58 48.262 247.347 47.3313C247.488 47.173 247.62 47.0024 247.818 46.9054C248.254 47.1471 248.373 46.8189 248.625 46.5454C250.702 44.2944 252.377 41.7763 253.743 39.0443Z" fill="#213250"/>
<path d="M237.867 8.99504C237.826 8.29538 238.156 7.96659 238.854 8.02466C240.077 8.1266 241.091 7.63749 242.177 7.11491C243.713 6.37596 245.358 5.82185 247.095 5.64287C248.257 5.52309 249.369 5.17787 250.437 4.69904C251.233 5.94211 251.308 7.30716 251.116 8.71728C250.621 9.00026 250.287 9.43762 249.977 9.89877C247.09 14.2022 243.361 17.6919 239.339 20.9003C239.102 20.9601 238.888 20.8879 238.677 20.7912C236.839 19.5961 235.261 18.1027 233.786 16.4913C232.508 15.124 231.786 13.442 231.11 11.7371C230.994 11.4445 230.972 11.1217 231.236 10.8626C232.254 9.87931 233.621 9.54368 234.84 8.93455C235.33 8.68957 235.85 8.50071 236.17 8.01609C236.731 8.86013 237.224 9.74819 237.846 10.5517C238.357 11.2114 238.182 11.857 237.844 12.5349C237.563 13.0959 237.042 13.6004 237.224 14.4659C238.307 13.8295 238.408 12.6329 239.138 11.8863C239.863 11.1457 241.03 11.1917 241.741 10.3137C241.106 9.96671 240.671 10.3212 240.227 10.4999C238.844 11.0577 238.097 10.5881 237.867 8.99504Z" fill="#F091A4"/>
<path d="M342.651 46.4899C342.013 48.3069 340.95 49.8805 339.828 51.4201C339.908 51.8317 339.661 52.0995 339.389 52.3276C336.959 54.3681 334.215 55.129 331.126 54.217C329.565 53.7563 328.917 52.8966 328.915 51.5728C329.933 49.7558 331.148 48.0606 332.254 46.2977C333.196 44.7984 334.102 43.2765 334.973 41.7332C335.332 41.097 335.613 40.3555 336.435 40.1246C337.359 40.4302 338.014 41.0384 338.435 41.9087C339.145 44.0751 340.598 45.5589 342.651 46.4899Z" fill="#F9A098"/>
<path d="M338.435 41.9087C337.689 41.4744 337.097 40.8581 336.488 40.2617C335.247 39.4351 334.803 38.0691 334.165 36.8333C334.09 36.0058 334.572 35.2742 334.536 34.4332C334.496 33.518 334.277 32.753 333.489 32.2228C332.438 32.0295 332.156 31.3525 332.144 30.3522C332.126 28.9357 332.116 27.5189 332.115 26.1023C332.114 25.1492 332.061 24.2017 331.669 23.3249C331.256 22.402 331.692 22.2661 332.49 22.231C333.273 22.1967 334.045 22.4532 334.826 22.2767C335.983 22.446 336.947 22.9605 337.687 23.8754C339.762 26.4466 339.825 29.5055 339.502 32.5237C339.208 35.2767 338.636 37.9974 338.679 40.7891C338.684 41.1426 338.764 41.5923 338.435 41.9087Z" fill="#192946"/>
<path d="M239.311 20.762C241.031 18.8049 243.214 17.357 245.033 15.4941C246.914 13.5676 248.461 11.4049 250.072 9.27717C250.313 8.95862 250.442 8.28681 251.115 8.71736C250.959 11.4016 249.871 13.7371 248.388 15.9149C248.001 16.4828 247.747 17.0312 247.749 17.7566C247.775 27.3159 247.77 36.8753 247.775 46.4347C247.775 46.5915 247.802 46.7484 247.817 46.9054C247.752 47.0503 247.688 47.1951 247.623 47.34C247.21 46.9931 247.217 46.5031 247.218 46.038C247.219 40.9337 247.154 35.8292 247.246 30.7262C247.227 30.1594 247.226 29.5913 247.238 29.0246C247.292 25.4508 247.253 21.876 247.253 18.0848C246.551 18.5671 246.035 19.0213 245.52 19.4677C244.563 20.296 243.515 20.9927 242.418 21.6088C241.214 22.2853 240.132 21.9635 239.311 20.762Z" fill="#E1768F"/>
<path d="M344.378 -15.1937C344.376 -9.7045 344.378 -4.21532 344.36 1.27382C344.359 1.71652 344.554 2.22611 344.106 2.5946C343.133 1.02735 343.665 -0.704524 343.677 -2.34761C343.683 -3.19901 343.631 -4.04399 343.623 -4.89276C343.593 -8.19949 343.607 -11.5067 343.608 -14.8137C343.608 -15.1223 343.55 -15.453 343.842 -15.6864C343.92 -15.6796 343.999 -15.6773 344.077 -15.6796C344.279 -15.5807 344.44 -15.4563 344.378 -15.1937Z" fill="#17203B"/>
<path d="M359.754 80.319C360.359 82.6787 360.523 85.1098 360.856 87.5097C361.289 90.626 361.535 93.7702 361.38 96.9258C361.327 98.0242 361.211 99.1196 361.124 100.216C361.148 101.049 361.111 101.859 360.332 102.402C358.564 103.178 356.667 103.353 354.787 103.419C351.911 103.52 349.029 103.452 346.15 103.442C345.197 103.439 344.264 103.306 343.372 102.956C342.435 102.469 342.509 101.827 342.809 100.89C344.205 96.5262 347.529 93.4366 350.04 89.8227C351.72 87.4048 353.478 85.0258 355.301 82.7037C356.011 81.8001 356.836 81.0146 357.647 80.2133C358.671 79.2014 358.873 79.2234 359.754 80.319Z" fill="#A15479"/>
<path d="M359.755 80.3192C358.837 79.3862 358.272 79.9896 357.547 80.6872C355.091 83.0486 353.347 85.9547 351.309 88.6336C348.937 91.7502 346.628 94.9139 344.264 98.0366C343.417 99.1554 343.629 100.674 342.752 101.783C342.536 102.055 343.022 102.301 343.121 102.589C342.846 102.864 342.531 102.747 342.234 102.66C339.551 101.88 337.182 100.476 334.881 98.9403C334.685 98.8092 334.525 98.626 334.52 98.3615C334.695 97.8143 335.188 97.6054 335.626 97.3522C338.06 95.9447 340.354 94.3377 342.45 92.4658C344.309 90.8055 345.524 88.6896 346.565 86.4531C348.697 81.8764 350.023 77.0549 350.994 72.121C351.139 70.6944 351.494 69.2982 351.578 67.8644C351.601 67.4729 351.668 67.0934 351.926 66.7758C353.549 66.0358 355.221 65.4148 356.889 64.7829C357.072 64.7137 357.275 64.7758 357.447 64.8902C358.317 66.4235 358.383 68.1273 358.467 69.822C358.48 70.0843 358.367 70.3533 358.507 70.6124C358.826 73.465 359.159 76.3157 359.748 79.129C359.75 79.5256 359.752 79.9224 359.755 80.3192Z" fill="#82466C"/>
<path d="M360.426 102.13C360.659 101.492 360.892 100.854 361.125 100.216C361.998 100.525 362.702 101.171 363.608 101.431C364.275 101.622 364.558 102.145 364.349 102.802C363.931 104.12 363.396 105.432 362.395 106.387C361.73 107.022 361.998 107.243 362.54 107.58C362.624 107.665 362.731 107.792 362.679 107.882C361.933 109.186 361.338 110.597 360.138 111.593C359.383 111.627 358.707 111.499 358.358 110.713C358.359 109.463 359.025 108.394 359.316 107.223C359.42 106.806 359.607 106.411 359.659 105.978C360.116 104.735 359.846 103.347 360.426 102.13Z" fill="#B8A3D5"/>
<path d="M360.195 111.381C361.148 110.22 361.916 108.944 362.54 107.581C365.301 103.474 367.394 99.0297 369.208 94.4422C370.279 91.7341 371.379 89.0371 372.455 86.3307C372.615 85.9285 372.712 85.5006 373.463 85.2954C370.461 94.4926 366.497 103.031 361.154 110.917C360.064 112.468 358.966 114.013 357.888 115.572C357.495 116.14 357.491 116.519 358.348 116.669C359.066 116.795 359.748 117.132 360.196 117.781C359.524 118.303 358.727 118.074 357.98 118.149C357.128 117.659 356.763 116.85 356.546 115.945C358.017 114.629 358.87 112.817 360.195 111.381Z" fill="#8982B5"/>
<path d="M225.779 100.258C226.545 100.563 227.317 100.852 228.141 100.963C230.039 101.479 231.923 102.022 233.147 103.753C233.127 105.311 232.671 106.826 232.751 108.402C232.812 109.611 232.925 110.807 233.115 111.999C233.185 112.821 233.427 113.63 233.325 114.466C232.909 115.107 232.481 114.666 232.146 114.415C229.026 112.076 225.793 109.888 222.807 107.365C221.514 106.272 220.347 105.063 219.339 104.101C221.975 107.04 225.443 109.448 228.739 112.059C229.109 112.352 229.515 112.609 229.707 113.072C229.819 113.901 229.25 114.329 228.651 114.605C227.093 115.323 225.76 116.324 224.587 117.558C224.501 117.569 224.416 117.579 224.33 117.59C221.873 116.151 219.582 114.517 217.975 112.098C215.978 109.093 215.173 105.908 216.561 102.407C217.15 100.867 218.483 100.29 219.916 99.9556C221.883 99.4963 223.864 99.4092 225.779 100.258Z" fill="#C4AFDC"/>
<path d="M213.712 94.5415C213.706 94.2292 213.651 93.9082 213.705 93.6064C213.824 92.931 214.203 92.368 214.937 92.4953C215.648 92.6184 215.922 93.2454 215.797 93.9408C215.731 94.312 215.503 94.6544 215.348 95.0095C214.73 95.1077 214.175 94.985 213.712 94.5415Z" fill="#D7C0E5"/>
<path d="M237.867 8.99491C238.03 9.26381 238.192 9.53324 238.355 9.80153C238.783 10.5037 239.304 10.7772 240.078 10.2557C240.365 10.0624 240.736 9.99847 241.062 9.85878C241.505 9.66859 241.928 9.57965 242.118 10.1654C242.31 10.7575 241.841 10.9067 241.434 11.0662C241.178 11.1666 240.914 11.2525 240.648 11.3228C239.502 11.6252 238.933 12.5077 238.445 13.4813C238.252 13.8671 238.05 14.2504 237.819 14.6142C237.653 14.875 237.382 14.9588 237.093 14.8228C236.767 14.6696 236.595 14.3983 236.755 14.0506C237.033 13.443 237.307 12.8243 237.667 12.2653C238.046 11.6778 237.973 11.2235 237.594 10.6596C237.037 9.83037 236.117 9.17818 236.17 8.01604C236.474 7.72047 236.755 7.51389 237.085 8.01672C237.312 8.36364 237.469 8.77971 237.867 8.99491Z" fill="#8D4567"/>
<path d="M234.072 117.789C231.072 117.789 228.073 117.79 225.074 117.79C224.911 117.713 224.749 117.635 224.587 117.558C225.196 116.142 226.419 115.435 227.717 114.786C228.491 114.399 229.432 114.14 229.564 113.05C230.655 113.139 231.201 114.105 232.035 114.609C232.503 114.892 232.905 115.257 233.506 115.116C233.863 115.296 233.943 115.654 234.071 115.984C234.178 116.581 234.549 117.178 234.078 117.777L234.072 117.789Z" fill="#A592C7"/>
<path d="M356.887 24.3679C355.671 22.3271 355.486 20.0785 355.754 17.8086C355.927 16.3505 356.872 15.257 358.066 14.4109C360.544 13.4524 362.448 13.9365 364.066 16.1209C364.675 16.9431 364.958 16.8143 365.334 16.0523C365.73 15.2489 366.493 14.7997 367.094 14.1936C370.339 12.8644 372.967 14.0669 374.357 17.5164C373.039 18.2017 371.757 18.9586 370.297 19.3418C368.963 19.6919 367.797 20.4496 366.546 21.0022C365.678 21.0424 365.157 21.6746 364.571 22.1816C363.195 23.3705 362.964 23.3785 361.563 22.2773C361.179 21.976 360.823 21.6163 360.247 21.4226C360.535 22.1769 361.484 22.3402 361.438 23.181C361.342 23.4079 361.179 23.6119 360.955 23.6572C359.605 23.9289 358.309 24.51 356.887 24.3679Z" fill="#F59BAC"/>
<path d="M344.547 37.8876C345.623 34.8288 347.182 32.0125 348.868 29.2578C349.453 28.3013 350.198 27.4689 351.064 26.7958C352.922 25.3511 354.333 26.2171 354.92 27.9942C355.493 29.7315 355.302 31.5819 355.088 33.3844C354.944 34.5895 354.692 35.7813 354.519 36.9833C354.426 37.6246 354.56 38.0103 355.339 37.6115C356.566 36.9825 357.894 36.8528 359.252 36.9374C360.276 37.129 361.225 37.4533 361.835 38.3842C361.179 38.8541 360.261 38.9311 359.715 39.8676C360.892 39.8815 361.27 38.9911 361.838 38.3878C363.516 40.0868 364.111 42.2674 364.58 44.511C365.949 51.0706 364.996 57.38 362.546 63.5284C362.447 63.7752 362.252 63.9833 362.102 64.2095C361.395 64.1561 361.407 63.5711 361.307 63.0974C360.78 60.6031 360.683 58.1023 361.094 55.5721C361.458 53.3379 361.379 51.0907 361.044 48.8532C360.924 48.0553 360.782 47.2196 359.911 46.9269C359.046 46.6366 358.418 47.2218 357.816 47.7449C356.489 48.8979 355.48 50.3048 354.581 51.7997C354.359 52.1686 354.201 52.5866 353.823 52.8423C352.884 52.8108 352.732 51.8823 352.195 51.3929C351.855 51.0835 351.662 50.6448 351.432 50.246C350.542 49.1275 349.475 48.2255 348.169 47.6305C347.716 47.4241 347.746 47.1393 347.791 46.6852C348.196 42.584 349.049 38.5632 349.898 34.5409C349.963 34.2322 350.056 33.9339 349.862 33.4453C349.211 35.8844 348.751 38.2034 348.355 40.5347C348.014 42.5395 347.706 44.5502 347.411 46.5624C347.341 47.0404 347.163 47.1555 346.708 47.0273C345.953 46.8151 345.195 46.6107 344.394 46.6466C343.796 46.6734 343.839 46.2148 343.839 45.8195C343.84 44.7557 343.848 43.6919 343.854 42.628C344.088 41.6257 343.924 40.6091 343.953 39.5996C343.972 38.9548 344.036 38.3502 344.547 37.8876Z" fill="#FAB4C5"/>
<path d="M353.591 52.8155C354.738 50.8911 355.873 48.9597 357.606 47.4731C358.335 46.8477 359.094 46.1436 360.112 46.5512C361.096 46.9457 361.216 47.9398 361.397 48.8974C362.07 52.4411 361.115 55.9372 361.186 59.4525C361.218 61.0518 361.229 62.7355 362.101 64.2096C361.433 66.1674 360.268 67.8423 359.051 69.4798C358.785 69.8366 358.522 70.1543 358.506 70.6125C358.119 68.7148 357.732 66.8172 357.345 64.9197C356.734 63.6963 356.604 62.3448 356.308 61.0381C356 59.304 355.379 57.6627 354.799 56.0101C354.601 55.251 354.209 54.5771 353.871 53.878C353.712 53.548 353.369 53.2515 353.591 52.8155Z" fill="#F49FB2"/>
<path d="M356.887 24.3679C357.877 24.152 358.782 23.6344 359.844 23.6444C360.4 23.6496 361.009 23.5444 361.375 22.9912C361.568 22.85 361.773 22.9128 361.907 23.0441C362.859 23.9799 363.629 23.5689 364.39 22.7618C365.027 22.0849 365.897 21.645 366.391 20.817C368.466 19.3464 371.085 19.0869 373.221 17.7495C373.569 17.5313 373.954 17.4727 374.358 17.5164C374.357 18.5536 374.825 19.5512 374.618 20.6059C372.889 21.48 372.133 23.2685 370.88 24.5898C369.079 26.4884 367.539 28.6394 365.41 30.2199C364.8 30.6727 364.408 31.3126 364.006 31.9388C361.429 30.6113 359.529 28.5416 357.802 26.2829C357.623 25.5843 356.921 25.136 356.887 24.3679Z" fill="#EC8BA0"/>
<path d="M302.825 18.6753C304.272 17.8061 305.888 18.2581 307.418 18.1495C312.962 17.756 318.52 18.079 324.071 17.9655C325.376 17.9387 326.658 18.088 327.944 18.2262C329.069 18.3471 330.733 20.2217 330.852 21.3434C330.902 21.8244 330.647 21.7637 330.38 21.7696C330.094 21.7759 329.902 21.8277 330.092 22.1682C328.983 22.7733 327.844 22.9848 326.655 22.405C325.944 22.0584 325.326 21.5679 324.699 21.0965C323.574 20.2513 322.354 20.2448 321.123 20.7448C319.071 21.5788 317.644 24.2372 318.008 26.4298C318.084 26.8832 318.285 27.3586 317.848 27.7559C317.281 28.1329 316.626 28.1417 316.014 28.0496C314.166 27.7716 312.316 27.9329 310.467 27.9124C302.543 27.8248 294.618 27.7472 286.696 27.8865C283.624 27.9405 280.555 28.1279 277.481 28.0084C276.866 27.9418 276.4 27.5679 275.899 27.2527C274.404 26.3126 272.783 25.8937 271.037 26.2814C270.028 26.5056 269.104 26.4303 268.163 26.0002C266.632 25.3006 265.039 25.2562 263.416 25.6804C262.974 25.796 262.522 26.0453 262.049 25.76C260.592 24.6736 260.076 22.8943 260.676 21.027C261.193 19.4171 263.035 17.9888 264.67 17.9846C269.566 17.9721 274.462 17.9794 279.357 17.9789C280.237 17.9636 281.106 17.9846 281.737 18.7435C282.049 19.287 282.602 19.2556 283.098 19.2568C291.016 19.2758 298.934 19.2902 306.852 19.2556C306.933 19.2553 307.008 19.2324 307.281 19.0854C306.183 19.037 305.28 19.0777 304.38 19.0497C303.84 19.0329 303.262 19.1339 302.825 18.6753Z" fill="#FCE2E9"/>
<path d="M293.109 -6.93572C292.977 -4.84641 293.614 -4.11725 295.714 -3.5328C297.324 -3.0846 298.792 -2.18395 300.507 -2.0176C301.057 -1.96418 301.629 -1.82866 302.135 -2.00461C302.714 -2.20588 303.206 -2.10071 303.729 -1.91719C303.951 -1.83962 304.178 -1.72555 304.403 -1.72328C305.01 -1.71709 305.632 -2.20329 306.22 -1.75513C306.841 -1.28087 305.645 -0.773708 306.193 -0.259506C303.373 2.63706 300.097 4.9051 296.542 6.80199C295.796 7.19981 295.259 6.83545 294.682 6.51925C290.959 4.47891 287.612 1.93869 284.615 -1.06595C282.962 -3.10318 281.282 -5.1245 280.127 -7.50443C279.049 -9.72493 278.058 -11.9798 277.902 -14.4969C278.622 -13.3839 279.793 -13.2607 280.908 -13.3457C282.324 -13.4536 283.696 -13.3817 285.074 -13.0798C286.566 -12.753 288.069 -12.4764 289.496 -11.9073C289.723 -10.8475 290.573 -10.249 291.25 -9.51705C291.973 -8.73407 292.856 -8.05978 293.109 -6.93572Z" fill="#E0738E"/>
<path d="M262.05 25.7601C264.443 24.8742 266.803 24.7488 269.108 26.0491C269.342 26.1809 269.577 26.2835 269.888 26.1855C272.6 25.3294 275 26.0023 277.178 27.7156C278.89 28.6283 279.36 30.3482 279.782 32.0021C280.505 34.8321 279.861 37.6104 279.149 40.3592C279.11 40.5129 279 40.6327 278.875 40.7309C278.212 40.6793 278.193 40.0545 277.942 39.6507C277.628 39.1465 277.344 38.7152 276.641 39.0766C276.174 39.3168 275.675 39.3225 275.46 38.7399C275.252 38.18 275.606 37.8563 276.098 37.6612C276.317 37.5744 276.556 37.5163 276.71 37.3221C276.894 37.0912 276.944 36.8159 276.859 36.5403C276.748 36.1827 276.454 36.232 276.175 36.2804C276.019 36.3073 275.869 36.3723 275.714 36.385C275.29 36.4198 274.723 36.8741 274.501 36.193C274.314 35.6198 274.808 35.267 275.241 34.9766C275.57 34.7565 275.982 34.7266 276.464 34.5112C275.761 33.9711 274.983 33.677 274.444 33.0679C274.224 32.8184 273.94 32.8349 273.736 33.1072C272.798 34.3597 271.365 34.5742 269.99 34.9106C269.222 35.0986 268.479 35.3307 267.799 35.7621C267.073 36.2217 266.849 36.7583 267.297 37.5397C267.81 38.4328 268.152 39.4009 268.447 40.3841C268.567 40.7872 268.803 41.1976 268.49 41.6204C267.945 42.134 267.83 41.6454 267.736 41.2678C267.546 40.509 267.146 39.8989 266.538 39.4255C266.358 39.2856 266.092 39.0648 265.938 39.113C264.289 39.6299 263.407 38.2481 262.385 37.5271C261.174 36.6722 259.992 35.7583 258.748 34.9358C258.682 34.8923 258.607 34.8623 258.544 34.8162C258.023 34.4381 257.835 33.6224 257.015 33.6395C256.312 33.6541 256.028 34.402 255.411 34.5721C256.372 30.6917 258.248 27.5007 262.05 25.7601Z" fill="#12233E"/>
<path d="M266.561 11.5646C263.015 9.42062 260.472 6.60369 260.407 2.19091C260.379 0.291592 261.376 -1.18364 262.899 -1.70063C264.426 -2.21904 265.698 -1.76829 266.971 -0.138035C267.349 0.346506 267.431 0.420928 267.839 -0.127306C269.271 -2.05151 271.097 -2.59323 272.851 -1.71994C274.641 -0.828752 275.534 1.59728 274.875 3.77767C274.486 3.98093 274.16 4.24424 273.897 4.60993C271.94 7.32775 269.469 9.51588 266.78 11.4759C266.718 11.5206 266.634 11.5343 266.561 11.5646Z" fill="#F194A5"/>
<path d="M266.56 11.5645C268.177 9.87203 270.179 8.5933 271.697 6.79227C272.394 5.96498 273.367 5.38272 273.738 4.25704C273.863 3.87912 274.334 3.56 274.874 3.77759C274.26 7.33059 272.057 9.68665 269.131 11.5491C268.212 12.134 267.422 12.2467 266.56 11.5645Z" fill="#E1788F"/>
<path d="M317.988 27.4669C316.407 24.2331 319.574 20.2557 322.277 20.084C323.272 20.0209 324.224 20.161 324.913 20.8588C326.399 22.3669 328.117 22.714 330.092 22.1682C331.671 22.1376 333.257 21.8391 334.825 22.2767C333.833 22.776 332.745 22.2749 331.688 22.582C332.341 23.5672 332.455 24.6684 332.462 25.7991C332.473 27.5919 332.516 29.3847 332.509 31.1773C332.507 31.6217 332.708 31.7132 333.068 31.7264C333.372 31.7375 333.719 31.6696 333.854 32.0712C332.165 32.7215 331.874 33.1611 331.834 35.0305C331.816 35.8475 331.936 36.6731 331.71 37.4803C331.66 37.5977 331.584 37.6943 331.483 37.7719C329.671 38.2238 329.07 37.7686 329.375 35.9467C329.575 34.7534 329.304 33.9189 328.378 33.1605C327.365 32.331 326.545 31.3154 326.221 29.9983C326.049 29.2973 325.655 29.2886 325.076 29.4982C323.804 29.958 322.499 30.197 321.145 29.8948C319.809 29.455 318.432 29.0672 317.988 27.4669Z" fill="#10203A"/>
<path d="M324.39 11.591C321.008 10.2549 319.262 7.60196 318.489 4.19374C318.31 3.40061 318.159 2.61038 318.381 1.75453C319.061 -0.869983 321.528 -1.69703 323.507 0.165017C324.236 0.85035 324.48 0.763507 325.046 -0.0102047C326.841 -2.46002 329.908 -1.84158 331.234 1.17545C331.098 1.73599 330.874 2.26606 330.225 2.32308C329.351 2.39984 329.16 2.98838 329.055 3.68589C328.562 6.94742 326.937 9.54097 324.39 11.591Z" fill="#F39BAB"/>
<path d="M324.391 11.591C324.713 10.5036 325.739 10.0059 326.404 9.20548C327.886 7.4225 328.439 5.27408 328.868 3.08721C328.994 2.44525 329.143 2.02311 329.858 2.09955C330.593 2.1781 330.86 1.60599 331.235 1.17535C332.454 4.80625 329.287 10.1589 325.884 11.8186C325.304 12.1016 324.831 12.0473 324.391 11.591Z" fill="#E57A92"/>
<path d="M302.826 18.6754C304.205 18.687 305.585 18.6812 306.964 18.7203C307.422 18.7333 308.187 18.4798 308.175 19.2154C308.164 19.8468 307.433 19.6258 307.003 19.6261C299.747 19.6321 292.49 19.6219 285.234 19.6151C284.248 19.6142 283.262 19.6308 282.277 19.6039C281.718 19.5887 281.299 19.4165 281.738 18.7434C288.254 18.7305 294.77 18.7178 301.287 18.703C301.8 18.7018 302.313 18.6849 302.826 18.6754Z" fill="#DE7C92"/>
<path d="M244.445 50.913C247.148 52.7299 249.799 54.6158 251.726 57.306C252.255 58.0453 252.848 58.587 253.747 58.7574C254.049 59.6668 253.325 60.5475 253.675 61.4589C253.428 62.7342 253.066 63.99 253.039 65.3029C252.697 68.0476 253.11 70.7712 253.288 73.4978C253.344 74.3513 253.341 75.2202 253.537 76.0644C253.813 77.2744 253.411 78.5313 253.8 79.7335C254 82.9316 253.872 86.1322 253.884 89.3317C253.876 96.1985 253.879 103.065 253.953 109.931C253.191 111.376 249.399 112.453 247.993 111.623C247.386 110.622 247.449 109.503 247.446 108.402C247.416 95.0244 247.532 81.6467 247.49 68.2687C247.488 67.6793 247.556 67.0842 247.399 66.5054C247.259 65.8901 246.792 65.5351 246.355 65.1312C244.608 63.5153 243.151 61.6973 242.369 59.3967C241.661 57.3117 241.602 55.2474 242.374 53.1734C242.929 52.2976 243.229 51.1849 244.445 50.913Z" fill="#323F5F"/>
<path d="M268.489 41.6205C268.212 40.0673 267.624 38.6283 266.838 37.2721C266.507 36.7012 266.626 36.3169 267.097 35.8879C268.112 34.9638 269.369 34.6696 270.647 34.4521C272.126 34.2002 273.321 33.5788 274.019 32.0667C274.828 33.3513 276.098 33.8965 277.455 34.5882C276.559 35.0111 275.719 34.9084 275.077 35.3621C274.825 35.5404 274.501 35.7696 274.644 36.1222C274.826 36.5718 275.169 36.1775 275.434 36.1669C275.661 36.1579 275.901 35.965 276.104 36.0055C276.5 36.084 277.196 35.2944 277.261 36.2804C277.307 36.9704 277.614 38.0052 276.26 37.923C275.799 37.8951 275.438 38.0248 275.574 38.582C275.676 39.0013 275.964 39.0878 276.393 38.9514C277.64 38.555 278.031 38.7789 278.46 40.0681C278.535 40.2915 278.583 40.524 278.643 40.7522C278.644 40.8135 278.645 40.8749 278.647 40.9364C277.963 42.0656 277.768 43.2858 277.712 44.6057C277.644 46.2067 276.852 47.508 275.369 48.2855C275.056 48.4494 274.765 48.6446 274.476 48.8444C273.909 49.1726 273.321 48.9135 272.745 48.8923C271.304 48.8393 271.147 48.9192 270.721 50.2795C270.175 52.0248 269.762 53.7784 270.782 55.5094C271.097 55.967 271.334 56.4629 271.468 57.0011C271.837 58.4895 271.572 59.8365 270.404 60.8771C269.29 61.8695 267.962 61.8924 266.638 61.3901C263.741 60.2909 262.603 57.8494 261.932 55.0751C261.927 54.6681 262.22 54.4441 262.485 54.2145C264.793 52.212 266.482 49.7801 267.563 46.9234C267.704 46.551 267.897 46.2098 268.225 45.9647C268.835 44.5483 268.915 43.0998 268.489 41.6205Z" fill="#F79991"/>
<path d="M268.226 45.9648C267.136 49.6209 264.945 52.5214 262.065 54.9498C261.259 56.1632 259.979 56.7023 258.734 57.2922C256.549 57.7272 254.873 58.8334 253.927 60.9162C253.832 61.125 253.698 61.3378 253.421 61.3628C252.975 60.4247 253.525 59.6117 253.748 58.7577C255.468 55.0266 258.675 52.7975 262.003 50.7486C264.193 49.4005 266.363 48.0822 267.86 45.9195C268.034 45.6675 268.157 45.5157 268.226 45.9648Z" fill="#0D1B36"/>
<path d="M352.128 66.812C351.894 68.3809 351.654 69.9491 351.429 71.5194C351.391 71.7882 351.428 72.0691 351.211 72.2834C350.888 72.2199 350.586 72.29 350.29 72.4218C347.495 73.6662 344.571 74.2026 341.516 74.019C340.334 74.0554 339.134 73.9874 338.059 73.5209C337.045 73.0812 336.437 73.2467 336.034 74.252C333.542 74.4831 331.203 75.2223 328.942 76.2834C327.765 76.8361 327.198 77.6149 327.307 78.9527C327.366 79.6625 327.541 80.4532 326.975 81.0946C326.823 81.1122 326.709 81.0567 326.628 80.9285C326.261 80.0322 326.453 79.0964 326.426 78.1764C326.381 76.2015 326.424 74.2261 326.405 72.251C326.373 68.886 326.779 69.3496 323.407 69.3176C322.456 69.3085 321.513 69.2694 320.579 69.077C320.11 68.9807 319.653 68.8705 319.265 68.573C318.667 68.0846 318.704 67.4672 318.985 66.8552C320.689 63.1514 321.944 59.2815 323.267 55.4356C323.822 53.8243 324.823 52.5042 326.22 51.5275C326.965 51.0062 327.795 50.6153 328.759 50.6959C329.098 50.8184 329.387 50.9692 329.149 51.4074C329.168 52.9586 330.177 53.9564 332.305 54.2013C335.246 54.5398 337.819 53.6949 339.828 51.42C340.334 51.7776 340.777 52.2589 341.5 52.1328C341.743 52.0906 341.983 52.2282 342.07 52.4717C342.167 52.7452 341.941 52.879 341.758 53.0375C338.914 55.4929 337.563 58.7619 336.783 62.3156C336.523 63.4998 337.139 64.0185 338.297 63.7424C341.039 63.0884 343.751 62.3467 346.57 61.9898C348.013 61.8069 349.416 61.2122 350.913 61.0598C351.699 60.9799 351.721 60.0979 351.9 59.4651C352.606 59.6193 352.46 60.2195 352.49 60.6798C352.565 61.8416 352.417 63.0063 352.491 64.1702C352.48 65.0658 352.678 65.9906 352.128 66.812Z" fill="#D46686"/>
<path d="M353.592 52.8153C354.12 53.8157 354.837 54.7291 355.005 55.8946C354.66 56.468 354.074 56.7253 353.498 56.9389C352.856 57.1774 352.33 57.5356 351.893 58.0477C351.259 56.2825 350.722 54.4622 349.127 53.2503C348.816 53.0138 348.537 52.7272 348.203 52.532C347.768 52.2778 347.353 51.9791 347.459 51.4496C347.578 50.8527 348.151 50.6991 348.663 50.7145C349.474 50.7388 350.26 50.2755 351.092 50.6371C351.292 50.7242 351.388 50.4423 351.432 50.2458C352.387 50.9053 352.951 51.8929 353.592 52.8153Z" fill="#D46686"/>
<path d="M351.891 58.0477C351.864 57.5763 352.025 57.2356 352.49 57.0358C353.335 56.6724 354.166 56.277 355.003 55.8948C355.787 57.4822 356.212 59.1855 356.613 60.8962C355.972 61.4618 355.147 61.6476 354.376 61.9032C353.41 62.2233 352.64 62.6254 352.598 63.7906C352.59 64.0096 352.467 64.2546 352.146 64.2109C352.143 62.9962 352.148 61.7815 352.131 60.5671C352.126 60.1904 352.256 59.7724 351.899 59.4649C351.896 58.9925 351.894 58.5201 351.891 58.0477Z" fill="#B55E7E"/>
<path d="M344.548 37.8877C344.037 38.9748 344.055 40.1321 344.066 41.296C344.07 41.7417 344.238 42.2359 343.854 42.6282C343.853 41.1283 343.851 39.6284 343.85 38.1286C344.083 38.0483 344.315 37.968 344.548 37.8877Z" fill="#F7C1C4"/>
<path d="M329.149 51.4073C329.134 51.0915 328.958 50.9379 328.653 50.9154C328.923 49.5175 328.723 48.128 328.575 46.7377C328.585 46.1762 328.684 45.6412 329.131 45.2483C331.188 43.4385 331.533 41.0703 331.332 38.5236C331.317 38.329 331.284 38.1363 331.314 37.9404C331.353 37.8183 331.404 37.7008 331.464 37.5875L331.446 37.6109C332.132 37.261 332.92 37.1714 333.583 36.7574C333.886 36.5683 334.172 36.6424 334.39 36.9358C335.089 38.0444 335.788 39.1531 336.488 40.2616C335.078 41.4751 334.543 43.2635 333.554 44.7542C332.084 46.9704 330.807 49.3147 329.149 51.4073Z" fill="#EB8581"/>
<path d="M334.39 36.9357C334.003 36.7007 333.744 36.978 333.448 37.1563C332.834 37.5267 332.189 37.7868 331.447 37.611C331.467 36.4775 331.446 35.3415 331.519 34.2116C331.625 32.5776 332.425 31.8765 333.855 32.071C335.139 33.0485 335.002 34.359 334.694 35.7008C334.599 36.1136 334.303 36.4771 334.39 36.9357Z" fill="#F69A95"/>
<path d="M225.54 62.5246C226.268 62.8926 227.129 63.6926 227.692 63.5199C228.403 63.3015 228.111 62.0619 228.431 61.3093C229.286 59.2926 230.603 57.8606 232.902 57.595C233.148 57.9237 232.942 58.1936 232.775 58.454C230.923 61.3398 229.784 64.5054 229.075 67.8405C228.694 68.8869 228.748 70.0035 228.563 71.082C228.397 72.0543 227.897 72.412 226.923 72.247C226.168 72.1191 225.406 71.9429 224.349 72.0345C225.468 72.6592 226.559 72.3929 227.427 72.891C227.714 73.2897 227.47 73.5607 227.176 73.7733C225.837 74.7417 225.549 76.1796 225.393 77.6829C225.338 78.2069 225.485 78.8109 224.849 79.1159C223.998 78.7597 223.465 77.9762 222.694 77.5122C219.993 74.6437 218.132 71.4328 218.43 67.3021C218.69 63.6829 221.97 61.4627 225.54 62.5246Z" fill="#F79FB2"/>
<path d="M217.775 74.1475C216.96 72.3 215.658 70.7349 214.751 68.9401C215.246 68.9443 215.383 69.3707 215.583 69.6863C220.994 78.2159 226.525 86.6748 231.077 95.7159C231.248 96.0548 231.4 96.4028 231.346 96.867C230.286 95.1502 229.195 93.4516 228.172 91.7131C224.839 86.0472 221.532 80.3661 218.209 74.6939C218.093 74.4953 217.921 74.3289 217.775 74.1475Z" fill="#898CBC"/>
<path d="M217.721 85.3193C216.909 85.1674 216.818 84.5407 216.774 83.883C217.218 83.4583 217.473 82.6459 218.333 83.04C218.929 83.3129 218.985 83.8729 218.892 84.4358C218.785 85.0788 218.337 85.3236 217.721 85.3193Z" fill="#D8BEE3"/>
<path d="M360.426 102.13C360.524 103.509 360.337 104.852 359.939 106.171C359.785 106.303 359.604 106.418 359.406 106.39C356.222 105.938 353.23 106.97 350.216 107.664C342.804 109.37 335.508 111.53 328.17 113.524C325.983 114.119 324.023 115.231 322.04 116.283C321.176 116.741 320.626 117.517 320.046 118.267C319.644 118.786 319.269 119.4 318.441 119.24C317.877 118.26 318.316 117.399 318.821 116.595C320.583 113.787 323.155 111.964 326.15 110.667C329.3 109.303 332.62 108.393 335.777 107.049C337.78 106.196 339.628 105.101 341.258 103.697C341.164 103.331 340.924 103.409 340.758 103.415C336.5 103.567 332.256 103.044 327.999 103.164C327.338 103.182 326.644 103.246 326.094 102.731C325.863 102.208 326.331 102.129 326.609 101.997C329.059 100.836 331.543 99.744 333.909 98.409C334.113 98.2938 334.348 98.2286 334.58 98.3707C337.226 100.184 339.958 101.824 343.121 102.589C344.261 102.904 345.411 103.127 346.605 103.094C350.025 102.998 353.458 103.341 356.865 102.838C358.062 102.661 359.282 102.58 360.426 102.13Z" fill="#6981A3"/>
<path d="M334.58 98.3707C331.84 99.9884 328.901 101.206 326.057 102.616C325.147 103.386 324.122 103.858 322.906 103.842C322.386 103.376 322.656 103.008 323.066 102.678C323.56 102.281 324.11 101.97 324.661 101.658C328.751 99.3368 332.717 96.8223 336.502 94.0275C337.398 93.3662 338.187 92.5901 338.91 91.7558C339.857 90.6638 340.513 89.4123 340.698 87.9515C340.927 86.1518 341.068 84.347 341.173 82.5342C341.307 80.2137 341.277 77.8813 341.59 75.5735C341.678 74.929 341.425 74.33 341.469 73.7019C344.679 73.8441 347.767 73.3757 350.633 71.8342C351.206 71.526 351.187 71.9165 351.211 72.2833C350.115 78.4875 348.366 84.4775 345.024 89.8744C343.086 93.0044 340.01 94.9374 336.989 96.882C336.196 97.3929 335.384 97.8752 334.58 98.3707Z" fill="#F18E8B"/>
<path d="M352.147 64.211C352.469 63.9364 352.376 63.5585 352.368 63.2179C352.354 62.6747 352.596 62.2655 353.071 62.0997C354.248 61.6885 355.346 61.0386 356.614 60.8962C356.727 62.2611 357.449 63.5154 357.345 64.9197C355.57 65.4497 353.991 66.5236 352.128 66.8119C352.134 65.9449 352.14 65.078 352.147 64.211Z" fill="#995276"/>
<path d="M318.484 119.211C319.363 118.957 319.773 118.176 320.213 117.512C320.719 116.748 321.388 116.245 322.15 115.84C324.652 114.508 327.212 113.367 330 112.682C334.302 111.626 338.529 110.273 342.822 109.178C347.373 108.018 351.903 106.755 356.548 105.991C357.701 105.801 358.813 106.051 359.939 106.171C359.467 107.665 358.996 109.159 358.524 110.653C358.431 110.745 358.319 110.8 358.19 110.819C354.136 111.324 350.263 112.611 346.312 113.565C345.162 113.842 344.024 114.175 342.86 114.402C342.079 114.554 341.326 114.776 340.701 115.306C338.909 115.307 337.177 114.769 335.392 114.713C334.528 114.479 333.659 114.486 332.788 114.667C328.796 114.881 325.439 116.57 322.426 119.089C321.706 119.691 320.997 120.35 319.993 120.471C319.024 120.588 318.616 120.248 318.484 119.211Z" fill="#5D6E96"/>
<path d="M358.312 110.684C358.384 110.676 358.455 110.665 358.525 110.653C358.906 111.3 359.575 111.285 360.196 111.381C359.217 113.038 358.426 114.843 356.658 115.88C355.935 115.521 356.224 114.978 356.435 114.486C356.789 113.663 357.244 112.887 357.592 112.062C357.835 111.604 357.78 110.99 358.312 110.684Z" fill="#AC98CC"/>
<path d="M357.845 112.1C357.618 112.974 357.146 113.732 356.706 114.504C356.447 114.958 356.222 115.405 356.657 115.88C357.057 116.599 357.458 117.318 357.859 118.036C358.322 118.977 358.786 119.918 359.249 120.859C358.197 120.62 357.516 119.769 356.622 119.269C355.357 118.422 354.362 117.36 353.897 115.871C355.091 114.684 356.274 113.487 357.228 112.086C357.35 111.908 357.557 111.727 357.829 111.894C357.852 111.908 357.866 111.953 357.867 111.984C357.869 112.022 357.853 112.061 357.845 112.1Z" fill="#26294E"/>
<path d="M232.909 103.54C233.597 102.9 233.621 101.918 234.156 101.177C235.146 99.8055 236.403 99.0512 238.099 99.0508C240.021 100.053 241.479 101.572 242.749 103.284C243.106 103.765 243.625 104.23 243.394 104.957C242.008 105.332 241.041 106.348 239.971 107.204C239.515 107.568 239.123 108.064 238.431 107.914C237.536 106.496 237.392 104.805 236.804 103.324C237.236 105.041 237.995 106.707 238.284 108.512C238.118 109.04 237.642 109.034 237.225 109.109C235.895 109.348 234.862 110.154 233.784 110.878C233.333 111.181 233.274 111.762 232.881 112.101C232.185 109.605 232.306 107.095 232.748 104.579C232.809 104.233 232.856 103.886 232.909 103.54Z" fill="#F7B3C3"/>
<path d="M232.881 112.102C232.806 111.451 233.05 110.927 233.595 110.597C234.92 109.795 236.125 108.707 237.822 108.737C237.915 108.739 238.009 108.611 238.103 108.543C238.747 108.54 238.662 109.12 238.784 109.471C239.429 111.322 240.022 113.191 240.672 115.04C241.138 116.367 240.536 117.089 239.128 116.83C238.202 116.66 237.355 116.207 236.448 115.955C235.577 115.714 234.708 115.431 233.825 115.91C233.677 115.662 233.528 115.414 233.38 115.166C233.185 115.056 233.126 114.88 233.139 114.669C233.089 113.809 232.782 112.976 232.881 112.102Z" fill="#EE97AC"/>
<path d="M233.139 114.669C233.219 114.834 233.3 115 233.38 115.166C233.065 116.073 232.613 115.366 232.352 115.184C231.393 114.515 230.489 113.768 229.563 113.05C225.695 110.021 221.74 107.091 218.604 103.224C218.72 103.3 218.858 103.357 218.948 103.457C222.381 107.249 226.633 110.031 230.729 113.003C231.517 113.576 232.207 114.302 233.139 114.669Z" fill="#8A80B7"/>
<path d="M345.977 125.579C343.473 126.034 340.937 126.149 338.404 126.306C335.007 126.517 331.614 126.803 328.207 126.812C327.679 127.284 327.026 127.155 326.413 127.162C325.279 127.175 324.143 127.197 323.008 127.154C318.711 126.184 314.307 126.839 309.967 126.278C305.906 125.754 301.794 125.599 297.717 125.158C295.868 124.958 294.016 125.023 292.165 124.876C289.73 124.681 287.284 124.568 284.854 124.305C282.017 123.998 279.178 124.105 276.339 124.088C273.142 124.069 269.944 124.088 266.747 124.081C266.115 124.08 265.48 124.079 264.886 123.815C263.88 123.368 263.793 122.813 264.588 121.957C269.074 122.299 273.569 122.117 278.061 122.152C278.452 122.155 278.852 122.219 279.232 122.067C282.288 121.854 285.352 121.735 288.406 121.473C290.991 121.251 293.593 121.212 296.151 120.721C299.202 120.136 301.823 118.85 303.545 116.125C304.117 115.492 304.722 115.664 305.32 116.071C306.411 116.815 307.625 117.186 308.931 117.29C309.054 117.316 309.169 117.364 309.277 117.428C309.587 117.654 309.694 117.99 309.766 118.343C310.253 120.717 311.85 122.157 313.878 123.233C315.539 124.115 317.319 124.591 319.183 124.79C327.398 125.202 335.615 124.887 343.829 124.99C344.496 124.998 345.177 124.901 345.815 125.198C345.971 125.282 346.025 125.409 345.977 125.579Z" fill="#E48098"/>
<path d="M346.18 125.355C346.113 125.354 346.048 125.365 345.984 125.387C338.004 125.372 330.024 125.368 322.044 125.33C320.948 125.324 319.853 125.144 318.758 125.044C319.15 124.356 319.93 124.292 320.545 124.06C327.006 121.62 333.429 119.077 339.981 116.882C341.068 116.518 342.085 115.986 343.138 115.535C344.894 115.828 346.622 116.199 348.047 117.382C348.131 120.095 347.731 122.707 346.402 125.121C346.328 125.199 346.254 125.277 346.18 125.355Z" fill="#6885A6"/>
<path d="M346.404 125.121C347.215 122.59 347.68 119.992 347.93 117.351C348.196 116.979 348.607 116.978 348.987 116.994C350.426 117.055 351.763 116.73 353.027 116.046C353.328 115.883 353.661 115.725 354.023 115.915C354.757 117.135 355.729 118.172 356.623 119.269C354.837 120.877 352.73 122.025 350.748 123.351C349.886 123.927 348.887 124.234 347.893 124.369C347.249 124.457 346.804 124.679 346.404 125.121Z" fill="#FAA196"/>
<path d="M233.825 115.91C233.918 115.223 234.333 115.123 234.935 115.249C236.205 115.516 237.448 115.87 238.637 116.389C239.132 116.605 239.621 116.672 240.126 116.512C240.549 116.378 240.769 116.151 240.581 115.629C239.735 113.274 238.926 110.906 238.103 108.543C237.611 106.741 237.12 104.939 236.628 103.137C236.692 103.119 236.755 103.1 236.819 103.081C237.406 104.664 237.993 106.246 238.58 107.829C239.666 109.456 240.036 111.372 240.712 113.163C241.044 114.044 241.432 114.723 242.473 114.758C242.597 114.816 242.695 114.9 242.773 115.011C243.127 115.922 243.442 116.833 242.875 117.777C239.942 117.777 237.01 117.777 234.078 117.777C233.994 117.154 233.909 116.532 233.825 115.91Z" fill="#DD7B95"/>
<path d="M242.875 117.777C242.943 116.818 242.69 115.892 242.58 114.952C242.613 114.931 242.652 114.886 242.678 114.893C245.018 115.484 246.803 114.062 248.75 113.223C249.962 114.779 251.232 116.291 252.353 117.918C252.363 117.933 252.32 117.985 252.302 118.02C249.467 117.861 246.633 117.676 243.791 117.798C243.486 117.791 243.18 117.784 242.875 117.777Z" fill="#9E8FC4"/>
<path d="M366.39 20.817C366.454 21.0397 366.558 21.2601 366.321 21.4577C365.361 22.2595 364.398 23.0589 363.45 23.8749C363.09 24.1841 362.815 24.0169 362.515 23.7955C362.141 23.5193 361.755 23.2583 361.374 22.991C360.879 22.6773 360.566 22.1464 360.012 21.8862C359.768 21.7716 359.613 21.469 359.793 21.1791C360.03 20.799 360.343 20.9665 360.601 21.1545C361.044 21.4777 361.528 21.7767 361.883 22.1834C362.732 23.156 363.436 22.8164 364.253 22.1224C364.885 21.5853 365.325 20.6655 366.39 20.817Z" fill="#A14E6C"/>
<path d="M361.838 38.3878C361.773 39.5363 360.935 39.9452 360.016 40.2388C359.787 40.312 359.443 40.3575 359.313 40.008C359.217 39.7501 359.366 39.5316 359.554 39.3951C360.241 38.899 360.857 38.2269 361.835 38.3841C361.835 38.3842 361.838 38.3878 361.838 38.3878Z" fill="#E67D94"/>
<path d="M270.585 55.6734C269.459 54.5744 269.969 53.1913 269.933 51.9035C269.932 51.8663 269.955 51.8289 269.963 51.7907C270.648 48.5162 270.648 48.5186 273.98 48.7504C274.111 48.7595 274.252 48.6341 274.388 48.5714C276.761 48.054 277.717 46.4482 277.861 44.1538C277.936 42.978 278.149 41.8119 278.666 40.7291C278.666 40.7291 278.643 40.7524 278.643 40.7523C280.012 36.1978 280.718 31.7179 277.177 27.7154C282.885 27.8134 288.582 27.3413 294.291 27.45C297.916 27.5189 301.544 27.3967 305.168 27.4855C307.891 27.5523 310.609 27.554 313.332 27.4817C314.462 27.4516 315.597 27.6225 316.731 27.6966C317.168 27.7252 317.598 27.7004 317.989 27.4667C318.777 28.56 319.797 29.318 321.12 29.6384C321.379 30.4266 321.047 31.1373 320.832 31.8629C320.373 32.429 320.906 32.8228 321.083 33.279C321.17 34.0227 321.286 34.7673 321.308 35.5109C321.333 36.3261 320.946 37.0241 320.437 37.6572C319.616 38.6799 319.623 38.6872 320.871 39.021C321.023 39.0617 321.189 39.07 321.322 39.1561C321.796 39.4628 321.775 39.7556 321.28 40.0251C320.658 40.1844 320.025 40.1179 319.398 40.1215C313.574 40.155 307.751 40.0657 301.929 40.1716C301.386 40.2532 300.84 40.2096 300.294 40.2039C298.15 40.0267 296.004 40.1448 293.859 40.1453C293.332 40.236 292.803 40.3088 292.275 40.1478C291.134 40.1025 289.99 40.0837 288.849 40.1337C286.935 40.2175 285.52 41.6419 285.51 43.4419C285.5 45.2927 286.956 46.7488 288.907 46.799C290.324 46.8355 291.743 46.803 293.164 46.8029C300.219 46.8022 307.271 46.7963 314.324 46.8102C314.932 46.8114 315.6 46.6344 316.11 47.169C315.831 47.9264 315.154 47.7076 314.627 47.7124C311.195 47.7438 307.762 47.7253 304.33 47.7289C302.992 47.7303 302.995 47.7343 303.167 49.0195C303.307 50.077 303.548 51.1148 303.757 52.1591C303.939 53.0638 304.273 53.7372 305.385 53.5458C305.574 53.5133 305.766 53.6255 305.907 53.7773C306.031 54.0576 305.853 54.2162 305.658 54.3531C305.397 54.5366 305.085 54.5998 304.782 54.677C302.196 55.3354 302.195 55.3353 302.867 57.9766C302.944 58.28 303.045 58.5791 302.983 58.8994C302.397 59.6966 301.993 60.4916 302.663 61.4754C302.919 61.8519 302.703 62.3247 302.573 62.7379C302.313 63.5597 302.42 64.3351 303.009 64.9523C305.55 67.6161 306.651 70.9698 307.706 74.3817C308.779 77.8563 310.167 81.2129 312.057 84.3421C312.734 85.4639 313.514 86.4937 314.471 87.3972C316.238 89.0668 318.349 89.3636 320.4 87.9575C322.531 86.4961 324.27 84.6124 325.612 82.3751C325.883 81.9245 325.977 81.1849 326.792 81.2778C327.413 82.1965 326.863 83.3063 327.285 84.2578C327.458 87.1776 327.399 90.098 327.328 93.0173C326.646 94.7695 325.207 95.7068 323.601 96.4659C320.805 96.1982 318.124 95.3636 315.396 94.7613C310.162 93.605 304.994 92.1572 299.741 91.0797C298.271 90.7783 296.786 90.632 295.279 90.8439C292.38 91.2516 289.627 92.7966 289.077 96.2361C289.038 96.4298 288.963 96.6129 288.943 96.8119C288.747 98.7459 288.709 98.7779 286.883 98.2672C282.965 97.1713 279.07 95.9836 275.062 95.2491C273.858 95.0285 273.155 94.3963 272.977 93.174C272.909 92.7061 272.791 92.2447 272.693 91.7812C272.68 90.7931 271.972 89.847 272.505 88.8243C272.539 88.8089 272.581 88.7717 272.61 88.7805C275.192 89.5819 276.562 87.7545 278.034 86.2306C278.709 85.5315 279.197 84.66 279.847 83.9261C281.288 82.036 282.544 80.031 283.569 77.8857C284.086 76.802 284.723 75.937 286.084 75.8788C286.631 75.8554 287.175 75.5765 287.531 75.1357C288.18 74.3327 289.03 73.7355 289.679 72.9405C289.729 72.8448 289.786 72.753 289.843 72.6624C290.32 71.9316 290.477 71.1351 290.329 70.2757C290.313 70.1668 290.308 70.0583 290.308 69.9488C290.117 68.8563 289.764 67.7599 290.389 66.6898C290.4 66.4252 290.515 66.1545 290.232 65.9349C289.366 65.264 287.536 65.7503 287.164 66.7846C286.697 68.0827 286.24 69.3844 285.716 70.6623C283.793 73.4613 281.499 75.9033 278.743 77.898C278.006 78.4315 277.751 78.3084 277.654 77.3744C277.613 76.9838 277.622 76.5887 277.639 76.1948C277.688 75.4618 278.041 74.8354 278.39 74.2243C279.465 72.339 279.507 70.4116 278.71 68.4312C278.504 67.9189 278.33 67.397 278.203 66.8597C277.888 64.8795 277.658 62.8793 276.957 60.9824C276.374 59.4024 275.562 57.9832 274.033 57.1128C272.963 56.4429 271.618 56.4318 270.585 55.6734Z" fill="#FDF5F9"/>
<path d="M294.794 25.1105C298.821 25.1096 302.848 25.1088 306.875 25.1112C307.189 25.1113 307.506 25.1171 307.819 25.1513C308.021 25.1734 308.202 25.2931 308.228 25.5123C308.265 25.8166 308.028 25.9257 307.792 25.9633C307.521 26.0063 307.242 26.0031 306.966 26.0031C298.912 26.0031 290.859 26.0014 282.805 25.998C282.529 25.9979 282.25 26.0029 281.979 25.9593C281.745 25.9214 281.51 25.8141 281.519 25.5148C281.528 25.2146 281.75 25.1298 282.003 25.1184C282.279 25.1059 282.556 25.1116 282.832 25.1116C286.819 25.1113 290.807 25.1114 294.794 25.1105Z" fill="#D2788F"/>
<path d="M270.738 4.95472C270.583 5.4599 270.144 5.61141 269.807 5.87063C267.585 7.58166 267.582 7.58457 265.63 5.55451C265.435 5.35178 264.981 5.16656 265.262 4.81952C265.52 4.50174 265.887 4.7619 266.067 5.00276C267.347 6.70775 268.551 6.17299 269.77 4.93331C269.979 4.72091 270.248 4.48439 270.595 4.69331C270.676 4.74207 270.701 4.88314 270.738 4.95472Z" fill="#9B4868"/>
<path d="M320.626 31.9232C320.79 31.1615 320.954 30.3999 321.119 29.6384C322.891 29.9096 324.535 29.4548 326.24 28.6887C326.51 30.8212 327.608 32.4006 329.33 33.564C329.695 33.8105 329.811 34.1684 329.793 34.5823C329.778 34.9346 329.758 35.2877 329.718 35.6379C329.49 37.6369 329.488 37.6366 331.464 37.5879C331.481 37.6904 331.497 37.7932 331.514 37.896C331.118 38.2691 330.589 38.1716 330.123 38.2963C328.586 39.4522 326.768 39.8816 324.947 40.3072C324.826 40.3283 324.703 40.3387 324.58 40.345C323.659 40.429 322.748 40.7271 321.809 40.4876C321.686 40.4473 321.581 40.3796 321.491 40.2866C321.402 40.1001 321.415 39.9219 321.536 39.7529C321.354 38.9403 320.706 39.4132 320.279 39.3239C319.352 39.1296 318.993 38.6194 319.601 38.1214C321.115 36.8802 321.1 35.3218 320.849 33.6447C320.826 33.4929 320.859 33.3329 320.865 33.1767C321.753 32.5095 322.596 33.1157 323.448 33.2829C323.874 33.3664 324.259 33.5855 324.725 33.8825C323.954 32.8254 322.92 32.5108 321.816 32.3108C321.406 32.2364 320.926 32.3457 320.626 31.9232Z" fill="#F69C96"/>
<path d="M325.259 2.74341C325.198 3.80807 324.573 4.64269 324.036 5.45917C323.677 6.00477 322.996 5.5668 322.538 5.30859C322.028 5.02079 320.911 4.81903 321.196 4.30523C321.623 3.53306 322.19 4.5386 322.676 4.7659C323.293 5.05443 323.605 4.92073 323.901 4.3561C324.224 3.73956 324.549 3.10582 325.259 2.74341Z" fill="#B75472"/>
<path d="M253.475 79.6859C253.211 78.4953 253.32 77.2796 253.232 76.0772C253.236 75.6882 253.515 75.7411 253.716 75.8318C256.449 77.063 259.256 77.1921 262.13 76.4373C262.28 76.3977 262.087 76.4634 262.245 76.4536C262.885 77.0205 262.821 77.7967 262.833 78.5355C262.85 79.5205 262.837 80.5032 263.038 81.477C263.141 81.9755 263.355 82.0681 263.762 81.7839C266.474 79.8887 269.255 78.0849 271.842 76.0219C272.972 75.1204 273.072 73.7042 273.069 72.3385C273.069 72.0638 272.972 71.795 272.958 71.5196C272.933 71.0373 272.91 70.4705 273.505 70.3746C274.044 70.2877 274.211 70.8298 274.297 71.2392C274.463 72.0244 274.949 72.2254 275.672 72.1956C276.34 72.1682 277.012 72.1614 277.68 72.2175C278.479 72.2845 278.694 72.6922 278.398 73.4262C277.878 74.7179 277.004 75.8006 276.318 76.9935C276.021 77.5291 275.422 77.7124 275.014 78.1189C273.817 79.0502 273.116 80.3655 272.318 81.6069C272.023 81.6577 271.841 81.8596 271.665 82.0784C269.488 84.7917 266.973 87.1696 264.367 89.4604C263.474 90.2459 262.505 90.919 261.458 91.4713C259.899 92.2931 258.669 91.9906 257.674 90.5229C256.308 88.5084 255.52 86.2379 254.881 83.915C254.403 82.1756 253.971 80.4225 253.681 78.5914C253.62 78.9841 253.908 79.4123 253.475 79.6859Z" fill="#FA9E96"/>
<path d="M248.772 113.289C248.663 113.931 248.065 113.976 247.628 114.175C246.987 114.466 246.241 114.57 245.661 114.943C244.595 115.626 243.607 115.427 242.58 114.952C242.512 114.945 242.445 114.936 242.379 114.925C242.054 114.594 241.941 114.172 241.962 113.735C242.045 112.046 242.132 110.327 242.911 108.802C243.558 107.536 243.961 106.336 243.314 104.976C242.386 102.721 240.706 101.119 238.734 99.7959C238.422 99.5864 238.131 99.4572 238.1 99.0509C238.74 96.7497 238.914 94.3694 239.292 92.0238C239.416 91.2546 239.473 90.4733 239.793 89.7448C240.155 88.9216 240.719 88.3921 241.664 88.3737C243.603 88.9624 245.542 89.5511 247.583 90.1708C247.583 88.0183 247.58 85.9739 247.584 83.9295C247.594 77.9829 247.607 72.0363 247.619 66.09C247.888 66.6527 247.762 67.2536 247.763 67.8347C247.778 81.0806 247.779 94.3264 247.792 107.572C247.793 108.939 247.68 110.328 248.305 111.618C248.641 112.125 249.135 112.588 248.772 113.289Z" fill="#C4B0DC"/>
<path d="M253.475 79.686C253.503 79.3421 253.532 78.9982 253.565 78.6049C254.069 78.9698 254.141 79.4309 254.254 79.9504C255.034 83.5567 255.837 87.1656 257.904 90.3188C258.855 91.7689 260.024 91.9958 261.526 91.1333C263.177 90.1854 264.619 88.9616 265.96 87.6446C267.95 85.6886 270.075 83.8475 271.682 81.527C271.807 81.347 272.063 80.8202 272.264 81.5178C272.637 81.8982 272.634 82.3904 272.544 82.8393C272.183 84.6432 272.471 86.4126 272.752 88.1861C272.788 88.4177 272.837 88.6484 272.714 88.8704C272.301 89.8548 273.073 90.7426 272.944 91.7038C271.479 92.045 270.254 92.814 269.001 93.6349C268.037 94.2661 266.707 94 265.544 94.1552C263.664 94.4059 261.808 94.7152 260.12 95.6465C258.06 96.7736 256.638 98.4525 255.805 100.639C255.539 101.337 255.544 101.339 254.982 101.221C254.206 97.5337 253.689 93.8161 253.638 90.0425C253.635 89.8091 253.668 89.5707 253.558 89.3493C253.53 86.1282 253.502 82.9071 253.475 79.686Z" fill="#F4A3B6"/>
<path d="M262.297 76.5435C259.334 77.7432 256.456 77.4291 253.641 76.0512C253.48 75.9725 253.36 75.9377 253.232 76.0776C252.792 72.4467 252.297 68.8183 252.781 65.1496C253.028 64.2511 253.529 63.7569 254.546 63.8946C256.972 64.223 259.253 65.0552 261.541 65.8632C261.835 65.9668 262.093 66.163 262.24 66.4646C262.455 66.9881 262.431 67.5411 262.414 68.0851C262.34 70.434 262.536 72.7681 262.764 75.1014C262.817 75.6463 262.915 76.2127 262.297 76.5435Z" fill="#D86887"/>
<path d="M262.023 66.3505C259.763 65.5734 257.506 64.8008 255.16 64.3008C254.138 64.0828 253.322 64.1566 252.781 65.1496C252.682 63.8345 253.09 62.6049 253.42 61.3624C254.347 58.9006 256.059 57.4019 258.709 57.0557C259.426 57.1086 259.968 57.471 260.369 58.0401C262.002 60.3571 262.376 63.0004 262.333 65.7458C262.329 65.9815 262.233 66.2039 262.023 66.3505Z" fill="#E78498"/>
<path d="M248.771 113.289C248.711 112.706 248.266 112.23 248.305 111.619C249.07 111.901 249.735 111.878 250.494 111.4C251.462 110.791 252.788 111.003 253.721 110.2C254.421 111.085 254.887 112.13 255.629 112.988C256.362 115.068 257.161 117.116 258.358 118.989C258.691 119.51 258.654 119.927 257.843 119.737C255.817 119.741 253.922 119.325 252.302 118.02C250.863 116.639 249.654 115.086 248.771 113.289Z" fill="#202B4D"/>
<path d="M255.445 113.18C254.729 112.268 253.94 111.399 253.721 110.199C253.553 109.39 253.511 108.573 253.514 107.748C253.536 101.615 253.546 95.4821 253.559 89.3492C254.063 90.8144 253.877 92.3648 254.115 93.8648C254.513 96.3757 254.861 98.8948 255.229 101.41C255.374 101.559 255.428 101.743 255.448 101.943C255.464 102.465 255.293 102.967 255.277 103.486C255.281 105.017 254.796 106.536 255.187 108.073C255.315 109.44 255.408 110.811 255.668 112.163C255.716 112.529 255.717 112.885 255.445 113.18Z" fill="#F9F5F9"/>
<path d="M262.022 66.3505C262.139 63.9672 261.831 61.6552 260.867 59.4525C260.412 58.4138 259.696 57.6133 258.709 57.0557C259.916 56.4957 260.973 55.6956 262.063 54.9498C262.557 56.3529 263.06 57.7466 263.929 58.9811C264.761 60.1628 265.893 60.9249 267.25 61.2927C269.776 61.9776 271.886 59.7786 271.21 57.1971C271.072 56.6707 270.796 56.1804 270.584 55.6735C271.818 55.9239 273.047 56.1898 274.141 56.8579C274.919 57.6625 275.202 58.6978 275.32 59.7455C275.515 61.4786 276.236 62.9719 277.168 64.3954C277.662 65.1505 278.153 65.9058 278.367 66.7999C279.736 69.4442 280.175 72.0921 278.464 74.783C278.175 75.2372 277.904 75.735 277.917 76.3147C277.391 76.8155 276.829 77.2167 276.042 76.9992C276.718 75.8095 277.388 74.6158 278.074 73.4317C278.476 72.7392 278.34 72.4314 277.498 72.4931C276.949 72.5333 276.387 72.4434 275.844 72.5161C274.764 72.6608 274.016 72.4367 273.948 71.1716C273.934 70.9116 273.873 70.5091 273.545 70.5436C273.139 70.5863 273.166 71.0172 273.224 71.3122C273.368 72.0482 273.515 72.7739 273.375 73.5305C273.091 75.0662 272.394 76.2164 270.99 77.1047C268.538 78.6562 266.239 80.4477 263.864 82.1228C263.33 82.4996 262.864 83.0656 262.703 81.7022C262.5 79.9826 262.754 78.2335 262.297 76.5434C262.794 75.5779 262.377 74.5798 262.256 73.6504C261.938 71.2152 262.125 68.7814 262.022 66.3505Z" fill="#FCC8D2"/>
<path d="M278.666 40.7291C278.404 42.5004 278.231 44.2908 277.854 46.0374C277.49 47.7252 276.451 48.3909 274.387 48.5715C276.817 47.4358 277.733 45.497 277.488 42.8827C277.401 41.9583 278.225 41.4238 278.666 40.7291Z" fill="#12233E"/>
<path d="M275.856 43.5742C276.149 44.1359 276.22 44.7126 275.69 45.1452C275.166 45.5725 274.562 45.5704 273.936 45.2674C273.192 44.9071 272.708 44.2965 272.387 43.5948C272.146 43.0702 272.599 43.3356 272.805 43.36C273.777 44.0666 274.83 43.6298 275.856 43.5742Z" fill="#DC7873"/>
<path d="M268.275 38.5625C268.696 37.2819 270.743 35.9963 271.872 36.2163C272.145 36.2693 272.314 36.4043 272.382 36.6293C272.483 36.9671 272.15 36.9984 271.962 37.0701C271.341 37.3069 270.696 37.4816 270.079 37.7285C269.481 37.9683 268.906 38.2677 268.275 38.5625Z" fill="#1F1922"/>
<path d="M270.607 38.7435C271.467 40.0786 272.001 39.3365 272.524 38.6403C272.829 39.3557 272.801 39.456 272.093 40.0056C271.65 40.3503 271.144 40.6862 270.606 40.2965C269.937 39.8129 270.818 39.3702 270.607 38.7435Z" fill="#482838"/>
<path d="M275.856 43.5743C274.629 44.3391 273.532 44.2621 272.804 43.3601C273.645 43.2864 274.503 43.4596 275.329 43.1585C275.684 43.0295 275.81 43.271 275.856 43.5743Z" fill="#F2E1E9"/>
<path d="M321.555 40.2978C322.552 40.2141 323.549 40.1303 324.545 40.0466C325.085 40.6422 324.854 41.0299 324.176 41.1939C323.711 41.3064 323.227 41.3815 322.799 41.3162C322.748 41.3855 322.807 41.3185 322.872 41.3386C323.318 41.4754 324.02 40.9473 324.195 41.6556C324.333 42.2091 323.662 42.3248 323.279 42.5674C322.124 43.2986 322.468 44.4754 322.423 45.5294C322.405 45.9399 322.772 46.3444 322.451 46.7662C321.475 47.2174 320.438 46.8937 319.245 47.0466C321.229 47.0183 323.022 47.0684 324.816 47.0397C325.565 47.0278 326.308 46.9628 326.845 46.326C327.017 46.1604 327.212 46.0296 327.431 45.9413C328.355 45.5702 328.602 45.6989 328.889 46.695C328.908 47.7495 329.224 48.7744 329.169 49.8418C329.145 50.3052 329.084 50.6803 328.653 50.9157C326.415 51.2235 325.007 52.633 324.024 54.5198C323.114 56.2653 322.674 58.1954 322.027 60.0439C321.261 62.2283 320.439 64.3878 319.465 66.4908C319.217 67.0253 318.766 67.5879 319.192 68.252C319.465 68.6153 319.362 68.9966 319.247 69.3795C318.701 71.1946 317.934 72.9221 317.145 74.6396C316.954 75.0564 316.753 75.5339 316.139 75.4734C315.298 75.1014 314.91 74.275 314.355 73.6318C312.886 71.9335 311.71 70.0161 310.433 68.1757C309.878 67.3757 309.649 66.4141 309.676 65.4827C309.769 62.2963 308.621 59.4935 307.175 56.7648C306.765 55.8483 306.567 54.8329 305.909 54.0296C305.789 53.8507 305.59 53.7136 305.411 53.7979C303.954 54.4822 303.675 53.4786 303.461 52.4352C303.124 50.7918 302.823 49.141 302.483 47.3647C307.077 47.3647 311.6 47.3647 316.124 47.3647C316.184 46.6627 315.639 46.918 315.337 46.9125C313.802 46.8851 312.267 46.9099 310.732 46.8935C310.32 46.8891 309.843 47.0278 309.567 46.5383C309.554 44.7686 309.576 43.0058 309.124 41.2652C308.868 40.2802 309.63 40.1814 310.347 40.1754C312.67 40.156 314.994 40.1472 317.317 40.176C318.729 40.1934 320.149 40.0265 321.555 40.2978Z" fill="#FDFBFD"/>
<path d="M323.657 96.2506C324.932 95.4589 326.087 94.5252 327.052 93.3689C327.8 92.5108 328.708 91.8199 329.532 91.0428C330.883 89.7692 331.813 88.2657 332.402 86.5302C332.932 84.9715 333.478 83.4181 333.933 81.834C334.437 79.7365 335.062 77.6685 335.386 75.5302C335.463 75.0249 335.562 74.519 335.995 74.1676C336.113 73.6794 336.338 73.2183 336.251 72.5977C338.018 73.2651 339.684 73.7879 341.468 73.7017C342.193 74.2196 342.022 75.006 341.902 75.6533C341.512 77.7556 341.708 79.8849 341.522 81.9982C341.334 84.1438 341.329 86.3213 340.951 88.44C340.511 90.9021 338.835 92.6225 336.927 94.0845C332.735 97.2965 328.203 99.9872 323.658 102.657C323.342 102.842 322.484 102.918 322.973 103.719C322.945 104.105 322.632 104.216 322.353 104.355C320.239 105.406 318.069 106.346 316.064 107.607C315.785 107.783 315.483 107.84 315.16 107.729C314.006 106.689 313.225 105.45 313.095 103.862C313.342 103.282 313.847 102.956 314.35 102.651C316.375 101.424 318.322 100.082 320.241 98.6986C321.48 98.0225 322.332 96.8065 323.657 96.2506Z" fill="#FA9F98"/>
<path d="M307.398 56.6409C308.806 59.1853 310 61.7892 309.946 64.7985C309.92 66.2786 310.338 67.5891 311.235 68.8503C312.805 71.0587 314.428 73.2215 316.107 75.3456C316.804 75.5128 317.198 76.074 317.644 76.5526C319.005 78.0106 320.6 78.6654 322.618 78.213C323.607 77.9911 324.649 78.101 325.656 77.9122C326.045 77.8392 326.441 77.8968 326.758 78.1885C326.763 79.137 326.767 80.0855 326.772 81.034C326.757 81.1793 326.622 81.2433 326.556 81.3534C325.377 83.6062 323.798 85.5411 321.909 87.235C319.455 89.4341 316.306 90.2779 313.488 86.8836C311.472 84.4558 310.167 81.6369 308.979 78.755C307.838 75.9884 306.866 73.1618 306.069 70.2761C305.546 68.3844 304.16 67.0318 303.026 65.5397C302.272 64.547 301.852 63.5996 302.36 62.3997C302.545 61.9611 302.52 61.551 302.238 61.1742C301.495 60.1794 301.871 59.5054 302.844 58.9926C303.335 58.9278 303.579 59.33 303.443 59.6164C302.996 60.5559 303.799 61.3164 303.697 62.2086C303.627 62.8167 304.203 62.6388 304.564 62.6098C305.563 62.5295 306.509 62.0294 307.545 62.2336C307.723 62.9179 307.21 63.0798 306.751 63.2806C306.368 63.448 305.913 63.4039 305.547 63.6743C306.903 64.099 307.406 63.7304 307.613 62.18C307.503 61.9209 307.474 61.646 307.489 61.3739C307.549 60.2692 307.322 59.2996 306.422 58.5351C306.025 58.1981 305.846 57.6846 306.104 57.1496C306.372 56.5929 306.855 56.527 307.398 56.6409Z" fill="#F18B89"/>
<path d="M326.758 78.1885C325.238 78.338 323.711 78.4407 322.198 78.6488C320.36 78.9018 318.87 78.3108 317.626 76.9887C317.115 76.4454 316.613 75.8936 316.107 75.3457C316.245 75.2914 316.462 75.2748 316.508 75.1774C317.567 72.933 318.684 70.7097 319.192 68.2516C320.994 69.1244 322.93 68.933 324.837 68.9537C327.046 68.9777 326.754 68.6636 326.766 70.8894C326.778 73.3223 326.762 75.7555 326.758 78.1885Z" fill="#F79A91"/>
<path d="M335.996 74.1677C335.556 76.6255 335.028 79.0638 334.361 81.4706C334.312 81.6481 334.195 81.8069 334.109 81.9743C332.284 82.6747 330.386 83.1292 328.485 83.5569C327.481 83.783 327.12 83.3151 326.938 81.7884C326.893 81.5446 326.834 81.2998 326.982 81.0676C326.991 80.3972 327.083 79.7152 326.992 79.0586C326.777 77.5088 327.383 76.5864 328.819 75.9563C330.808 75.0829 332.851 74.4373 334.966 73.9825C335.354 73.8991 335.644 74.165 335.996 74.1677Z" fill="#C25E81"/>
<path d="M326.981 81.0674C326.995 81.2964 327.01 81.5254 327.024 81.7544C326.967 82.5406 327.65 83.3475 326.958 84.1161C326.519 83.2393 327.129 82.2097 326.555 81.3529C326.627 81.2469 326.699 81.1405 326.771 81.0341C326.842 81.0411 326.912 81.0522 326.981 81.0674Z" fill="#F79A91"/>
<path d="M322.503 46.6485C321.53 45.4074 322.3 44.0719 322.299 42.779C322.299 42.397 322.63 42.4203 322.891 42.3497C323.335 42.2302 323.802 42.1333 324.121 41.6309C323.409 41.1792 322.628 41.793 321.675 41.3511C322.601 41.076 323.303 41.2348 323.961 41.0547C324.59 40.8825 324.715 40.5947 324.547 40.0464C324.657 40.0409 324.768 40.0353 324.879 40.0298C326.548 40.1672 327.956 39.4202 329.369 38.697C329.677 38.5394 329.697 38.1851 329.85 37.9214C330.405 37.9129 330.96 37.9044 331.515 37.8959C331.996 40.7566 331.764 43.4151 329.329 45.4233C328.903 45.7744 328.896 46.2229 328.891 46.6946C328.423 45.373 327.686 46.2767 327.034 46.4693C325.739 47.2889 324.313 47.197 322.884 47.0518C322.687 47.0318 322.571 46.8404 322.503 46.6485Z" fill="#D88689"/>
<path d="M224.848 79.1159C225.304 78.3202 224.948 77.4286 225.154 76.5935C225.517 75.1304 226.205 73.9005 227.432 72.9984C228.85 72.667 228.985 71.5577 229.021 70.3841C229.048 69.5017 229.417 68.5993 228.859 67.7532C228.882 66.273 229.367 64.8743 229.949 63.5757C230.81 61.6567 231.275 59.5158 232.809 57.9305C232.879 57.8572 232.872 57.7082 232.901 57.5946C235.271 57.2969 237.075 58.4166 238.728 59.9169C239.066 59.9075 239.055 60.2511 239.227 60.4108C239.321 60.7303 239.415 61.0498 239.51 61.3693C239.163 62.0281 238.584 62.4793 237.959 62.7919C236.413 63.5644 236.102 64.8334 236.38 66.3664C236.848 68.9487 236.847 71.5554 236.779 74.1605C236.714 76.6659 236.133 79.0864 235.379 81.4666C235.271 81.8075 235.146 82.1462 234.751 82.2675C231.126 82.2346 227.855 81.0921 224.848 79.1159Z" fill="#ED8CA0"/>
<path d="M234.752 82.2675C236.383 77.7623 236.848 73.1324 236.242 68.3869C236.148 67.6505 236.074 66.9114 235.978 66.1753C235.766 64.5554 236.084 63.1977 237.781 62.5288C238.445 62.267 238.752 61.4832 239.51 61.3693C241.118 64.314 241.41 67.4573 241.058 70.7425C240.825 72.9129 240.15 74.9513 239.533 77.0154C239.261 77.185 239.599 77.628 239.206 77.7435C238.438 79.1132 237.712 80.5108 236.688 81.7165C236.174 82.3219 235.563 82.6669 234.752 82.2675Z" fill="#E1748E"/>
<path d="M228.858 67.7534C229.492 67.8037 229.619 68.2303 229.564 68.7511C229.466 69.6797 229.284 70.6029 229.241 71.5331C229.185 72.7533 228.559 73.1572 227.432 72.9984C226.542 72.9081 225.649 72.8396 224.763 72.7176C224.342 72.6596 223.838 72.5505 223.926 71.9565C224.013 71.3758 224.526 71.559 224.879 71.5787C225.42 71.609 225.956 71.7258 226.496 71.7945C228.21 72.0125 228.261 71.9892 228.369 70.2325C228.421 69.3774 228.39 68.5202 228.858 67.7534Z" fill="#CC6382"/>
<path d="M223.17 66.549C223.134 67.2559 221.007 68.4905 220.402 68.2008C219.88 67.9512 220.115 67.585 220.394 67.3724C221.015 66.8987 221.67 66.4628 222.344 66.067C222.915 65.7315 223.115 66.094 223.17 66.549Z" fill="#E3748E"/>
<path d="M315.178 107.638C316.344 107.033 317.503 106.415 318.677 105.827C320.103 105.112 321.541 104.421 322.974 103.72C324.001 103.352 325.029 102.984 326.057 102.616C326.704 102.811 327.362 102.871 328.038 102.851C332.493 102.72 336.936 103.258 341.392 103.089C341.61 103.08 341.875 103.005 342.085 103.348C340 105.423 337.474 106.788 334.743 107.814C331.945 108.865 329.115 109.833 326.34 110.941C323.469 112.088 321.052 113.871 319.263 116.442C318.68 117.281 318.349 118.177 318.483 119.211C319.163 120.445 320.017 120.583 321.24 119.63C322.975 118.277 324.649 116.84 326.681 115.921C328.595 115.055 330.553 114.381 332.695 114.451C333.566 114.289 334.436 114.285 335.306 114.453C337.161 114.413 338.96 114.796 340.762 115.165C341.639 114.898 342.425 115.055 343.116 115.665C342.385 116.521 341.293 116.708 340.328 117.066C334.851 119.099 329.328 121.011 323.864 123.081C322.161 123.726 320.481 124.446 318.758 125.045C316.154 124.7 313.784 123.844 311.709 122.151C310.203 120.923 309.607 119.296 309.221 117.513C308.689 116.846 309.063 116.133 309.198 115.484C309.939 111.929 312.127 109.448 315.178 107.638Z" fill="#789EBA"/>
<path d="M343.115 115.665C342.331 115.498 341.546 115.332 340.761 115.165C340.776 114.439 341.403 114.419 341.854 114.304C346.589 113.099 351.323 111.891 356.079 110.775C356.768 110.613 357.554 110.291 358.311 110.684C358.123 111.146 358.175 111.686 357.845 112.1C357.428 111.821 357.419 112.255 357.294 112.434C356.372 113.753 355.409 115.032 354.022 115.915C352.137 117.017 350.133 117.608 347.928 117.351C346.324 116.789 344.72 116.227 343.115 115.665Z" fill="#515F8A"/>
<path d="M335.307 114.453C334.437 114.452 333.566 114.452 332.696 114.451C333.567 114.086 334.437 114.086 335.307 114.453Z" fill="#6981A3"/>
<path d="M243.313 104.976C244.295 105.943 244.252 106.896 243.58 108.101C242.408 110.203 242.141 112.537 242.378 114.925C241.497 115.081 240.937 114.829 240.656 113.878C240.053 111.834 239.094 109.908 238.58 107.829C239.88 107.15 240.795 105.964 242.034 105.202C242.439 104.952 242.812 104.632 243.313 104.976Z" fill="#EF97B0"/>
<path d="M255.384 112.142C254.953 110.83 254.91 109.473 254.919 108.11C254.721 107.518 255.043 107.378 255.412 107.718C256.516 108.734 257.948 108.768 259.268 109.066C261.773 109.632 264.276 110.198 266.747 110.901C268.095 111.284 269.471 111.339 270.857 111.292C271.818 111.259 272.727 111.412 273.634 111.761C275.56 112.502 277.54 113.011 279.635 112.974C280.64 112.956 281.574 113.299 282.461 113.762C286.145 115.682 290.084 117.025 293.828 118.808C295.518 119.612 297.089 119.42 298.643 118.382C299.983 117.487 301.441 116.769 302.664 115.693C303.121 115.649 303.666 115.394 303.794 116.155C302.744 118.414 300.776 119.544 298.587 120.418C296.772 121.143 294.85 121.4 292.943 121.506C288.42 121.757 283.915 122.313 279.378 122.299C278.689 122.586 278.426 121.891 277.964 121.667C276.159 120.792 274.702 119.456 273.37 117.988C272.84 117.404 272.389 116.829 271.501 117.349C271.345 117.441 271.222 117.275 271.169 117.11C271.142 116.816 271.282 116.578 271.419 116.337C271.965 115.377 271.934 115.257 270.838 114.956C268.889 114.419 266.868 114.347 264.875 114.123C262.411 113.847 259.965 113.386 257.476 113.338C256.571 113.32 255.968 112.739 255.384 112.142Z" fill="#626F9B"/>
<path d="M303.794 116.155C303.47 115.721 302.999 115.945 302.591 115.887C301.847 116.4 301.036 116.8 300.322 117.376C299.486 118.052 298.467 117.937 297.481 117.726C295.398 117.28 293.613 116.146 291.76 115.187C287.419 112.941 282.849 111.412 278.028 110.626C277.716 110.575 277.4 110.503 277.087 110.535C273.814 110.864 270.743 109.98 267.7 108.965C265.596 108.263 263.423 107.831 261.269 107.346C259.682 106.989 258.179 106.385 256.603 106.013C255.168 105.675 255.074 104.498 254.979 103.334C255.059 102.86 255.138 102.387 255.217 101.914C255.449 101.806 255.679 101.864 255.91 101.921C263.945 103.922 272.017 105.773 280.025 107.884C281.438 108.256 282.862 108.573 284.308 108.786C287.838 109.307 291.224 110.344 294.559 111.592C296.7 112.393 298.87 113.103 301.115 113.597C302.794 113.966 304.398 113.821 306.027 113.441C306.803 113.26 307.459 113.001 307.565 112.065C307.593 111.818 307.701 111.496 308.105 111.635C308.323 111.891 308.387 112.207 308.365 112.52C308.244 114.226 308.582 115.872 308.975 117.514C307.485 117.655 306.217 117.069 305.042 116.256C304.607 115.955 304.245 115.779 303.794 116.155Z" fill="#6C7FA3"/>
<path d="M308.975 117.514C308.313 116.688 308.107 115.702 308.058 114.688C308.009 113.667 308.042 112.641 308.039 111.618C307.666 111.238 307.699 110.746 307.736 110.291C307.838 109.03 307.4 107.997 306.521 107.123C305.8 106.289 304.859 105.73 303.996 105.07C303.633 104.792 303.022 104.587 303.373 103.902C303.671 103.605 304.049 103.493 304.449 103.471C306.928 103.339 309.403 103.137 311.88 102.995C312.41 102.964 313.33 102.683 313.272 103.821C313.462 105.315 314.447 106.413 315.177 107.638C313.848 108.957 312.329 110.07 311.194 111.603C309.881 113.377 309.354 115.368 309.221 117.513C309.139 117.513 309.057 117.513 308.975 117.514Z" fill="#555F8B"/>
<path d="M271.297 117.303C269.525 118.326 268.068 119.779 266.369 120.898C265.69 121.346 264.921 121.656 264.193 122.029C262.379 122.372 260.976 121.374 259.508 120.591C259.195 119.832 258.415 119.987 257.843 119.737C257.996 119.592 258.672 119.857 258.226 119.244C256.892 117.409 256.083 115.334 255.446 113.18C255.425 112.834 255.405 112.488 255.385 112.142C255.41 112.111 255.456 112.053 255.457 112.054C257.608 113.71 260.239 113.017 262.631 113.477C265.162 113.964 267.751 114.145 270.313 114.473C270.622 114.512 270.927 114.61 271.223 114.713C272.402 115.123 272.456 115.322 271.773 116.375C271.585 116.665 271.278 116.904 271.297 117.303Z" fill="#5D6793"/>
<path d="M323.658 96.2507C322.664 97.202 321.677 98.1626 320.452 98.8258C318.176 99.0771 315.898 98.965 313.622 98.8537C308.785 98.6171 303.96 98.0749 299.106 98.2446C297.223 98.3104 296.96 98.5648 296.349 100.841C296.005 101.282 295.561 101.118 295.164 100.988C293.335 100.39 291.525 99.7361 289.687 99.1647C289.023 98.9581 288.588 98.5939 288.717 97.793C288.803 97.2558 288.636 96.6962 288.812 96.1588C289.101 93.2542 291.797 90.8845 295.055 90.508C298.031 90.164 300.832 90.957 303.66 91.615C310.325 93.1657 316.947 94.9002 323.658 96.2507Z" fill="#7EA0BE"/>
<path d="M288.812 96.1587C288.909 98.5833 288.916 98.5608 291.427 99.3335C293.034 99.8278 294.617 100.4 296.21 100.938C296.755 100.774 297.197 101.096 297.662 101.267C299.321 101.876 300.866 102.73 302.444 103.512C302.795 103.686 303.151 103.861 303.317 104.255C304.44 105.111 305.756 105.721 306.644 106.874C306.061 107.881 305.123 107.682 304.228 107.565C300.805 107.114 297.53 106.062 294.229 105.111C287.059 103.047 279.85 101.122 272.648 99.1742C268.722 98.1122 264.798 97.0579 260.821 96.2054C260.437 96.1231 259.912 96.101 259.914 95.4821C261.493 94.3178 263.387 94.1569 265.225 93.8566C266.223 93.6935 267.245 93.6568 268.259 93.6146C268.743 93.5944 269.053 93.3466 269.37 93.0452C270.371 92.0947 271.485 91.4349 272.946 91.7037C272.975 91.7764 273.029 91.8486 273.031 91.9222C273.091 94.0991 274.289 94.909 276.377 95.2338C280.092 95.8116 283.68 96.9952 287.289 98.0494C288.578 98.4257 288.577 98.4291 288.614 97.0551C288.622 96.7435 288.575 96.4198 288.812 96.1587Z" fill="#95A4C9"/>
<path d="M321.555 40.2977C321.187 40.638 320.732 40.4953 320.315 40.4967C316.974 40.5079 313.632 40.5303 310.292 40.4843C309.385 40.4719 309.24 40.7148 309.506 41.5484C310.037 43.2139 310.146 44.9215 309.706 46.6378C309.397 46.9803 308.982 46.8952 308.6 46.8951C303.451 46.8938 298.303 46.9189 293.154 46.8857C292.55 46.8573 292.343 46.4362 292.313 45.9364C292.208 44.1384 292.29 42.3325 292.089 40.5372C292.057 40.2594 292.204 40.0056 292.392 39.7921C292.791 40.0551 293.19 40.0496 293.588 39.7919C293.81 40.0354 294.058 40.1345 294.411 40.1049C296.427 39.9355 298.448 40.0669 300.467 40.0258C300.861 39.9077 301.256 39.9217 301.65 40.0272C307.794 40.0262 313.937 40.0244 320.081 40.0315C320.583 40.0321 321.113 39.9188 321.567 40.2586L321.555 40.2977Z" fill="#F2F3FB"/>
<path d="M276.043 76.9991C276.669 76.7709 277.294 76.5426 277.919 76.3145C277.919 76.8883 277.919 77.462 277.919 78.091C281.055 76.0687 283.301 73.371 285.498 70.6243C285.554 70.5696 285.604 70.4962 285.674 70.4721C287.376 69.8794 288.581 68.8973 289.084 67.0192C289.365 65.973 290.148 65.9513 290.685 66.7596C290.378 67.6287 289.943 68.4825 290.655 69.383C290.831 69.6054 290.624 69.9021 290.487 70.1395C289.731 70.5378 288.825 70.4947 288.164 70.8944C288.875 70.6917 289.616 70.25 290.495 70.3775C290.903 71.2674 290.529 72.0124 290.057 72.739C289.713 72.7177 289.37 72.7744 288.984 72.7621C289.34 72.8287 289.717 72.6412 289.973 72.9729C288.603 74.3467 287.632 76.2844 285.297 76.2958C284.631 76.299 284.477 76.8606 284.252 77.2851C283.183 79.3036 282.114 81.3216 280.786 83.1865C280.564 83.4981 280.434 83.8972 280.041 84.068C279.385 84.1986 278.723 84.2463 278.054 84.2115C276.784 84.1454 276.392 83.7144 276.447 82.4362C276.46 82.1213 276.5 81.8074 276.581 81.5048C276.838 80.5444 276.724 79.8499 275.587 79.5231C274.895 79.3245 274.497 78.7557 274.855 77.9513C275.062 77.3982 275.753 77.448 276.043 76.9991Z" fill="#F3938D"/>
<path d="M274.854 77.9514C274.977 78.8112 275.314 79.395 276.333 79.4084C276.947 79.4166 277.128 79.9404 277.124 80.5C277.124 80.5369 277.091 80.5726 277.087 80.6104C276.964 81.5669 276.355 82.6239 276.889 83.457C277.497 84.4066 278.704 83.6862 279.621 83.8925C279.766 83.9253 279.901 84.0084 280.041 84.0682C278.77 85.9166 277.411 87.6777 275.453 88.8746C274.527 89.4405 273.627 89.5827 272.715 88.8704C272.02 87.2148 271.893 85.4698 272.081 83.7232C272.16 82.9881 272.229 82.2553 272.265 81.5178C272.746 80.052 273.629 78.877 274.854 77.9514Z" fill="#E77D81"/>
<path d="M326.958 84.1161C326.98 83.3289 327.002 82.5416 327.024 81.7544C327.242 81.9163 327.218 82.1578 327.251 82.3899C327.37 83.2235 327.757 83.5004 328.635 83.2285C330.269 82.7226 331.939 82.3327 333.591 81.881C333.797 81.8246 333.963 81.7885 334.109 81.9744C333.101 86.3393 331.615 90.4262 327.678 93.1006C327.481 93.2347 327.314 93.4005 327.053 93.3686C327.022 90.2847 326.99 87.2004 326.958 84.1161Z" fill="#964F76"/>
<path d="M292.392 39.792C292.616 41.8184 292.679 43.8511 292.633 45.8881C292.624 46.2576 292.635 46.6137 293.12 46.6766C293.236 46.9547 292.988 47.0202 292.845 47.1468C291.471 47.1445 290.096 47.1488 288.722 47.1382C286.809 47.1235 285.166 45.4844 285.089 43.5263C285.017 41.697 286.726 39.864 288.622 39.7977C289.877 39.7537 291.135 39.7911 292.392 39.792Z" fill="#D7E6FA"/>
<path d="M307.398 56.641C307.049 56.9436 306.301 56.6075 306.238 57.3613C306.186 57.979 306.522 58.4094 307.003 58.6992C307.869 59.2208 307.75 60.0714 307.792 60.8693C307.816 61.3349 307.79 61.803 307.787 62.2701C307.747 62.4015 307.666 62.4375 307.542 62.378C306.347 62.5679 305.157 62.8104 303.955 62.9243C303.393 62.9776 302.71 62.8383 303.403 62.0093C303.532 61.8548 303.707 61.5896 303.544 61.5052C302.541 60.9854 302.848 60.3472 303.257 59.6125C303.389 59.3732 303.11 59.1193 302.844 58.9925C302.545 57.9494 302.264 56.9005 301.94 55.8651C301.705 55.1122 302.009 54.8025 302.728 54.7054C303.804 54.5602 304.876 54.3805 305.909 54.0294C306.632 54.1069 306.78 54.6559 306.931 55.2319C307.056 55.7096 307.24 56.1719 307.398 56.641Z" fill="#0E1730"/>
<path d="M278.368 66.7998C276.731 64.3984 275.087 62.0137 274.834 58.9696C274.775 58.2514 274.381 57.561 274.142 56.8579C276.24 57.9633 277.066 59.9648 277.641 62.0612C278.063 63.5983 278.419 65.1759 278.368 66.7998Z" fill="#DB7289"/>
<path d="M290.684 66.7597C290.44 66.2708 290.105 66.1739 289.672 66.5292C289.359 66.7857 289.125 67.1301 289.089 67.513C288.884 69.713 287.232 70.2093 285.497 70.6242C285.992 69.1907 286.504 67.7628 286.973 66.321C287.206 65.6064 287.639 65.3288 288.378 65.4249C288.841 65.4852 289.315 65.4921 289.783 65.4832C290.73 65.465 291.093 65.8328 290.684 66.7597Z" fill="#1D1F3D"/>
<path d="M292.845 47.1469C292.936 46.9901 293.028 46.8333 293.12 46.6766C298.649 46.6639 304.177 46.6511 309.706 46.6381C311.837 46.6486 313.967 46.6557 316.098 46.6742C316.395 46.6767 316.851 46.5914 316.867 46.9948C316.884 47.4236 316.413 47.3087 316.124 47.3648C315.708 47.022 315.213 47.17 314.755 47.1691C307.451 47.1542 300.148 47.152 292.845 47.1469Z" fill="#B6B8DB"/>
<path d="M321.567 40.2586C315.217 40.2659 308.866 40.2735 302.516 40.2793C302.205 40.2795 301.875 40.3304 301.65 40.0272C302.039 39.6162 302.542 39.7982 302.993 39.7965C309.174 39.7729 315.356 39.7651 321.537 39.7531C321.547 39.9215 321.557 40.09 321.567 40.2586Z" fill="#B8B4DD"/>
<path d="M320.626 31.9233C321.805 31.9931 322.996 32.0728 324.025 32.7148C324.641 33.0986 325.237 33.5666 325.346 34.6524C323.906 33.6043 322.47 33.0915 320.865 33.1765C320.442 32.8244 319.515 32.568 320.626 31.9233Z" fill="#201A29"/>
<path d="M313.955 33.1285C313.285 33.1285 312.615 33.1318 311.945 33.1267C311.703 33.1248 311.433 33.0942 311.415 32.7915C311.396 32.4704 311.672 32.4384 311.911 32.4379C313.369 32.4345 314.827 32.4368 316.285 32.444C316.477 32.445 316.713 32.4599 316.711 32.7248C316.71 32.9487 316.511 33.0834 316.316 33.0883C315.53 33.1081 314.742 33.0966 313.955 33.0966C313.955 33.1072 313.955 33.1179 313.955 33.1285Z" fill="#C0B7DF"/>
<path d="M307.464 32.433C308.13 32.433 308.795 32.4255 309.46 32.4374C309.669 32.4411 309.99 32.352 309.977 32.712C309.968 32.9706 309.749 33.1124 309.485 33.1137C308.116 33.1207 306.747 33.1238 305.377 33.1217C305.126 33.1214 304.849 33.0113 304.847 32.7615C304.844 32.3637 305.213 32.4384 305.469 32.4336C306.134 32.4211 306.799 32.4294 307.464 32.4294C307.464 32.4306 307.464 32.4318 307.464 32.433Z" fill="#BFB3E1"/>
<path d="M300.466 40.0258C300.012 40.4926 299.435 40.2415 298.914 40.2745C297.364 40.3728 295.802 40.1234 294.257 40.4449C293.746 40.5512 293.53 40.298 293.588 39.7919C295.472 39.7907 297.356 39.7816 299.24 39.7944C299.656 39.7972 300.114 39.6571 300.466 40.0258Z" fill="#B8B3DA"/>
<path d="M301.015 33.2079C300.487 33.0152 299.63 33.4174 299.631 32.8403C299.633 32.1229 300.495 32.465 300.964 32.4659C301.461 32.4668 302.399 32.1567 302.394 32.7076C302.388 33.5426 301.421 32.8978 301.015 33.2079Z" fill="#BFB4D9"/>
<path d="M290.493 70.3775C289.691 70.5887 288.889 70.8 288.086 71.0113C288.777 70.373 289.637 70.2755 290.485 70.1395C290.488 70.2188 290.491 70.2981 290.493 70.3775Z" fill="#B8445B"/>
<path d="M289.972 72.9731C289.513 72.9731 289.054 72.9731 288.595 72.9731C289.072 72.7311 289.511 72.2287 290.056 72.7394C290.028 72.8172 290 72.8951 289.972 72.9731Z" fill="#AA454C"/>
<path d="M329.85 37.9214C329.801 38.1478 329.815 38.4163 329.695 38.5934C329.065 39.517 325.974 40.4208 324.879 40.0298C326.114 39.6745 327.387 39.4454 328.566 38.8957C329.072 38.6599 329.509 38.3611 329.85 37.9214Z" fill="#EB8581"/>
<path d="M322.737 36.4591C322.223 36.3859 322.032 36.0964 322.028 35.6528C322.024 35.2286 322.136 34.8532 322.629 34.8257C323.179 34.7951 323.378 35.1855 323.37 35.6534C323.363 36.0684 323.147 36.3804 322.737 36.4591Z" fill="#3B2831"/>
<path d="M259.915 95.4823C261.558 96.2663 263.377 96.4076 265.11 96.8482C274.97 99.355 284.769 102.083 294.551 104.872C297.836 105.809 301.109 106.788 304.494 107.318C305.279 107.441 305.978 107.267 306.645 106.874C307.819 107.743 308.171 108.942 308.054 110.341C308.018 110.764 308.043 111.192 308.04 111.618C307.823 111.779 307.776 112.019 307.812 112.254C307.946 113.13 307.409 113.371 306.705 113.615C303.796 114.624 300.978 114.085 298.179 113.193C294.364 111.977 290.696 110.232 286.732 109.566C282.004 108.772 277.361 107.646 272.751 106.384C267.567 104.964 262.29 103.952 257.088 102.618C256.436 102.451 255.807 102.241 255.218 101.914C255.222 101.746 255.226 101.579 255.23 101.411C256.003 98.8114 257.449 96.7437 259.915 95.4823Z" fill="#7592B1"/>
<path d="M254.981 103.333C255.185 105.104 256.347 105.631 257.948 106.075C262.827 107.427 267.788 108.48 272.613 110.03C272.872 110.113 273.153 110.205 273.416 110.186C277.295 109.903 280.966 110.815 284.662 111.871C288.472 112.96 291.801 115.023 295.343 116.651C296.503 117.184 297.68 117.569 298.974 117.552C299.473 117.545 300.006 117.472 300.267 117.088C300.844 116.238 301.708 116.072 302.592 115.887C301.017 117.751 298.861 118.725 296.682 119.601C295.649 120.016 294.556 119.528 293.607 119.072C289.774 117.232 285.724 115.882 281.966 113.876C281.229 113.483 280.426 113.25 279.588 113.286C277.29 113.384 275.169 112.678 273.062 111.899C272.73 111.776 272.42 111.582 272.049 111.621C268.588 111.985 265.375 110.836 262.105 110.015C260.356 109.577 258.597 109.164 256.825 108.835C256.156 108.711 255.661 108.545 255.305 107.917C255.078 107.519 254.983 107.899 254.921 108.11C254.507 106.513 254.887 104.925 254.981 103.333Z" fill="#6A7AA1"/>
<path d="M322.502 46.6485C324.042 47.3346 325.528 46.653 327.033 46.4691C326.801 47.4456 325.889 47.2874 325.293 47.3168C323.17 47.4214 321.039 47.3654 318.911 47.3619C318.648 47.3615 318.281 47.397 318.305 47.0004C318.328 46.6263 318.69 46.6757 318.955 46.6726C320.138 46.6591 321.32 46.6556 322.502 46.6485Z" fill="#C5C2DD"/>
<path d="M303.317 104.256C300.984 103.073 298.625 101.946 296.21 100.938C296.131 98.3592 296.611 97.9529 299.257 97.854C303.792 97.6845 308.296 98.2195 312.813 98.4052C314.777 98.486 316.743 98.5259 318.707 98.568C319.309 98.5809 319.874 98.7119 320.451 98.8259C318.78 100.237 316.899 101.346 315.086 102.552C314.472 102.961 313.877 103.397 313.273 103.821C312.729 102.835 311.789 103.313 311.094 103.375C308.965 103.566 306.838 103.727 304.703 103.791C304.185 103.806 303.685 103.817 303.317 104.256Z" fill="#63789C"/>
<path d="M307.542 62.378C307.623 62.342 307.705 62.3059 307.787 62.27C308.124 63.8046 306.931 64.5073 305.413 64.1775C305.132 64.1163 304.867 63.9278 304.866 63.636C304.866 63.2888 305.198 63.2875 305.47 63.2279C306.208 63.0664 307.072 63.1953 307.542 62.378Z" fill="#F8D6D5"/>
<path d="M288.003 71.9462C288.571 71.461 289.216 71.2491 290.079 71.2166C289.419 71.8722 288.625 71.6839 288.003 71.9462Z" fill="#792436"/>
<path d="M150.793 84.0868C150.548 84.8681 149.941 85.4865 149.175 85.7368C149.941 85.9872 150.548 86.6055 150.793 87.3868C151.039 86.6055 151.645 85.9872 152.411 85.7368C151.645 85.4865 151.039 84.8683 150.793 84.0868Z" fill="white"/>
<path d="M155.207 67.1978C154.653 70.339 152.218 72.8221 149.138 73.3869C152.218 73.9514 154.653 76.4348 155.207 79.5757C155.761 76.4345 158.196 73.9514 161.276 73.3869C158.196 72.8221 155.761 70.339 155.207 67.1978Z" fill="white"/>
<path d="M144.999 75.7645C144.621 77.3714 143.378 78.6391 141.802 79.0241C143.378 79.409 144.621 80.6767 144.999 82.2836C145.376 80.6767 146.619 79.409 148.195 79.0241C146.619 78.6391 145.376 77.3714 144.999 75.7645Z" fill="white"/>
</g>
<defs>
<linearGradient id="paint0_linear_0_25" x1="0" y1="58" x2="372" y2="58" gradientUnits="userSpaceOnUse">
<stop stop-color="#5158BB"/>
<stop offset="1" stop-color="#9475D2"/>
</linearGradient>
<clipPath id="clip0_0_25">
<rect width="372" height="116" rx="20" fill="white"/>
</clipPath>
</defs>
</svg>
