<svg width="372" height="135" viewBox="0 0 372 135" fill="none" xmlns="http://www.w3.org/2000/svg">
<g clip-path="url(#clip0_0_3)">
<path d="M0 20C0 8.9543 8.95431 0 20 0H352C363.046 0 372 8.95431 372 20V115C372 126.046 363.046 135 352 135H20C8.95431 135 0 126.046 0 115V20Z" fill="white"/>
<path opacity="0.1" d="M242.527 -9.75359L275.286 29.3587C275.578 29.7068 276.094 29.7524 276.442 29.4608L282.461 24.4201C282.796 24.1391 282.855 23.6472 282.591 23.2977C280.985 21.1674 281.329 18.1533 283.376 16.4391C285.422 14.7249 288.446 14.9183 290.266 16.8694C290.563 17.1909 291.058 17.2191 291.394 16.9381L297.412 11.8973C297.76 11.6058 297.806 11.0894 297.514 10.7413L264.755 -28.3709C264.463 -28.719 263.947 -28.7646 263.599 -28.4731L242.629 -10.9096C242.281 -10.618 242.235 -10.1017 242.527 -9.75359ZM286.991 -0.118683C287.066 -0.181911 287.147 -0.22134 287.232 -0.256573C287.549 -0.372238 287.918 -0.289107 288.147 -0.0165045C288.375 0.256098 288.392 0.634297 288.223 0.926105C288.177 1.00747 288.12 1.07626 288.045 1.13948L286.996 2.01766C286.648 2.30922 286.132 2.26358 285.84 1.91548C285.548 1.56739 285.594 1.05105 285.942 0.759493L286.991 -0.118683ZM282.801 3.39051C283.149 3.09895 283.665 3.14459 283.957 3.49269C284.249 3.84078 284.203 4.35712 283.855 4.64868L281.892 6.29262C281.544 6.58417 281.028 6.53854 280.736 6.19044C280.445 5.84235 280.49 5.32601 280.838 5.03445L282.801 3.39051ZM277.697 7.66547C278.045 7.37391 278.561 7.41955 278.853 7.76765C279.145 8.11574 279.099 8.63208 278.751 8.92364L276.788 10.5676C276.44 10.8591 275.924 10.8135 275.632 10.4654C275.341 10.1173 275.386 9.60097 275.734 9.30941L277.697 7.66547ZM272.593 11.9404C272.941 11.6489 273.457 11.6945 273.749 12.0426C274.041 12.3907 273.995 12.907 273.647 13.1986L271.684 14.8425C271.336 15.1341 270.82 15.0885 270.528 14.7404C270.237 14.3923 270.282 13.8759 270.63 13.5844L272.593 11.9404ZM267.489 16.2154C267.837 15.9238 268.354 15.9695 268.645 16.3176C268.937 16.6657 268.891 17.182 268.543 17.4736L267.494 18.3517C267.419 18.415 267.338 18.4544 267.253 18.4896C266.936 18.6053 266.567 18.5222 266.338 18.2496C266.11 17.9769 266.093 17.5988 266.263 17.3069C266.309 17.2256 266.365 17.1568 266.441 17.0936L267.489 16.2154Z" fill="url(#paint0_linear_0_3)"/>
<path opacity="0.1" d="M385.416 -21.6015L339.27 -1.4544C338.86 -1.27509 338.673 -0.79883 338.852 -0.38814L341.952 6.71234C342.125 7.10819 342.574 7.30082 342.979 7.14779C345.443 6.21942 348.201 7.3833 349.255 9.79796C350.31 12.2126 349.286 15.022 346.932 16.2028C346.545 16.3954 346.381 16.8559 346.554 17.2517L349.654 24.3522C349.833 24.7629 350.309 24.9497 350.72 24.7704L396.866 4.62328C397.276 4.44397 397.463 3.96771 397.284 3.55702L386.482 -21.1833C386.303 -21.594 385.827 -21.7808 385.416 -21.6015ZM363.93 17.8248C363.969 17.9138 363.983 18.0017 363.993 18.0916C364.015 18.424 363.833 18.7506 363.512 18.891C363.19 19.0315 362.827 18.9425 362.598 18.7008C362.534 18.6346 362.484 18.5619 362.445 18.4729L361.905 17.2359C361.726 16.8252 361.913 16.3489 362.323 16.1696C362.734 15.9903 363.21 16.1771 363.39 16.5878L363.93 17.8248ZM361.772 12.8817C361.951 13.2923 361.764 13.7686 361.353 13.9479C360.943 14.1272 360.467 13.9404 360.287 13.5298L359.276 11.2141C359.097 10.8034 359.284 10.3271 359.694 10.1478C360.105 9.96849 360.581 10.1553 360.761 10.566L361.772 12.8817ZM359.143 6.85985C359.322 7.27054 359.135 7.74681 358.724 7.92611C358.314 8.10542 357.837 7.91864 357.658 7.50795L356.647 5.19225C356.468 4.78156 356.655 4.3053 357.065 4.12599C357.476 3.94668 357.952 4.13346 358.132 4.54415L359.143 6.85985ZM356.513 0.838046C356.693 1.24874 356.506 1.725 356.095 1.90431C355.685 2.08361 355.208 1.89683 355.029 1.48614L354.018 -0.829555C353.839 -1.24025 354.025 -1.71651 354.436 -1.89581C354.847 -2.07512 355.323 -1.88834 355.502 -1.47765L356.513 0.838046ZM353.884 -5.18376C354.064 -4.77307 353.877 -4.29681 353.466 -4.1175C353.055 -3.93819 352.579 -4.12497 352.4 -4.53566L351.86 -5.77268C351.821 -5.86175 351.806 -5.94956 351.796 -6.03953C351.775 -6.37188 351.956 -6.69852 352.278 -6.83894C352.6 -6.97936 352.962 -6.89036 353.192 -6.64874C353.256 -6.58253 353.305 -6.50984 353.344 -6.42078L353.884 -5.18376Z" fill="url(#paint1_linear_0_3)"/>
<g opacity="0.2" clip-path="url(#clip1_0_3)">
<path d="M413.522 128.663L320.76 24.939C319.934 24.0158 318.522 23.9371 317.599 24.7627L301.639 39.0362C300.749 39.8319 300.632 41.178 301.383 42.1075C305.949 47.7726 305.278 56.0198 299.85 60.8738C294.423 65.7278 286.163 65.4678 281.03 60.31C280.19 59.46 278.839 59.4269 277.949 60.2226L261.989 74.4962C261.066 75.3217 260.987 76.7333 261.813 77.6565L354.576 181.38C355.401 182.304 356.813 182.382 357.736 181.557L413.346 131.823C414.269 130.998 414.348 129.586 413.522 128.663ZM291.46 106.331C291.26 106.51 291.042 106.624 290.815 106.728C289.961 107.071 288.947 106.877 288.3 106.154C287.653 105.431 287.574 104.402 288.01 103.591C288.128 103.365 288.276 103.173 288.476 102.994L291.257 100.507C292.18 99.6817 293.592 99.7604 294.417 100.684C295.243 101.607 295.164 103.018 294.241 103.844L291.46 106.331ZM302.571 96.3938C301.648 97.2194 300.236 97.1406 299.411 96.2175C298.585 95.2944 298.664 93.8828 299.587 93.0572L304.792 88.4021C305.715 87.5766 307.127 87.6553 307.953 88.5784C308.778 89.5016 308.699 90.9132 307.776 91.7387L302.571 96.3938ZM316.107 84.2887C315.184 85.1142 313.772 85.0355 312.946 84.1124C312.121 83.1892 312.2 81.7776 313.123 80.9521L318.328 76.297C319.251 75.4714 320.663 75.5502 321.488 76.4733C322.314 77.3964 322.235 78.808 321.312 79.6336L316.107 84.2887ZM329.642 72.1835C328.719 73.0091 327.307 72.9304 326.482 72.0072C325.656 71.0841 325.735 69.6725 326.658 68.8469L331.863 64.1919C332.786 63.3663 334.198 63.445 335.024 64.3682C335.849 65.2913 335.77 66.7029 334.847 67.5285L329.642 72.1835ZM343.178 60.0784C342.255 60.904 340.843 60.8252 340.017 59.9021C339.192 58.979 339.271 57.5674 340.194 56.7418L342.974 54.2551C343.174 54.0761 343.392 53.9614 343.62 53.8579C344.474 53.5145 345.488 53.7085 346.135 54.4314C346.781 55.1544 346.861 56.1838 346.425 56.9943C346.307 57.2202 346.158 57.4127 345.958 57.5917L343.178 60.0784Z" fill="url(#paint2_linear_0_3)"/>
</g>
<g clip-path="url(#clip2_0_3)">
<path d="M411.323 146.058L318.56 42.3338C317.735 41.4107 316.323 41.332 315.4 42.1575L299.44 56.431C298.55 57.2268 298.433 58.5728 299.184 59.5024C303.75 65.1675 303.079 73.4147 297.651 78.2686C292.224 83.1226 283.964 82.8626 278.831 77.7048C277.991 76.8549 276.64 76.8218 275.75 77.6175L259.79 91.891C258.867 92.7166 258.788 94.1282 259.614 95.0513L352.377 198.775C353.202 199.698 354.614 199.777 355.537 198.952L411.147 149.218C412.07 148.393 412.149 146.981 411.323 146.058ZM289.261 123.725C289.061 123.904 288.843 124.019 288.616 124.123C287.762 124.466 286.747 124.272 286.101 123.549C285.454 122.826 285.374 121.797 285.811 120.986C285.929 120.76 286.077 120.568 286.277 120.389L289.058 117.902C289.981 117.077 291.392 117.155 292.218 118.078C293.044 119.002 292.965 120.413 292.042 121.239L289.261 123.725ZM300.372 113.789C299.449 114.614 298.037 114.536 297.212 113.612C296.386 112.689 296.465 111.278 297.388 110.452L302.593 105.797C303.516 104.971 304.928 105.05 305.754 105.973C306.579 106.896 306.5 108.308 305.577 109.134L300.372 113.789ZM313.908 101.684C312.984 102.509 311.573 102.43 310.747 101.507C309.922 100.584 310 99.1725 310.924 98.3469L316.129 93.6919C317.052 92.8663 318.463 92.945 319.289 93.8682C320.115 94.7913 320.036 96.2029 319.113 97.0285L313.908 101.684ZM327.443 89.5784C326.52 90.404 325.108 90.3252 324.283 89.4021C323.457 88.479 323.536 87.0674 324.459 86.2418L329.664 81.5867C330.587 80.7612 331.999 80.8399 332.825 81.763C333.65 82.6862 333.571 84.0978 332.648 84.9234L327.443 89.5784ZM340.979 77.4733C340.055 78.2989 338.644 78.2201 337.818 77.297C336.993 76.3738 337.071 74.9622 337.995 74.1367L340.775 71.65C340.975 71.471 341.193 71.3563 341.421 71.2528C342.275 70.9094 343.289 71.1034 343.935 71.8263C344.582 72.5492 344.662 73.5787 344.226 74.3892C344.107 74.615 343.959 74.8076 343.759 74.9866L340.979 77.4733Z" fill="url(#paint3_linear_0_3)"/>
</g>
</g>
<path d="M0.5 20C0.5 9.23044 9.23045 0.5 20 0.5H352C362.77 0.5 371.5 9.23045 371.5 20V115C371.5 125.77 362.77 134.5 352 134.5H20C9.23045 134.5 0.5 125.77 0.5 115V20Z" stroke="#E9EAF7"/>
<defs>
<linearGradient id="paint0_linear_0_3" x1="258.907" y1="9.80254" x2="281.134" y2="-8.81479" gradientUnits="userSpaceOnUse">
<stop stop-color="#5158BB"/>
<stop offset="1" stop-color="#283D77"/>
</linearGradient>
<linearGradient id="paint1_linear_0_3" x1="362.343" y1="-11.528" x2="373.793" y2="14.6968" gradientUnits="userSpaceOnUse">
<stop stop-color="#5158BB"/>
<stop offset="1" stop-color="#283D77"/>
</linearGradient>
<linearGradient id="paint2_linear_0_3" x1="367.141" y1="76.801" x2="308.194" y2="129.518" gradientUnits="userSpaceOnUse">
<stop stop-color="#5158BB"/>
<stop offset="1" stop-color="#283D77"/>
</linearGradient>
<linearGradient id="paint3_linear_0_3" x1="364.942" y1="94.1958" x2="305.995" y2="146.913" gradientUnits="userSpaceOnUse">
<stop stop-color="#5158BB"/>
<stop offset="1" stop-color="#283D77"/>
</linearGradient>
<clipPath id="clip0_0_3">
<path d="M0 20C0 8.9543 8.95431 0 20 0H352C363.046 0 372 8.95431 372 20V115C372 126.046 363.046 135 352 135H20C8.95431 135 0 126.046 0 115V20Z" fill="white"/>
</clipPath>
<clipPath id="clip1_0_3">
<rect width="149.21" height="149.21" fill="white" transform="translate(343.544 -2.18385) rotate(48.193)"/>
</clipPath>
<clipPath id="clip2_0_3">
<rect width="149.21" height="149.21" fill="white" transform="translate(341.345 15.211) rotate(48.193)"/>
</clipPath>
</defs>
</svg>
