<svg width="57" height="19" viewBox="0 0 57 19" fill="none" xmlns="http://www.w3.org/2000/svg">
<path d="M17.5886 8.81646C19.114 5.7723 16.3357 2.6799 13.3151 3.02669C11.7063 3.21051 10.7628 4.4082 9.93063 5.24039C8.59644 6.57457 8.35071 9.2788 10.4249 11.1686C13.928 13.9342 15.7088 11.2243 15.7088 11.2243C15.7088 11.2243 13.7943 9.30981 11.5205 7.036M12.2004 14.7509L9.93193 17.0011L8.0572 15.1968C5.80178 13.0248 2.12401 10.291 2.00277 6.90392C1.91803 4.53117 3.79016 3.01105 5.94388 3.03842C6.88686 3.0512 7.73969 3.29758 8.15311 3.66866" stroke="url(#paint0_linear_1621_5908)" stroke-width="2.16497" stroke-linejoin="round"/>
<path d="M29.1954 4.12035H31.2555V11.6858C31.2555 12.6922 31.0069 13.5565 30.5096 14.2787C30.0123 15.0127 29.2901 15.5751 28.343 15.9658C27.4076 16.3565 26.2829 16.5519 24.9687 16.5519L24.6135 14.6339C26.0461 14.6102 27.1294 14.3556 27.8635 13.8702C28.6094 13.3848 28.9823 12.6863 28.9823 11.7746V11.7391L29.2842 11.6325C29.0001 12.0469 28.6094 12.4021 28.1121 12.6981C27.6148 12.9822 27.0229 13.1243 26.3362 13.1243C25.5548 13.1243 24.8681 12.9349 24.2761 12.556C23.6841 12.1772 23.2165 11.6503 22.8731 10.9754C22.5416 10.2887 22.3758 9.48366 22.3758 8.56017C22.3758 7.63669 22.5416 6.8316 22.8731 6.14491C23.2165 5.45821 23.6841 4.93135 24.2761 4.56433C24.8681 4.18546 25.5548 3.99603 26.3362 3.99603C26.7387 3.99603 27.1117 4.05523 27.455 4.17362C27.8102 4.28018 28.118 4.42817 28.3785 4.61761C28.6508 4.7952 28.8758 4.99647 29.0533 5.22142L29.1954 4.12035ZM24.8266 8.56017C24.8266 9.30606 25.0161 9.90988 25.3949 10.3716C25.7738 10.8215 26.2829 11.0465 26.9222 11.0465C27.2893 11.0465 27.6267 10.9518 27.9345 10.7623C28.2423 10.5611 28.491 10.271 28.6804 9.89212C28.8817 9.51326 28.9823 9.06927 28.9823 8.56017C28.9823 8.02739 28.8817 7.57749 28.6804 7.21047C28.491 6.84344 28.2364 6.56521 27.9167 6.37578C27.6089 6.17451 27.2774 6.07387 26.9222 6.07387C26.2829 6.07387 25.7738 6.30474 25.3949 6.76648C25.0161 7.21639 24.8266 7.81428 24.8266 8.56017ZM32.901 0.213299H35.1742V13H32.901V0.213299ZM37.1273 4.12035H39.4005V13H37.1273V4.12035ZM38.2817 2.98375C37.8554 2.98375 37.5062 2.85352 37.2339 2.59305C36.9616 2.32074 36.8254 1.98923 36.8254 1.59853C36.8254 1.20782 36.9616 0.882233 37.2339 0.621763C37.5062 0.349454 37.8554 0.213299 38.2817 0.213299C38.6842 0.213299 39.0216 0.349454 39.2939 0.621763C39.5781 0.882233 39.7202 1.20782 39.7202 1.59853C39.7202 1.98923 39.5781 2.32074 39.2939 2.59305C39.0216 2.85352 38.6842 2.98375 38.2817 2.98375ZM41.3568 4.12035H43.4169L43.5767 5.02607C43.8609 4.7064 44.2042 4.45777 44.6068 4.28018C45.0211 4.09075 45.4651 3.99603 45.9387 3.99603C46.6372 3.99603 47.2292 4.14403 47.7146 4.44001C48.2119 4.736 48.5908 5.16815 48.8512 5.73644C49.1235 6.2929 49.2597 6.98551 49.2597 7.81428V13H46.9687V8.11619C46.9687 7.4295 46.8326 6.91448 46.5603 6.57113C46.288 6.22778 45.8795 6.05611 45.3349 6.05611C44.7784 6.05611 44.3522 6.2337 44.0562 6.58889C43.7721 6.93224 43.63 7.44726 43.63 8.13395V13H41.3568V4.12035ZM51.4183 4.12035V1.63404H53.727V4.12035H55.6805V6.12715H53.727V9.73229C53.727 10.194 53.8217 10.5196 54.0111 10.709C54.2124 10.8985 54.461 10.9991 54.757 11.011C55.0649 11.0228 55.3727 11.005 55.6805 10.9577V12.9112C55.1359 13.0296 54.6031 13.0651 54.0822 13.0178C53.5731 12.9704 53.1172 12.8342 52.7147 12.6093C52.3122 12.3725 51.9925 12.0173 51.7557 11.5437C51.5308 11.0702 51.4183 10.4663 51.4183 9.73229V6.12715H50.1574V4.12035H51.4183Z" fill="white"/>
<defs>
<linearGradient id="paint0_linear_1621_5908" x1="2.77205" y1="-15.4301" x2="24.9073" y2="-15.247" gradientUnits="userSpaceOnUse">
<stop stop-color="#B1B3D9"/>
<stop offset="1" stop-color="#FDFDFF"/>
</linearGradient>
</defs>
</svg>
