<svg width="20" height="20" viewBox="0 0 20 20" fill="none" xmlns="http://www.w3.org/2000/svg">
<path fill-rule="evenodd" clip-rule="evenodd" d="M13.9201 1.78923C13.7885 1.75544 13.6383 1.74994 13.075 1.74994H4.20019C3.62777 1.74994 3.24344 1.75052 2.94745 1.7747C2.66016 1.79817 2.52281 1.84006 2.43229 1.88618C2.19728 2.00593 2.00618 2.19708 1.88624 2.43247C1.8401 2.52304 1.79822 2.66032 1.77476 2.94744C1.75058 3.24331 1.75 3.62752 1.75 4.19995V15.7999C1.75 16.3723 1.75058 16.7565 1.77476 17.0524C1.79822 17.3395 1.8401 17.4768 1.88624 17.5674C2.00617 17.8027 2.19725 17.9939 2.43229 18.1136C2.52282 18.1597 2.66018 18.2016 2.94746 18.2251C3.24345 18.2493 3.62778 18.2499 4.20019 18.2499H4.25V15.1695C4.24999 14.6353 4.24998 14.1895 4.27974 13.8252C4.31078 13.4454 4.37789 13.0887 4.54973 12.7514C4.81328 12.2342 5.23366 11.8134 5.7513 11.5496C6.08861 11.3778 6.4454 11.3107 6.82533 11.2796C7.18966 11.2499 7.63561 11.2499 8.1698 11.2499H11.8306C12.3648 11.2499 12.8105 11.2499 13.1747 11.2796C13.5545 11.3107 13.911 11.3778 14.2483 11.5496C14.7654 11.8131 15.1867 12.2337 15.4505 12.7514C15.6224 13.0888 15.6894 13.4455 15.7204 13.8254C15.75 14.1889 15.75 14.6339 15.75 15.1667V18.2499H15.8002C16.3726 18.2499 16.7567 18.2493 17.0525 18.2251C17.3394 18.2017 17.4767 18.1598 17.5673 18.1136C17.8028 17.9936 17.9943 17.8022 18.114 17.5674C18.1601 17.4769 18.2019 17.3397 18.2253 17.0525C18.2495 16.7566 18.25 16.3724 18.25 15.7999V7.2279C18.25 6.74137 18.2456 6.61084 18.2197 6.4948C18.1928 6.37453 18.1489 6.25981 18.0893 6.15396C18.031 6.05045 17.9471 5.95091 17.6213 5.58894L14.8961 2.56099C14.5196 2.14264 14.4144 2.03416 14.3012 1.95892C14.1846 1.88147 14.0557 1.82408 13.9201 1.78923ZM15.0041 19.7499H15.8302C16.3646 19.7499 16.8105 19.7499 17.1747 19.7201C17.5545 19.6891 17.9111 19.6219 18.2483 19.4501C18.7654 19.1866 19.1866 18.7661 19.4505 18.2484C19.6224 17.911 19.6894 17.5543 19.7204 17.1744C19.75 16.8109 19.75 16.3659 19.75 15.833V7.2279C19.75 7.20637 19.75 7.18509 19.75 7.16405C19.7502 6.77312 19.7503 6.4664 19.6836 6.16768C19.6251 5.90583 19.5287 5.6531 19.3962 5.41781C19.2463 5.15162 19.0413 4.92407 18.7806 4.6348C18.766 4.61857 18.7512 4.60214 18.7362 4.5855L16.0111 1.55754C15.9941 1.53865 15.9773 1.51997 15.9607 1.5015C15.6596 1.16657 15.4231 0.903519 15.1314 0.709669C14.8749 0.539149 14.5914 0.412979 14.2932 0.336379C13.9546 0.249409 13.6017 0.249629 13.153 0.249909C13.1273 0.249929 13.1013 0.249939 13.075 0.249939H4.16978C3.63561 0.249929 3.18966 0.249919 2.82534 0.279679C2.44541 0.310709 2.08861 0.377809 1.7513 0.549669C1.23366 0.813419 0.81329 1.23424 0.54973 1.75149C0.37789 2.08875 0.31078 2.4454 0.27974 2.82529C0.24998 3.18952 0.24999 3.63536 0.25 4.16952V15.8303C0.24999 16.3645 0.24998 16.8103 0.27974 17.1746C0.31078 17.5544 0.37789 17.9111 0.54973 18.2484C0.8133 18.7656 1.2337 19.1864 1.7513 19.4501C2.0886 19.622 2.44538 19.6891 2.82532 19.7201C3.18975 19.7499 3.63584 19.7499 4.17023 19.7499H15H15.0041ZM14.25 18.2499V15.1999C14.25 14.6274 14.2495 14.2432 14.2253 13.9473C14.2019 13.6601 14.1601 13.5229 14.114 13.4324C13.9943 13.1975 13.8028 13.0061 13.5673 12.8861C13.4767 12.84 13.3395 12.7981 13.0525 12.7747C12.7567 12.7505 12.3726 12.7499 11.8002 12.7499H8.2002C7.62777 12.7499 7.24344 12.7505 6.94744 12.7747C6.66015 12.7981 6.5228 12.84 6.43229 12.8861C6.19728 13.0059 6.00618 13.197 5.88624 13.4324C5.8401 13.523 5.79821 13.6603 5.77476 13.9474C5.75058 14.2433 5.75 14.6275 5.75 15.1999V18.2499H14.25ZM6.25 4.99994C6.25 4.58573 6.58578 4.24994 7 4.24994H13C13.4142 4.24994 13.75 4.58573 13.75 4.99994C13.75 5.41415 13.4142 5.74994 13 5.74994H7C6.58578 5.74994 6.25 5.41415 6.25 4.99994Z" fill="white"/>
</svg>
