<svg width="19" height="19" viewBox="0 0 19 19" fill="none" xmlns="http://www.w3.org/2000/svg">
<path fill-rule="evenodd" clip-rule="evenodd" d="M18.3635 0.390643C18.3184 0.305481 18.2502 0.235804 18.1657 0.19032C16.1632 -0.883873 4.18335 2.85935 1.08447 4.66129C0.277114 5.13064 -0.0828855 5.68226 0.0159945 6.29774C0.301115 8.08031 5.06559 9.43128 7.65086 10.0361L12.5056 5.14322C12.7869 4.85967 13.2429 4.85967 13.5241 5.14322C13.8054 5.42677 13.8054 5.88645 13.5241 6.17L8.62238 11.1093C9.23774 13.7426 10.5635 18.4022 12.304 18.6848C12.3693 18.6955 12.4345 18.7013 12.4989 18.7013C13.0307 18.7013 13.5107 18.3335 13.9264 17.6077C15.7139 14.4868 19.4301 2.41226 18.3635 0.390643Z" fill="#5158BB"/>
</svg>
