<svg width="22" height="22" viewBox="0 0 22 22" fill="none" xmlns="http://www.w3.org/2000/svg">
<path d="M14.3332 2.74685C13.0885 -0.248943 8.91155 -0.248955 7.6668 2.74685L7.01431 4.3172C6.7545 4.94248 6.18836 5.36766 5.54129 5.44092L3.72046 5.64709C0.642428 5.9956 -0.585816 9.82738 1.62734 11.967L3.17332 13.4617C3.63006 13.9032 3.83543 14.5582 3.70948 15.1953L3.33621 17.0832C2.71648 20.2178 6.09417 22.6646 8.81589 20.9172L10.0369 20.1334C10.6263 19.755 11.3737 19.755 11.9631 20.1334L13.1841 20.9172C15.9058 22.6646 19.2836 20.2178 18.6638 17.0832L18.2905 15.1953C18.1646 14.5582 18.37 13.9032 18.8267 13.4617L20.3727 11.967C22.5858 9.82738 21.3576 5.9956 18.2795 5.64709L16.4587 5.44092C15.8117 5.36766 15.2455 4.94248 14.9857 4.3172L14.3332 2.74685Z" fill="#5158BB"/>
</svg>
