<svg width="412" height="242" viewBox="0 0 412 242" fill="none" xmlns="http://www.w3.org/2000/svg">
<g clip-path="url(#clip0_434_2872)">
<path d="M131.208 123.794C127.785 117.36 120.006 114.15 111.774 113.777C103.543 113.404 93.2329 114.936 89.2902 127.244C86.0801 137.234 86.9459 147.93 84.1087 159.212C81.2715 170.494 61.0917 194.949 79.3135 213.584C95.6705 230.314 137.602 228.595 144.928 203.967C150.735 184.426 130.662 160.277 129.996 151.832C129.33 143.387 134.978 130.84 131.208 123.794Z" fill="#263238"/>
<path d="M132.007 135.795C130.602 141.538 130.384 147.508 131.368 153.337C131.669 154.844 132.18 156.302 132.887 157.666C133.566 158.998 134.312 160.33 135.044 161.662C136.563 164.326 138.068 166.857 139.427 169.495C142.229 174.659 144.245 180.212 145.407 185.971C146.465 191.704 146.375 197.59 145.141 203.287C146.086 200.514 146.703 197.64 146.979 194.723C147.207 191.769 147.123 188.8 146.726 185.865C145.803 179.918 143.865 174.173 140.998 168.882C139.666 166.218 138.055 163.554 136.51 161.01C134.866 158.59 133.587 155.942 132.713 153.151C132.027 150.339 131.678 147.454 131.674 144.56C131.597 141.634 131.708 138.706 132.007 135.795Z" fill="#263238"/>
<path d="M87.7452 135.915C86.4798 141.709 85.4408 147.557 83.8691 153.231C83.0998 156.072 82.1522 158.861 81.0319 161.583C79.8997 164.247 78.3679 166.817 76.9294 169.455C75.4908 172.092 74.1588 174.783 72.9334 177.553C71.779 180.328 70.8871 183.204 70.2694 186.145C69.6856 189.113 69.5465 192.153 69.8564 195.162C70.336 198.195 71.443 201.094 73.1065 203.674C71.7672 200.998 70.9533 198.091 70.7089 195.109C70.5738 192.187 70.8701 189.26 71.588 186.424C73.2392 180.761 75.5694 175.318 78.5278 170.214C79.8598 167.55 81.4582 165.006 82.6037 162.222C83.7025 159.429 84.5712 156.551 85.2011 153.617C86.4279 147.777 87.2777 141.864 87.7452 135.915Z" fill="#263238"/>
<path d="M127.558 180.723C151.748 183.134 179.333 179.138 185.927 172.145C193.572 164.047 206.306 130.973 209.197 107.796C209.823 102.721 171.235 100.883 171.168 104.466C170.955 116.787 158.954 149.635 158.088 151.393C157.089 153.404 138.854 160.49 126.4 163.9C106.779 169.268 110.429 179.018 127.558 180.723Z" fill="url(#paint0_linear_434_2872)"/>
<path d="M178.944 179.173L156.673 152C156.673 152 139.037 157.808 121.335 165.32C103.632 172.832 108.907 180.185 132.936 182.809C148.367 184.238 163.929 183.008 178.944 179.173Z" fill="url(#paint1_linear_434_2872)"/>
<path d="M130.236 177.38C129.835 177.38 129.444 177.499 129.111 177.721C128.778 177.944 128.518 178.26 128.365 178.63C128.212 179 128.172 179.407 128.25 179.8C128.328 180.192 128.521 180.553 128.804 180.836C129.087 181.119 129.448 181.312 129.841 181.39C130.234 181.469 130.641 181.428 131.011 181.275C131.381 181.122 131.697 180.862 131.919 180.53C132.142 180.197 132.26 179.805 132.26 179.405C132.26 179.139 132.208 178.876 132.106 178.63C132.005 178.384 131.855 178.161 131.667 177.973C131.479 177.785 131.256 177.636 131.011 177.534C130.765 177.432 130.502 177.38 130.236 177.38ZM130.236 181.03C129.914 181.03 129.6 180.934 129.333 180.756C129.066 180.577 128.857 180.324 128.734 180.027C128.611 179.73 128.579 179.403 128.642 179.088C128.705 178.772 128.859 178.483 129.087 178.256C129.314 178.028 129.604 177.874 129.919 177.811C130.234 177.748 130.561 177.78 130.858 177.903C131.155 178.026 131.408 178.235 131.587 178.502C131.766 178.769 131.861 179.083 131.861 179.405C131.861 179.836 131.69 180.249 131.385 180.554C131.08 180.859 130.667 181.03 130.236 181.03ZM148.484 177.593C147.945 177.597 147.428 177.813 147.047 178.194C146.666 178.575 146.45 179.092 146.446 179.631C146.448 179.897 146.502 180.16 146.605 180.405C146.709 180.65 146.859 180.872 147.049 181.059C147.238 181.246 147.462 181.393 147.708 181.493C147.955 181.594 148.218 181.644 148.484 181.642C148.749 181.644 149.011 181.593 149.256 181.493C149.501 181.393 149.723 181.244 149.91 181.057C150.097 180.87 150.246 180.648 150.346 180.403C150.446 180.158 150.497 179.896 150.496 179.631C150.497 179.365 150.447 179.102 150.347 178.855C150.246 178.609 150.099 178.385 149.912 178.196C149.725 178.006 149.503 177.856 149.258 177.752C149.013 177.649 148.75 177.595 148.484 177.593ZM148.484 181.256C148.159 181.259 147.84 181.165 147.569 180.986C147.298 180.807 147.085 180.551 146.96 180.251C146.834 179.951 146.801 179.621 146.863 179.302C146.926 178.982 147.082 178.689 147.312 178.459C147.542 178.229 147.835 178.073 148.155 178.01C148.474 177.948 148.804 177.981 149.104 178.107C149.404 178.232 149.66 178.444 149.839 178.716C150.018 178.987 150.112 179.306 150.109 179.631C150.106 180.061 149.933 180.472 149.629 180.776C149.325 181.08 148.914 181.253 148.484 181.256ZM139.653 169.615C139.363 169.567 139.067 169.583 138.784 169.662C138.501 169.74 138.239 169.879 138.015 170.069C137.791 170.26 137.611 170.496 137.488 170.762C137.365 171.029 137.301 171.319 137.301 171.613C137.301 171.906 137.365 172.196 137.488 172.463C137.611 172.729 137.791 172.965 138.015 173.156C138.239 173.346 138.501 173.485 138.784 173.563C139.067 173.642 139.363 173.658 139.653 173.611C140.127 173.533 140.558 173.289 140.869 172.923C141.18 172.557 141.35 172.093 141.35 171.613C141.35 171.132 141.18 170.668 140.869 170.302C140.558 169.936 140.127 169.692 139.653 169.615ZM139.653 173.264C139.439 173.266 139.226 173.225 139.027 173.144C138.828 173.063 138.648 172.944 138.495 172.793C138.343 172.642 138.222 172.462 138.14 172.264C138.057 172.066 138.015 171.854 138.015 171.639C137.994 171.412 138.021 171.184 138.094 170.968C138.166 170.753 138.283 170.555 138.437 170.386C138.59 170.218 138.777 170.084 138.985 169.992C139.194 169.901 139.419 169.853 139.646 169.853C139.874 169.853 140.099 169.901 140.307 169.992C140.516 170.084 140.702 170.218 140.856 170.386C141.009 170.555 141.126 170.753 141.199 170.968C141.272 171.184 141.299 171.412 141.278 171.639C141.278 172.07 141.107 172.483 140.802 172.788C140.497 173.093 140.084 173.264 139.653 173.264ZM156.503 169.268C155.965 169.272 155.45 169.488 155.07 169.87C154.691 170.252 154.478 170.768 154.478 171.306C154.556 171.78 154.799 172.211 155.165 172.522C155.531 172.833 155.996 173.003 156.476 173.003C156.956 173.003 157.421 172.833 157.787 172.522C158.153 172.211 158.397 171.78 158.474 171.306C158.489 170.768 158.289 170.246 157.92 169.854C157.55 169.462 157.041 169.232 156.503 169.215V169.268ZM156.503 172.931C156.276 172.952 156.048 172.925 155.832 172.852C155.616 172.779 155.418 172.663 155.25 172.509C155.082 172.356 154.948 172.169 154.856 171.96C154.764 171.752 154.717 171.527 154.717 171.299C154.717 171.072 154.764 170.847 154.856 170.639C154.948 170.43 155.082 170.243 155.25 170.09C155.418 169.936 155.616 169.82 155.832 169.747C156.048 169.674 156.276 169.647 156.503 169.668C156.91 169.705 157.289 169.892 157.565 170.194C157.841 170.496 157.994 170.891 157.994 171.299C157.994 171.708 157.841 172.103 157.565 172.405C157.289 172.707 156.91 172.894 156.503 172.931ZM167.092 176.727C166.553 176.731 166.036 176.947 165.655 177.328C165.274 177.71 165.058 178.226 165.054 178.765C165.054 179.168 165.174 179.562 165.398 179.898C165.622 180.233 165.94 180.494 166.312 180.648C166.685 180.802 167.094 180.843 167.49 180.764C167.885 180.686 168.248 180.491 168.533 180.206C168.818 179.921 169.012 179.558 169.091 179.163C169.17 178.768 169.129 178.358 168.975 177.985C168.821 177.613 168.56 177.295 168.224 177.071C167.889 176.847 167.495 176.727 167.092 176.727ZM167.092 180.39C166.767 180.393 166.448 180.299 166.177 180.12C165.906 179.941 165.694 179.685 165.568 179.385C165.442 179.085 165.409 178.755 165.471 178.436C165.534 178.117 165.691 177.824 165.92 177.594C166.15 177.364 166.444 177.207 166.763 177.145C167.082 177.082 167.412 177.115 167.712 177.241C168.012 177.367 168.268 177.579 168.447 177.85C168.626 178.122 168.72 178.44 168.717 178.765C168.7 179.186 168.522 179.584 168.219 179.876C167.917 180.169 167.513 180.334 167.092 180.337V180.39ZM173.179 172.398C173.034 172.584 172.848 172.733 172.635 172.835C172.423 172.936 172.19 172.988 171.954 172.984C171.522 172.984 171.107 172.814 170.8 172.509C170.493 172.205 170.319 171.792 170.316 171.359C170.315 171.067 170.394 170.78 170.544 170.529C170.694 170.277 170.91 170.072 171.168 169.934L170.902 169.628C170.651 169.777 170.436 169.979 170.27 170.219C170.105 170.459 169.993 170.733 169.943 171.02C169.893 171.307 169.906 171.602 169.98 171.884C170.054 172.166 170.189 172.429 170.374 172.654C170.56 172.88 170.792 173.062 171.054 173.189C171.317 173.317 171.604 173.386 171.896 173.392C172.187 173.398 172.477 173.341 172.744 173.224C173.012 173.108 173.251 172.935 173.446 172.718L173.179 172.398ZM147.672 161.036C147.382 160.989 147.085 161.005 146.803 161.084C146.52 161.162 146.257 161.301 146.033 161.491C145.81 161.681 145.63 161.918 145.507 162.184C145.384 162.451 145.32 162.741 145.32 163.034C145.32 163.328 145.384 163.618 145.507 163.885C145.63 164.151 145.81 164.387 146.033 164.577C146.257 164.768 146.52 164.907 146.803 164.985C147.085 165.064 147.382 165.08 147.672 165.032C148.146 164.955 148.576 164.711 148.887 164.345C149.198 163.979 149.369 163.515 149.369 163.034C149.369 162.554 149.198 162.09 148.887 161.724C148.576 161.358 148.146 161.114 147.672 161.036ZM147.672 164.686C147.457 164.688 147.244 164.647 147.046 164.566C146.847 164.485 146.666 164.366 146.514 164.215C146.362 164.064 146.241 163.884 146.158 163.686C146.076 163.488 146.033 163.276 146.033 163.061C146.033 162.63 146.205 162.217 146.509 161.912C146.814 161.607 147.227 161.436 147.658 161.436C148.089 161.436 148.503 161.607 148.807 161.912C149.112 162.217 149.283 162.63 149.283 163.061C149.26 163.472 149.079 163.859 148.78 164.141C148.48 164.423 148.083 164.58 147.672 164.58V164.686ZM166.32 164.033C166.06 164.209 165.754 164.301 165.441 164.3C165.121 164.301 164.807 164.208 164.54 164.032C164.273 163.856 164.064 163.605 163.939 163.311C163.813 163.016 163.778 162.691 163.837 162.377C163.895 162.062 164.045 161.772 164.268 161.543L164.015 161.223C163.825 161.414 163.674 161.64 163.571 161.889C163.468 162.138 163.416 162.405 163.416 162.675C163.416 162.94 163.468 163.203 163.57 163.448C163.672 163.692 163.822 163.915 164.01 164.102C164.198 164.289 164.421 164.437 164.667 164.537C164.912 164.637 165.175 164.688 165.441 164.686C165.84 164.69 166.232 164.569 166.559 164.34L166.32 164.033ZM157.875 153.75L157.302 153.058C157.432 153.299 157.5 153.569 157.502 153.844C157.502 154.168 157.405 154.486 157.225 154.755C157.044 155.025 156.787 155.235 156.487 155.359C156.187 155.482 155.857 155.514 155.539 155.449C155.221 155.385 154.929 155.228 154.7 154.997C154.472 154.767 154.317 154.474 154.255 154.155C154.193 153.836 154.228 153.506 154.354 153.207C154.48 152.908 154.692 152.653 154.963 152.475C155.234 152.296 155.552 152.203 155.877 152.205C156.271 152.206 156.651 152.353 156.942 152.618L156.343 151.886L154.305 152.565C153.992 152.937 153.826 153.411 153.839 153.897C153.842 154.435 154.059 154.95 154.44 155.329C154.822 155.709 155.339 155.922 155.877 155.922C156.142 155.922 156.405 155.869 156.65 155.767C156.894 155.665 157.117 155.516 157.304 155.328C157.491 155.14 157.639 154.916 157.739 154.671C157.839 154.425 157.89 154.162 157.888 153.897C157.905 153.881 157.919 153.861 157.929 153.839C157.938 153.818 157.943 153.794 157.943 153.77C157.943 153.747 157.938 153.723 157.929 153.701C157.919 153.68 157.905 153.66 157.888 153.644L157.875 153.75ZM130.143 161.476C129.872 161.474 129.605 161.528 129.357 161.636C128.987 161.792 128.672 162.053 128.449 162.387C128.227 162.721 128.107 163.113 128.105 163.514C128.106 163.78 128.16 164.043 128.264 164.288C128.367 164.533 128.518 164.755 128.707 164.942C128.896 165.128 129.12 165.276 129.367 165.376C129.613 165.476 129.877 165.527 130.143 165.525C130.407 165.527 130.67 165.476 130.914 165.376C131.159 165.275 131.382 165.127 131.569 164.94C131.756 164.753 131.904 164.531 132.004 164.286C132.105 164.041 132.156 163.779 132.154 163.514C132.156 163.248 132.105 162.984 132.005 162.738C131.905 162.492 131.757 162.268 131.57 162.078C131.384 161.889 131.161 161.739 130.916 161.635C130.671 161.532 130.408 161.478 130.143 161.476ZM130.143 165.139C129.817 165.142 129.499 165.047 129.227 164.868C128.956 164.689 128.744 164.434 128.618 164.134C128.493 163.834 128.459 163.503 128.522 163.184C128.585 162.865 128.741 162.572 128.971 162.342C129.201 162.112 129.494 161.956 129.813 161.893C130.132 161.83 130.462 161.864 130.762 161.99C131.062 162.115 131.318 162.327 131.497 162.599C131.676 162.87 131.77 163.189 131.768 163.514C131.768 163.946 131.597 164.361 131.292 164.668C130.988 164.975 130.575 165.149 130.143 165.152V165.139ZM120.819 169.202C120.419 169.202 120.028 169.32 119.695 169.542C119.362 169.764 119.103 170.079 118.949 170.448C118.796 170.818 118.755 171.224 118.832 171.616C118.909 172.009 119.1 172.369 119.382 172.653C119.664 172.937 120.024 173.131 120.415 173.21C120.807 173.29 121.214 173.252 121.584 173.101C121.954 172.949 122.271 172.692 122.496 172.361C122.72 172.03 122.841 171.639 122.843 171.24C122.842 170.969 122.786 170.701 122.679 170.451C122.573 170.202 122.418 169.977 122.223 169.788C122.028 169.599 121.798 169.452 121.545 169.353C121.293 169.255 121.023 169.208 120.752 169.215L120.819 169.202ZM120.819 172.865C120.494 172.865 120.177 172.768 119.907 172.588C119.637 172.407 119.427 172.15 119.304 171.85C119.18 171.55 119.148 171.22 119.213 170.902C119.277 170.584 119.434 170.292 119.665 170.063C119.895 169.834 120.188 169.679 120.507 169.618C120.826 169.556 121.156 169.59 121.455 169.716C121.754 169.842 122.009 170.055 122.187 170.326C122.366 170.597 122.46 170.915 122.457 171.24C122.455 171.46 122.409 171.678 122.322 171.88C122.235 172.082 122.109 172.265 121.95 172.418C121.791 172.571 121.603 172.69 121.397 172.769C121.192 172.848 120.972 172.885 120.752 172.878L120.819 172.865Z" fill="white"/>
<path d="M167.372 177.793C161.244 170.742 155.512 163.355 150.203 155.668C150.203 155.589 150.296 155.495 150.362 155.589C151.694 157.453 161.511 169.162 167.545 177.7C167.639 177.793 167.479 177.873 167.372 177.793Z" fill="#263238"/>
<path d="M198.941 63.1344C196.437 71.273 196.743 75.269 198.941 83.3809C198.941 83.5407 198.754 83.6339 198.701 83.4741C195.837 75.7352 194.705 70.7801 198.568 62.9879C198.741 62.6016 199.061 62.7482 198.941 63.1344Z" fill="#263238"/>
<path d="M189.723 62.4818C188.578 71.2996 189.23 75.602 191.588 84.0868C191.588 84.2067 191.428 84.2733 191.388 84.0868C188.364 75.9616 186.966 71.0865 189.27 62.4285C189.377 62.1088 189.776 62.0822 189.723 62.4818Z" fill="#263238"/>
<path d="M179.84 63.281C179.56 71.899 180.199 76.601 183.769 84.4864C183.781 84.5225 183.78 84.5617 183.766 84.597C183.752 84.6324 183.726 84.6615 183.692 84.6792C183.658 84.6968 183.619 84.7019 183.582 84.6934C183.545 84.6849 183.512 84.6635 183.489 84.6329C179.067 76.9739 178.228 71.0732 179.573 63.3209C179.667 62.7615 179.853 62.7348 179.84 63.281Z" fill="#263238"/>
<path d="M181.318 111.273C179.826 107.463 172.433 85.9649 171.528 80.6369C169.863 70.9 170.289 60.4704 174.112 58.8854C177.162 57.6333 179.759 62.8814 179.759 62.8814C179.759 62.8814 180.838 56.3412 185.007 56.0216C189.177 55.7019 189.456 62.908 189.456 62.908C189.456 62.908 191.055 56.248 195.237 56.248C199.42 56.248 198.514 63.3875 198.514 63.3875C198.514 63.3875 199.699 57.2603 203.149 58.6856C207.305 60.4038 203.855 71.4728 204.694 77.3336C204.814 78.2393 208.997 91.7192 210.129 100.897C210.416 103.782 209.9 106.691 208.637 109.302L181.318 111.273Z" fill="url(#paint2_linear_434_2872)"/>
<path d="M177.575 113.351C177.575 113.351 169.676 106.158 166.919 102.242C164.162 98.3259 159.167 79.9043 163.096 78.599C168.144 76.9206 173.113 86.9906 174.898 92.2386C174.898 92.2386 186.593 88.3492 191.721 94.7961C196.849 101.243 177.575 113.351 177.575 113.351Z" fill="url(#paint3_linear_434_2872)"/>
<path d="M173.393 88.5357C174.045 89.7078 174.631 90.9066 175.217 92.1054L174.791 91.879C176.644 91.3588 178.555 91.068 180.479 91.0132C182.404 90.9553 184.329 91.1116 186.22 91.4794C188.119 91.8341 189.958 92.4575 191.681 93.3309C193.395 94.1806 194.968 95.2904 196.343 96.6209C194.752 95.6691 193.08 94.8579 191.348 94.1967C189.625 93.5382 187.84 93.0562 186.02 92.7581C182.378 92.1394 178.663 92.0855 175.004 92.5983H174.658L174.565 92.3186C174.138 91.1064 173.739 89.8277 173.393 88.5357Z" fill="#263238"/>
<path d="M137.931 225.433V247.624H68.8403C68.8403 247.624 78.4707 191.52 97.5716 172.22C107.135 162.563 117.898 163.695 124.531 170.888C126.21 172.713 140.515 196.569 142.3 207.131C143.845 216.442 137.931 225.433 137.931 225.433Z" fill="url(#paint4_linear_434_2872)"/>
<path d="M98.8675 201.969C98.3293 201.972 97.8143 202.189 97.435 202.57C97.0557 202.952 96.8428 203.469 96.8428 204.007C96.9356 204.468 97.1853 204.884 97.5496 205.182C97.9138 205.48 98.3701 205.643 98.8408 205.643C99.3116 205.643 99.7679 205.48 100.132 205.182C100.496 204.884 100.746 204.468 100.839 204.007C100.836 203.479 100.629 202.972 100.262 202.592C99.8948 202.213 99.3953 201.989 98.8675 201.969ZM98.8675 205.632C98.5423 205.634 98.2237 205.54 97.9523 205.361C97.6808 205.182 97.4688 204.926 97.3431 204.627C97.2175 204.327 97.1839 203.996 97.2467 203.677C97.3095 203.358 97.4658 203.065 97.6957 202.835C97.9256 202.605 98.2188 202.449 98.5378 202.386C98.8569 202.323 99.1874 202.357 99.4873 202.482C99.7872 202.608 100.043 202.82 100.222 203.092C100.401 203.363 100.495 203.682 100.493 204.007C100.493 204.438 100.321 204.851 100.017 205.156C99.7118 205.461 99.2985 205.632 98.8675 205.632ZM120.752 169.215C120.352 169.215 119.961 169.333 119.629 169.555C119.296 169.777 119.037 170.093 118.883 170.462C118.729 170.831 118.689 171.237 118.766 171.63C118.843 172.022 119.034 172.383 119.316 172.666C119.598 172.95 119.957 173.144 120.349 173.224C120.741 173.303 121.148 173.265 121.518 173.114C121.888 172.963 122.205 172.705 122.429 172.374C122.653 172.043 122.774 171.653 122.777 171.253C122.777 170.715 122.564 170.198 122.185 169.816C121.805 169.435 121.29 169.218 120.752 169.215ZM120.752 172.878C120.428 172.878 120.11 172.781 119.841 172.601C119.571 172.42 119.361 172.164 119.237 171.863C119.114 171.563 119.082 171.233 119.146 170.915C119.211 170.597 119.368 170.305 119.599 170.076C119.829 169.848 120.122 169.693 120.441 169.631C120.76 169.569 121.089 169.604 121.389 169.73C121.688 169.856 121.943 170.068 122.121 170.339C122.299 170.61 122.393 170.928 122.391 171.253C122.384 171.684 122.208 172.095 121.902 172.399C121.596 172.703 121.183 172.874 120.752 172.878ZM112.241 177.78C111.767 177.857 111.336 178.101 111.025 178.467C110.714 178.833 110.543 179.297 110.543 179.778C110.543 180.258 110.714 180.722 111.025 181.088C111.336 181.454 111.767 181.698 112.241 181.776C112.53 181.823 112.827 181.807 113.11 181.728C113.393 181.65 113.655 181.511 113.879 181.321C114.103 181.131 114.282 180.894 114.406 180.628C114.529 180.361 114.593 180.071 114.593 179.778C114.593 179.484 114.529 179.194 114.406 178.928C114.282 178.661 114.103 178.425 113.879 178.235C113.655 178.045 113.393 177.905 113.11 177.827C112.827 177.748 112.53 177.732 112.241 177.78ZM112.241 181.429C111.916 181.429 111.599 181.333 111.329 181.152C111.059 180.972 110.849 180.715 110.726 180.415C110.602 180.115 110.571 179.785 110.635 179.466C110.699 179.148 110.857 178.856 111.087 178.628C111.318 178.399 111.611 178.244 111.929 178.183C112.248 178.121 112.578 178.155 112.877 178.281C113.176 178.407 113.431 178.619 113.61 178.89C113.788 179.162 113.882 179.48 113.879 179.804C113.886 180.233 113.724 180.647 113.427 180.957C113.13 181.266 112.723 181.446 112.294 181.456L112.241 181.429ZM74.5984 232.751C74.0881 232.793 73.6121 233.025 73.2649 233.401C72.9178 233.777 72.7251 234.271 72.7251 234.783C72.7251 235.295 72.9178 235.788 73.2649 236.164C73.6121 236.541 74.0881 236.773 74.5984 236.814C74.879 236.837 75.1613 236.801 75.4274 236.709C75.6935 236.617 75.9378 236.472 76.1447 236.281C76.3516 236.09 76.5168 235.858 76.6297 235.6C76.7427 235.343 76.801 235.064 76.801 234.783C76.801 234.501 76.7427 234.223 76.6297 233.965C76.5168 233.707 76.3516 233.475 76.1447 233.284C75.9378 233.094 75.6935 232.948 75.4274 232.856C75.1613 232.764 74.879 232.729 74.5984 232.751ZM74.5984 236.414C74.2744 236.414 73.9576 236.318 73.6882 236.138C73.4188 235.958 73.2088 235.702 73.0848 235.403C72.9608 235.104 72.9283 234.774 72.9916 234.456C73.0548 234.139 73.2108 233.847 73.4399 233.617C73.6691 233.388 73.961 233.232 74.2788 233.169C74.5966 233.106 74.926 233.138 75.2254 233.262C75.5248 233.386 75.7807 233.596 75.9607 233.866C76.1407 234.135 76.2368 234.452 76.2368 234.776C76.2404 235.202 76.0763 235.613 75.7797 235.92C75.4832 236.226 75.0781 236.404 74.6517 236.414H74.5984ZM94.645 233.311C94.3798 233.309 94.1168 233.36 93.8712 233.46C93.6257 233.56 93.4024 233.708 93.2142 233.895C93.026 234.082 92.8767 234.304 92.7748 234.549C92.6729 234.794 92.6204 235.057 92.6204 235.322C92.5729 235.612 92.589 235.908 92.6676 236.191C92.7462 236.474 92.8853 236.736 93.0754 236.96C93.2654 237.184 93.5019 237.364 93.7683 237.487C94.0348 237.61 94.3248 237.674 94.6184 237.674C94.912 237.674 95.202 237.61 95.4685 237.487C95.7349 237.364 95.9714 237.184 96.1614 236.96C96.3515 236.736 96.4907 236.474 96.5692 236.191C96.6478 235.908 96.6639 235.612 96.6164 235.322C96.617 234.804 96.4179 234.306 96.0606 233.932C95.7034 233.557 95.2154 233.335 94.6983 233.311H94.645ZM94.645 236.96C94.2377 236.924 93.8589 236.736 93.5831 236.434C93.3072 236.132 93.1543 235.738 93.1543 235.329C93.1543 234.92 93.3072 234.526 93.5831 234.224C93.8589 233.922 94.2377 233.734 94.645 233.697C94.8717 233.677 95.1002 233.703 95.3158 233.776C95.5315 233.849 95.7297 233.966 95.8977 234.119C96.0657 234.273 96.1999 234.46 96.2917 234.668C96.3836 234.876 96.431 235.101 96.431 235.329C96.431 235.556 96.3836 235.781 96.2917 235.99C96.1999 236.198 96.0657 236.385 95.8977 236.538C95.7297 236.692 95.5315 236.809 95.3158 236.881C95.1002 236.954 94.8717 236.981 94.645 236.96ZM75.9438 216.088L75.8239 216.461C76.1015 216.591 76.3358 216.799 76.4987 217.058C76.6617 217.318 76.7465 217.619 76.743 217.926C76.743 218.358 76.5722 218.773 76.2678 219.08C75.9634 219.387 75.5501 219.561 75.1179 219.565C75.0654 219.577 75.0106 219.577 74.9581 219.565L74.8515 219.951C74.9443 219.964 75.0385 219.964 75.1312 219.951C75.6682 219.951 76.1832 219.737 76.5629 219.358C76.9426 218.978 77.1559 218.463 77.1559 217.926C77.1561 217.535 77.0414 217.152 76.8259 216.825C76.6104 216.498 76.3036 216.242 75.9438 216.088ZM87.3723 210.347C86.9725 210.35 86.5823 210.471 86.2512 210.695C85.92 210.919 85.6625 211.236 85.5113 211.606C85.3601 211.976 85.3219 212.383 85.4015 212.775C85.4812 213.167 85.675 213.526 85.9587 213.808C86.2424 214.09 86.6031 214.281 86.9955 214.358C87.3879 214.435 87.7943 214.395 88.1635 214.241C88.5327 214.087 88.8481 213.828 89.07 213.495C89.2918 213.162 89.4103 212.772 89.4103 212.372C89.4193 212.099 89.3731 211.828 89.2745 211.573C89.176 211.319 89.027 211.087 88.8367 210.892C88.6464 210.697 88.4186 210.542 88.1669 210.437C87.9153 210.332 87.645 210.279 87.3723 210.28V210.347ZM87.3723 214.01C86.9424 214.003 86.5325 213.827 86.231 213.521C85.9295 213.214 85.7605 212.802 85.7606 212.372C85.7606 211.941 85.9318 211.527 86.2366 211.223C86.5413 210.918 86.9546 210.747 87.3856 210.747C87.8166 210.747 88.23 210.918 88.5347 211.223C88.8395 211.527 89.0107 211.941 89.0107 212.372C88.9903 212.793 88.8091 213.191 88.5044 213.484C88.1997 213.776 87.7946 213.941 87.3723 213.943V214.01ZM132.421 225.252C132.131 225.205 131.834 225.221 131.551 225.299C131.269 225.378 131.006 225.517 130.782 225.707C130.559 225.897 130.379 226.134 130.256 226.4C130.132 226.667 130.069 226.957 130.069 227.25C130.069 227.544 130.132 227.834 130.256 228.1C130.379 228.367 130.559 228.603 130.782 228.793C131.006 228.983 131.269 229.122 131.551 229.201C131.834 229.28 132.131 229.296 132.421 229.248C132.894 229.171 133.325 228.927 133.636 228.561C133.947 228.195 134.118 227.73 134.118 227.25C134.118 226.77 133.947 226.305 133.636 225.939C133.325 225.573 132.894 225.33 132.421 225.252ZM132.421 228.902C132.099 228.902 131.784 228.806 131.516 228.627C131.249 228.448 131.041 228.193 130.918 227.896C130.795 227.598 130.764 227.27 130.828 226.955C130.892 226.639 131.048 226.35 131.276 226.123C131.505 225.896 131.796 225.743 132.112 225.681C132.428 225.62 132.755 225.654 133.052 225.779C133.348 225.904 133.601 226.115 133.778 226.384C133.955 226.653 134.048 226.968 134.046 227.29C134.022 227.706 133.841 228.097 133.539 228.384C133.237 228.671 132.837 228.833 132.421 228.835V228.902ZM132.421 241.063C132.131 241.016 131.834 241.032 131.551 241.11C131.269 241.189 131.006 241.328 130.782 241.518C130.559 241.708 130.379 241.944 130.256 242.211C130.132 242.477 130.069 242.767 130.069 243.061C130.069 243.355 130.132 243.645 130.256 243.911C130.379 244.178 130.559 244.414 130.782 244.604C131.006 244.794 131.269 244.933 131.551 245.012C131.834 245.09 132.131 245.106 132.421 245.059C132.894 244.981 133.325 244.738 133.636 244.372C133.947 244.006 134.118 243.541 134.118 243.061C134.118 242.581 133.947 242.116 133.636 241.75C133.325 241.384 132.894 241.141 132.421 241.063ZM132.421 244.726C132.095 244.729 131.777 244.634 131.505 244.455C131.234 244.276 131.022 244.021 130.896 243.721C130.771 243.421 130.737 243.09 130.8 242.771C130.863 242.452 131.019 242.159 131.249 241.929C131.479 241.699 131.772 241.543 132.091 241.48C132.41 241.417 132.74 241.451 133.04 241.577C133.34 241.702 133.596 241.914 133.775 242.186C133.954 242.457 134.048 242.776 134.046 243.101C134.025 243.519 133.845 243.914 133.543 244.204C133.241 244.493 132.839 244.656 132.421 244.659V244.726ZM121.125 218.246C120.722 218.243 120.326 218.36 119.989 218.583C119.652 218.805 119.389 219.122 119.233 219.495C119.077 219.867 119.034 220.277 119.111 220.673C119.189 221.069 119.382 221.434 119.666 221.72C119.951 222.006 120.314 222.202 120.709 222.282C121.105 222.361 121.516 222.322 121.889 222.168C122.262 222.014 122.581 221.753 122.805 221.417C123.03 221.082 123.15 220.687 123.15 220.284C123.159 220.012 123.113 219.741 123.015 219.487C122.918 219.232 122.77 219 122.582 218.804C122.393 218.608 122.167 218.452 121.917 218.344C121.667 218.237 121.397 218.181 121.125 218.179V218.246ZM121.125 221.909C120.8 221.911 120.481 221.817 120.21 221.638C119.939 221.459 119.726 221.204 119.601 220.904C119.475 220.604 119.442 220.273 119.504 219.954C119.567 219.635 119.724 219.342 119.953 219.112C120.183 218.882 120.477 218.726 120.796 218.663C121.115 218.6 121.445 218.634 121.745 218.759C122.045 218.885 122.301 219.097 122.48 219.369C122.659 219.64 122.753 219.959 122.75 220.284C122.73 220.702 122.55 221.097 122.248 221.386C121.946 221.676 121.544 221.839 121.125 221.842V221.909ZM130.569 181.07H130.249C129.944 181.063 129.646 180.97 129.391 180.801C129.136 180.633 128.934 180.396 128.807 180.118C128.681 179.84 128.635 179.532 128.676 179.229C128.717 178.926 128.842 178.641 129.037 178.406C128.971 178.273 128.891 178.153 128.824 178.033C128.634 178.223 128.483 178.45 128.38 178.699C128.277 178.948 128.224 179.215 128.225 179.485C128.223 179.751 128.274 180.015 128.375 180.262C128.476 180.508 128.625 180.732 128.814 180.92C129.002 181.109 129.226 181.258 129.473 181.359C129.719 181.46 129.983 181.511 130.249 181.509C130.426 181.511 130.601 181.484 130.769 181.429L130.569 181.07ZM121.831 186.398C121.431 186.398 121.039 186.516 120.706 186.739C120.373 186.961 120.114 187.278 119.961 187.648C119.807 188.017 119.767 188.425 119.845 188.817C119.924 189.21 120.116 189.571 120.4 189.854C120.683 190.137 121.043 190.33 121.436 190.408C121.829 190.486 122.236 190.446 122.606 190.293C122.976 190.14 123.292 189.88 123.515 189.547C123.737 189.214 123.856 188.823 123.856 188.422C123.861 188.153 123.813 187.886 123.713 187.635C123.614 187.385 123.466 187.157 123.277 186.965C123.089 186.773 122.864 186.62 122.615 186.516C122.367 186.411 122.1 186.358 121.831 186.358V186.398ZM121.831 190.047C121.4 190.047 120.987 189.876 120.682 189.571C120.377 189.267 120.206 188.853 120.206 188.422C120.206 187.991 120.377 187.578 120.682 187.273C120.987 186.969 121.4 186.797 121.831 186.797C122.262 186.797 122.675 186.969 122.98 187.273C123.285 187.578 123.456 187.991 123.456 188.422C123.449 188.847 123.274 189.253 122.97 189.55C122.666 189.846 122.256 190.011 121.831 190.007V190.047ZM132.421 194.856C132.131 194.808 131.834 194.825 131.551 194.903C131.269 194.982 131.006 195.121 130.782 195.311C130.559 195.501 130.379 195.737 130.256 196.004C130.132 196.27 130.069 196.56 130.069 196.854C130.069 197.147 130.132 197.438 130.256 197.704C130.379 197.97 130.559 198.207 130.782 198.397C131.006 198.587 131.269 198.726 131.551 198.805C131.834 198.883 132.131 198.899 132.421 198.852C132.894 198.774 133.325 198.531 133.636 198.165C133.947 197.799 134.118 197.334 134.118 196.854C134.118 196.374 133.947 195.909 133.636 195.543C133.325 195.177 132.894 194.934 132.421 194.856ZM132.421 198.506C132.206 198.507 131.993 198.467 131.795 198.386C131.596 198.305 131.415 198.185 131.263 198.034C131.111 197.883 130.99 197.704 130.907 197.506C130.825 197.307 130.782 197.095 130.782 196.881C130.762 196.654 130.789 196.425 130.861 196.21C130.934 195.994 131.051 195.796 131.204 195.628C131.358 195.46 131.545 195.326 131.753 195.234C131.961 195.142 132.186 195.095 132.414 195.095C132.641 195.095 132.867 195.142 133.075 195.234C133.283 195.326 133.47 195.46 133.623 195.628C133.777 195.796 133.894 195.994 133.966 196.21C134.039 196.425 134.066 196.654 134.046 196.881C134.035 197.305 133.859 197.708 133.556 198.004C133.252 198.3 132.845 198.466 132.421 198.466V198.506ZM110.682 194.776C110.282 194.776 109.89 194.895 109.557 195.117C109.225 195.34 108.965 195.656 108.812 196.026C108.659 196.396 108.618 196.803 108.697 197.196C108.775 197.588 108.968 197.949 109.251 198.232C109.534 198.515 109.895 198.708 110.287 198.786C110.68 198.864 111.087 198.824 111.457 198.671C111.827 198.518 112.143 198.258 112.366 197.925C112.588 197.593 112.707 197.201 112.707 196.801C112.703 196.265 112.489 195.752 112.11 195.373C111.731 194.994 111.218 194.779 110.682 194.776ZM110.682 198.426C110.468 198.427 110.255 198.387 110.056 198.306C109.858 198.225 109.677 198.106 109.525 197.954C109.372 197.803 109.251 197.624 109.169 197.426C109.086 197.228 109.044 197.015 109.044 196.801C109.023 196.574 109.05 196.346 109.123 196.13C109.196 195.914 109.313 195.716 109.466 195.548C109.62 195.38 109.806 195.246 110.015 195.154C110.223 195.062 110.448 195.015 110.676 195.015C110.903 195.015 111.128 195.062 111.337 195.154C111.545 195.246 111.732 195.38 111.885 195.548C112.039 195.716 112.156 195.914 112.228 196.13C112.301 196.346 112.328 196.574 112.307 196.801C112.315 197.018 112.278 197.234 112.199 197.437C112.121 197.64 112.002 197.824 111.85 197.98C111.698 198.135 111.516 198.258 111.316 198.342C111.115 198.425 110.9 198.468 110.682 198.466V198.426ZM102.317 169.122C101.918 169.124 101.528 169.245 101.198 169.468C100.867 169.692 100.609 170.008 100.458 170.378C100.306 170.747 100.267 171.153 100.346 171.545C100.424 171.936 100.617 172.296 100.899 172.578C101.181 172.86 101.541 173.053 101.932 173.131C102.324 173.21 102.73 173.171 103.099 173.019C103.469 172.868 103.785 172.61 104.009 172.279C104.232 171.949 104.353 171.559 104.355 171.16C104.331 170.635 104.106 170.141 103.726 169.778C103.347 169.416 102.842 169.214 102.317 169.215V169.122ZM102.317 172.785C101.992 172.787 101.674 172.693 101.402 172.514C101.131 172.335 100.919 172.079 100.793 171.779C100.667 171.48 100.634 171.149 100.697 170.83C100.759 170.511 100.916 170.218 101.146 169.988C101.376 169.758 101.669 169.602 101.988 169.539C102.307 169.476 102.637 169.51 102.937 169.635C103.237 169.761 103.493 169.973 103.672 170.244C103.851 170.516 103.945 170.834 103.942 171.16C103.953 171.38 103.919 171.601 103.843 171.808C103.766 172.015 103.648 172.205 103.496 172.365C103.345 172.526 103.162 172.654 102.959 172.742C102.757 172.83 102.538 172.876 102.317 172.878V172.785ZM100.692 185.119C100.293 185.122 99.9034 185.242 99.5725 185.466C99.2416 185.689 98.9842 186.006 98.8326 186.375C98.681 186.744 98.6421 187.15 98.7206 187.542C98.7991 187.933 98.9917 188.293 99.274 188.575C99.5564 188.858 99.9159 189.05 100.307 189.129C100.699 189.207 101.105 189.168 101.474 189.017C101.844 188.865 102.16 188.608 102.384 188.277C102.607 187.946 102.728 187.556 102.73 187.157C102.706 186.633 102.481 186.138 102.101 185.776C101.722 185.414 101.217 185.212 100.692 185.212V185.119ZM100.692 188.782C100.367 188.785 100.049 188.69 99.7771 188.511C99.5057 188.332 99.2936 188.077 99.1679 187.777C99.0423 187.477 99.0087 187.146 99.0715 186.827C99.1343 186.508 99.2906 186.215 99.5206 185.985C99.7505 185.755 100.044 185.599 100.363 185.536C100.682 185.473 101.012 185.507 101.312 185.633C101.612 185.758 101.868 185.97 102.047 186.242C102.226 186.513 102.32 186.832 102.317 187.157C102.328 187.378 102.294 187.598 102.218 187.805C102.141 188.013 102.023 188.202 101.871 188.363C101.719 188.523 101.537 188.651 101.334 188.739C101.132 188.827 100.913 188.874 100.692 188.875V188.782ZM121.765 232.738C121.291 232.816 120.86 233.059 120.549 233.425C120.238 233.791 120.067 234.256 120.067 234.736C120.067 235.216 120.238 235.681 120.549 236.047C120.86 236.413 121.291 236.656 121.765 236.734C122.054 236.781 122.351 236.765 122.634 236.687C122.917 236.608 123.179 236.469 123.403 236.279C123.626 236.089 123.806 235.853 123.929 235.586C124.053 235.32 124.117 235.03 124.117 234.736C124.117 234.442 124.053 234.152 123.929 233.886C123.806 233.619 123.626 233.383 123.403 233.193C123.179 233.003 122.917 232.864 122.634 232.785C122.351 232.707 122.054 232.691 121.765 232.738ZM121.765 236.388C121.442 236.385 121.127 236.287 120.859 236.106C120.592 235.925 120.384 235.669 120.262 235.37C120.139 235.071 120.108 234.743 120.172 234.426C120.235 234.11 120.391 233.819 120.619 233.591C120.848 233.363 121.138 233.207 121.455 233.143C121.772 233.079 122.1 233.111 122.399 233.233C122.698 233.356 122.954 233.563 123.135 233.831C123.316 234.098 123.414 234.413 123.416 234.736C123.423 234.956 123.386 235.175 123.306 235.381C123.226 235.586 123.105 235.772 122.95 235.929C122.796 236.086 122.611 236.21 122.407 236.294C122.203 236.377 121.985 236.418 121.765 236.414V236.388ZM98.8675 218.153C98.4644 218.153 98.0704 218.272 97.7352 218.496C97.4001 218.72 97.1389 219.038 96.9846 219.411C96.8304 219.783 96.79 220.193 96.8687 220.588C96.9473 220.983 97.1414 221.347 97.4264 221.632C97.7114 221.917 98.0746 222.111 98.4699 222.189C98.8652 222.268 99.275 222.228 99.6474 222.073C100.02 221.919 100.338 221.658 100.562 221.323C100.786 220.988 100.905 220.594 100.905 220.191C100.898 219.655 100.681 219.143 100.299 218.767C99.9178 218.39 99.4034 218.179 98.8675 218.179V218.153ZM98.8675 221.816C98.5423 221.818 98.2237 221.724 97.9523 221.545C97.6808 221.366 97.4688 221.11 97.3431 220.81C97.2175 220.51 97.1839 220.18 97.2467 219.861C97.3095 219.542 97.4658 219.249 97.6957 219.019C97.9256 218.789 98.2188 218.633 98.5378 218.57C98.8569 218.507 99.1874 218.541 99.4873 218.666C99.7872 218.792 100.043 219.004 100.222 219.275C100.401 219.547 100.495 219.865 100.493 220.191C100.496 220.406 100.457 220.62 100.377 220.821C100.296 221.021 100.177 221.203 100.026 221.357C99.8748 221.511 99.6945 221.633 99.4956 221.716C99.2966 221.799 99.0832 221.842 98.8675 221.842V221.816ZM110.203 210.72C109.913 210.673 109.617 210.689 109.334 210.767C109.051 210.846 108.788 210.985 108.565 211.175C108.341 211.365 108.161 211.602 108.038 211.868C107.915 212.134 107.851 212.424 107.851 212.718C107.851 213.012 107.915 213.302 108.038 213.568C108.161 213.835 108.341 214.071 108.565 214.261C108.788 214.451 109.051 214.59 109.334 214.669C109.617 214.747 109.913 214.763 110.203 214.716C110.677 214.638 111.108 214.395 111.418 214.029C111.729 213.663 111.9 213.198 111.9 212.718C111.9 212.238 111.729 211.773 111.418 211.407C111.108 211.041 110.677 210.798 110.203 210.72ZM110.203 214.37C109.881 214.372 109.565 214.279 109.296 214.102C109.027 213.925 108.817 213.673 108.692 213.376C108.567 213.079 108.533 212.752 108.594 212.436C108.655 212.12 108.809 211.829 109.036 211.6C109.262 211.372 109.552 211.216 109.868 211.152C110.183 211.088 110.511 211.119 110.808 211.242C111.106 211.365 111.361 211.573 111.54 211.84C111.719 212.108 111.814 212.423 111.815 212.745C111.818 213.177 111.651 213.593 111.349 213.902C111.047 214.212 110.635 214.389 110.203 214.396V214.37ZM132.847 210.254C132.309 210.257 131.794 210.474 131.414 210.855C131.035 211.237 130.822 211.754 130.822 212.292C130.9 212.766 131.143 213.197 131.509 213.507C131.875 213.818 132.34 213.989 132.82 213.989C133.3 213.989 133.765 213.818 134.131 213.507C134.497 213.197 134.741 212.766 134.818 212.292C134.811 211.76 134.597 211.253 134.221 210.877C133.846 210.501 133.338 210.287 132.807 210.28L132.847 210.254ZM132.847 213.917C132.62 213.937 132.392 213.91 132.176 213.838C131.96 213.765 131.762 213.648 131.594 213.495C131.426 213.341 131.292 213.154 131.2 212.946C131.108 212.738 131.061 212.513 131.061 212.285C131.061 212.058 131.108 211.832 131.2 211.624C131.292 211.416 131.426 211.229 131.594 211.076C131.762 210.922 131.96 210.805 132.176 210.733C132.392 210.66 132.62 210.633 132.847 210.653C133.254 210.69 133.633 210.878 133.909 211.18C134.185 211.482 134.338 211.876 134.338 212.285C134.338 212.694 134.185 213.088 133.909 213.39C133.633 213.692 133.254 213.88 132.847 213.917ZM120.859 201.929C120.319 201.932 119.803 202.148 119.422 202.53C119.04 202.911 118.824 203.427 118.821 203.967C118.823 204.233 118.877 204.496 118.98 204.741C119.083 204.986 119.234 205.208 119.423 205.395C119.612 205.581 119.837 205.729 120.083 205.829C120.329 205.929 120.593 205.98 120.859 205.978C121.123 205.98 121.386 205.929 121.631 205.829C121.875 205.728 122.098 205.58 122.285 205.393C122.472 205.206 122.62 204.983 122.721 204.739C122.821 204.494 122.872 204.231 122.87 203.967C122.867 203.701 122.811 203.438 122.706 203.194C122.601 202.95 122.449 202.728 122.258 202.543C122.068 202.357 121.843 202.211 121.596 202.113C121.349 202.014 121.085 201.965 120.819 201.969L120.859 201.929ZM120.859 205.592C120.534 205.594 120.215 205.5 119.944 205.321C119.672 205.142 119.46 204.887 119.334 204.587C119.209 204.287 119.175 203.956 119.238 203.637C119.301 203.318 119.457 203.025 119.687 202.795C119.917 202.565 120.21 202.409 120.529 202.346C120.848 202.283 121.179 202.317 121.479 202.442C121.779 202.568 122.034 202.78 122.213 203.052C122.392 203.323 122.486 203.642 122.484 203.967C122.487 204.186 122.447 204.405 122.364 204.608C122.282 204.812 122.16 204.997 122.004 205.152C121.849 205.307 121.664 205.43 121.46 205.512C121.257 205.595 121.038 205.635 120.819 205.632L120.859 205.592ZM89.064 192.751C88.6619 192.743 88.2666 192.855 87.9284 193.073C87.5903 193.291 87.3246 193.604 87.1652 193.973C87.0058 194.342 86.96 194.751 87.0335 195.146C87.1071 195.541 87.2967 195.906 87.5782 196.193C87.8597 196.48 88.2203 196.677 88.6141 196.758C89.0079 196.84 89.417 196.802 89.7893 196.65C90.1616 196.498 90.4802 196.239 90.7045 195.905C90.9287 195.571 91.0486 195.178 91.0486 194.776C91.0348 194.247 90.8158 193.744 90.438 193.374C90.0602 193.004 89.5531 192.795 89.024 192.791L89.064 192.751ZM89.064 196.401C88.6353 196.398 88.2254 196.225 87.9235 195.92C87.6216 195.616 87.4522 195.205 87.4522 194.776C87.4496 194.451 87.5434 194.133 87.7218 193.862C87.9003 193.591 88.1552 193.379 88.4543 193.253C88.7535 193.127 89.0833 193.092 89.402 193.154C89.7207 193.216 90.0138 193.371 90.2443 193.599C90.4748 193.828 90.6321 194.12 90.6964 194.438C90.7607 194.756 90.7291 195.086 90.6055 195.387C90.4819 195.687 90.2719 195.943 90.0022 196.124C89.7325 196.305 89.4152 196.401 89.0906 196.401H89.064ZM92.6204 177.527L92.3007 177.966C92.3073 178.019 92.3073 178.073 92.3007 178.126C92.3 178.47 92.19 178.805 91.9865 179.083C91.783 179.361 91.4966 179.567 91.1685 179.671C91.0619 179.818 90.9687 179.977 90.8755 180.124C91.3748 180.081 91.8396 179.851 92.1776 179.481C92.5156 179.111 92.7022 178.627 92.7003 178.126C92.6909 177.934 92.6505 177.745 92.5804 177.567L92.6204 177.527ZM107.272 240.956C106.872 240.956 106.481 241.075 106.148 241.298C105.815 241.52 105.555 241.836 105.402 242.206C105.249 242.576 105.209 242.983 105.287 243.376C105.365 243.769 105.558 244.13 105.841 244.413C106.124 244.696 106.485 244.889 106.877 244.967C107.27 245.045 107.677 245.005 108.047 244.852C108.417 244.698 108.733 244.439 108.956 244.106C109.178 243.773 109.297 243.382 109.297 242.981C109.287 242.453 109.071 241.951 108.695 241.58C108.319 241.209 107.814 241 107.286 240.996L107.272 240.956ZM107.272 244.619C106.839 244.616 106.424 244.442 106.118 244.136C105.811 243.829 105.638 243.415 105.634 242.981C105.638 242.549 105.812 242.136 106.119 241.831C106.425 241.527 106.84 241.356 107.272 241.356C107.486 241.354 107.698 241.395 107.896 241.476C108.094 241.557 108.274 241.677 108.425 241.828C108.577 241.979 108.696 242.159 108.777 242.357C108.858 242.555 108.899 242.767 108.897 242.981C108.903 243.197 108.865 243.413 108.787 243.614C108.709 243.816 108.591 244 108.441 244.156C108.291 244.312 108.112 244.437 107.914 244.523C107.715 244.61 107.502 244.656 107.286 244.659L107.272 244.619ZM108.764 225.625C108.498 225.623 108.235 225.674 107.988 225.774C107.742 225.874 107.518 226.022 107.329 226.209C107.139 226.395 106.989 226.618 106.885 226.863C106.782 227.108 106.728 227.371 106.726 227.636C106.704 227.917 106.739 228.199 106.831 228.465C106.923 228.732 107.069 228.976 107.259 229.183C107.45 229.39 107.682 229.555 107.94 229.668C108.198 229.781 108.476 229.839 108.758 229.839C109.039 229.839 109.318 229.781 109.575 229.668C109.833 229.555 110.065 229.39 110.256 229.183C110.447 228.976 110.592 228.732 110.684 228.465C110.776 228.199 110.812 227.917 110.789 227.636C110.789 227.371 110.736 227.109 110.635 226.864C110.533 226.619 110.383 226.396 110.195 226.209C110.007 226.023 109.784 225.875 109.538 225.774C109.292 225.674 109.029 225.623 108.764 225.625ZM108.764 229.275C108.44 229.277 108.122 229.184 107.85 229.005C107.579 228.827 107.367 228.572 107.241 228.273C107.115 227.974 107.081 227.644 107.142 227.325C107.204 227.006 107.359 226.713 107.588 226.483C107.816 226.252 108.108 226.095 108.426 226.031C108.745 225.966 109.075 225.998 109.375 226.122C109.675 226.245 109.932 226.455 110.112 226.725C110.293 226.995 110.389 227.312 110.389 227.636C110.389 228.069 110.219 228.483 109.914 228.79C109.61 229.097 109.196 229.271 108.764 229.275ZM83.5228 242.235C82.9882 242.235 82.4752 242.447 82.0959 242.823C81.7166 243.2 81.5017 243.712 81.4982 244.246C81.4929 244.651 81.6083 245.048 81.8296 245.387C82.0509 245.726 82.3681 245.992 82.7407 246.149C83.1134 246.307 83.5247 246.351 83.9221 246.274C84.3195 246.197 84.6851 246.004 84.9723 245.719C85.2594 245.434 85.4551 245.069 85.5344 244.672C85.6137 244.275 85.5731 243.864 85.4176 243.49C85.2621 243.116 84.9989 242.798 84.6614 242.574C84.324 242.351 83.9276 242.233 83.5228 242.235ZM83.5228 245.885C83.1988 245.885 82.882 245.789 82.6126 245.609C82.3432 245.429 82.1332 245.173 82.0092 244.873C81.8852 244.574 81.8527 244.245 81.916 243.927C81.9792 243.609 82.1352 243.317 82.3643 243.088C82.5935 242.859 82.8854 242.703 83.2032 242.64C83.521 242.576 83.8504 242.609 84.1498 242.733C84.4492 242.857 84.7051 243.067 84.8851 243.336C85.0651 243.606 85.1612 243.922 85.1612 244.246C85.1612 244.681 84.9886 245.098 84.6813 245.405C84.3741 245.712 83.9574 245.885 83.5228 245.885ZM85.5475 224.786C85.1476 224.789 84.7575 224.91 84.4263 225.134C84.0951 225.358 83.8377 225.675 83.6865 226.045C83.5353 226.415 83.4971 226.822 83.5767 227.214C83.6563 227.606 83.8502 227.965 84.1339 228.247C84.4175 228.529 84.7783 228.72 85.1707 228.797C85.5631 228.874 85.9695 228.833 86.3386 228.68C86.7078 228.526 87.0232 228.267 87.2451 227.934C87.467 227.601 87.5854 227.21 87.5854 226.811C87.5819 226.272 87.3656 225.757 86.9838 225.378C86.602 224.999 86.0857 224.786 85.5475 224.786ZM85.5475 228.449C85.1164 228.442 84.705 228.267 84.4014 227.961C84.0978 227.654 83.9259 227.242 83.9224 226.811C83.9225 226.486 84.0189 226.169 84.1995 225.899C84.3801 225.629 84.6368 225.419 84.9369 225.296C85.2371 225.172 85.5672 225.14 85.8854 225.205C86.2035 225.269 86.4954 225.426 86.724 225.657C86.9526 225.887 87.1076 226.181 87.1693 226.499C87.231 226.818 87.1966 227.148 87.0706 227.447C86.9445 227.746 86.7325 228.001 86.4613 228.179C86.1901 228.358 85.8721 228.452 85.5475 228.449Z" fill="white"/>
<path d="M110.922 222.428C114.978 222.058 119.057 221.986 123.123 222.215C125.135 222.362 127.119 222.601 129.144 222.881C130.143 223.014 131.142 223.121 132.141 223.227C133.189 223.361 134.25 223.361 135.298 223.227C135.391 223.227 135.418 223.361 135.298 223.374C134.33 223.607 133.346 223.767 132.354 223.854C131.387 223.92 130.417 223.92 129.45 223.854C127.399 223.72 125.361 223.507 123.31 223.361C119.181 223.054 115.051 222.761 110.896 222.761C110.736 222.748 110.722 222.442 110.922 222.428Z" fill="#263238"/>
<path d="M101.691 227.756C104.917 226.81 108.195 226.05 111.508 225.479C113.16 225.199 114.825 225.012 116.503 224.879L118.901 224.719C119.793 224.719 120.672 224.719 121.565 224.719C121.644 224.719 121.671 224.853 121.565 224.866C120.739 224.946 119.926 225.159 119.1 225.292L116.609 225.678C114.958 225.931 113.306 226.211 111.654 226.451C108.324 226.944 104.994 227.463 101.731 228.063C101.558 228.076 101.531 227.796 101.691 227.756Z" fill="#263238"/>
<path d="M91.4483 173.997C83.2032 178.978 40.2062 207.297 35.3711 221.829C28.1649 243.461 33.16 269.941 34.7184 281.622C35.411 286.724 70.6824 285.139 70.7623 279.638C70.9355 267.889 68.4713 237.653 69.6434 233.724C70.8156 229.794 92.2874 200.424 103.396 186.304C118.328 167.337 111.521 161.889 91.4483 173.997Z" fill="#F7A9A0"/>
<path d="M56 196.342L88.4076 207.385C88.4076 207.385 98.9703 195.676 110.226 180.092C121.481 164.507 108.561 163.628 96.1065 170.049C81.9584 177.563 68.5329 186.364 56 196.342Z" fill="url(#paint5_linear_434_2872)"/>
<path d="M76.8895 199.891C76.3501 199.894 75.8338 200.11 75.4523 200.492C75.0709 200.873 74.8551 201.389 74.8516 201.929C74.8526 202.18 74.9024 202.429 74.9981 202.661L75.5442 202.848C75.3526 202.58 75.2501 202.258 75.2512 201.929C75.2307 201.702 75.2576 201.474 75.3303 201.258C75.403 201.042 75.5198 200.844 75.6733 200.676C75.8268 200.508 76.0137 200.374 76.2219 200.282C76.4302 200.19 76.6553 200.143 76.8829 200.143C77.1105 200.143 77.3356 200.19 77.5438 200.282C77.7521 200.374 77.9389 200.508 78.0924 200.676C78.2459 200.844 78.3628 201.042 78.4354 201.258C78.5081 201.474 78.5351 201.702 78.5146 201.929C78.513 202.275 78.401 202.611 78.195 202.889C77.9889 203.167 77.6996 203.372 77.369 203.474L77.9152 203.66C78.22 203.486 78.4731 203.234 78.6486 202.93C78.8241 202.625 78.9158 202.28 78.9142 201.929C78.9142 201.391 78.7013 200.874 78.322 200.492C77.9427 200.111 77.4277 199.894 76.8895 199.891ZM78.5012 183.574C78.0982 183.574 77.7042 183.693 77.369 183.917C77.0339 184.141 76.7727 184.46 76.6184 184.832C76.4642 185.204 76.4238 185.614 76.5025 186.009C76.5811 186.405 76.7752 186.768 77.0602 187.053C77.3452 187.338 77.7083 187.532 78.1037 187.611C78.499 187.689 78.9088 187.649 79.2811 187.495C79.6535 187.34 79.9718 187.079 80.1958 186.744C80.4197 186.409 80.5392 186.015 80.5392 185.612C80.5357 185.072 80.3199 184.556 79.9384 184.175C79.557 183.793 79.0407 183.577 78.5012 183.574ZM78.5012 187.237C78.1766 187.237 77.8594 187.14 77.5897 186.96C77.32 186.779 77.11 186.523 76.9864 186.222C76.8628 185.922 76.8311 185.592 76.8954 185.274C76.9597 184.956 77.1171 184.664 77.3475 184.435C77.578 184.207 77.8712 184.052 78.1899 183.99C78.5086 183.928 78.8384 183.963 79.1375 184.089C79.4366 184.215 79.6916 184.427 79.87 184.698C80.0484 184.969 80.1422 185.287 80.1396 185.612C80.1396 185.826 80.0971 186.039 80.0146 186.237C79.9321 186.435 79.8113 186.615 79.6589 186.766C79.5066 186.917 79.3259 187.036 79.1272 187.117C78.9285 187.198 78.7158 187.239 78.5012 187.237ZM110.403 179.125C110.602 178.845 110.789 178.566 110.962 178.299C110.701 178.516 110.508 178.802 110.403 179.125ZM102.317 169.215C101.918 169.218 101.529 169.338 101.198 169.562C100.867 169.785 100.609 170.101 100.458 170.471C100.306 170.84 100.267 171.246 100.346 171.638C100.424 172.029 100.617 172.389 100.899 172.671C101.181 172.953 101.541 173.146 101.933 173.225C102.324 173.303 102.73 173.264 103.099 173.113C103.469 172.961 103.785 172.704 104.009 172.373C104.232 172.042 104.353 171.652 104.355 171.253C104.355 170.712 104.141 170.194 103.758 169.812C103.376 169.43 102.858 169.215 102.317 169.215ZM102.317 172.878C101.992 172.881 101.674 172.786 101.402 172.607C101.131 172.428 100.919 172.173 100.793 171.873C100.667 171.573 100.634 171.242 100.697 170.923C100.759 170.604 100.916 170.311 101.146 170.081C101.376 169.851 101.669 169.695 101.988 169.632C102.307 169.569 102.637 169.603 102.937 169.729C103.237 169.854 103.493 170.066 103.672 170.338C103.851 170.609 103.945 170.928 103.942 171.253C103.939 171.683 103.767 172.094 103.463 172.398C103.159 172.702 102.747 172.874 102.317 172.878ZM100.692 185.212C100.293 185.215 99.9035 185.335 99.5726 185.559C99.2417 185.782 98.9842 186.099 98.8327 186.468C98.6811 186.838 98.6421 187.244 98.7207 187.635C98.7992 188.027 98.9917 188.386 99.2741 188.668C99.5564 188.951 99.916 189.143 100.307 189.222C100.699 189.3 101.105 189.261 101.474 189.11C101.844 188.958 102.16 188.701 102.384 188.37C102.607 188.039 102.728 187.649 102.73 187.25C102.73 186.71 102.516 186.191 102.133 185.809C101.751 185.427 101.233 185.212 100.692 185.212ZM100.692 188.875C100.367 188.878 100.049 188.784 99.7772 188.605C99.5057 188.426 99.2937 188.17 99.168 187.87C99.0424 187.57 99.0088 187.24 99.0716 186.921C99.1344 186.602 99.2907 186.308 99.5206 186.078C99.7505 185.849 100.044 185.692 100.363 185.629C100.682 185.567 101.012 185.6 101.312 185.726C101.612 185.851 101.868 186.064 102.047 186.335C102.226 186.606 102.32 186.925 102.317 187.25C102.314 187.68 102.142 188.091 101.838 188.395C101.534 188.699 101.122 188.872 100.692 188.875ZM67.9252 191.153C67.3857 191.156 66.8694 191.372 66.488 191.754C66.1065 192.135 65.8907 192.651 65.8872 193.191C65.8898 193.59 66.0105 193.98 66.234 194.311C66.4574 194.642 66.7738 194.899 67.1432 195.051C67.5126 195.202 67.9186 195.241 68.3101 195.163C68.7016 195.084 69.0611 194.892 69.3434 194.609C69.6258 194.327 69.8183 193.967 69.8969 193.576C69.9754 193.184 69.9365 192.778 69.7849 192.409C69.6333 192.04 69.3759 191.723 69.045 191.5C68.7141 191.276 68.3245 191.156 67.9252 191.153ZM67.9252 194.816C67.6 194.819 67.2814 194.724 67.01 194.545C66.7385 194.366 66.5265 194.111 66.4008 193.811C66.2752 193.511 66.2416 193.18 66.3044 192.861C66.3672 192.542 66.5235 192.249 66.7534 192.019C66.9833 191.789 67.2765 191.633 67.5955 191.57C67.9146 191.507 68.2451 191.541 68.545 191.667C68.8449 191.792 69.1006 192.004 69.2796 192.276C69.4587 192.547 69.5528 192.866 69.5502 193.191C69.5365 193.614 69.3596 194.015 69.0567 194.31C68.7538 194.606 68.3483 194.773 67.9252 194.776V194.816ZM89.024 192.791C88.6219 192.791 88.2289 192.911 87.8952 193.135C87.5614 193.36 87.302 193.678 87.15 194.051C86.998 194.423 86.9603 194.832 87.0417 195.226C87.1231 195.62 87.32 195.98 87.6071 196.262C87.8943 196.543 88.2588 196.733 88.6541 196.806C89.0495 196.88 89.4577 196.834 89.8269 196.675C90.1961 196.515 90.5095 196.25 90.7271 195.911C90.9447 195.573 91.0566 195.178 91.0487 194.776C91.0349 194.247 90.8159 193.744 90.4381 193.374C90.0602 193.004 89.5531 192.795 89.024 192.791ZM89.024 196.441C88.5954 196.427 88.1896 196.244 87.8951 195.932C87.6007 195.62 87.4415 195.205 87.4523 194.776C87.4497 194.451 87.5435 194.133 87.7219 193.862C87.9003 193.591 88.1553 193.379 88.4544 193.253C88.7535 193.127 89.0834 193.092 89.402 193.154C89.7207 193.216 90.0139 193.371 90.2444 193.599C90.4748 193.828 90.6322 194.12 90.6965 194.438C90.7608 194.756 90.7291 195.086 90.6055 195.387C90.4819 195.687 90.272 195.943 90.0022 196.124C89.7325 196.305 89.4152 196.401 89.0906 196.401L89.024 196.441ZM90.6358 176.128C90.1619 176.206 89.731 176.449 89.4201 176.815C89.1092 177.181 88.9385 177.646 88.9385 178.126C88.9385 178.606 89.1092 179.071 89.4201 179.437C89.731 179.803 90.1619 180.046 90.6358 180.124C90.9255 180.171 91.222 180.155 91.5049 180.077C91.7878 179.998 92.0502 179.859 92.2739 179.669C92.4977 179.479 92.6774 179.243 92.8007 178.976C92.9239 178.71 92.9878 178.42 92.9878 178.126C92.9878 177.832 92.9239 177.542 92.8007 177.276C92.6774 177.009 92.4977 176.773 92.2739 176.583C92.0502 176.393 91.7878 176.254 91.5049 176.175C91.222 176.097 90.9255 176.081 90.6358 176.128ZM90.6358 179.791C90.2036 179.787 89.7903 179.613 89.4859 179.306C89.1815 179 89.0107 178.585 89.0107 178.153C89.0476 177.745 89.2354 177.367 89.5373 177.091C89.8393 176.815 90.2335 176.662 90.6424 176.662C91.0514 176.662 91.4456 176.815 91.7475 177.091C92.0494 177.367 92.2373 177.745 92.2741 178.153C92.2741 178.588 92.102 179.006 91.7951 179.316C91.4882 179.625 91.0715 179.801 90.6358 179.804V179.791Z" fill="white"/>
<path d="M90.2492 201.183C81.2522 198.681 72.3989 195.688 63.7291 192.219C63.6225 192.219 63.729 192.019 63.8223 192.059C65.9268 192.898 80.6055 197.214 90.3424 201.01C90.4623 201.05 90.3691 201.21 90.2492 201.183Z" fill="#263238"/>
<path d="M104.395 190.434C103.623 191.046 102.877 191.686 102.104 192.298L101.598 192.711C103.396 190.354 105.141 187.943 106.82 185.505C106.82 185.505 106.82 185.385 106.726 185.505C103.636 189.128 100.506 192.738 97.4023 196.401C94.2988 200.064 91.1552 203.434 88.358 207.19L86.8529 206.724C86.838 206.719 86.8223 206.717 86.8065 206.717C86.7908 206.718 86.7754 206.722 86.7611 206.729C86.7469 206.736 86.7342 206.745 86.7236 206.757C86.7131 206.769 86.705 206.782 86.6997 206.797C86.6945 206.812 86.6922 206.828 86.693 206.844C86.6939 206.859 86.6978 206.875 86.7046 206.889C86.7114 206.903 86.721 206.916 86.7327 206.927C86.7444 206.937 86.7581 206.945 86.773 206.95L88.358 207.736C88.3975 207.763 88.4438 207.777 88.4913 207.777C88.5387 207.777 88.585 207.763 88.6245 207.736C92.0203 204.438 95.1888 200.913 98.1083 197.187C98.9341 196.188 99.7467 195.162 100.546 194.137L100.732 193.99L101.505 193.351C102.531 192.498 103.49 191.593 104.422 190.687C104.529 190.474 104.462 190.38 104.395 190.434Z" fill="#263238"/>
<path d="M108.485 170.8C109.031 172.132 116.983 179.565 123.017 178.153C124.988 177.7 123.017 166.857 123.017 166.857V166.018L123.47 154.336L108.764 148.303L106.66 147.53C106.66 147.53 106.74 150.727 106.886 154.723C106.886 154.909 106.886 155.096 106.886 155.296C106.886 155.495 106.886 155.735 106.886 155.935C106.886 156.534 106.886 157.147 106.886 157.746C106.886 158.346 106.886 158.665 106.966 159.145C107.046 159.625 106.966 160.104 107.059 160.584C107.295 164.018 107.771 167.432 108.485 170.8Z" fill="#F7A9A0"/>
<path d="M106.833 154.723C108.542 157.669 110.873 160.207 113.664 162.16C116.454 164.113 119.637 165.434 122.99 166.031L123.443 154.35L108.764 148.303L106.66 147.53C106.66 147.53 106.686 150.727 106.833 154.723Z" fill="#263238"/>
<path d="M137.376 135.355C142.078 155.335 130.716 160.41 126.333 161.423C122.431 162.342 109.017 164.966 102.251 145.585C95.4842 126.205 103.29 117.693 112.134 115.122C120.979 112.552 132.66 115.389 137.376 135.355Z" fill="#F7A9A0"/>
<path d="M133.579 131.106C133.109 131.133 132.637 131.133 132.167 131.106C131.67 131.197 131.157 131.112 130.715 130.867C130.59 130.766 130.502 130.625 130.466 130.468C130.429 130.311 130.447 130.147 130.515 130.001C130.691 129.731 130.936 129.512 131.223 129.367C131.511 129.222 131.832 129.156 132.154 129.175C132.811 129.126 133.463 129.315 133.992 129.708C134.115 129.805 134.206 129.937 134.253 130.086C134.301 130.236 134.302 130.396 134.258 130.547C134.214 130.697 134.125 130.831 134.004 130.93C133.883 131.03 133.735 131.091 133.579 131.106Z" fill="#263238"/>
<path d="M120.486 134.277C120.943 134.106 121.387 133.906 121.818 133.677C122.301 133.527 122.722 133.223 123.017 132.811C123.079 132.663 123.092 132.499 123.054 132.343C123.015 132.187 122.928 132.048 122.804 131.946C122.525 131.782 122.208 131.695 121.885 131.695C121.561 131.695 121.244 131.782 120.965 131.946C120.345 132.192 119.843 132.669 119.567 133.278C119.522 133.409 119.513 133.55 119.542 133.686C119.571 133.822 119.635 133.948 119.729 134.05C119.823 134.153 119.943 134.228 120.077 134.267C120.21 134.307 120.351 134.31 120.486 134.277Z" fill="#263238"/>
<path d="M121.685 139.338C121.61 139.484 121.516 139.618 121.405 139.738C121.315 139.838 121.203 139.916 121.079 139.967C120.954 140.017 120.82 140.039 120.686 140.031C119.86 140.031 119.447 139.192 119.354 138.352C119.726 138.752 120.166 139.152 120.686 139.045C121.007 138.911 121.28 138.684 121.471 138.392C121.506 138.715 121.577 139.032 121.685 139.338Z" fill="#263238"/>
<path d="M121.325 139.152C121.296 138.763 121.379 138.375 121.565 138.033C121.669 137.849 121.811 137.689 121.981 137.563C122.15 137.437 122.344 137.348 122.55 137.3C122.764 137.258 122.985 137.267 123.195 137.324C123.406 137.382 123.6 137.488 123.762 137.633C124.039 137.893 124.253 138.211 124.388 138.566C124.465 138.779 124.527 138.997 124.575 139.218C124.673 139.657 124.673 140.112 124.575 140.55C124.528 140.216 124.438 139.889 124.309 139.578C124.204 139.288 124.075 139.007 123.922 138.739C123.616 138.193 123.163 137.78 122.71 137.913C122.257 138.046 121.938 138.486 121.871 139.112C121.805 139.763 121.805 140.419 121.871 141.07C121.544 140.481 121.358 139.824 121.325 139.152Z" fill="#263238"/>
<path d="M134.672 136.168C134.817 136.257 134.974 136.324 135.138 136.368C135.266 136.404 135.399 136.412 135.531 136.391C135.662 136.37 135.787 136.322 135.897 136.248C136.59 135.795 136.51 134.916 136.177 134.09C136.177 134.09 136.11 134.09 136.097 134.09C135.99 134.623 135.83 135.209 135.364 135.422C135.024 135.477 134.675 135.426 134.365 135.276C134.5 135.561 134.602 135.86 134.672 136.168Z" fill="#263238"/>
<path d="M134.885 135.875C134.707 135.53 134.434 135.243 134.099 135.049C133.912 134.949 133.708 134.888 133.497 134.87C133.286 134.852 133.074 134.876 132.873 134.943C132.667 135.014 132.481 135.135 132.332 135.296C132.184 135.456 132.077 135.65 132.021 135.862C131.935 136.23 131.935 136.613 132.021 136.981C132.063 137.203 132.125 137.422 132.207 137.633C132.362 138.077 132.612 138.482 132.94 138.819C132.81 138.506 132.716 138.18 132.66 137.846C132.599 137.543 132.564 137.236 132.554 136.927C132.554 136.301 132.7 135.715 133.166 135.595C133.633 135.475 134.112 135.688 134.498 136.181C134.887 136.708 135.217 137.275 135.484 137.873C135.452 137.168 135.246 136.481 134.885 135.875Z" fill="#263238"/>
<path d="M126.613 149.581C126.999 149.848 127.399 150.234 127.945 150.194C128.457 150.096 128.942 149.891 129.37 149.595C129.37 149.595 129.464 149.595 129.437 149.595C129.289 149.9 129.061 150.159 128.777 150.345C128.493 150.53 128.164 150.635 127.825 150.647C127.525 150.633 127.236 150.528 126.997 150.344C126.759 150.161 126.583 149.908 126.493 149.621C126.453 149.595 126.56 149.488 126.613 149.581Z" fill="#263238"/>
<path d="M131.155 143.347C131.155 143.347 131.914 145.306 132.141 146.265C132.141 146.358 131.928 146.451 131.608 146.544C130.82 146.885 129.954 147.003 129.104 146.886C128.254 146.769 127.452 146.42 126.786 145.878C126.768 145.861 126.756 145.837 126.753 145.812C126.751 145.787 126.757 145.761 126.772 145.74C126.786 145.719 126.808 145.704 126.832 145.698C126.857 145.691 126.883 145.694 126.906 145.705C128.321 146.258 129.877 146.337 131.342 145.932C131.342 145.652 130.01 142.602 130.089 142.562C130.849 142.454 131.621 142.454 132.381 142.562C130.929 138.419 128.824 134.57 127.452 130.387C127.452 130.241 127.612 130.147 127.679 130.267C130.061 134.354 132.029 138.669 133.553 143.148C133.726 143.681 131.581 143.414 131.155 143.347Z" fill="#263238"/>
<path d="M131.408 145.905C131.101 146.835 130.56 147.669 129.836 148.329C129.427 148.668 128.926 148.877 128.398 148.929C127.225 149.022 126.866 148.063 126.773 147.157C126.71 146.675 126.71 146.187 126.773 145.705C128.256 146.27 129.882 146.34 131.408 145.905Z" fill="#263238"/>
<path d="M129.876 148.329C129.467 148.668 128.966 148.877 128.438 148.929C127.265 149.022 126.906 148.063 126.812 147.157C127.381 146.983 127.991 147.003 128.546 147.216C129.101 147.428 129.569 147.82 129.876 148.329Z" fill="#FF9BBC"/>
<path d="M123.976 118.745C124.425 120.507 124.337 122.362 123.723 124.073C121.525 128.695 115.957 127.497 114.052 129.322C112.147 131.146 112.907 134.65 111.295 136.315C109.057 138.685 105.967 137.78 105.647 139.378C105.328 140.977 104.235 146.038 102.197 146.717C100.159 147.397 90.7423 113.564 117.369 114.55C117.369 114.55 121.019 113.058 126.693 115.882C132.953 119.012 135.697 129.295 135.697 129.295C135.697 129.295 135.564 129.162 134.658 128.362C133.326 127.23 132.86 126.178 131.928 125.445C130.436 124.3 129.623 124.739 128.092 123.621C126.433 122.261 125.038 120.609 123.976 118.745Z" fill="#263238"/>
<path d="M123.562 117.28C123.983 118.599 124.246 119.963 124.348 121.343C124.532 122.701 124.338 124.083 123.789 125.339C123.096 126.478 122.011 127.325 120.739 127.723C119.407 128.189 118.075 128.336 116.743 128.882C116.038 129.155 115.42 129.616 114.958 130.214C114.566 130.839 114.303 131.537 114.185 132.265C114.043 133.602 113.536 134.873 112.72 135.942C112.271 136.438 111.718 136.831 111.102 137.093C110.486 137.356 109.82 137.481 109.15 137.46C107.774 137.237 106.367 137.31 105.021 137.673C106.385 137.416 107.788 137.452 109.137 137.78C109.871 137.84 110.609 137.739 111.299 137.484C111.989 137.229 112.615 136.825 113.133 136.301C114.062 135.191 114.65 133.836 114.825 132.398C114.932 131.748 115.172 131.127 115.53 130.574C115.926 130.073 116.451 129.691 117.049 129.468C118.274 128.949 119.713 128.789 121.045 128.269C121.725 128.021 122.363 127.671 122.936 127.23C123.54 126.801 124.021 126.223 124.335 125.552C124.864 124.215 125.011 122.758 124.761 121.343C124.528 119.945 124.126 118.581 123.562 117.28Z" fill="#263238"/>
<path d="M124.069 118.492C124.348 119.767 124.796 120.999 125.401 122.155C125.98 123.374 126.907 124.393 128.065 125.086C128.657 125.372 129.272 125.608 129.903 125.792C130.465 125.966 130.965 126.299 131.342 126.751C131.678 127.313 132.071 127.84 132.514 128.323C132.994 128.774 133.574 129.107 134.205 129.295C133.642 128.998 133.143 128.59 132.74 128.096C132.366 127.586 132.04 127.042 131.768 126.471C131.367 125.891 130.794 125.453 130.129 125.219C129.531 125.028 128.948 124.792 128.385 124.513C127.322 123.858 126.446 122.94 125.84 121.849C125.178 120.77 124.586 119.649 124.069 118.492Z" fill="#263238"/>
<path d="M122.644 146.624C121.503 146.782 120.341 146.617 119.29 146.148C118.239 145.679 117.34 144.924 116.697 143.969C116.053 143.015 115.69 141.899 115.649 140.748C115.608 139.598 115.89 138.459 116.464 137.461C117.038 136.463 117.88 135.646 118.895 135.103C119.91 134.56 121.058 134.312 122.206 134.388C123.355 134.464 124.459 134.861 125.394 135.534C126.328 136.206 127.055 137.128 127.492 138.193C128.092 139.7 128.075 141.384 127.444 142.879C126.814 144.374 125.621 145.562 124.122 146.185C123.651 146.396 123.154 146.544 122.644 146.624ZM121.045 135.249C120.588 135.303 120.139 135.42 119.713 135.595C118.458 136.102 117.443 137.068 116.874 138.296C116.305 139.524 116.225 140.922 116.65 142.207C117.074 143.492 117.972 144.567 119.161 145.215C120.349 145.862 121.74 146.033 123.049 145.692C124.359 145.351 125.49 144.525 126.213 143.381C126.936 142.237 127.196 140.86 126.941 139.531C126.686 138.202 125.935 137.02 124.84 136.225C123.745 135.429 122.388 135.08 121.045 135.249Z" fill="#5158BB"/>
<path d="M136.003 143.014C133.659 143.228 131.301 141.03 130.675 137.886C130.339 136.386 130.474 134.818 131.062 133.397C131.301 132.785 131.683 132.24 132.177 131.806C132.67 131.373 133.261 131.064 133.899 130.907C134.544 130.789 135.209 130.832 135.834 131.031C136.458 131.231 137.025 131.582 137.482 132.052C138.616 133.116 139.378 134.517 139.653 136.048C140.346 139.378 138.907 142.495 136.443 143.028L136.003 143.014ZM134.338 131.666H134.019C133.511 131.799 133.042 132.053 132.653 132.405C132.263 132.758 131.964 133.198 131.781 133.69C131.244 134.952 131.128 136.353 131.448 137.686C132.061 140.564 134.192 142.562 136.23 142.122C138.268 141.682 139.413 139.005 138.801 136.128C138.546 134.791 137.88 133.566 136.896 132.625C136.56 132.296 136.159 132.041 135.718 131.876C135.278 131.711 134.808 131.639 134.338 131.666Z" fill="#5158BB"/>
<path d="M127.412 138.939L126.746 138.459C127.452 137.46 129.264 135.902 131.128 137.127L130.689 137.82C129.077 136.714 127.532 138.832 127.412 138.939Z" fill="#5158BB"/>
<path d="M101.345 147.423L100.546 147.25C100.626 146.877 101.412 143.574 103.117 142.815C104.822 142.055 115.637 140.311 116.104 140.231L116.237 141.043C113.093 141.563 104.675 143.014 103.45 143.561C102.224 144.107 101.545 146.518 101.345 147.423Z" fill="#5158BB"/>
<path d="M106.473 144.36C106.473 144.36 101.145 138.659 98.4813 140.657C95.8173 142.655 100.506 151.313 104.062 152.125C104.513 152.255 104.985 152.293 105.45 152.236C105.916 152.179 106.365 152.028 106.771 151.793C107.176 151.558 107.53 151.243 107.811 150.867C108.092 150.492 108.294 150.063 108.405 149.608L106.473 144.36Z" fill="#F7A9A0"/>
<path d="M99.8662 143.121C99.8662 143.121 99.8662 143.201 99.8662 143.214C102.37 143.827 103.929 145.878 105.194 147.996C105.022 147.779 104.805 147.601 104.557 147.475C104.309 147.35 104.038 147.28 103.76 147.27C103.483 147.26 103.207 147.31 102.951 147.417C102.695 147.524 102.465 147.685 102.277 147.89C102.277 147.89 102.277 148.023 102.37 148.009C102.765 147.812 103.212 147.744 103.647 147.816C104.083 147.887 104.484 148.095 104.795 148.409C105.302 148.93 105.749 149.506 106.127 150.127C106.273 150.314 106.633 150.127 106.526 149.914C106.1 146.824 103.156 142.948 99.8662 143.121Z" fill="#263238"/>
<path d="M324.548 172.012C328.318 182.921 326.347 236.681 320.766 243.101C311.122 254.21 263.157 262.122 250.689 261.243C241.685 260.603 240.952 223.387 248.891 222.175C262.211 220.164 297.948 217.114 298.681 214.969C302.464 203.687 305.128 193.271 310.256 175.489C313.892 163.088 320.393 159.971 324.548 172.012Z" fill="#F7A9A0"/>
<path d="M256.696 260.337C260.692 257.58 258.681 224.666 254.192 222.442C253.339 222.029 248.304 219.951 246.386 218.925C239.985 215.493 234.197 211.023 229.257 205.698C223.756 199.478 216.323 189.608 212.873 192.378C207.812 196.481 215.724 210.094 220.732 217.62C215.83 217.993 211.634 218.765 209.357 220.111C201.804 224.573 209.357 258.352 218.148 259.604C226.659 260.87 252.62 263.094 256.696 260.337Z" fill="#F7A9A0"/>
<path d="M228.551 220.643C231.215 224.333 225.327 225.372 225.327 225.372C225.327 225.372 234.158 225.918 235.451 230.793C236.743 235.668 229.523 236.494 229.004 236.574C229.47 236.574 237.582 237.333 238.328 242.368C239.074 247.403 231.774 247.363 231.308 247.35C231.734 247.523 237.395 249.868 237.129 253.824C236.649 260.63 222.011 255.036 217.069 257.5C217.069 257.5 217.708 259.058 217.748 259.338C217.748 259.338 206.173 258.486 203.336 254.743C200.965 251.612 204.841 248.975 204.841 248.975C204.841 248.975 200.126 247.856 199.393 243.913C199.007 241.889 201.911 239.478 201.911 239.478C200.859 239.168 199.913 238.574 199.177 237.761C198.442 236.947 197.945 235.947 197.742 234.869C197.382 232.045 200.406 230.074 200.406 230.074C200.406 230.074 197.289 227.41 197.862 224.386C198.98 218.312 222.81 212.731 228.551 220.643Z" fill="#F7A9A0"/>
<path d="M201.831 239.465C201.738 239.465 201.685 239.331 201.831 239.291C209.464 235.469 219.96 233.67 229.27 236.294C229.59 236.388 229.79 236.787 229.404 236.707C223.037 235.442 209.344 237 201.831 239.465Z" fill="#263238"/>
<path d="M225.447 225.252C225.767 225.252 225.327 225.732 225.66 225.785C226.992 226.051 234.984 228.316 235.104 231.299C235.104 233.67 232.001 235.402 230.522 235.588L226.819 236.055L230.469 236.907C232.091 237.271 233.643 237.897 235.064 238.759C235.743 239.122 236.338 239.624 236.811 240.232C237.284 240.84 237.623 241.541 237.808 242.288C237.971 242.986 237.889 243.719 237.576 244.364C237.263 245.009 236.739 245.527 236.09 245.832C234.623 246.486 233.014 246.756 231.415 246.617L226.992 246.378L231.068 248.043C232.207 248.502 233.281 249.106 234.265 249.841C235.228 250.497 235.974 251.424 236.41 252.505C236.582 252.998 236.614 253.53 236.501 254.041C236.388 254.552 236.135 255.021 235.77 255.395C234.826 256.113 233.7 256.551 232.52 256.661C229.966 256.908 227.397 256.961 224.835 256.821C223.503 256.821 222.237 256.754 220.932 256.821C219.622 256.774 218.319 257.01 217.109 257.513C218.35 257.156 219.648 257.043 220.932 257.18C222.264 257.18 223.502 257.367 224.795 257.5C227.401 257.827 230.032 257.908 232.653 257.74C234.089 257.707 235.481 257.243 236.649 256.408C237.226 255.886 237.637 255.207 237.834 254.455C238.03 253.702 238.003 252.909 237.755 252.172C237.26 250.814 236.369 249.635 235.197 248.789C234.116 247.949 232.93 247.254 231.668 246.724L231.308 248.056C233.199 248.258 235.11 247.96 236.849 247.19C237.797 246.737 238.56 245.97 239.007 245.019C239.414 244.071 239.525 243.021 239.327 242.009C239.099 241.058 238.671 240.168 238.071 239.396C237.472 238.624 236.714 237.989 235.85 237.533C234.275 236.602 232.555 235.94 230.762 235.575L230.695 236.907C232.573 236.601 236.316 235.056 236.689 231.353C236.423 226.464 227.152 225.412 225.447 225.252Z" fill="#263238"/>
<path d="M225.328 225.412C226.206 225.072 227.028 224.6 227.765 224.013C228.066 223.786 228.3 223.481 228.443 223.132C228.586 222.783 228.633 222.402 228.578 222.029C228.347 221.224 227.883 220.506 227.246 219.964C226.58 219.325 225.914 218.699 225.075 218.073C226.075 218.246 227.028 218.627 227.872 219.192C228.358 219.482 228.781 219.868 229.115 220.326C229.449 220.784 229.688 221.304 229.817 221.856C229.913 222.465 229.815 223.09 229.537 223.64C229.258 224.157 228.838 224.582 228.325 224.866C227.408 225.358 226.359 225.549 225.328 225.412Z" fill="#263238"/>
<path d="M254.325 220.084L258.867 265.905C258.867 265.905 310.749 258.206 322.31 244.007C328.145 236.841 327.705 189.954 326.147 176.181C324.588 162.408 315.344 158.998 309.91 174.21C304.475 189.421 299.44 212.225 298.308 213.557C297.176 214.889 254.325 220.084 254.325 220.084Z" fill="url(#paint6_linear_434_2872)"/>
<path d="M268.085 258.712C267.179 252.865 264.302 228.782 264.089 223.547C264.089 223.188 264.302 223.081 264.369 223.454C266.493 235.085 267.828 246.847 268.365 258.659C268.325 258.845 268.112 258.898 268.085 258.712Z" fill="#37474F"/>
<path d="M360.339 270.074C360.126 270.287 273.133 268.103 272.361 267.157C271.282 265.825 287.466 181.389 302.57 162.701C306.34 158.026 318.461 157.373 324.069 161.956C351.801 184.44 361.099 269.261 360.339 270.074Z" fill="url(#paint7_linear_434_2872)"/>
<path d="M306.513 174.703C310.202 175.435 318.94 169.654 322.83 164.26C323.096 163.887 323.003 159.638 323.136 154.456C323.243 151.326 323.416 147.796 323.815 144.653L303.236 147.01C303.879 151.125 304.013 155.304 303.636 159.451C303.586 159.905 303.488 160.351 303.343 160.783C303.343 160.783 303.343 160.917 303.343 160.996C302.623 163.381 300.745 173.571 306.513 174.703Z" fill="#F7A9A0"/>
<path d="M303.396 160.743C303.396 160.81 303.396 160.863 303.396 160.957C304.065 161.128 304.747 161.248 305.434 161.316C316.796 162.462 321.272 149.008 322.377 144.826L303.236 147.01C303.881 151.129 304.024 155.311 303.663 159.465C303.603 159.897 303.514 160.324 303.396 160.743Z" fill="#263238"/>
<path d="M327.519 117.773C329.663 124.899 325.854 145.452 320.779 150.021C313.426 156.681 301.398 157.254 295.777 148.422C290.329 139.844 295.777 113.151 301.438 108.995C309.776 102.868 324.335 107.237 327.519 117.773Z" fill="#F7A9A0"/>
<path d="M308.564 129.188C308.564 129.188 308.658 129.268 308.644 129.335C308.338 130.667 308.205 132.332 309.377 133.038C307.885 132.598 308.071 130.44 308.564 129.188Z" fill="#263238"/>
<path d="M310.096 127.976C312.361 128.243 311.668 132.731 309.577 132.492C307.486 132.252 308.205 127.763 310.096 127.976Z" fill="#263238"/>
<path d="M300.399 127.643C300.399 127.643 300.279 127.643 300.279 127.75C300.106 129.082 299.68 130.72 298.348 130.987V131.066C299.919 131.093 300.466 129.002 300.399 127.643Z" fill="#263238"/>
<path d="M299.374 126.005C297.162 125.485 296.31 130.001 298.348 130.427C300.386 130.853 301.238 126.431 299.374 126.005Z" fill="#263238"/>
<path d="M312.187 126.205C311.626 125.941 311.079 125.647 310.549 125.326C309.92 125.097 309.386 124.666 309.03 124.1C308.957 123.903 308.95 123.687 309.01 123.485C309.07 123.283 309.194 123.107 309.363 122.981C309.739 122.783 310.161 122.69 310.585 122.711C311.009 122.732 311.42 122.867 311.774 123.101C312.568 123.458 313.2 124.1 313.546 124.899C313.61 125.087 313.619 125.288 313.573 125.481C313.526 125.673 313.425 125.848 313.283 125.985C313.14 126.122 312.961 126.216 312.767 126.255C312.573 126.294 312.372 126.276 312.187 126.205Z" fill="#263238"/>
<path d="M298.081 124.007C298.706 123.978 299.328 123.915 299.946 123.82C300.608 123.847 301.26 123.65 301.797 123.261C301.944 123.109 302.035 122.912 302.057 122.702C302.079 122.492 302.03 122.281 301.917 122.102C301.643 121.778 301.288 121.532 300.888 121.39C300.488 121.247 300.057 121.212 299.64 121.29C298.77 121.323 297.944 121.679 297.322 122.289C297.187 122.436 297.099 122.618 297.066 122.815C297.034 123.012 297.06 123.213 297.14 123.396C297.221 123.578 297.353 123.733 297.52 123.841C297.687 123.95 297.882 124.007 298.081 124.007Z" fill="#263238"/>
<path d="M307.073 137.913C306.635 138.411 306.099 138.812 305.498 139.092C304.898 139.372 304.245 139.524 303.583 139.538C303.004 139.562 302.425 139.499 301.864 139.351C301.755 139.338 301.648 139.311 301.545 139.272L301.252 139.178C301.179 139.152 301.118 139.102 301.077 139.037C301.036 138.972 301.018 138.895 301.025 138.819C301.019 138.774 301.019 138.73 301.025 138.685V138.566C301.158 137.487 301.518 135.902 301.518 135.902C301.092 136.035 298.961 136.634 299.081 136.075C299.93 131.262 301.269 126.549 303.077 122.009C303.082 121.993 303.09 121.979 303.101 121.966C303.112 121.953 303.125 121.943 303.14 121.936C303.155 121.928 303.171 121.924 303.187 121.923C303.204 121.922 303.221 121.924 303.236 121.929C303.252 121.934 303.267 121.942 303.279 121.953C303.292 121.964 303.302 121.977 303.309 121.992C303.317 122.007 303.321 122.023 303.322 122.04C303.324 122.056 303.322 122.073 303.316 122.089C302.544 126.538 300.999 130.827 300.146 135.276C300.91 135.062 301.698 134.95 302.49 134.943C302.637 134.943 301.745 138.059 301.731 138.539C302.596 138.762 303.497 138.808 304.381 138.675C305.264 138.542 306.111 138.233 306.873 137.766C307.073 137.7 307.232 137.82 307.073 137.913Z" fill="#263238"/>
<path d="M302.583 138.912C303.057 139.766 303.74 140.485 304.568 141.003C305.029 141.264 305.56 141.376 306.087 141.323C307.246 141.203 307.419 140.191 307.419 139.285C307.371 138.805 307.273 138.332 307.126 137.873C305.764 138.702 304.17 139.066 302.583 138.912Z" fill="#263238"/>
<path d="M304.568 141.003C305.029 141.264 305.56 141.376 306.087 141.323C307.246 141.203 307.419 140.191 307.419 139.285C306.819 139.205 306.21 139.332 305.692 139.644C305.174 139.956 304.778 140.436 304.568 141.003Z" fill="#FF9BBC"/>
<path d="M320.938 128.176C319.606 124.073 322.177 117.334 320.193 115.455C315.904 111.459 306.713 118.719 300.532 118.599C294.352 118.479 292.647 114.603 293.872 109.754C295.098 104.906 299.293 101.762 306.033 100.95C311.918 100.43 317.798 101.985 322.657 105.346C322.657 105.346 321.205 102.895 321.791 102.149C322.377 101.403 325.241 103.814 326.12 104.813C326.735 105.697 327.186 106.685 327.452 107.73C328.348 107.53 329.267 107.459 330.183 107.517C331.517 107.652 332.761 108.25 333.699 109.208C333.792 109.568 331.608 109.781 330.076 109.821C330.076 109.821 332.82 113.671 332.673 116.907C332.527 120.144 327.092 135.382 325.88 135.555C324.362 135.715 321.458 129.841 320.938 128.176Z" fill="#263238"/>
<path d="M329.543 109.435C329.543 109.435 329.41 109.435 329.463 109.528C330.917 110.761 331.996 112.376 332.58 114.19C333.134 116.381 333.092 118.68 332.46 120.85C331.408 125.072 329.224 128.842 327.319 132.758C327.319 132.865 327.452 132.958 327.519 132.851C330.025 128.895 331.899 124.571 333.073 120.037C333.872 116.188 333.1 111.699 329.543 109.435Z" fill="#263238"/>
<path d="M318.994 103.561C316.604 102.284 314.042 101.36 311.388 100.817C308.855 100.213 306.237 100.051 303.649 100.337C299.2 100.95 295.044 103.667 293.885 108.196C293.256 110.515 293.517 112.986 294.618 115.122C294.624 115.138 294.633 115.153 294.645 115.165C294.657 115.177 294.671 115.186 294.686 115.192C294.702 115.199 294.719 115.202 294.736 115.201C294.753 115.2 294.769 115.196 294.784 115.188C294.799 115.181 294.813 115.17 294.823 115.157C294.834 115.144 294.842 115.129 294.846 115.113C294.851 115.096 294.852 115.079 294.849 115.063C294.846 115.046 294.84 115.03 294.831 115.016C293.945 113.048 293.717 110.847 294.183 108.74C294.648 106.632 295.782 104.732 297.415 103.321C301.132 100.257 306.246 100.151 310.735 100.99C313.56 101.588 316.315 102.481 318.954 103.654C318.954 103.654 319.007 103.561 318.994 103.561Z" fill="#263238"/>
<path d="M323.07 134.516C323.07 134.516 327.878 127.976 330.862 129.694C333.845 131.413 330.116 140.99 326.546 142.229C326.098 142.418 325.617 142.514 325.131 142.513C324.646 142.512 324.165 142.412 323.719 142.221C323.272 142.029 322.869 141.749 322.533 141.398C322.197 141.047 321.936 140.632 321.764 140.177L323.07 134.516Z" fill="#F7A9A0"/>
<path d="M329.716 132.412V132.505C327.212 133.464 325.84 135.728 324.881 138.099C325.03 137.854 325.231 137.644 325.47 137.483C325.708 137.323 325.978 137.216 326.262 137.171C326.546 137.125 326.836 137.142 327.113 137.219C327.39 137.297 327.646 137.433 327.865 137.62C327.931 137.62 327.865 137.766 327.798 137.753C327.363 137.604 326.893 137.593 326.452 137.721C326.011 137.85 325.62 138.113 325.334 138.472C324.867 139.079 324.461 139.73 324.122 140.417C324.002 140.644 323.602 140.51 323.696 140.257C323.749 137.034 326.32 132.652 329.716 132.412Z" fill="#263238"/>
<path d="M314.851 192.259C305.234 191.699 253.992 186.757 242.923 176.155C226.446 160.397 218.508 134.65 214.432 123.594C212.66 118.772 244.628 103.694 247.199 108.502C252.847 118.825 264.795 146.704 267.672 149.635C270.549 152.565 302.53 165.046 318.941 172.372C340.959 182.202 338.201 193.604 314.851 192.259Z" fill="#F7A9A0"/>
<path d="M246.893 111.313C246.893 111.313 247.905 97.207 246.147 89.6412C244.112 81.8177 240.208 74.6049 234.771 68.6223C228.937 62.1354 210.329 50.5071 206.04 55.3023C202.164 59.618 221.784 70.5404 221.784 70.5404C221.784 70.5404 203.616 56.1015 199.9 62.1754C196.183 68.2493 219.693 79.6113 219.693 79.6113C219.693 79.6113 200.672 65.1857 197.848 72.0455C195.704 77.227 216.403 88.7355 216.403 88.7355C216.403 88.7355 199.993 76.4544 197.555 81.6892C194.891 87.4834 213.313 99.2982 213.313 99.2982C209.317 113.644 213.539 124.167 217.402 128.029C218.548 129.175 246.893 111.313 246.893 111.313Z" fill="#FFC7BE"/>
<path d="M228.391 75.1224C226.313 73.3509 224.222 71.5394 222.011 69.9543C219.8 68.3692 217.495 66.904 215.138 65.572C212.09 63.7204 208.841 62.2233 205.454 61.1098C211.315 63.5207 219.373 69.1018 221.598 70.6469C223.822 72.192 226.113 73.6972 228.325 75.269L228.391 75.1224Z" fill="#263238"/>
<path d="M222.81 83.2476C220.066 81.1031 217.482 78.8654 214.592 76.8407C211.701 74.8161 208.904 73.1511 205.947 71.3396C205.721 71.193 205.721 71.3396 205.947 71.5127C208.838 73.4441 211.355 75.5087 214.206 77.4268C217.056 79.3449 220.013 81.263 222.784 83.3276C222.81 83.3542 222.864 83.2876 222.81 83.2476Z" fill="#263238"/>
<path d="M219.32 91.0931C215.197 87.6934 210.733 84.7294 206 82.2486C205.76 82.1154 205.787 82.3419 206 82.4884C210.489 85.3389 213.992 87.55 219.2 91.2263C219.32 91.2929 219.32 91.1597 219.32 91.0931Z" fill="#263238"/>
<path d="M211.328 131.666L249.956 111.273C249.956 111.273 264.861 144.959 267.978 148.316C271.095 151.672 317.995 169.468 328.544 177.114C339.094 184.759 336.163 192.458 322.337 193.204C308.511 193.95 253.899 186.851 244.002 178.885C234.105 170.92 211.328 131.666 211.328 131.666Z" fill="url(#paint8_linear_434_2872)"/>
<path d="M250.942 122.142C245.8 125.086 224.302 136.368 219.547 138.499C219.214 138.646 219.041 138.499 219.36 138.273C229.458 132.117 239.965 126.661 250.809 121.942C250.942 121.889 251.062 122.062 250.942 122.142Z" fill="#37474F"/>
<path d="M215.71 44.1534C216.569 39.096 217.685 34.0856 219.054 29.1418C220.386 24.2001 221.838 19.285 223.676 14.4898C222.85 19.578 221.638 24.5464 220.332 29.5014C219.027 34.4565 217.535 39.3449 215.71 44.1534Z" fill="#263238"/>
<path d="M187.352 47.8697C184.342 43.7006 181.678 39.3183 179.107 34.896C176.537 30.4738 174.112 25.9583 172.008 21.2564C175.018 25.4255 177.682 29.8078 180.253 34.23C182.824 38.6523 185.208 43.1811 187.352 47.8697Z" fill="#263238"/>
<path d="M169.863 70.5803C164.788 69.7545 159.806 68.5424 154.851 67.237C149.896 65.9316 144.994 64.4531 140.199 62.615C145.257 63.472 150.267 64.5879 155.211 65.9583C160.139 67.3036 165.054 68.7422 169.863 70.5803Z" fill="#263238"/>
<path d="M165.654 103.547C162.818 105.747 159.831 107.745 156.716 109.528C153.608 111.361 150.372 112.968 147.033 114.337C149.895 112.139 152.908 110.145 156.05 108.369C159.138 106.545 162.347 104.934 165.654 103.547Z" fill="#263238"/>
<path d="M251.754 92.5716C255.194 93.0196 258.599 93.705 261.944 94.6229C265.307 95.4967 268.601 96.614 271.801 97.9662C268.354 97.5344 264.944 96.8488 261.598 95.915C258.239 95.0427 254.949 93.9252 251.754 92.5716Z" fill="#263238"/>
<path d="M238.421 61.576C242.59 58.5657 246.959 55.9017 251.395 53.3176C255.82 50.7294 260.372 48.3644 265.034 46.2314C260.865 49.2417 256.483 51.9057 252.061 54.4764C247.638 57.0472 243.11 59.4981 238.421 61.576Z" fill="#263238"/>
<path d="M156.316 60.1641C158.46 60.5874 160.548 61.2579 162.537 62.1621C164.549 63.012 166.457 64.089 168.224 65.3722C166.096 64.9462 164.023 64.2804 162.044 63.3875C160.015 62.5419 158.092 61.4599 156.316 60.1641Z" fill="#263238"/>
<path d="M234.332 16.5411C233.12 19.5381 231.788 22.4818 230.429 25.4122C229.071 28.3426 227.659 31.233 226.22 34.1102C224.782 36.9873 223.29 39.8644 221.731 42.6882L219.387 46.924C218.561 48.256 217.789 49.7212 216.923 51.0932C217.509 49.588 218.175 48.1095 218.801 46.6176L220.812 42.222C222.144 39.2916 223.596 36.4012 225.035 33.5108C226.473 30.6203 227.965 27.7698 229.524 24.946C231.082 22.1222 232.64 19.2983 234.332 16.5411Z" fill="#263238"/>
<path d="M247.732 68.1294C252.9 67.1438 258.122 66.571 263.343 66.0915C268.564 65.612 273.799 65.3056 279.061 65.3722C273.892 66.3579 268.671 66.944 263.45 67.4102C258.228 67.8764 252.993 68.236 247.732 68.1294Z" fill="#263238"/>
<path d="M161.165 99.6978C157.076 101.455 152.891 102.98 148.631 104.267C144.387 105.616 140.068 106.719 135.697 107.57C143.904 104.107 152.436 101.47 161.165 99.6978Z" fill="#263238"/>
</g>
<defs>
<linearGradient id="paint0_linear_434_2872" x1="161.172" y1="102.602" x2="161.172" y2="181.428" gradientUnits="userSpaceOnUse">
<stop stop-color="#F7A9A0"/>
<stop offset="1" stop-color="#F7A9A0"/>
</linearGradient>
<linearGradient id="paint1_linear_434_2872" x1="144.897" y1="152" x2="144.897" y2="183.386" gradientUnits="userSpaceOnUse">
<stop stop-color="#5158BB"/>
<stop offset="1" stop-color="#4BCB87"/>
</linearGradient>
<linearGradient id="paint2_linear_434_2872" x1="177.117" y1="78.4126" x2="177.117" y2="113.351" gradientUnits="userSpaceOnUse">
<stop stop-color="#F7A9A0"/>
<stop offset="1" stop-color="#F7A9A0"/>
</linearGradient>
<linearGradient id="paint3_linear_434_2872" x1="177.117" y1="78.4126" x2="177.117" y2="113.351" gradientUnits="userSpaceOnUse">
<stop stop-color="#F7A9A0"/>
<stop offset="1" stop-color="#F7A9A0"/>
</linearGradient>
<linearGradient id="paint4_linear_434_2872" x1="105.699" y1="165.235" x2="105.699" y2="247.624" gradientUnits="userSpaceOnUse">
<stop stop-color="#5158BB"/>
<stop offset="1" stop-color="#4BCB87"/>
</linearGradient>
<linearGradient id="paint5_linear_434_2872" x1="85.2702" y1="166.295" x2="85.2702" y2="207.385" gradientUnits="userSpaceOnUse">
<stop stop-color="#5158BB"/>
<stop offset="1" stop-color="#4BCB87"/>
</linearGradient>
<linearGradient id="paint6_linear_434_2872" x1="290.741" y1="164.234" x2="290.741" y2="265.905" gradientUnits="userSpaceOnUse">
<stop stop-color="#263238"/>
<stop offset="1" stop-color="#70C6A0"/>
</linearGradient>
<linearGradient id="paint7_linear_434_2872" x1="316.346" y1="158.837" x2="316.346" y2="270.089" gradientUnits="userSpaceOnUse">
<stop offset="0.205" stop-color="#0F264C"/>
<stop offset="0.705" stop-color="#5158BB"/>
</linearGradient>
<linearGradient id="paint8_linear_434_2872" x1="273.114" y1="111.273" x2="273.114" y2="193.258" gradientUnits="userSpaceOnUse">
<stop stop-color="#263238"/>
<stop offset="1" stop-color="#70C6A0"/>
</linearGradient>
<clipPath id="clip0_434_2872">
<rect width="412" height="242" fill="white"/>
</clipPath>
</defs>
</svg>
