<svg width="372" height="213" viewBox="0 0 372 213" fill="none" xmlns="http://www.w3.org/2000/svg">
<g clip-path="url(#clip0_1827_7390)">
<rect width="372" height="213" rx="20" fill="#F2F3FF"/>
<path d="M54.495 37.2658L56.539 36.0857L50.3694 25.3997C47.3715 20.2073 40.6798 18.4611 35.4189 21.4985L19.2836 30.8142L25.1916 41.0471C26.0305 42.5002 25.517 44.3676 24.0448 45.2176C22.5725 46.0676 20.6985 45.5786 19.8596 44.1255L13.9516 33.8927L-28.4764 58.3885C-33.7373 61.4259 -35.571 68.0941 -32.5731 73.2866L-26.4035 83.9726L-24.3596 82.7925C-20.171 80.3743 -14.8419 81.7649 -12.455 85.8989C-10.0682 90.033 -11.5285 95.3435 -15.7171 97.7618L-17.7611 98.9418L-11.5915 109.628C-8.5936 114.82 -1.90194 116.566 3.35899 113.529L45.7841 89.0349L39.8761 78.8021C39.0372 77.349 39.5507 75.4815 41.0229 74.6315C42.4952 73.7815 44.3692 74.2706 45.2081 75.7236L51.1161 85.9565L67.2514 76.6408C72.5123 73.6034 74.3459 66.9352 71.3481 61.7427L65.1785 51.0567L63.1345 52.2368C58.9459 54.655 53.6168 53.2644 51.23 49.1304C48.8461 44.9946 50.3064 39.6841 54.495 37.2658ZM38.2625 63.6729C39.0896 65.1055 38.5503 66.9762 37.0988 67.8142C35.6177 68.6694 33.7606 68.1823 32.9335 66.7497L26.823 56.166C25.9958 54.7334 26.5026 52.8815 27.9837 52.0264C29.4352 51.1884 31.3249 51.6566 32.152 53.0892L38.2625 63.6729Z" fill="url(#paint0_linear_1827_7390)" style="mix-blend-mode:darken"/>
<path d="M323.69 79.0375L321.64 77.4827L313.746 87.892C309.91 92.95 311.078 100.291 316.355 104.293L332.539 116.566L340.098 106.598C341.172 105.183 343.24 104.943 344.716 106.063C346.193 107.183 346.52 109.239 345.447 110.654L337.888 120.622L380.445 152.896C385.722 156.898 393.106 156.042 396.942 150.984L404.836 140.575L402.786 139.02C398.584 135.834 397.654 129.988 400.708 125.961C403.762 121.934 409.642 121.253 413.844 124.439L415.894 125.993L423.788 115.584C427.624 110.526 426.456 103.185 421.179 99.1836L378.624 66.9118L371.065 76.8797C369.991 78.2951 367.923 78.5348 366.447 77.4149C364.97 76.295 364.643 74.2392 365.716 72.8238L373.276 62.8559L357.091 50.5822C351.814 46.5803 344.43 47.436 340.595 52.494L332.701 62.9033L334.751 64.4581C338.952 67.6443 339.882 73.4903 336.828 77.5174C333.771 81.5421 327.891 82.2236 323.69 79.0375ZM356.809 84.5506C357.867 83.1551 359.95 82.9398 361.405 84.0439C362.891 85.1706 363.213 87.2088 362.154 88.6043L354.336 98.914C353.278 100.309 351.228 100.55 349.743 99.423C348.287 98.3188 347.932 96.2558 348.991 94.8603L356.809 84.5506Z" fill="url(#paint1_linear_1827_7390)" style="mix-blend-mode:darken"/>
</g>
<defs>
<linearGradient id="paint0_linear_1827_7390" x1="123" y1="-42" x2="-21.4161" y2="81.7579" gradientUnits="userSpaceOnUse">
<stop stop-color="#5158BB"/>
<stop offset="1" stop-color="white"/>
</linearGradient>
<linearGradient id="paint1_linear_1827_7390" x1="291.5" y1="12" x2="349.298" y2="149.392" gradientUnits="userSpaceOnUse">
<stop stop-color="#5158BB"/>
<stop offset="1" stop-color="white"/>
</linearGradient>
<clipPath id="clip0_1827_7390">
<rect width="372" height="213" rx="20" fill="white"/>
</clipPath>
</defs>
</svg>
