<svg width="64" height="75" viewBox="0 0 64 75" fill="none" xmlns="http://www.w3.org/2000/svg">
<path d="M62.3741 51.5554C62.1017 51.2272 61.8343 50.8991 61.5718 50.5825C57.9624 46.2168 55.7788 43.5819 55.7788 31.2231C55.7788 24.8247 54.2481 19.5747 51.231 15.6372C49.0063 12.7283 45.999 10.5217 42.0353 8.89092C41.9842 8.86255 41.9387 8.82533 41.9007 8.781C40.475 4.00678 36.5736 0.809204 32.1735 0.809204C27.7733 0.809204 23.8735 4.00678 22.4478 8.77608C22.4098 8.81878 22.3649 8.85482 22.3149 8.88272C13.0651 12.6906 8.56979 19.9963 8.56979 31.2182C8.56979 43.5819 6.3894 46.2168 2.77674 50.5776C2.51424 50.8942 2.24682 51.2158 1.97448 51.5504C1.27098 52.3989 0.825255 53.431 0.690055 54.5249C0.554855 55.6187 0.735838 56.7283 1.21159 57.7225C2.22385 59.8553 4.38127 61.1793 6.84385 61.1793H57.5211C59.9722 61.1793 62.1149 59.8569 63.1304 57.734C63.6082 56.7396 63.7909 55.629 63.6569 54.5339C63.5228 53.4389 63.0776 52.4052 62.3741 51.5554Z" fill="url(#paint0_linear_676_3094)"/>
<path d="M32.1735 74.3092C34.5442 74.3073 36.8703 73.6637 38.9049 72.4468C40.9395 71.2299 42.6068 69.4851 43.73 67.3972C43.7829 67.2972 43.8091 67.1852 43.8059 67.072C43.8027 66.9589 43.7703 66.8485 43.7119 66.7515C43.6534 66.6546 43.5709 66.5745 43.4723 66.5189C43.3737 66.4632 43.2624 66.4341 43.1492 66.4342H21.201C21.0876 66.4338 20.9761 66.4628 20.8773 66.5183C20.7785 66.5737 20.6958 66.6539 20.6371 66.7508C20.5785 66.8478 20.5459 66.9583 20.5427 67.0716C20.5394 67.1849 20.5656 67.2971 20.6185 67.3972C21.7416 69.4848 23.4087 71.2295 25.443 72.4464C27.4773 73.6633 29.803 74.307 32.1735 74.3092Z" fill="url(#paint1_linear_676_3094)"/>
<defs>
<linearGradient id="paint0_linear_676_3094" x1="9.05014" y1="0.988139" x2="59.525" y2="57.2081" gradientUnits="userSpaceOnUse">
<stop stop-color="white"/>
<stop offset="1" stop-color="#E8E8E8"/>
</linearGradient>
<linearGradient id="paint1_linear_676_3094" x1="9.05014" y1="0.988139" x2="59.525" y2="57.2081" gradientUnits="userSpaceOnUse">
<stop stop-color="white"/>
<stop offset="1" stop-color="#E8E8E8"/>
</linearGradient>
</defs>
</svg>
