<svg width="44" height="44" viewBox="0 0 44 44" fill="none" xmlns="http://www.w3.org/2000/svg">
<rect width="44" height="44" rx="22" fill="#5158BB"/>
<path fill-rule="evenodd" clip-rule="evenodd" d="M29.3479 13.0401C29.3028 12.9549 29.2346 12.8852 29.1501 12.8397C27.1476 11.7655 15.1677 15.5088 12.0688 17.3107C11.2615 17.7801 10.9015 18.3317 11.0004 18.9472C11.2855 20.7297 16.05 22.0807 18.6352 22.6855L23.49 17.7926C23.7712 17.5091 24.2272 17.5091 24.5085 17.7926C24.7898 18.0762 24.7898 18.5359 24.5085 18.8194L19.6068 23.7588C20.2221 26.392 21.5479 31.0517 23.2884 31.3342C23.3536 31.3449 23.4189 31.3507 23.4832 31.3507C24.0151 31.3507 24.4951 30.983 24.9108 30.2571C26.6983 27.1362 30.4144 15.0617 29.3479 13.0401Z" fill="white"/>
</svg>
