<svg width="18" height="18" viewBox="0 0 18 18" fill="none" xmlns="http://www.w3.org/2000/svg">
<path d="M4.65694 0.825122C3.94228 1.01857 2.8999 1.55568 2.01725 3.01997C-0.31412 6.88767 1.46321 11.7909 3.90532 14.233C6.34742 16.6751 11.2474 18.4467 15.1183 16.121C16.6499 15.2008 17.1729 14.1469 17.3446 13.4397C17.4663 12.9386 17.1508 12.4821 16.7005 12.2308L13.7935 10.6083C12.9829 10.1559 11.9588 10.453 11.5162 11.269L10.934 12.3424C10.6998 12.7741 10.288 13.091 9.81193 13.1409C9.68846 13.1539 9.56438 13.1307 9.44528 13.0956C7.3439 12.4764 6.21052 11.3032 5.24219 8.86572C5.17456 8.69547 5.12933 8.51236 5.16292 8.33226C5.23902 7.92429 5.51001 7.56955 5.87424 7.34505L6.99344 6.65521C7.75313 6.18695 8.00919 5.20339 7.57427 4.42414L5.92948 1.47716C5.66583 1.00477 5.17913 0.683769 4.65694 0.825122Z" stroke="#16151C" stroke-width="1.25" stroke-linecap="round" stroke-linejoin="round"/>
</svg>
