<svg width="66" height="58" viewBox="0 0 66 58" fill="none" xmlns="http://www.w3.org/2000/svg">
<path d="M59.4857 22.1406C59.3824 22.1115 59.2803 22.0764 59.18 22.0353C54.875 20.1803 49.52 21.5803 46.72 25.3253C46.23 25.9903 45.285 26.3403 44.62 26.3753C43.78 26.3753 43.01 25.9903 42.52 25.3253C40.525 22.6653 37.48 21.1603 34.19 21.1603C28.5357 21.1603 23.9128 25.7674 23.8311 31.4717C23.8307 31.5112 23.8304 31.5508 23.8304 31.5904C23.8304 40.6904 29.0453 47.1654 33.4553 51.0504C37.3403 54.4804 41.4353 56.6154 43.9903 57.4554C44.2703 57.5604 44.9353 57.5604 45.1803 57.4554C50.4303 55.6704 65.3753 47.0954 65.3753 31.5904C65.3753 27.5397 63.058 23.8531 59.4857 22.1406Z" fill="url(#paint0_linear_715_4280)"/>
<path d="M15.36 0.475343C7.23997 0.475343 0.625 7.12531 0.625 15.3153C0.625 33.6203 15.85 44.8904 24.6 49.2304C21.275 44.7854 18.545 38.9053 18.545 31.5903C18.545 22.9103 25.545 15.8753 34.155 15.8753L34.2176 15.8754L34.2253 15.8754C38.1292 15.8754 41.7901 17.2987 44.6203 19.834C48.1535 16.7059 53.1756 15.2832 57.85 16.1553V15.3503C57.85 7.16034 51.235 0.510273 43.115 0.510273C38.46 0.510273 34.155 2.68027 31.32 6.42527C30.83 7.09027 30.06 7.47534 29.22 7.47534C28.38 7.47534 27.61 7.09027 27.12 6.42527C24.355 2.64527 20.05 0.475343 15.36 0.475343Z" fill="url(#paint1_linear_715_4280)"/>
<path fill-rule="evenodd" clip-rule="evenodd" d="M59.4857 22.1406C59.3824 22.1115 59.2803 22.0764 59.18 22.0353C54.875 20.1803 49.52 21.5803 46.72 25.3253C46.23 25.9903 45.285 26.3403 44.62 26.3753C43.78 26.3753 43.01 25.9903 42.52 25.3253C40.525 22.6653 37.48 21.1603 34.19 21.1603C28.5357 21.1603 23.9128 25.7674 23.8311 31.4717C23.8944 25.7512 28.5245 21.1254 34.1903 21.1254C37.4803 21.1254 40.5253 22.6304 42.5203 25.2904C43.0103 25.9554 43.7803 26.3404 44.6203 26.3404C45.2853 26.3054 46.2303 25.9554 46.7203 25.2904C49.5203 21.5454 54.9453 20.1454 59.1803 22.0004C59.2831 22.0455 59.3849 22.0922 59.4857 22.1406ZM34.2176 15.8754C38.1141 15.8906 41.7651 17.324 44.585 19.8654L44.6203 19.834C41.7901 17.2987 38.1292 15.8754 34.2253 15.8754L34.2176 15.8754Z" fill="url(#paint2_linear_715_4280)"/>
<defs>
<linearGradient id="paint0_linear_715_4280" x1="5.40895" y1="-4.61021" x2="49.0537" y2="58.5456" gradientUnits="userSpaceOnUse">
<stop stop-color="white"/>
<stop offset="1" stop-color="#E8E8E8"/>
</linearGradient>
<linearGradient id="paint1_linear_715_4280" x1="5.40895" y1="-4.61021" x2="49.0537" y2="58.5456" gradientUnits="userSpaceOnUse">
<stop stop-color="white"/>
<stop offset="1" stop-color="#E8E8E8"/>
</linearGradient>
<linearGradient id="paint2_linear_715_4280" x1="5.40895" y1="-4.61021" x2="49.0537" y2="58.5456" gradientUnits="userSpaceOnUse">
<stop stop-color="white"/>
<stop offset="1" stop-color="#E8E8E8"/>
</linearGradient>
</defs>
</svg>
