<svg width="23" height="19" viewBox="0 0 23 19" fill="none" xmlns="http://www.w3.org/2000/svg">
<path fill-rule="evenodd" clip-rule="evenodd" d="M13.5996 5.171C13.1856 5.171 12.8496 4.835 12.8496 4.421V2C12.8496 1.586 13.1856 1.25 13.5996 1.25C14.0136 1.25 14.3496 1.586 14.3496 2V4.421C14.3496 4.835 14.0136 5.171 13.5996 5.171Z" fill="#5158BB" stroke="#5158BB" stroke-width="0.3"/>
<path fill-rule="evenodd" clip-rule="evenodd" d="M13.5996 18.2842C13.1856 18.2842 12.8496 17.9482 12.8496 17.5342V15.5112C12.8496 15.0962 13.1856 14.7612 13.5996 14.7612C14.0136 14.7612 14.3496 15.0962 14.3496 15.5112V17.5342C14.3496 17.9482 14.0136 18.2842 13.5996 18.2842Z" fill="#5158BB" stroke="#5158BB" stroke-width="0.3"/>
<path fill-rule="evenodd" clip-rule="evenodd" d="M13.5996 12.8252C13.1856 12.8252 12.8496 12.4892 12.8496 12.0752V7.25415C12.8496 6.84015 13.1856 6.50415 13.5996 6.50415C14.0136 6.50415 14.3496 6.84015 14.3496 7.25415V12.0752C14.3496 12.4892 14.0136 12.8252 13.5996 12.8252Z" fill="#5158BB" stroke="#5158BB" stroke-width="0.3"/>
<path fill-rule="evenodd" clip-rule="evenodd" d="M2.5 12.5538V14.4928C2.5 15.8748 3.643 16.9998 5.048 16.9998H18.452C19.857 16.9998 21 15.8748 21 14.4928V12.5538C19.749 12.2248 18.823 11.0928 18.823 9.75076C18.823 8.40776 19.748 7.27676 21 6.94776L20.999 5.00676C20.999 3.62476 19.856 2.49976 18.451 2.49976H5.049C3.644 2.49976 2.501 3.62476 2.501 5.00676L2.5 7.02476C3.767 7.33576 4.677 8.42176 4.677 9.75076C4.677 11.0928 3.751 12.2248 2.5 12.5538ZM18.452 18.4998H5.048C2.816 18.4998 1 16.7018 1 14.4928V11.9008C1 11.4868 1.336 11.1508 1.75 11.1508C2.537 11.1508 3.177 10.5228 3.177 9.75076C3.177 9.00076 2.563 8.43476 1.75 8.43476C1.551 8.43476 1.36 8.35576 1.22 8.21476C1.079 8.07476 1 7.88276 1 7.68476L1.001 5.00676C1.001 2.79776 2.817 0.999756 5.049 0.999756H18.451C20.683 0.999756 22.499 2.79776 22.499 5.00676L22.5 7.60076C22.5 7.79876 22.421 7.99076 22.28 8.13076C22.14 8.27176 21.949 8.35076 21.75 8.35076C20.963 8.35076 20.323 8.97876 20.323 9.75076C20.323 10.5228 20.963 11.1508 21.75 11.1508C22.164 11.1508 22.5 11.4868 22.5 11.9008V14.4928C22.5 16.7018 20.684 18.4998 18.452 18.4998Z" fill="#5158BB" stroke="#5158BB" stroke-width="0.3"/>
</svg>
