<svg width="22" height="18" viewBox="0 0 22 18" fill="none" xmlns="http://www.w3.org/2000/svg">
<path fill-rule="evenodd" clip-rule="evenodd" d="M13.0996 4.171C12.6856 4.171 12.3496 3.835 12.3496 3.421V1C12.3496 0.586 12.6856 0.25 13.0996 0.25C13.5136 0.25 13.8496 0.586 13.8496 1V3.421C13.8496 3.835 13.5136 4.171 13.0996 4.171Z" fill="black"/>
<path fill-rule="evenodd" clip-rule="evenodd" d="M13.0996 17.2842C12.6856 17.2842 12.3496 16.9482 12.3496 16.5342V14.5112C12.3496 14.0962 12.6856 13.7612 13.0996 13.7612C13.5136 13.7612 13.8496 14.0962 13.8496 14.5112V16.5342C13.8496 16.9482 13.5136 17.2842 13.0996 17.2842Z" fill="black"/>
<path fill-rule="evenodd" clip-rule="evenodd" d="M13.0996 11.8252C12.6856 11.8252 12.3496 11.4892 12.3496 11.0752V6.25415C12.3496 5.84015 12.6856 5.50415 13.0996 5.50415C13.5136 5.50415 13.8496 5.84015 13.8496 6.25415V11.0752C13.8496 11.4892 13.5136 11.8252 13.0996 11.8252Z" fill="black"/>
<path fill-rule="evenodd" clip-rule="evenodd" d="M2 11.5538V13.4928C2 14.8748 3.143 15.9998 4.548 15.9998H17.952C19.357 15.9998 20.5 14.8748 20.5 13.4928V11.5538C19.249 11.2248 18.323 10.0928 18.323 8.75076C18.323 7.40776 19.248 6.27676 20.5 5.94776L20.499 4.00676C20.499 2.62476 19.356 1.49976 17.951 1.49976H4.549C3.144 1.49976 2.001 2.62476 2.001 4.00676L2 6.02476C3.267 6.33576 4.177 7.42176 4.177 8.75076C4.177 10.0928 3.251 11.2248 2 11.5538ZM17.952 17.4998H4.548C2.316 17.4998 0.5 15.7018 0.5 13.4928V10.9008C0.5 10.4868 0.836 10.1508 1.25 10.1508C2.037 10.1508 2.677 9.52276 2.677 8.75076C2.677 8.00076 2.063 7.43476 1.25 7.43476C1.051 7.43476 0.86 7.35576 0.72 7.21476C0.579 7.07476 0.5 6.88276 0.5 6.68476L0.501 4.00676C0.501 1.79776 2.317 -0.000244141 4.549 -0.000244141H17.951C20.183 -0.000244141 21.999 1.79776 21.999 4.00676L22 6.60076C22 6.79876 21.921 6.99076 21.78 7.13076C21.64 7.27176 21.449 7.35076 21.25 7.35076C20.463 7.35076 19.823 7.97876 19.823 8.75076C19.823 9.52276 20.463 10.1508 21.25 10.1508C21.664 10.1508 22 10.4868 22 10.9008V13.4928C22 15.7018 20.184 17.4998 17.952 17.4998Z" fill="black"/>
</svg>
