<svg width="15" height="23" viewBox="0 0 15 23" fill="none" xmlns="http://www.w3.org/2000/svg">
<path d="M6.77778 9.00555V5.87357L4.73389 7.05757C4.56884 7.14414 4.3768 7.16342 4.1979 7.11138C4.019 7.05934 3.86707 6.94001 3.77385 6.7783C3.68063 6.6166 3.65332 6.42503 3.69764 6.24362C3.74196 6.06221 3.85447 5.90498 4.01167 5.80478L6.05556 4.62078L4.01167 3.43679C3.84791 3.33897 3.72872 3.18091 3.67948 2.99628C3.63024 2.81164 3.65485 2.61502 3.74806 2.44831C3.84395 2.28231 4.00162 2.16125 4.18645 2.11169C4.37128 2.06214 4.56817 2.08814 4.73389 2.184L6.77778 3.36799V1.72416C6.78245 1.53357 6.86004 1.35209 6.99448 1.21728C7.12893 1.08248 7.30993 1.00468 7.5 1C7.69137 1.00057 7.87474 1.07705 8.01006 1.21273C8.14538 1.34842 8.22165 1.53227 8.22222 1.72416V3.36799L10.2661 2.184C10.4318 2.08814 10.6287 2.06214 10.8136 2.11169C10.9984 2.16125 11.156 2.28231 11.2519 2.44831C11.3446 2.61515 11.3689 2.81158 11.3197 2.99606C11.2705 3.18053 11.1517 3.33859 10.9883 3.43679L8.94444 4.62078L10.9883 5.80478C11.1455 5.90498 11.258 6.06221 11.3024 6.24362C11.3467 6.42503 11.3194 6.6166 11.2262 6.7783C11.1329 6.94001 10.981 7.05934 10.8021 7.11138C10.6232 7.16342 10.4312 7.14414 10.2661 7.05757L8.22222 5.87357V9.00555C9.87323 9.19063 11.3909 10.0025 12.4635 11.2745C13.5362 12.5465 14.0824 14.1821 13.9899 15.8452C13.8975 17.5084 13.1734 19.073 11.9665 20.2176C10.7595 21.3622 9.16129 22 7.5 22C5.83871 22 4.24046 21.3622 3.03351 20.2176C1.82656 19.073 1.10252 17.5084 1.01008 15.8452C0.917641 14.1821 1.46383 12.5465 2.53647 11.2745C3.6091 10.0025 5.12677 9.19063 6.77778 9.00555ZM7.5 20.5522C8.49989 20.5522 9.47733 20.2549 10.3087 19.6979C11.1401 19.1409 11.7881 18.3492 12.1707 17.423C12.5534 16.4967 12.6535 15.4775 12.4584 14.4942C12.2633 13.5109 11.7818 12.6077 11.0748 11.8987C10.3678 11.1898 9.46697 10.707 8.48629 10.5114C7.50561 10.3158 6.48911 10.4162 5.56533 10.7999C4.64154 11.1836 3.85197 11.8333 3.29646 12.6669C2.74095 13.5005 2.44445 14.4806 2.44445 15.4831C2.44588 16.8271 2.97898 18.1156 3.92677 19.0659C4.87456 20.0163 6.15963 20.5508 7.5 20.5522Z" fill="black" stroke="black" stroke-width="0.75"/>
</svg>
