<svg width="14" height="21" viewBox="0 0 14 21" fill="none" xmlns="http://www.w3.org/2000/svg">
<path d="M6.839 0.326004C3.069 0.326004 0 3.392 0 7.162C0 10.502 2.415 13.29 5.576 13.883V15.949H3.784C3.151 15.949 2.639 16.463 2.639 17.095C2.639 17.727 3.151 18.241 3.784 18.241H5.576V19.528C5.576 20.161 6.09 20.674 6.723 20.674C7.356 20.674 7.871 20.159 7.871 19.528V18.241H9.753C10.386 18.241 10.899 17.725 10.899 17.095C10.899 16.46 10.386 15.949 9.753 15.949H7.871V13.92C11.162 13.42 13.674 10.58 13.674 7.162C13.674 3.392 10.609 0.326004 6.839 0.326004ZM6.839 11.705C4.332 11.705 2.294 9.666 2.294 7.16C2.294 4.654 4.332 2.615 6.839 2.615C9.344 2.615 11.383 4.654 11.383 7.16C11.383 9.666 9.345 11.705 6.839 11.705Z" fill="#FC6F6E"/>
</svg>
