<svg width="76" height="61" viewBox="0 0 76 61" fill="none" xmlns="http://www.w3.org/2000/svg">
<path d="M25.1906 9.78564C19.294 9.78564 14.4902 14.6148 14.4902 20.5623C14.4902 33.8552 25.5465 42.0394 31.9007 45.1911C29.4861 41.9631 27.5036 37.6931 27.5036 32.3811C27.5036 26.0777 32.5869 20.969 38.8394 20.969C38.8546 20.969 38.8698 20.969 38.885 20.969C38.8868 20.969 38.8887 20.969 38.8905 20.969C41.7254 20.969 44.3839 22.0026 46.4392 23.8437C49.005 21.5721 52.652 20.539 56.0465 21.1723V20.5877C56.0465 14.6402 51.2427 9.81101 45.3461 9.81101C41.9657 9.81101 38.8394 11.3868 36.7807 14.1064C36.4248 14.5893 35.8657 14.869 35.2557 14.869C34.6457 14.869 34.0865 14.5893 33.7306 14.1064C31.7228 11.3614 28.5965 9.78564 25.1906 9.78564Z" fill="url(#paint0_linear_0_4)" fill-opacity="0.7"/>
<path d="M57.0123 25.4423C53.8861 24.0952 49.9973 25.1119 47.964 27.8315C47.6082 28.3144 46.9219 28.5686 46.439 28.594C45.829 28.594 45.2698 28.3144 44.914 27.8315C43.4652 25.8998 41.254 24.8069 38.8648 24.8069C34.7587 24.8069 31.4015 28.1526 31.3423 32.2951C31.342 32.3237 31.3418 32.3524 31.3418 32.3811C31.3418 38.9894 35.1288 43.6915 38.3313 46.5127C41.1526 49.0036 44.1263 50.554 45.9817 51.164C46.1851 51.2402 46.668 51.2402 46.8459 51.164C50.6584 49.8677 61.5113 43.6407 61.5113 32.3811C61.5113 29.4395 59.8285 26.7623 57.2343 25.5187C57.1593 25.4976 57.0852 25.4721 57.0123 25.4423Z" fill="url(#paint1_linear_0_4)" fill-opacity="0.7"/>
<path fill-rule="evenodd" clip-rule="evenodd" d="M38.885 20.969C41.7146 20.9801 44.3658 22.021 46.4136 23.8665L46.4392 23.8437C44.3839 22.0026 41.7254 20.969 38.8905 20.969L38.885 20.969ZM57.2343 25.5187C57.1593 25.4976 57.0852 25.4721 57.0123 25.4423C53.8861 24.0952 49.9973 25.1119 47.964 27.8315C47.6082 28.3144 46.9219 28.5686 46.439 28.594C45.829 28.594 45.2698 28.3144 44.914 27.8315C43.4652 25.8998 41.254 24.8069 38.8648 24.8069C34.7587 24.8069 31.4015 28.1526 31.3423 32.2951C31.3881 28.1409 34.7505 24.7815 38.8651 24.7815C41.2542 24.7815 43.4655 25.8744 44.9142 27.8061C45.2701 28.289 45.8292 28.5686 46.4392 28.5686C46.9221 28.5432 47.6084 28.289 47.9642 27.8061C49.9976 25.0865 53.9372 24.0699 57.0126 25.4169C57.0872 25.4497 57.1611 25.4836 57.2343 25.5187Z" fill="url(#paint2_linear_0_4)" fill-opacity="0.7"/>
<path d="M33.2223 49.8677C33.8069 50.0965 34.5186 50.1981 35.2557 50.1981C35.7361 50.1981 36.2064 50.1578 36.654 50.0771C36.3728 49.8457 36.0928 49.6065 35.8151 49.3594C32.0535 46.0298 27.5548 40.3873 27.5548 32.3811C27.5548 26.0796 32.6351 20.972 38.885 20.969L38.8394 20.969C32.5869 20.969 27.5036 26.0777 27.5036 32.3811C27.5036 37.6931 29.4861 41.9631 31.9007 45.1911C25.5465 42.0394 14.4902 33.8552 14.4902 20.5623C14.4902 14.6148 19.294 9.78564 25.1906 9.78564C28.5965 9.78564 31.7228 11.3614 33.7306 14.1064C34.0865 14.5893 34.6457 14.869 35.2557 14.869C35.8657 14.869 36.4248 14.5893 36.7807 14.1064C38.8394 11.3868 41.9657 9.81101 45.3461 9.81101C51.2427 9.81101 56.0465 14.6402 56.0465 20.5877V21.1723C52.652 20.539 49.005 21.5721 46.4392 23.8437L46.4646 23.8666C49.6671 20.9945 54.5471 20.1811 58.563 21.9349C58.9916 22.1254 59.4045 22.3407 59.8003 22.5786C59.8564 21.8971 59.8844 21.225 59.8844 20.5623C59.8844 12.5052 53.3777 5.97314 45.3715 5.97314C41.5336 5.97314 37.9752 7.44726 35.2811 10.0652C32.6123 7.44726 29.0285 5.97314 25.1906 5.97314C17.1844 5.97314 10.6777 12.5052 10.6777 20.5623C10.6777 36.2698 24.5298 46.894 33.2223 49.8677Z" fill="url(#paint3_linear_0_4)" fill-opacity="0.7"/>
<g clip-path="url(#clip0_0_4)">
<path d="M64.3674 47.884C63.7427 47.2592 61.7733 45.8051 59.818 44.6792C59.7968 44.711 59.7756 44.7428 59.7544 44.7781C61.9603 41.224 61.5262 36.491 58.438 33.4028C54.838 29.8063 49.0038 29.8063 45.4038 33.4028C41.8038 37.0063 41.8074 42.8369 45.4038 46.4369C48.4638 49.4934 53.1333 49.9558 56.6768 47.8169C57.6968 49.5887 59.1827 51.6675 59.885 52.3699C61.1203 53.6052 63.1321 53.6016 64.3674 52.3663C65.6027 51.1275 65.6027 49.1228 64.3674 47.884ZM56.0098 44.0087C53.7509 46.264 50.0945 46.264 47.8356 44.0051C45.5803 41.7498 45.5768 38.0934 47.8356 35.8345C50.0909 33.5792 53.7509 33.5792 56.0062 35.8345C58.2651 38.0934 58.2651 41.7534 56.0098 44.0087Z" fill="#5158BB"/>
</g>
<defs>
<linearGradient id="paint0_linear_0_4" x1="24" y1="1.5" x2="54" y2="79" gradientUnits="userSpaceOnUse">
<stop stop-color="#5158BB"/>
<stop offset="1" stop-color="#EEEEEE"/>
</linearGradient>
<linearGradient id="paint1_linear_0_4" x1="24" y1="1.5" x2="54" y2="79" gradientUnits="userSpaceOnUse">
<stop stop-color="#5158BB"/>
<stop offset="1" stop-color="#EEEEEE"/>
</linearGradient>
<linearGradient id="paint2_linear_0_4" x1="24" y1="1.5" x2="54" y2="79" gradientUnits="userSpaceOnUse">
<stop stop-color="#5158BB"/>
<stop offset="1" stop-color="#EEEEEE"/>
</linearGradient>
<linearGradient id="paint3_linear_0_4" x1="24" y1="1.5" x2="54" y2="79" gradientUnits="userSpaceOnUse">
<stop stop-color="#5158BB"/>
<stop offset="1" stop-color="#EEEEEE"/>
</linearGradient>
<clipPath id="clip0_0_4">
<rect width="24" height="24" fill="white" transform="translate(42 30)"/>
</clipPath>
</defs>
</svg>
