<svg width="24" height="25" viewBox="0 0 24 25" fill="none" xmlns="http://www.w3.org/2000/svg">
<path d="M12 3C7.72514 3 4.26562 6.45952 4.26562 10.7344V14.6719C4.26562 15.835 5.21189 16.7812 6.375 16.7812C7.53811 16.7812 8.48438 15.835 8.48438 14.6719V12.1406C8.48438 10.9775 7.53811 10.0312 6.375 10.0312C6.13886 10.0312 5.91192 10.0708 5.69975 10.1427C5.99907 6.9298 8.71018 4.40625 12 4.40625C15.2898 4.40625 18.0009 6.9298 18.3002 10.1427C18.0881 10.0708 17.8611 10.0312 17.625 10.0312C16.4619 10.0312 15.5156 10.9775 15.5156 12.1406V14.6719C15.5156 15.835 16.4619 16.7812 17.625 16.7812C17.8379 16.7812 18.0434 16.7493 18.2372 16.6903C17.9742 17.5558 17.169 18.1875 16.2188 18.1875H13.9884C13.6982 17.3691 12.9166 16.7812 12 16.7812C10.8369 16.7812 9.89062 17.7275 9.89062 18.8906C9.89062 20.0537 10.8369 21 12 21C12.9166 21 13.6982 20.4121 13.9884 19.5938H16.2188C18.1573 19.5938 19.7344 18.0166 19.7344 16.0781V10.7344C19.7344 6.45952 16.2749 3 12 3ZM6.375 11.4375C6.7627 11.4375 7.07812 11.7529 7.07812 12.1406V14.6719C7.07812 15.0596 6.7627 15.375 6.375 15.375C5.9873 15.375 5.67188 15.0596 5.67188 14.6719V12.1406C5.67188 11.7529 5.9873 11.4375 6.375 11.4375ZM12 19.5938C11.6123 19.5938 11.2969 19.2783 11.2969 18.8906C11.2969 18.5029 11.6123 18.1875 12 18.1875C12.3877 18.1875 12.7031 18.5029 12.7031 18.8906C12.7031 19.2783 12.3877 19.5938 12 19.5938ZM17.625 15.375C17.2373 15.375 16.9219 15.0596 16.9219 14.6719V12.1406C16.9219 11.7529 17.2373 11.4375 17.625 11.4375C18.0127 11.4375 18.3281 11.7529 18.3281 12.1406V14.6719C18.3281 15.0596 18.0127 15.375 17.625 15.375Z" fill="black"/>
</svg>
