<svg width="198" height="39" viewBox="0 0 198 39" fill="none" xmlns="http://www.w3.org/2000/svg">
<g filter="url(#filter0_d_1343_12345)">
<path d="M17.5246 15.9018H35.1597V33H27.8909L27.0236 25.6899C26.1976 28.3056 24.7246 30.2467 22.6045 31.5132C20.4844 32.7797 17.8963 33.413 14.8401 33.413C12.0592 33.413 9.58124 32.7935 7.4061 31.5545C5.2585 30.3155 3.5652 28.5396 2.3262 26.2268C1.11474 23.914 0.509002 21.2157 0.509002 18.132C0.509002 13.2035 1.98204 9.30757 4.9281 6.4441C7.87417 3.58063 12.4585 2.1489 18.681 2.1489C22.2328 2.1489 25.3578 2.7271 28.0561 3.8835C30.7819 5.0399 33.0947 6.82957 34.9945 9.2525C33.7555 9.88577 31.3326 11.1523 27.7257 13.0521L26.6932 13.6303C25.6194 12.5565 24.3666 11.758 22.9349 11.2349C21.5032 10.6842 19.9888 10.4089 18.3919 10.4089C15.7487 10.4089 13.7801 11.111 12.486 12.5152C11.1919 13.8919 10.5449 15.5989 10.5449 17.6364C10.5449 19.8391 11.2332 21.615 12.6099 22.9641C14.0141 24.3132 16.1479 24.9878 19.0114 24.9878C20.2504 24.9878 21.4481 24.8088 22.6045 24.4509C23.7884 24.093 24.7796 23.4735 25.5781 22.5924H17.5246V15.9018ZM47.7126 24.6574C55.6973 24.6023 62.3053 24.4647 67.5366 24.2444C67.1787 25.6486 66.9584 26.9977 66.8758 28.2918C66.7932 29.5859 66.7519 31.1553 66.7519 33H37.6354C37.8557 27.6585 37.9658 22.6612 37.9658 18.0081C37.9658 13.355 37.8557 8.35767 37.6354 3.0162H47.7126V24.6574ZM93.998 11.2349C90.7215 11.0697 88.2986 10.9733 86.7292 10.9458V25.0704C88.3261 25.0429 90.7491 24.9465 93.998 24.7813V33H70.0027V24.7813C73.169 24.9465 75.5782 25.0429 77.2302 25.0704V10.9458C75.5782 10.9733 73.169 11.0697 70.0027 11.2349V3.0162H93.998V11.2349ZM131.132 3.0575C130.939 7.71063 130.843 12.6942 130.843 18.0081C130.843 23.3496 130.939 28.3469 131.132 33H116.347L106.352 10.4502L107.096 33H96.4815C96.7018 27.6585 96.8119 22.6612 96.8119 18.0081C96.8119 13.3825 96.7018 8.39897 96.4815 3.0575H111.68L121.716 26.2268L121.014 3.0575H131.132ZM169.085 11.6892C164.762 11.5515 160.563 11.4689 156.488 11.4414V33H146.163V11.4414C142.061 11.4689 137.876 11.5515 133.608 11.6892V3.0162H169.085V11.6892ZM181.452 0.785999C181.452 2.63073 181.383 6.16877 181.246 11.4001C181.19 12.2261 181.163 12.8318 181.163 13.2173C180.612 17.0995 180.268 20.4861 180.13 23.3771H172.49C172.352 20.4861 172.008 17.0995 171.457 13.2173L171.416 11.4001C171.251 7.15997 171.168 3.62193 171.168 0.785999H181.452ZM181.08 33.826H171.499V26.4746H181.08V33.826ZM193.371 0.785999C193.371 2.63073 193.302 6.16877 193.164 11.4001C193.109 12.2261 193.082 12.8318 193.082 13.2173C192.531 17.0995 192.187 20.4861 192.049 23.3771H184.409C184.271 20.4861 183.927 17.0995 183.376 13.2173L183.335 11.4001C183.17 7.15997 183.087 3.62193 183.087 0.785999H193.371ZM192.999 33.826H183.418V26.4746H192.999V33.826Z" fill="white"/>
</g>
<defs>
<filter id="filter0_d_1343_12345" x="0.508789" y="0.786133" width="197.287" height="37.465" filterUnits="userSpaceOnUse" color-interpolation-filters="sRGB">
<feFlood flood-opacity="0" result="BackgroundImageFix"/>
<feColorMatrix in="SourceAlpha" type="matrix" values="0 0 0 0 0 0 0 0 0 0 0 0 0 0 0 0 0 0 127 0" result="hardAlpha"/>
<feOffset dx="4.425" dy="4.425"/>
<feComposite in2="hardAlpha" operator="out"/>
<feColorMatrix type="matrix" values="0 0 0 0 0 0 0 0 0 0 0 0 0 0 0 0 0 0 1 0"/>
<feBlend mode="normal" in2="BackgroundImageFix" result="effect1_dropShadow_1343_12345"/>
<feBlend mode="normal" in="SourceGraphic" in2="effect1_dropShadow_1343_12345" result="shape"/>
</filter>
</defs>
</svg>
