<svg width="20" height="22" viewBox="0 0 20 22" fill="none" xmlns="http://www.w3.org/2000/svg">
<path d="M1 3.5H11M19 3.5H16M1 11H3.5M19 11H8.5M1 18.5H11M19 18.5H16M16 3.5C16 4.88071 14.8807 6 13.5 6C12.1193 6 11 4.88071 11 3.5M16 3.5C16 2.11929 14.8807 1 13.5 1C12.1193 1 11 2.11929 11 3.5M8.5 11C8.5 12.3807 7.38071 13.5 6 13.5C4.61929 13.5 3.5 12.3807 3.5 11M8.5 11C8.5 9.61929 7.38071 8.5 6 8.5C4.61929 8.5 3.5 9.61929 3.5 11M16 18.5C16 19.8807 14.8807 21 13.5 21C12.1193 21 11 19.8807 11 18.5M16 18.5C16 17.1193 14.8807 16 13.5 16C12.1193 16 11 17.1193 11 18.5" stroke="#18161E" stroke-width="1.5" stroke-linecap="round"/>
</svg>
