<svg width="29" height="23" viewBox="0 0 29 23" fill="none" xmlns="http://www.w3.org/2000/svg">
<path fill-rule="evenodd" clip-rule="evenodd" d="M16.0859 4.6605V2.19115V1.54875C16.0859 1.01663 16.5178 0.584769 17.0499 0.584769C17.582 0.584769 18.0139 1.01663 18.0139 1.54875V2.19115V4.6605C18.0139 5.19262 17.582 5.62448 17.0499 5.62448C16.5178 5.62448 16.0859 5.19262 16.0859 4.6605ZM18.0139 18.915V20.8282V21.5152C18.0139 22.0473 17.582 22.4792 17.0499 22.4792C16.5178 22.4792 16.0859 22.0473 16.0859 21.5152V20.8282V18.915C16.0859 18.3816 16.5178 17.951 17.0499 17.951C17.582 17.951 18.0139 18.3816 18.0139 18.915ZM23.2868 22.7562H6.05842C3.1896 22.7562 0.855469 20.4452 0.855469 17.6059V14.2744C0.855469 13.7423 1.28733 13.3104 1.81945 13.3104C2.831 13.3104 3.6536 12.5032 3.6536 11.511C3.6536 10.547 2.86441 9.81949 1.81945 9.81949C1.56368 9.81949 1.31818 9.71795 1.13824 9.53672C0.957009 9.35678 0.855469 9.11 0.855469 8.8555L0.856754 5.41343C0.856754 2.57418 3.19088 0.263184 6.0597 0.263184H23.2855C26.1543 0.263184 28.4884 2.57418 28.4884 5.41343L28.4897 8.74754C28.4897 9.00203 28.3882 9.24881 28.2069 9.42875C28.027 9.60998 27.7815 9.71152 27.5257 9.71152C26.5142 9.71152 25.6916 10.5187 25.6916 11.511C25.6916 12.5032 26.5142 13.3104 27.5257 13.3104C28.0578 13.3104 28.4897 13.7423 28.4897 14.2744V17.6059C28.4897 20.4452 26.1556 22.7562 23.2868 22.7562ZM17.0499 15.4627C16.5178 15.4627 16.0859 15.0308 16.0859 14.4987V8.30218C16.0859 7.77006 16.5178 7.33819 17.0499 7.33819C17.582 7.33819 18.0139 7.77006 18.0139 8.30218V14.4987C18.0139 15.0308 17.582 15.4627 17.0499 15.4627Z" fill="url(#paint0_linear_922_7390)"/>
<defs>
<linearGradient id="paint0_linear_922_7390" x1="4" y1="6" x2="44" y2="31.5" gradientUnits="userSpaceOnUse">
<stop stop-color="#5158BB"/>
<stop offset="1"/>
</linearGradient>
</defs>
</svg>
