<svg width="18" height="22" viewBox="0 0 18 22" fill="none" xmlns="http://www.w3.org/2000/svg">
<path d="M12.5 9C12.5 10.933 10.933 12.5 9 12.5C7.067 12.5 5.5 10.933 5.5 9C5.5 7.067 7.067 5.5 9 5.5C10.933 5.5 12.5 7.067 12.5 9Z" stroke="#18161E" stroke-width="1.5" stroke-linecap="round" stroke-linejoin="round"/>
<path d="M17 8.43056C17 12.8604 13.5293 14.101 11.6756 16.9375C9.50667 19.6819 10.0818 21 9 21C7.91825 21 8.1297 19.6819 6.32441 16.9375C4.4707 14.101 1 12.8604 1 8.43056C1 4.6336 4.58172 1 9 1C13.4183 1 17 4.6336 17 8.43056Z" stroke="#18161E" stroke-width="1.5" stroke-linecap="round" stroke-linejoin="round"/>
</svg>
