<svg width="27" height="24" viewBox="0 0 27 24" fill="none" xmlns="http://www.w3.org/2000/svg">
<path d="M24.5575 10.1563C26.7648 5.75129 22.7446 1.27643 18.3735 1.77825C16.0455 2.04425 14.6802 3.77736 13.476 4.98159C11.5454 6.91222 11.1898 10.8254 14.1913 13.56C19.2604 17.562 21.8373 13.6406 21.8373 13.6406C21.8373 13.6406 19.0669 10.8702 15.7766 7.57992M16.7605 18.7438L13.4779 22L10.7651 19.389C7.50137 16.2461 2.17946 12.29 2.00401 7.3888C1.88138 3.95531 4.59045 1.75561 7.707 1.79523C9.07154 1.81371 10.3056 2.17023 10.9039 2.70721" stroke="url(#paint0_linear_676_3622)" stroke-width="3.12065" stroke-linejoin="round"/>
<defs>
<linearGradient id="paint0_linear_676_3622" x1="3.33742" y1="-4.26951" x2="25.1819" y2="27.8286" gradientUnits="userSpaceOnUse">
<stop stop-color="#5158BB"/>
<stop offset="1" stop-color="#978FDD"/>
</linearGradient>
</defs>
</svg>
