<svg width="24" height="24" viewBox="0 0 24 24" fill="none" xmlns="http://www.w3.org/2000/svg">
<path d="M12.002 15C11.552 15 11.252 14.7 11.252 14.25C11.327 13.275 11.852 12.45 12.602 11.85C13.052 11.4 13.502 10.95 13.502 10.5C13.502 9.675 12.827 9 12.002 9C11.177 9 10.502 9.675 10.502 10.5C10.502 10.95 10.202 11.25 9.75195 11.25C9.30195 11.25 9.00195 10.95 9.00195 10.5C9.00195 8.85 10.352 7.5 12.002 7.5C13.652 7.5 15.002 8.85 15.002 10.5C14.927 11.475 14.402 12.3 13.652 12.9C13.202 13.35 12.752 13.8 12.752 14.25C12.752 14.7 12.452 15 12.002 15Z" fill="black"/>
<path d="M12.002 17.25C12.4162 17.25 12.752 16.9142 12.752 16.5C12.752 16.0858 12.4162 15.75 12.002 15.75C11.5877 15.75 11.252 16.0858 11.252 16.5C11.252 16.9142 11.5877 17.25 12.002 17.25Z" fill="black"/>
<path d="M3.30135 21.6C3.07635 21.45 3.00135 21.15 3.00135 20.85L3.67635 17.025C0.901353 12.45 2.40135 6.44997 6.97635 3.74997C11.5514 1.04997 17.5514 2.47497 20.3264 7.04997C23.1014 11.625 21.6014 17.625 17.0264 20.4C14.0264 22.2 10.2014 22.275 7.20135 20.475L4.12635 21.75C3.75135 21.825 3.52635 21.75 3.30135 21.6ZM7.20135 18.9C7.35135 18.9 7.50135 18.975 7.57635 19.05C11.4764 21.525 16.5764 20.325 18.9764 16.5C21.3764 12.675 20.2514 7.49997 16.4264 5.09997C12.6014 2.69997 7.50135 3.67497 5.02635 7.57497C3.30135 10.275 3.30135 13.8 5.02635 16.5C5.10135 16.65 5.17635 16.875 5.10135 17.025L4.65135 19.8L6.82635 18.9H7.20135Z" fill="black"/>
</svg>
