<svg width="83" height="28" viewBox="0 0 83 28" fill="none" xmlns="http://www.w3.org/2000/svg">
<path d="M27.2997 12.1796C29.7752 7.23908 25.2663 2.22024 20.3639 2.78306C17.7529 3.0814 16.2217 5.0252 14.8711 6.37581C12.7058 8.54113 12.3069 12.93 15.6733 15.9971C21.3586 20.4855 24.2488 16.0875 24.2488 16.0875C24.2488 16.0875 21.1416 12.9803 17.4513 9.29001M18.5548 21.811L14.8732 25.463L11.8306 22.5347C8.17013 19.0096 2.20127 14.5727 2.00449 9.07565C1.86696 5.22478 4.90535 2.75767 8.40076 2.80211C9.93118 2.82284 11.3153 3.2227 11.9863 3.82496" stroke="url(#paint0_linear_2103_10682)" stroke-width="3.5" stroke-linejoin="round"/>
<path d="M46.104 9H48.888V19.224C48.888 20.584 48.552 21.752 47.88 22.728C47.208 23.72 46.232 24.48 44.952 25.008C43.688 25.536 42.168 25.8 40.392 25.8L39.912 23.208C41.848 23.176 43.312 22.832 44.304 22.176C45.312 21.52 45.816 20.576 45.816 19.344V19.296L46.224 19.152C45.84 19.712 45.312 20.192 44.64 20.592C43.968 20.976 43.168 21.168 42.24 21.168C41.184 21.168 40.256 20.912 39.456 20.4C38.656 19.888 38.024 19.176 37.56 18.264C37.112 17.336 36.888 16.248 36.888 15C36.888 13.752 37.112 12.664 37.56 11.736C38.024 10.808 38.656 10.096 39.456 9.6C40.256 9.088 41.184 8.832 42.24 8.832C42.784 8.832 43.288 8.912 43.752 9.072C44.232 9.216 44.648 9.416 45 9.672C45.368 9.912 45.672 10.184 45.912 10.488L46.104 9ZM40.2 15C40.2 16.008 40.456 16.824 40.968 17.448C41.48 18.056 42.168 18.36 43.032 18.36C43.528 18.36 43.984 18.232 44.4 17.976C44.816 17.704 45.152 17.312 45.408 16.8C45.68 16.288 45.816 15.688 45.816 15C45.816 14.28 45.68 13.672 45.408 13.176C45.152 12.68 44.808 12.304 44.376 12.048C43.96 11.776 43.512 11.64 43.032 11.64C42.168 11.64 41.48 11.952 40.968 12.576C40.456 13.184 40.2 13.992 40.2 15ZM51.1117 3.72H54.1838V21H51.1117V3.72ZM56.8232 9H59.8952V21H56.8232V9ZM58.3832 7.464C57.8072 7.464 57.3352 7.288 56.9672 6.936C56.5992 6.568 56.4152 6.12 56.4152 5.592C56.4152 5.064 56.5992 4.624 56.9672 4.272C57.3352 3.904 57.8072 3.72 58.3832 3.72C58.9272 3.72 59.3832 3.904 59.7512 4.272C60.1352 4.624 60.3272 5.064 60.3272 5.592C60.3272 6.12 60.1352 6.568 59.7512 6.936C59.3832 7.288 58.9272 7.464 58.3832 7.464ZM62.5389 9H65.3229L65.5389 10.224C65.9229 9.792 66.3869 9.456 66.9309 9.216C67.4909 8.96 68.0909 8.832 68.7309 8.832C69.6749 8.832 70.4749 9.032 71.1309 9.432C71.8029 9.832 72.3149 10.416 72.6669 11.184C73.0349 11.936 73.2189 12.872 73.2189 13.992V21H70.1229V14.4C70.1229 13.472 69.9389 12.776 69.5709 12.312C69.2029 11.848 68.6509 11.616 67.9149 11.616C67.1629 11.616 66.5869 11.856 66.1869 12.336C65.8029 12.8 65.6109 13.496 65.6109 14.424V21H62.5389V9ZM76.1361 9V5.64H79.2561V9H81.8961V11.712H79.2561V16.584C79.2561 17.208 79.3841 17.648 79.6401 17.904C79.9121 18.16 80.2481 18.296 80.6481 18.312C81.0641 18.328 81.4801 18.304 81.8961 18.24V20.88C81.1601 21.04 80.4401 21.088 79.7361 21.024C79.0481 20.96 78.4321 20.776 77.8881 20.472C77.3441 20.152 76.9121 19.672 76.5921 19.032C76.2881 18.392 76.1361 17.576 76.1361 16.584V11.712H74.4321V9H76.1361Z" fill="black"/>
<defs>
<linearGradient id="paint0_linear_2103_10682" x1="3.5" y1="-3.99988" x2="28" y2="32.0001" gradientUnits="userSpaceOnUse">
<stop stop-color="#5158BB"/>
<stop offset="1" stop-color="#978FDD"/>
</linearGradient>
</defs>
</svg>
