<svg width="25" height="18" viewBox="0 0 25 18" fill="none" xmlns="http://www.w3.org/2000/svg">
<path d="M23.7969 0.871582L1.20312 0.871629C0.814812 0.871582 0.5 1.18639 0.5 1.57475V8.60596C0.5 8.99427 0.814812 9.30908 1.20312 9.30908H2.63764L9.82166 16.4931C10.6151 17.2866 11.8986 17.3507 12.7379 16.6059C12.9782 16.3926 13.1565 16.1381 13.2747 15.8636C14.0802 16.324 15.1266 16.2113 15.8135 15.5244C16.0076 15.3303 16.1553 15.1072 16.2578 14.8692C17.0633 15.3297 18.1097 15.2169 18.7966 14.53C18.9907 14.3359 19.1384 14.1128 19.241 13.8748C20.0465 14.3353 21.0928 14.2226 21.7797 13.5357C22.5407 12.7747 22.597 11.5726 21.9499 10.7456L22.4287 9.30918H23.7969C24.1852 9.30918 24.5 8.99436 24.5 8.60605V1.5748C24.5 1.18639 24.1852 0.871582 23.7969 0.871582ZM20.7853 12.5412C20.5112 12.8154 20.0652 12.8154 19.791 12.5412L15.482 8.23227C15.2075 7.95768 14.7623 7.95768 14.4877 8.23227C14.2131 8.50686 14.2131 8.95204 14.4877 9.22663L17.8023 12.5412C18.0764 12.8154 18.0764 13.2614 17.8023 13.5356C17.5281 13.8097 17.0821 13.8097 16.8079 13.5356L13.4933 10.221C13.2187 9.94639 12.7736 9.94639 12.499 10.221C12.2244 10.4956 12.2244 10.9408 12.499 11.2153L14.8191 13.5356C15.0933 13.8097 15.0933 14.2558 14.8191 14.5299C14.545 14.8041 14.099 14.8041 13.8248 14.5299L11.5046 12.2097C11.23 11.9351 10.7848 11.9351 10.5103 12.2097C10.2357 12.4843 10.2357 12.9295 10.5103 13.2041L11.8361 14.5299C12.1102 14.8041 12.1102 15.2501 11.8361 15.5242C11.5619 15.7984 11.1159 15.7984 10.8417 15.5242L3.42608 8.10875C3.29422 7.9769 3.11539 7.90279 2.92887 7.90283H1.90625V2.27783H11.0478L7.80191 5.52374C7.52731 5.79833 7.52731 6.2435 7.80191 6.5181C8.46725 7.18344 9.3522 7.54925 10.2933 7.54785C11.2374 7.5464 12.1388 7.15307 12.8063 6.48547L13.4365 5.85529C13.8942 5.39764 14.6362 5.39347 15.0938 5.85116L20.7853 11.5468C21.0595 11.821 21.0595 12.267 20.7853 12.5412ZM23.0938 7.90283H21.9219C21.6192 7.90283 21.3505 8.09652 21.2548 8.38363L20.8438 9.61658L16.0882 4.8568C15.0814 3.84997 13.449 3.84997 12.4422 4.8568C12.4422 4.8568 11.7607 5.5401 11.7515 5.55046C11.1037 6.1753 10.1516 6.30402 9.37859 5.93572L12.4186 2.89564C12.8142 2.50007 13.3507 2.27783 13.9101 2.27783H23.0938V7.90283Z" fill="black"/>
</svg>
