<svg width="18" height="18" viewBox="0 0 18 18" fill="none" xmlns="http://www.w3.org/2000/svg">
<path d="M9 0.578125C7.33431 0.578125 5.70603 1.07206 4.32106 1.99747C2.93609 2.92287 1.85664 4.23819 1.21921 5.77709C0.581774 7.31598 0.414993 9.00934 0.739953 10.643C1.06491 12.2767 1.86702 13.7773 3.04484 14.9552C4.22266 16.133 5.72329 16.9351 7.35698 17.2601C8.99066 17.585 10.684 17.4182 12.2229 16.7808C13.7618 16.1434 15.0771 15.0639 16.0025 13.6789C16.9279 12.294 17.4219 10.6657 17.4219 9C17.4194 6.76713 16.5313 4.62642 14.9525 3.04755C13.3736 1.46867 11.2329 0.580582 9 0.578125ZM7.65216 3.83894C7.71385 3.56287 7.87716 3.32012 8.10962 3.15892C8.34207 2.99773 8.62667 2.9299 8.90685 2.96891C9.17466 3.01436 9.4211 3.14373 9.61059 3.33836C9.80009 3.53298 9.92284 3.78279 9.96113 4.05172C9.97213 4.12047 9.97729 4.19334 9.98347 4.28478L9.99482 4.43741C9.99634 4.45561 9.99494 4.47395 9.99069 4.49172C9.98244 4.52403 9.97591 4.56253 9.968 4.60378C9.94756 4.74447 9.9098 4.8821 9.8556 5.01353C9.77787 5.23755 9.63216 5.43172 9.43879 5.56895C9.24541 5.70619 9.01403 5.77964 8.77691 5.77906H8.76316C8.51873 5.78827 8.27845 5.71396 8.08188 5.56838C7.88532 5.4228 7.74418 5.21462 7.68172 4.97812C7.57599 4.60696 7.56582 4.21509 7.65216 3.83894ZM10.9972 13.2883L10.9959 13.2892C10.0561 13.9737 8.99117 14.7493 7.68172 15.0187C7.61761 15.0303 7.55265 15.0365 7.4875 15.0373L7.42082 15.0397H7.38885C7.23945 15.0476 7.09031 15.0201 6.95357 14.9594C6.81683 14.8987 6.69637 14.8065 6.602 14.6904C6.50653 14.5467 6.44679 14.3823 6.42778 14.2108C6.40876 14.0393 6.43102 13.8657 6.49269 13.7046C6.71796 12.9683 6.94404 12.2323 7.17091 11.4967C7.48304 10.4819 7.79413 9.4667 8.10419 8.45103C8.12724 8.37821 8.13883 8.30225 8.13857 8.22587C8.06621 8.21253 7.99168 8.21738 7.92166 8.23997C7.8099 8.28307 7.70114 8.3336 7.59613 8.39122C7.46387 8.46532 7.32524 8.52745 7.18191 8.57684C7.08727 8.59288 6.99037 8.58961 6.89703 8.56722C6.80369 8.54483 6.71585 8.50379 6.63879 8.44656C6.61067 8.42586 6.5879 8.39875 6.57236 8.36748C6.55681 8.33622 6.54895 8.30169 6.54941 8.26678C6.54096 8.11607 6.59179 7.96802 6.69104 7.85428C7.75185 6.94438 8.681 6.47619 9.70435 6.33697C9.81367 6.32152 9.92394 6.31382 10.0343 6.31394C10.1829 6.29589 10.3336 6.3132 10.4741 6.36446C10.6147 6.41571 10.7411 6.49946 10.8432 6.60888C10.9175 6.73637 10.9606 6.87967 10.9688 7.02702C10.977 7.17436 10.9503 7.32157 10.8906 7.45656L10.5813 8.50981C10.1589 9.96044 9.73861 11.4115 9.32038 12.8631C9.30855 12.9279 9.30762 12.9942 9.31763 13.0593C9.36853 13.0661 9.42027 13.0629 9.46991 13.0497C9.63491 12.9748 9.79475 12.8888 9.95494 12.8026C9.96031 12.7997 9.96567 12.7968 9.97102 12.7939C10.1254 12.7107 10.2735 12.6309 10.4293 12.5592C10.5121 12.5184 10.6041 12.5001 10.6962 12.5061C10.7883 12.5122 10.8771 12.5423 10.9539 12.5936C11.0161 12.6449 11.0667 12.7088 11.1022 12.7812C11.1378 12.8536 11.1575 12.9327 11.1601 13.0133C11.1551 13.0683 11.1379 13.1216 11.1097 13.1692C11.0815 13.2167 11.0431 13.2574 10.9972 13.2883Z" fill="black"/>
<path d="M10.9972 13.2883L10.9959 13.2892C10.0561 13.9737 8.99117 14.7493 7.68172 15.0187C7.61761 15.0303 7.55265 15.0365 7.4875 15.0373L7.42082 15.0397H7.38885C7.23945 15.0476 7.09031 15.0201 6.95357 14.9594C6.81683 14.8987 6.69637 14.8065 6.602 14.6904C6.50653 14.5467 6.44679 14.3823 6.42778 14.2108C6.40876 14.0393 6.43102 13.8657 6.49269 13.7046C6.71796 12.9683 6.94404 12.2323 7.17091 11.4967C7.48304 10.4819 7.79413 9.4667 8.10419 8.45103C8.12724 8.37821 8.13883 8.30225 8.13857 8.22587C8.06621 8.21253 7.99168 8.21738 7.92166 8.23997C7.8099 8.28307 7.70114 8.3336 7.59613 8.39122C7.46387 8.46532 7.32524 8.52745 7.18191 8.57684C7.08727 8.59288 6.99037 8.58961 6.89703 8.56722C6.80369 8.54483 6.71585 8.50379 6.63879 8.44656C6.61067 8.42586 6.5879 8.39875 6.57236 8.36748C6.55681 8.33622 6.54895 8.30169 6.54941 8.26678C6.54096 8.11607 6.59179 7.96802 6.69104 7.85428C7.75185 6.94438 8.681 6.47619 9.70435 6.33697C9.81367 6.32152 9.92394 6.31382 10.0343 6.31394C10.1829 6.29589 10.3336 6.3132 10.4741 6.36446C10.6147 6.41571 10.7411 6.49946 10.8432 6.60888C10.9175 6.73637 10.9606 6.87967 10.9688 7.02702C10.977 7.17436 10.9503 7.32157 10.8906 7.45656L10.5813 8.50981C10.1589 9.96044 9.73861 11.4115 9.32038 12.8631C9.30855 12.9279 9.30762 12.9942 9.31763 13.0593C9.36853 13.0661 9.42027 13.0629 9.46991 13.0497C9.63491 12.9748 9.79475 12.8888 9.95494 12.8026L9.97102 12.7939C10.1254 12.7107 10.2735 12.6309 10.4293 12.5592C10.5121 12.5184 10.6041 12.5001 10.6962 12.5061C10.7883 12.5122 10.8771 12.5423 10.9539 12.5936C11.0161 12.6449 11.0667 12.7088 11.1022 12.7812C11.1378 12.8536 11.1575 12.9327 11.1601 13.0133C11.1551 13.0683 11.1379 13.1216 11.1097 13.1692C11.0815 13.2167 11.0431 13.2574 10.9972 13.2883Z" fill="white"/>
<path d="M7.65216 3.83894C7.71385 3.56287 7.87716 3.32012 8.10962 3.15892C8.34207 2.99773 8.62667 2.9299 8.90685 2.96891C9.17466 3.01436 9.4211 3.14373 9.61059 3.33836C9.80009 3.53298 9.92284 3.78279 9.96113 4.05172C9.97213 4.12047 9.97729 4.19334 9.98347 4.28478L9.99482 4.43741C9.99634 4.45561 9.99494 4.47395 9.99069 4.49172C9.98244 4.52403 9.97591 4.56253 9.968 4.60378C9.94756 4.74447 9.9098 4.8821 9.8556 5.01353C9.77787 5.23755 9.63216 5.43172 9.43879 5.56895C9.24541 5.70619 9.01403 5.77964 8.77691 5.77906H8.76316C8.51873 5.78827 8.27845 5.71396 8.08188 5.56838C7.88532 5.4228 7.74418 5.21462 7.68172 4.97812C7.57599 4.60696 7.56582 4.21509 7.65216 3.83894Z" fill="white"/>
</svg>
