<svg width="14" height="17" viewBox="0 0 14 17" fill="none" xmlns="http://www.w3.org/2000/svg">
<path d="M7.0078 15.9014L6.73006 16.3171C6.89837 16.4296 7.11787 16.4294 7.28604 16.3168L7.0078 15.9014ZM1.00002 7.16732L0.500023 7.16593L1.00002 7.16732ZM13 7.16731L12.5 7.1687L13 7.16731ZM7.0078 15.9014C7.28554 15.4856 7.28563 15.4857 7.2857 15.4857C7.28569 15.4857 7.28573 15.4857 7.28571 15.4857C7.28568 15.4857 7.28555 15.4856 7.28533 15.4855C7.2849 15.4852 7.28411 15.4846 7.28296 15.4839C7.28067 15.4823 7.27696 15.4798 7.27188 15.4764C7.26171 15.4694 7.24607 15.4587 7.22531 15.4443C7.18378 15.4155 7.12182 15.3719 7.04235 15.3143C6.88335 15.1992 6.65455 15.0285 6.37929 14.8086C5.82798 14.3682 5.09433 13.7341 4.36277 12.9583C2.87958 11.3854 1.49402 9.32397 1.50002 7.16871L0.500023 7.16593C0.49291 9.72254 2.11124 12.0282 3.63522 13.6443C4.40724 14.463 5.17799 15.1289 5.75519 15.5899C6.04418 15.8208 6.28567 16.0011 6.45588 16.1243C6.54102 16.186 6.6084 16.2334 6.65506 16.2658C6.6784 16.282 6.69656 16.2944 6.70918 16.303C6.71549 16.3073 6.72042 16.3106 6.72391 16.313C6.72566 16.3142 6.72705 16.3151 6.72807 16.3158C6.72859 16.3161 6.72901 16.3164 6.72934 16.3167C6.7295 16.3168 6.72968 16.3169 6.72977 16.3169C6.72992 16.317 6.73006 16.3171 7.0078 15.9014ZM1.50002 7.16871C1.52142 -0.521403 12.4786 -0.520755 12.5 7.1687L13.5 7.16592C13.4749 -1.85382 0.525117 -1.85314 0.500023 7.16593L1.50002 7.16871ZM12.5 7.1687C12.506 9.32444 11.1238 11.386 9.64459 12.9587C8.91495 13.7345 8.18323 14.3687 7.63337 14.809C7.35884 15.0289 7.13066 15.1996 6.97208 15.3147C6.89282 15.3722 6.83103 15.4158 6.78962 15.4447C6.76891 15.4591 6.75331 15.4698 6.74318 15.4767C6.73811 15.4802 6.73441 15.4827 6.73213 15.4842C6.73098 15.485 6.7302 15.4855 6.72976 15.4858C6.72955 15.4859 6.72942 15.486 6.72939 15.4861C6.72937 15.4861 6.72941 15.486 6.7294 15.486C6.72947 15.486 6.72956 15.4859 7.0078 15.9014C7.28604 16.3168 7.28618 16.3167 7.28633 16.3166C7.28642 16.3165 7.28659 16.3164 7.28676 16.3163C7.28709 16.3161 7.28751 16.3158 7.28802 16.3155C7.28905 16.3148 7.29043 16.3138 7.29218 16.3127C7.29566 16.3103 7.30058 16.307 7.30687 16.3027C7.31947 16.2941 7.33758 16.2816 7.36086 16.2654C7.40741 16.233 7.47463 16.1856 7.55955 16.124C7.72933 16.0007 7.97021 15.8204 8.25847 15.5896C8.8342 15.1285 9.60298 14.4626 10.373 13.6438C11.8932 12.0275 13.5071 9.72204 13.5 7.16592L12.5 7.1687ZM8.75 6.90137C8.75 7.86787 7.9665 8.65137 7 8.65137V9.65137C8.51878 9.65137 9.75 8.42015 9.75 6.90137H8.75ZM7 8.65137C6.0335 8.65137 5.25 7.86787 5.25 6.90137H4.25C4.25 8.42015 5.48122 9.65137 7 9.65137V8.65137ZM5.25 6.90137C5.25 5.93487 6.0335 5.15137 7 5.15137V4.15137C5.48122 4.15137 4.25 5.38258 4.25 6.90137H5.25ZM7 5.15137C7.9665 5.15137 8.75 5.93487 8.75 6.90137H9.75C9.75 5.38258 8.51878 4.15137 7 4.15137V5.15137Z" fill="#5158BB"/>
</svg>
