<svg width="16" height="18" viewBox="0 0 16 18" fill="none" xmlns="http://www.w3.org/2000/svg">
<path d="M4.66671 6.5V4.83333C4.66671 2.99238 6.15909 1.5 8.00004 1.5C9.84099 1.5 11.3334 2.99238 11.3334 4.83333V6.5M4.66671 6.5H11.3334M4.66671 6.5C4.11115 6.5 3.5556 6.5 3.00004 6.5C2.07957 6.5 1.33337 7.24619 1.33337 8.16667V14.8333C1.33337 15.7538 2.07635 16.5 2.99682 16.5C5.69483 16.5 10.4813 16.5 13.0042 16.5C13.9247 16.5 14.6667 15.7538 14.6667 14.8333V8.16667C14.6667 7.24619 13.9208 6.5 13.0004 6.5C12.5027 6.5 11.9296 6.5 11.3334 6.5" stroke="black" stroke-width="1.25" stroke-linejoin="round"/>
</svg>
