<svg width="23" height="20" viewBox="0 0 23 20" fill="none" xmlns="http://www.w3.org/2000/svg">
<path d="M20.4882 8.89837C22.2973 5.28797 19.0023 1.62036 15.4198 2.03166C13.5117 2.24967 12.3928 3.67014 11.4058 4.65712C9.82344 6.23948 9.532 9.4467 11.992 11.688C16.1467 14.968 18.2587 11.7541 18.2587 11.7541C18.2587 11.7541 15.9881 9.48349 13.2913 6.78673M14.0977 15.9367L11.4073 18.6055L9.18389 16.4655C6.50894 13.8895 2.14708 10.6471 2.00328 6.63009C1.90278 3.81598 4.12314 2.0131 6.67748 2.04557C7.79586 2.06073 8.80733 2.35293 9.29765 2.79304" stroke="url(#paint0_linear_827_8680)" stroke-width="2.5" stroke-linejoin="round"/>
<defs>
<linearGradient id="paint0_linear_827_8680" x1="3.09615" y1="-2.92511" x2="21" y2="23.3826" gradientUnits="userSpaceOnUse">
<stop stop-color="#5158BB"/>
<stop offset="1" stop-color="#978FDD"/>
</linearGradient>
</defs>
</svg>
