<svg width="17" height="17" viewBox="0 0 17 17" fill="none" xmlns="http://www.w3.org/2000/svg">
<path d="M16.481 0.519027C16.475 0.514027 16.467 0.510027 16.463 0.505027C16.193 0.239027 15.819 0.134027 15.473 0.191027L11.471 0.243027C10.838 0.252027 10.332 0.771027 10.34 1.40403C10.348 2.03503 10.827 2.50603 11.5 2.53403L12.84 2.51703L10.879 4.47803C9.713 3.61803 8.309 3.15303 6.832 3.15303C5.006 3.15303 3.289 3.86403 1.998 5.15503C-0.666 7.82003 -0.666 12.157 1.998 14.822C3.289 16.113 5.006 16.824 6.832 16.824C8.657 16.824 10.375 16.113 11.666 14.822C14.026 12.46 14.299 8.78703 12.477 6.12603L14.536 4.07303V5.57203C14.536 6.20503 15.05 6.71703 15.682 6.71703C16.317 6.71703 16.828 6.20403 16.828 5.57203V1.33203C16.828 1.02803 16.699 0.734027 16.481 0.519027ZM10.046 13.202C8.33 14.918 5.337 14.918 3.619 13.202C1.847 11.431 1.847 8.54703 3.619 6.77503C4.478 5.91703 5.619 5.44403 6.833 5.44403C8.048 5.44403 9.187 5.91703 10.048 6.77503C11.819 8.54603 11.819 11.431 10.046 13.202Z" fill="#5158BB"/>
</svg>
