<svg width="22" height="20" viewBox="0 0 22 20" fill="none" xmlns="http://www.w3.org/2000/svg">
<path d="M9.92 17.7501C9.63 17.7501 9.35 17.7101 9.12 17.6201C5.7 16.4501 0.25 12.2701 0.25 6.09009C0.25 2.92009 2.80999 0.350098 5.95999 0.350098C7.46999 0.350098 8.87999 0.930078 9.93 1.96008C10.99 0.930078 12.39 0.350098 13.9 0.350098C17.05 0.350098 19.61 2.92009 19.61 6.09009C19.61 6.52009 19.58 6.9601 19.52 7.4101C19.49 7.6401 19.35 7.85009 19.15 7.97009C18.95 8.0901 18.7 8.1001 18.48 8.0101C17.25 7.4801 15.72 7.8801 14.92 8.9501C14.78 9.1401 14.51 9.2401 14.32 9.2501C14.08 9.2501 13.86 9.1401 13.72 8.9501C13.15 8.1901 12.28 7.7601 11.34 7.7601C9.71 7.7601 8.38 9.1001 8.38 10.7501C8.38 13.3501 9.87 15.2001 11.13 16.3101C11.31 16.4701 11.4 16.7001 11.38 16.9401C11.36 17.1801 11.23 17.3901 11.02 17.5201C10.91 17.5801 10.82 17.6201 10.77 17.6301C10.51 17.7101 10.22 17.7501 9.92 17.7501ZM5.95999 1.8501C3.63999 1.8501 1.75 3.75009 1.75 6.09009C1.75 11.3201 6.10001 14.5401 8.60001 15.7801C7.65001 14.5101 6.87 12.8301 6.87 10.7401C6.87 8.2601 8.86999 6.25009 11.33 6.25009C12.45 6.25009 13.5 6.66011 14.31 7.39011C15.32 6.49011 16.76 6.08008 18.1 6.33008C18.1 6.25008 18.1 6.1701 18.1 6.1001C18.1 3.7601 16.21 1.86008 13.89 1.86008C12.56 1.86008 11.33 2.48008 10.52 3.55008C10.38 3.74008 10.16 3.8501 9.92 3.8501C9.68 3.8501 9.46 3.74008 9.32 3.55008C8.53001 2.47008 7.29999 1.8501 5.95999 1.8501Z" fill="#5158BB" stroke="#5158BB" stroke-width="0.3"/>
<path d="M14.3206 19.65C14.0906 19.65 13.8506 19.62 13.6606 19.55C12.8006 19.26 11.4106 18.55 10.1406 17.42C8.66062 16.11 6.89062 13.89 6.89062 10.74C6.89062 8.25998 8.89061 6.25 11.3506 6.25C12.4706 6.25 13.5206 6.66002 14.3306 7.39002C15.5906 6.26002 17.5106 5.94001 19.0906 6.63001C20.7106 7.35001 21.7606 8.96998 21.7606 10.75C21.7606 15.49 17.6006 18.67 14.9806 19.56C14.7806 19.62 14.5506 19.65 14.3206 19.65ZM11.3406 7.75C9.71059 7.75 8.38061 9.08998 8.38061 10.74C8.38061 13.34 9.87059 15.19 11.1306 16.3C12.2406 17.28 13.4106 17.89 14.1406 18.13C14.2206 18.16 14.4106 18.16 14.4806 18.13C15.9806 17.62 20.2506 15.17 20.2506 10.74C20.2506 9.54998 19.5506 8.46998 18.4806 7.99998C17.2706 7.47 15.7206 7.87 14.9206 8.93998C14.7806 9.12998 14.5106 9.22998 14.3206 9.23998C14.0806 9.23998 13.8606 9.12998 13.7206 8.93998C13.1506 8.17998 12.2806 7.75 11.3406 7.75Z" fill="#5158BB" stroke="#5158BB" stroke-width="0.3"/>
</svg>
