<svg width="22" height="21" viewBox="0 0 22 21" fill="none" xmlns="http://www.w3.org/2000/svg">
<path d="M12.7417 7.51343L12.7417 2.79161C12.7417 2.13797 12.2732 1.59019 11.6288 1.48427L11.6279 1.48413L2.47012 0.0925462C2.47003 0.0925323 2.46994 0.0925183 2.46985 0.0925044C2.08224 0.0309147 1.6937 0.136645 1.39349 0.392465C1.09245 0.640639 0.925 1.01204 0.925 1.39995V18.7499C0.925 19.483 1.51691 20.0749 2.25 20.0749L4.75 20.075C4.75001 20.075 4.75002 20.075 4.75003 20.075H8.91664H12.25H19.75C20.4831 20.075 21.075 19.4831 21.075 18.75V10.25C21.075 9.6229 20.6502 9.09228 20.0238 8.95995L20.0229 8.95977L12.7417 7.51343ZM8.42503 19.0917H5.24169V15.4167C5.24169 15.2248 5.39145 15.075 5.58336 15.075H8.08336C8.26792 15.075 8.42503 15.2257 8.42503 15.4167V19.0917ZM4.25836 15.4167V19.0917L2.25 19.0916C2.06544 19.0916 1.90833 18.9409 1.90833 18.7499V1.39995C1.90833 1.29741 1.94829 1.21011 2.03135 1.1409L2.03137 1.14093L2.03316 1.13934C2.09387 1.08537 2.1676 1.05828 2.25 1.05828C2.27669 1.05828 2.28961 1.05887 2.30128 1.06277L2.30093 1.06383L2.3138 1.06577L11.471 2.44893C11.4712 2.44896 11.4714 2.44899 11.4715 2.44902C11.635 2.47652 11.7583 2.61998 11.7583 2.79161L11.7584 7.91667V19.0917L9.40831 19.0917L9.40836 15.4167C9.40836 14.6836 8.81645 14.0917 8.08336 14.0917H5.58336C4.85027 14.0917 4.25836 14.6836 4.25836 15.4167ZM12.7417 19.0917V8.51626L19.8257 9.91496C19.826 9.91501 19.8262 9.91506 19.8264 9.91511C19.9817 9.94922 20.0917 10.0922 20.0917 10.25V18.75C20.0917 18.9409 19.9346 19.0917 19.75 19.0917H12.7417ZM17.7416 12.0833C17.7416 11.8086 17.5247 11.5917 17.25 11.5917H15.5833C15.3086 11.5917 15.0916 11.8086 15.0916 12.0833C15.0916 12.3581 15.3086 12.575 15.5833 12.575H17.25C17.5247 12.575 17.7416 12.3581 17.7416 12.0833ZM17.7416 14.5833C17.7416 14.3086 17.5247 14.0917 17.25 14.0917H15.5833C15.3086 14.0917 15.0916 14.3086 15.0916 14.5833C15.0916 14.8581 15.3086 15.075 15.5833 15.075H17.25C17.5247 15.075 17.7416 14.8581 17.7416 14.5833ZM17.7416 17.0833C17.7416 16.8086 17.5247 16.5917 17.25 16.5917H15.5833C15.3086 16.5917 15.0916 16.8086 15.0916 17.0833C15.0916 17.3581 15.3086 17.575 15.5833 17.575H17.25C17.5247 17.575 17.7416 17.3581 17.7416 17.0833Z" fill="black" stroke="black" stroke-width="0.15"/>
</svg>
