<svg width="36" height="45" viewBox="0 0 36 45" fill="none" xmlns="http://www.w3.org/2000/svg">
<path d="M18 8.28809C8.07519 8.28809 0 16.3633 0 26.2881C0 36.2129 8.07519 44.2881 18 44.2881C27.9248 44.2881 36 36.2129 36 26.2881C36 16.3633 27.9248 8.28809 18 8.28809ZM28.0601 21.5512L16.5564 32.9648C15.8797 33.6415 14.797 33.6866 14.0752 33.0099L7.98496 27.461C7.26316 26.7843 7.21804 25.6565 7.84962 24.9347C8.52632 24.2129 9.65414 24.1678 10.3759 24.8445L15.203 29.2655L25.4887 18.9798C26.2105 18.258 27.3383 18.258 28.0601 18.9798C28.782 19.7016 28.782 20.8294 28.0601 21.5512Z" fill="black"/>
<path d="M11 13.5V8.5C11 4.63401 14.134 1.5 18 1.5V1.5C21.866 1.5 25 4.63401 25 8.5V13.5" stroke="black" stroke-width="3"/>
</svg>
