<svg width="15" height="22" viewBox="0 0 15 22" fill="none" xmlns="http://www.w3.org/2000/svg">
<path d="M3.75047 17.0113H11.2497C11.664 17.0113 11.9998 16.6754 11.9998 16.2616C11.9998 15.8477 11.664 15.5119 11.2497 15.5119H3.75047C3.33619 15.5119 3.00037 15.8477 3.00037 16.2616C3.00037 16.6754 3.33619 17.0113 3.75047 17.0113Z" fill="white"/>
<path fill-rule="evenodd" clip-rule="evenodd" d="M0 8.76088V2.76055C0 2.16469 0.237092 1.59265 0.658967 1.17014C1.08084 0.747619 1.65375 0.511475 2.25028 0.511475H12.7499C13.3464 0.511475 13.9193 0.747619 14.3412 1.17014C14.7631 1.59265 15.0002 2.16469 15.0002 2.76055V7.26088V13.2622V19.2625C15.0002 19.8584 14.7631 20.4304 14.3412 20.8529C13.9193 21.2754 13.3464 21.5116 12.7499 21.5116C12.7499 21.5116 11.6682 21.4921 11.0303 20.8529L10.7198 20.5431C10.5983 20.4217 10.4017 20.4217 10.2802 20.5431C9.57319 21.2494 8.42653 21.2494 7.71946 20.5431C7.59881 20.4217 7.40137 20.4217 7.28072 20.5431C6.57365 21.2494 5.427 21.2494 4.71994 20.5431C4.59844 20.4217 4.40184 20.4217 4.28034 20.5431L3.96985 20.8529C3.33197 21.4921 2.25028 21.5116 2.25028 21.5116C1.65375 21.5116 1.08084 21.2754 0.658967 20.8529C0.237092 20.4304 0 19.8584 0 19.2625V14.7622V8.76088ZM11.2497 5.76149H3.75047C3.33619 5.76149 3.00037 5.42565 3.00037 5.01181C3.00037 4.59796 3.33619 4.26209 3.75047 4.26209H11.2497C11.664 4.26209 11.9998 4.59796 11.9998 5.01181C11.9998 5.42565 11.664 5.76149 11.2497 5.76149ZM11.2497 17.0113H3.75047C3.33619 17.0113 3.00037 16.6754 3.00037 16.2616C3.00037 15.8477 3.33619 15.5119 3.75047 15.5119H11.2497C11.664 15.5119 11.9998 15.8477 11.9998 16.2616C11.9998 16.6754 11.664 17.0113 11.2497 17.0113Z" fill="white"/>
<path fill-rule="evenodd" clip-rule="evenodd" d="M3.75047 17.0113H11.2497C11.664 17.0113 11.9998 16.6754 11.9998 16.2616C11.9998 15.8477 11.664 15.5119 11.2497 15.5119H3.75047C3.33619 15.5119 3.00037 15.8477 3.00037 16.2616C3.00037 16.6754 3.33619 17.0113 3.75047 17.0113Z" fill="white"/>
</svg>
