<svg width="16" height="16" viewBox="0 0 16 16" fill="none" xmlns="http://www.w3.org/2000/svg">
<path d="M10 2H14.5C15.3271 2 16 2.67285 16 3.5V8C16 8.82715 15.3271 9.5 14.5 9.5H12.4817L13.2407 13.4045C13.2693 13.5513 13.2307 13.7029 13.1357 13.8181C13.0408 13.9334 12.8994 14 12.75 14H11.1301C10.6953 14 10.3088 13.7156 10.1772 13.3037L8.72168 9.85108C8.71338 9.8313 8.7063 9.81104 8.70069 9.79053C8.56739 9.31153 8.5 8.81616 8.5 8.31836V3.5C8.5 2.67285 9.17285 2 10 2Z" fill="url(#paint0_linear_1518_5254)"/>
<path d="M1.5 2H6C6.82715 2 7.5 2.67285 7.5 3.5V8C7.5 8.82715 6.82715 9.5 6 9.5H3.98145L4.74072 13.4045C4.76953 13.5513 4.73096 13.7029 4.63574 13.8181C4.54102 13.9334 4.39942 14 4.25 14H2.62988C2.19482 14 1.80859 13.7156 1.67725 13.3035L0.221685 9.85107C0.213386 9.8313 0.20655 9.81103 0.20069 9.79053C0.0673852 9.31104 0 8.81568 0 8.31836V3.5C0 2.67285 0.67285 2 1.5 2Z" fill="url(#paint1_linear_1518_5254)"/>
<defs>
<linearGradient id="paint0_linear_1518_5254" x1="12.25" y1="2" x2="12.25" y2="14" gradientUnits="userSpaceOnUse">
<stop stop-color="#A4A8D9"/>
<stop offset="1" stop-color="#BBBFFF"/>
</linearGradient>
<linearGradient id="paint1_linear_1518_5254" x1="3.75" y1="2" x2="3.75" y2="14" gradientUnits="userSpaceOnUse">
<stop stop-color="#A4A8D9"/>
<stop offset="1" stop-color="#BBBFFF"/>
</linearGradient>
</defs>
</svg>
