<svg width="24" height="24" viewBox="0 0 24 24" fill="none" xmlns="http://www.w3.org/2000/svg">
<path d="M11.9981 22.7501C11.2181 22.7501 10.4581 22.3501 9.93805 21.6501L8.92805 20.3001C8.71805 20.0201 8.43805 19.8601 8.13805 19.8401C7.83805 19.8301 7.53805 19.9601 7.29805 20.2101L6.72805 19.7001L7.27805 20.2101C5.83805 21.7501 4.72805 21.6301 4.19805 21.4201C3.65805 21.2101 2.74805 20.5201 2.74805 18.3001V7.04012C2.74805 2.60012 4.02805 1.25012 8.21805 1.25012H15.7781C19.9681 1.25012 21.2481 2.60012 21.2481 7.04012V18.3001C21.2481 20.5101 20.3381 21.2001 19.7981 21.4201C19.2681 21.6301 18.1681 21.7501 16.7181 20.2101C16.4781 19.9501 16.1881 19.8101 15.8681 19.8401C15.5681 19.8601 15.2781 20.0201 15.0681 20.3001L14.0581 21.6501C13.5381 22.3501 12.7781 22.7501 11.9981 22.7501ZM8.07805 18.3301H8.20805C8.94805 18.3701 9.64805 18.7601 10.1181 19.3901L11.1281 20.7401C11.6181 21.3901 12.3681 21.3901 12.8581 20.7401L13.8681 19.3901C14.3481 18.7601 15.0381 18.3701 15.7881 18.3301C16.5281 18.2901 17.2681 18.6001 17.8081 19.1801C18.5681 19.9901 19.0681 20.0901 19.2381 20.0201C19.4781 19.9201 19.7381 19.3401 19.7381 18.3001V7.04012C19.7381 3.43012 19.1081 2.75012 15.7681 2.75012H8.21805C4.87805 2.75012 4.24805 3.43012 4.24805 7.04012V18.3001C4.24805 19.3501 4.50805 19.9301 4.74805 20.0201C4.91805 20.0901 5.41805 19.9901 6.17805 19.1801C6.71805 18.6301 7.38805 18.3301 8.07805 18.3301Z" fill="black"/>
<path d="M14.75 7.75012H8.75C8.34 7.75012 8 7.41012 8 7.00012C8 6.59012 8.34 6.25012 8.75 6.25012H14.75C15.16 6.25012 15.5 6.59012 15.5 7.00012C15.5 7.41012 15.16 7.75012 14.75 7.75012Z" fill="black"/>
<path d="M10 7C10 7 13 7.23466 13 10C13 12.7653 9.5 12.5 9.5 12.5C9.5 12.5 13 13.5 13 16" stroke="black" stroke-width="1.5" stroke-linecap="round" stroke-linejoin="round"/>
<path d="M14.75 10.5H9.75C9.34 10.5 9 10.16 9 9.75C9 9.34 9.34 9 9.75 9H14.75C15.16 9 15.5 9.34 15.5 9.75C15.5 10.16 15.16 10.5 14.75 10.5Z" fill="black"/>
</svg>
