<svg width="22" height="22" viewBox="0 0 22 22" fill="none" xmlns="http://www.w3.org/2000/svg">
<path fill-rule="evenodd" clip-rule="evenodd" d="M13.0984 1.21376C13.9616 1.39232 14.5949 2.09341 14.8403 2.94001C15.004 3.50485 15.5934 3.83753 16.1644 3.69662C17.0266 3.48383 17.97 3.67354 18.5677 4.33046C19.4928 5.34734 20.2097 6.55176 20.6521 7.87867C20.9306 8.71411 20.6324 9.61151 20.0149 10.2394C19.5998 10.6615 19.5998 11.3385 20.0149 11.7606C20.6324 12.3885 20.9306 13.2859 20.6521 14.1213C20.2097 15.4482 19.4928 16.6527 18.5677 17.6695C17.97 18.3265 17.0266 18.5162 16.1644 18.3034C15.5934 18.1625 15.004 18.4951 14.8403 19.06C14.5949 19.9066 13.9616 20.6077 13.0984 20.7862C12.4212 20.9263 11.7191 21 10.9995 21C10.2801 21 9.5782 20.9264 8.90111 20.7864C8.03786 20.6078 7.40452 19.9067 7.1591 19.06C6.99536 18.4952 6.40587 18.1625 5.83488 18.3034C4.97253 18.5162 4.02895 18.3265 3.43122 17.6695C2.50623 16.6528 1.78951 15.4486 1.34709 14.122C1.06842 13.2864 1.36673 12.3888 1.98432 11.7607C2.39946 11.3385 2.39946 10.6615 1.98432 10.2393C1.36673 9.61124 1.06843 8.71364 1.34709 7.87804C1.78951 6.55139 2.50623 5.34721 3.43121 4.3305C4.02894 3.67349 4.97252 3.48379 5.83488 3.6966C6.40587 3.83751 6.99536 3.50484 7.1591 2.93997C7.40452 2.0933 8.03786 1.39216 8.90112 1.21364C9.5782 1.07363 10.2801 1 10.9995 1C11.7191 1 12.4212 1.07367 13.0984 1.21376Z" stroke="#18161E" stroke-width="1.5" stroke-linecap="round"/>
<path d="M14.9995 11C14.9995 13.2091 13.2086 15 10.9995 15C8.79037 15 6.99951 13.2091 6.99951 11C6.99951 8.79086 8.79037 7 10.9995 7C13.2086 7 14.9995 8.79086 14.9995 11Z" stroke="#18161E" stroke-width="1.5" stroke-linecap="round"/>
</svg>
