<svg width="35" height="36" viewBox="0 0 35 36" fill="none" xmlns="http://www.w3.org/2000/svg">
<path d="M16.6701 25.8058C16.3997 26.6663 15.7317 27.3474 14.8877 27.6232C15.7317 27.8989 16.3997 28.58 16.6701 29.4405C16.9406 28.58 17.6083 27.8989 18.4523 27.6232C17.6083 27.3474 16.9406 26.6666 16.6701 25.8058Z" fill="url(#paint0_linear_1301_427)"/>
<path d="M21.532 7.20334C20.9222 10.6632 18.24 13.3983 14.8472 14.0203C18.24 14.6421 20.9222 17.3774 21.532 20.837C22.1418 17.3772 24.8241 14.6421 28.2169 14.0203C24.8241 13.3983 22.1418 10.6632 21.532 7.20334Z" fill="url(#paint1_linear_1301_427)"/>
<path d="M10.2881 16.6391C9.87222 18.4091 8.50304 19.8054 6.76709 20.2294C8.50304 20.6534 9.87248 22.0497 10.2881 23.8197C10.7039 22.0497 12.0731 20.6534 13.809 20.2294C12.0731 19.8054 10.7039 18.4091 10.2881 16.6391Z" fill="url(#paint2_linear_1301_427)"/>
<defs>
<linearGradient id="paint0_linear_1301_427" x1="14.7245" y1="25.3449" x2="18.6313" y2="29.0683" gradientUnits="userSpaceOnUse">
<stop stop-color="#F2681B"/>
<stop offset="1" stop-color="#FC6F6E"/>
</linearGradient>
<linearGradient id="paint1_linear_1301_427" x1="14.2352" y1="5.47443" x2="28.8893" y2="19.4399" gradientUnits="userSpaceOnUse">
<stop stop-color="#F2681B"/>
<stop offset="1" stop-color="#FC6F6E"/>
</linearGradient>
<linearGradient id="paint2_linear_1301_427" x1="6.44475" y1="15.7285" x2="14.1627" y2="23.0843" gradientUnits="userSpaceOnUse">
<stop stop-color="#F2681B"/>
<stop offset="1" stop-color="#FC6F6E"/>
</linearGradient>
</defs>
</svg>
