<svg width="16" height="22" viewBox="0 0 16 22" fill="none" xmlns="http://www.w3.org/2000/svg">
<path fill-rule="evenodd" clip-rule="evenodd" d="M1.15897 10.3534C1.58084 10.7738 2.15375 11.0121 2.75028 11.0121L13.2499 9.51214C13.8464 9.51214 14.4193 9.27379 14.8412 8.85344C15.2631 8.43093 15.5002 7.8589 15.5002 7.26088V2.76055C15.5002 2.16469 15.2631 1.59265 14.8412 1.17014C14.4193 0.747619 13.8464 0.511475 13.2499 0.511475H2.75028C2.15375 0.511475 1.58084 0.747619 1.15897 1.17014C0.737092 1.59265 0.5 2.16469 0.5 2.76055V8.76088C0.5 9.3589 0.737092 9.93093 1.15897 10.3534ZM11.7497 5.76149H4.25047C3.83619 5.76149 3.50037 5.42565 3.50037 5.01181C3.50037 4.59796 3.83619 4.26209 4.25047 4.26209H11.7497C12.164 4.26209 12.4998 4.59796 12.4998 5.01181C12.4998 5.42565 12.164 5.76149 11.7497 5.76149ZM14.8412 11.6696C14.4193 11.2493 13.8464 11.0109 13.2499 11.0109L2.75028 12.5109C2.15375 12.5109 1.58084 12.7493 1.15897 13.1696C0.737092 13.5921 0.5 14.1642 0.5 14.7622V19.2625C0.5 19.8584 0.737092 20.4304 1.15897 20.8529C1.58084 21.2754 2.15375 21.5116 2.75028 21.5116C2.75028 21.5116 3.83197 21.4921 4.46985 20.8529L4.78034 20.5431C4.90184 20.4217 5.09844 20.4217 5.21994 20.5431C5.927 21.2494 7.07365 21.2494 7.78072 20.5431C7.90137 20.4217 8.09881 20.4217 8.21946 20.5431C8.92653 21.2494 10.0732 21.2494 10.7802 20.5431C10.9017 20.4217 11.0983 20.4217 11.2198 20.5431L11.5303 20.8529C12.1682 21.4921 13.2499 21.5116 13.2499 21.5116C13.8464 21.5116 14.4193 21.2754 14.8412 20.8529C15.2631 20.4304 15.5002 19.8584 15.5002 19.2625V13.2622C15.5002 12.6642 15.2631 12.0921 14.8412 11.6696ZM11.7497 17.0113H4.25047C3.83619 17.0113 3.50037 16.6754 3.50037 16.2616C3.50037 15.8477 3.83619 15.5119 4.25047 15.5119H11.7497C12.164 15.5119 12.4998 15.8477 12.4998 16.2616C12.4998 16.6754 12.164 17.0113 11.7497 17.0113Z" fill="white"/>
<path d="M4.25047 17.0113H11.7497C12.164 17.0113 12.4998 16.6754 12.4998 16.2616C12.4998 15.8477 12.164 15.5119 11.7497 15.5119H4.25047C3.83619 15.5119 3.50037 15.8477 3.50037 16.2616C3.50037 16.6754 3.83619 17.0113 4.25047 17.0113Z" fill="white"/>
</svg>
