<svg width="22" height="22" viewBox="0 0 22 22" fill="none" xmlns="http://www.w3.org/2000/svg">
<path d="M15.3101 5.44444C15.3101 7.89904 13.3203 9.88889 10.8657 9.88889C8.41111 9.88889 6.42126 7.89904 6.42126 5.44444C6.42126 2.98985 8.41111 1 10.8657 1C13.3203 1 15.3101 2.98985 15.3101 5.44444Z" stroke="#18161E" stroke-width="1.5" stroke-linejoin="round"/>
<path d="M6.56218 12.5418C5.71815 12.031 4.64377 11.894 3.92016 12.5784C2.22366 14.183 1.34937 16.3128 1.0208 18.6466C0.839193 19.9366 1.87235 21 3.11635 21H18.8836C20.1277 21 21.1608 19.9366 20.9792 18.6466C20.6506 16.3128 19.7763 14.183 18.0798 12.5784C17.3562 11.894 16.2819 12.031 15.4378 12.5418C14.1279 13.3347 12.6135 13.7874 11 13.7874C9.38654 13.7874 7.87213 13.3347 6.56218 12.5418Z" stroke="#18161E" stroke-width="1.5" stroke-linejoin="round"/>
</svg>
