<svg width="191" height="30" viewBox="0 0 191 30" fill="none" xmlns="http://www.w3.org/2000/svg">
<path d="M23.7464 13.7579C25.7594 9.74044 22.093 5.65935 18.1065 6.11701C15.9834 6.35961 14.7383 7.94021 13.64 9.03847C11.8793 10.7992 11.555 14.368 14.2923 16.862C18.9154 20.5118 21.2655 16.9356 21.2655 16.9356C21.2655 16.9356 18.7389 14.4089 15.7381 11.4082M16.6354 21.5897L13.6417 24.5593L11.1676 22.1781C8.1911 19.3117 3.33749 15.7038 3.17748 11.2339C3.06565 8.1025 5.53633 6.09636 8.37864 6.1325C9.6231 6.14936 10.7486 6.4745 11.2942 6.96423" stroke="#5158BB" stroke-width="2.78185" stroke-linejoin="round"/>
<path d="M40.2806 7.6296H43.2235V18.4374C43.2235 19.8751 42.8683 21.1098 42.158 22.1415C41.4476 23.1901 40.4159 23.9935 39.0628 24.5517C37.7266 25.1098 36.1198 25.3889 34.2424 25.3889L33.735 22.6489C35.7815 22.6151 37.3291 22.2514 38.3778 21.558C39.4433 20.8645 39.9761 19.8666 39.9761 18.5643V18.5135L40.4074 18.3613C40.0015 18.9533 39.4433 19.4607 38.733 19.8835C38.0226 20.2894 37.1769 20.4924 36.1959 20.4924C35.0796 20.4924 34.0986 20.2218 33.253 19.6806C32.4073 19.1393 31.7392 18.3867 31.2487 17.4226C30.7751 16.4416 30.5383 15.2915 30.5383 13.9722C30.5383 12.6529 30.7751 11.5028 31.2487 10.5218C31.7392 9.54084 32.4073 8.78818 33.253 8.26386C34.0986 7.72263 35.0796 7.45201 36.1959 7.45201C36.771 7.45201 37.3038 7.53658 37.7943 7.70571C38.3017 7.85793 38.7414 8.06935 39.1135 8.33997C39.5025 8.59368 39.8239 8.88121 40.0776 9.20257L40.2806 7.6296ZM34.0394 13.9722C34.0394 15.0378 34.3101 15.9004 34.8513 16.56C35.3925 17.2027 36.1198 17.5241 37.0331 17.5241C37.5575 17.5241 38.0395 17.3888 38.4793 17.1181C38.919 16.8306 39.2742 16.4162 39.5448 15.875C39.8324 15.3338 39.9761 14.6995 39.9761 13.9722C39.9761 13.2111 39.8324 12.5684 39.5448 12.0441C39.2742 11.5197 38.9106 11.1223 38.4539 10.8516C38.0141 10.5641 37.5406 10.4203 37.0331 10.4203C36.1198 10.4203 35.3925 10.7502 34.8513 11.4098C34.3101 12.0525 34.0394 12.9067 34.0394 13.9722ZM45.5743 2.0481H48.8217V20.3148H45.5743V2.0481ZM51.6118 7.6296H54.8592V20.3148H51.6118V7.6296ZM53.2609 6.00589C52.652 6.00589 52.1531 5.81984 51.7641 5.44774C51.375 5.05873 51.1805 4.58515 51.1805 4.027C51.1805 3.46885 51.375 3.00372 51.7641 2.63162C52.1531 2.24261 52.652 2.0481 53.2609 2.0481C53.836 2.0481 54.318 2.24261 54.707 2.63162C55.113 3.00372 55.3159 3.46885 55.3159 4.027C55.3159 4.58515 55.113 5.05873 54.707 5.44774C54.318 5.81984 53.836 6.00589 53.2609 6.00589ZM57.654 7.6296H60.5969L60.8253 8.92349C61.2312 8.46683 61.7217 8.11164 62.2968 7.85793C62.8887 7.58732 63.523 7.45201 64.1995 7.45201C65.1974 7.45201 66.0431 7.66343 66.7366 8.08627C67.4469 8.50911 67.9882 9.12646 68.3603 9.93831C68.7493 10.7333 68.9438 11.7227 68.9438 12.9067V20.3148H65.671V13.3379C65.671 12.357 65.4765 11.6212 65.0875 11.1307C64.6985 10.6402 64.115 10.395 63.3369 10.395C62.542 10.395 61.9331 10.6487 61.5103 11.1561C61.1043 11.6466 60.9014 12.3823 60.9014 13.3633V20.3148H57.654V7.6296ZM72.0275 7.6296V4.07774H75.3257V7.6296H78.1164V10.4965H75.3257V15.6467C75.3257 16.3063 75.461 16.7714 75.7316 17.042C76.0191 17.3127 76.3743 17.4564 76.7971 17.4733C77.2369 17.4902 77.6767 17.4649 78.1164 17.3972V20.188C77.3384 20.3571 76.5773 20.4078 75.8331 20.3402C75.1058 20.2725 74.4546 20.078 73.8795 19.7567C73.3045 19.4184 72.8478 18.911 72.5095 18.2344C72.1882 17.5579 72.0275 16.6953 72.0275 15.6467V10.4965H70.2262V7.6296H72.0275Z" fill="black"/>
<path d="M117.616 2.18H112.31V5.526H116.3V6.506H112.31V10.02H117.616V11H111.19V1.2H117.616V2.18ZM119.595 4L121.807 9.824L124.033 4H125.139L122.339 11H121.247L118.475 4H119.595ZM129.092 11.098C128.439 11.098 127.855 10.9393 127.342 10.622C126.838 10.3047 126.441 9.87067 126.152 9.32C125.863 8.76933 125.718 8.13933 125.718 7.43C125.718 6.74867 125.863 6.142 126.152 5.61C126.441 5.078 126.838 4.66267 127.342 4.364C127.846 4.056 128.42 3.902 129.064 3.902C129.699 3.902 130.263 4.042 130.758 4.322C131.262 4.602 131.654 4.98933 131.934 5.484C132.214 5.97867 132.345 6.54333 132.326 7.178C132.326 7.28067 132.321 7.388 132.312 7.5C132.303 7.612 132.293 7.73333 132.284 7.864H126.866C126.885 8.30267 126.992 8.69 127.188 9.026C127.384 9.362 127.641 9.628 127.958 9.824C128.285 10.0107 128.653 10.104 129.064 10.104C129.605 10.104 130.063 10.0013 130.436 9.796C130.819 9.59067 131.094 9.29667 131.262 8.914L132.172 9.278C131.892 9.866 131.486 10.3187 130.954 10.636C130.422 10.944 129.801 11.098 129.092 11.098ZM131.178 6.954C131.187 6.55267 131.099 6.198 130.912 5.89C130.735 5.582 130.483 5.33933 130.156 5.162C129.829 4.98467 129.451 4.896 129.022 4.896C128.649 4.896 128.308 4.98467 128 5.162C127.692 5.33933 127.435 5.58667 127.23 5.904C127.034 6.212 126.917 6.562 126.88 6.954H131.178ZM133.634 4H134.6L134.656 4.994C134.88 4.64867 135.174 4.38267 135.538 4.196C135.902 4 136.327 3.902 136.812 3.902C137.344 3.902 137.811 4.01867 138.212 4.252C138.614 4.476 138.926 4.81667 139.15 5.274C139.374 5.722 139.486 6.28667 139.486 6.968V11H138.436V7.094C138.436 6.366 138.278 5.81533 137.96 5.442C137.652 5.05933 137.204 4.868 136.616 4.868C136.01 4.868 135.534 5.06867 135.188 5.47C134.852 5.87133 134.684 6.464 134.684 7.248V11H133.634V4ZM141.551 4V2.04H142.601V4H144.463V4.98H142.601V8.746C142.601 9.17533 142.69 9.488 142.867 9.684C143.054 9.88 143.287 9.99667 143.567 10.034C143.856 10.0713 144.155 10.0713 144.463 10.034V10.944C144.099 11.028 143.74 11.0513 143.385 11.014C143.04 10.9767 142.727 10.874 142.447 10.706C142.176 10.5287 141.957 10.2813 141.789 9.964C141.63 9.64667 141.551 9.24067 141.551 8.746V4.98H140.501V4H141.551ZM112.31 27H111.19V17.2H112.422L116.062 25.46L119.688 17.2H120.906V27H119.786V19.412L116.454 27H115.656L112.31 19.412V27ZM127.14 27L127.056 25.74C126.86 26.1693 126.57 26.5053 126.188 26.748C125.805 26.9813 125.32 27.098 124.732 27.098C124.228 27.098 123.798 27.0187 123.444 26.86C123.089 26.7013 122.814 26.4773 122.618 26.188C122.431 25.8893 122.338 25.5393 122.338 25.138C122.338 24.55 122.557 24.0693 122.996 23.696C123.434 23.3133 124.069 23.08 124.9 22.996L127.056 22.758V22.198C127.056 21.806 126.911 21.4933 126.622 21.26C126.332 21.0173 125.94 20.896 125.446 20.896C124.96 20.896 124.554 21.008 124.228 21.232C123.91 21.456 123.691 21.778 123.57 22.198L122.618 21.862C122.804 21.246 123.145 20.7653 123.64 20.42C124.144 20.0747 124.755 19.902 125.474 19.902C126.304 19.902 126.948 20.1167 127.406 20.546C127.872 20.966 128.106 21.54 128.106 22.268V27H127.14ZM127.056 23.654L124.886 23.906C124.419 23.962 124.064 24.0927 123.822 24.298C123.579 24.494 123.458 24.7553 123.458 25.082C123.458 25.4087 123.574 25.67 123.808 25.866C124.05 26.062 124.396 26.16 124.844 26.16C125.357 26.16 125.777 26.0573 126.104 25.852C126.43 25.6467 126.668 25.3713 126.818 25.026C126.976 24.6713 127.056 24.2887 127.056 23.878V23.654ZM129.734 20H130.7L130.756 20.994C130.98 20.6487 131.274 20.3827 131.638 20.196C132.002 20 132.427 19.902 132.912 19.902C133.444 19.902 133.911 20.0187 134.312 20.252C134.713 20.476 135.026 20.8167 135.25 21.274C135.474 21.722 135.586 22.2867 135.586 22.968V27H134.536V23.094C134.536 22.366 134.377 21.8153 134.06 21.442C133.752 21.0593 133.304 20.868 132.716 20.868C132.109 20.868 131.633 21.0687 131.288 21.47C130.952 21.8713 130.784 22.464 130.784 23.248V27H129.734V20ZM141.585 27L141.501 25.74C141.305 26.1693 141.015 26.5053 140.633 26.748C140.25 26.9813 139.765 27.098 139.177 27.098C138.673 27.098 138.243 27.0187 137.889 26.86C137.534 26.7013 137.259 26.4773 137.063 26.188C136.876 25.8893 136.783 25.5393 136.783 25.138C136.783 24.55 137.002 24.0693 137.441 23.696C137.879 23.3133 138.514 23.08 139.345 22.996L141.501 22.758V22.198C141.501 21.806 141.356 21.4933 141.067 21.26C140.777 21.0173 140.385 20.896 139.891 20.896C139.405 20.896 138.999 21.008 138.673 21.232C138.355 21.456 138.136 21.778 138.015 22.198L137.063 21.862C137.249 21.246 137.59 20.7653 138.085 20.42C138.589 20.0747 139.2 19.902 139.919 19.902C140.749 19.902 141.393 20.1167 141.851 20.546C142.317 20.966 142.551 21.54 142.551 22.268V27H141.585ZM141.501 23.654L139.331 23.906C138.864 23.962 138.509 24.0927 138.267 24.298C138.024 24.494 137.903 24.7553 137.903 25.082C137.903 25.4087 138.019 25.67 138.253 25.866C138.495 26.062 138.841 26.16 139.289 26.16C139.802 26.16 140.222 26.0573 140.549 25.852C140.875 25.6467 141.113 25.3713 141.263 25.026C141.421 24.6713 141.501 24.2887 141.501 23.878V23.654ZM149.555 20H150.521V25.712C150.521 26.5707 150.33 27.3033 149.947 27.91C149.565 28.526 149.009 28.9927 148.281 29.31C147.553 29.6367 146.667 29.8 145.621 29.8L145.453 28.834C146.769 28.8153 147.768 28.54 148.449 28.008C149.131 27.4853 149.471 26.72 149.471 25.712V25.558L149.583 25.586C149.369 25.9967 149.047 26.3513 148.617 26.65C148.188 26.9393 147.633 27.0887 146.951 27.098C146.307 27.098 145.743 26.9533 145.257 26.664C144.781 26.3653 144.408 25.9453 144.137 25.404C143.876 24.8627 143.745 24.228 143.745 23.5C143.745 22.772 143.876 22.142 144.137 21.61C144.408 21.0687 144.781 20.6487 145.257 20.35C145.743 20.0513 146.307 19.902 146.951 19.902C147.371 19.902 147.745 19.9673 148.071 20.098C148.398 20.2193 148.678 20.3873 148.911 20.602C149.145 20.8073 149.336 21.0407 149.485 21.302L149.555 20ZM144.879 23.5C144.879 24.3027 145.085 24.942 145.495 25.418C145.915 25.8847 146.48 26.118 147.189 26.118C147.619 26.118 148.006 26.0153 148.351 25.81C148.697 25.6047 148.967 25.306 149.163 24.914C149.369 24.522 149.471 24.0507 149.471 23.5C149.471 22.9493 149.369 22.4827 149.163 22.1C148.967 21.708 148.697 21.4093 148.351 21.204C148.006 20.9893 147.619 20.882 147.189 20.882C146.489 20.882 145.929 21.12 145.509 21.596C145.089 22.072 144.879 22.7067 144.879 23.5ZM155.189 27.098C154.536 27.098 153.953 26.9393 153.439 26.622C152.935 26.3047 152.539 25.8707 152.249 25.32C151.96 24.7693 151.815 24.1393 151.815 23.43C151.815 22.7487 151.96 22.142 152.249 21.61C152.539 21.078 152.935 20.6627 153.439 20.364C153.943 20.056 154.517 19.902 155.161 19.902C155.796 19.902 156.361 20.042 156.855 20.322C157.359 20.602 157.751 20.9893 158.031 21.484C158.311 21.9787 158.442 22.5433 158.423 23.178C158.423 23.2807 158.419 23.388 158.409 23.5C158.4 23.612 158.391 23.7333 158.381 23.864H152.963C152.982 24.3027 153.089 24.69 153.285 25.026C153.481 25.362 153.738 25.628 154.055 25.824C154.382 26.0107 154.751 26.104 155.161 26.104C155.703 26.104 156.16 26.0013 156.533 25.796C156.916 25.5907 157.191 25.2967 157.359 24.914L158.269 25.278C157.989 25.866 157.583 26.3187 157.051 26.636C156.519 26.944 155.899 27.098 155.189 27.098ZM157.275 22.954C157.285 22.5527 157.196 22.198 157.009 21.89C156.832 21.582 156.58 21.3393 156.253 21.162C155.927 20.9847 155.549 20.896 155.119 20.896C154.746 20.896 154.405 20.9847 154.097 21.162C153.789 21.3393 153.533 21.5867 153.327 21.904C153.131 22.212 153.015 22.562 152.977 22.954H157.275ZM159.732 20H160.698L160.768 21.008C160.973 20.672 161.248 20.406 161.594 20.21C161.948 20.0047 162.368 19.902 162.854 19.902C163.348 19.902 163.796 20.0233 164.198 20.266C164.608 20.4993 164.926 20.8493 165.15 21.316C165.364 20.84 165.691 20.4853 166.13 20.252C166.568 20.0187 167.054 19.902 167.586 19.902C168.108 19.902 168.57 20.0187 168.972 20.252C169.373 20.476 169.686 20.8167 169.91 21.274C170.134 21.722 170.246 22.2867 170.246 22.968V27H169.196V23.094C169.196 22.366 169.037 21.8153 168.72 21.442C168.412 21.0593 167.968 20.868 167.39 20.868C166.802 20.868 166.335 21.0733 165.99 21.484C165.644 21.8853 165.472 22.4827 165.472 23.276V27H164.422V23.094C164.422 22.366 164.272 21.8153 163.974 21.442C163.675 21.0593 163.236 20.868 162.658 20.868C162.07 20.868 161.608 21.0733 161.272 21.484C160.945 21.8853 160.782 22.4827 160.782 23.276V27H159.732V20ZM174.803 27.098C174.149 27.098 173.566 26.9393 173.053 26.622C172.549 26.3047 172.152 25.8707 171.863 25.32C171.573 24.7693 171.429 24.1393 171.429 23.43C171.429 22.7487 171.573 22.142 171.863 21.61C172.152 21.078 172.549 20.6627 173.053 20.364C173.557 20.056 174.131 19.902 174.775 19.902C175.409 19.902 175.974 20.042 176.469 20.322C176.973 20.602 177.365 20.9893 177.645 21.484C177.925 21.9787 178.055 22.5433 178.037 23.178C178.037 23.2807 178.032 23.388 178.023 23.5C178.013 23.612 178.004 23.7333 177.995 23.864H172.577C172.595 24.3027 172.703 24.69 172.899 25.026C173.095 25.362 173.351 25.628 173.669 25.824C173.995 26.0107 174.364 26.104 174.775 26.104C175.316 26.104 175.773 26.0013 176.147 25.796C176.529 25.5907 176.805 25.2967 176.973 24.914L177.883 25.278C177.603 25.866 177.197 26.3187 176.665 26.636C176.133 26.944 175.512 27.098 174.803 27.098ZM176.889 22.954C176.898 22.5527 176.809 22.198 176.623 21.89C176.445 21.582 176.193 21.3393 175.867 21.162C175.54 20.9847 175.162 20.896 174.733 20.896C174.359 20.896 174.019 20.9847 173.711 21.162C173.403 21.3393 173.146 21.5867 172.941 21.904C172.745 22.212 172.628 22.562 172.591 22.954H176.889ZM179.345 20H180.311L180.367 20.994C180.591 20.6487 180.885 20.3827 181.249 20.196C181.613 20 182.038 19.902 182.523 19.902C183.055 19.902 183.522 20.0187 183.923 20.252C184.324 20.476 184.637 20.8167 184.861 21.274C185.085 21.722 185.197 22.2867 185.197 22.968V27H184.147V23.094C184.147 22.366 183.988 21.8153 183.671 21.442C183.363 21.0593 182.915 20.868 182.327 20.868C181.72 20.868 181.244 21.0687 180.899 21.47C180.563 21.8713 180.395 22.464 180.395 23.248V27H179.345V20ZM187.262 20V18.04H188.312V20H190.174V20.98H188.312V24.746C188.312 25.1753 188.4 25.488 188.578 25.684C188.764 25.88 188.998 25.9967 189.278 26.034C189.567 26.0713 189.866 26.0713 190.174 26.034V26.944C189.81 27.028 189.45 27.0513 189.096 27.014C188.75 26.9767 188.438 26.874 188.158 26.706C187.887 26.5287 187.668 26.2813 187.5 25.964C187.341 25.6467 187.262 25.2407 187.262 24.746V20.98H186.212V20H187.262Z" fill="black"/>
<line x1="93.5" y1="-2.18557e-08" x2="93.5" y2="30" stroke="black"/>
</svg>
